<svg width="400" height="400" viewBox="0 0 400 400" fill="none" xmlns="http://www.w3.org/2000/svg">
<g clip-path="url(#clip0_8889_21834)">
<rect width="400" height="400" rx="20" fill="white"/>
<rect x="24" y="28" width="36" height="36" rx="18" fill="#FFEEE8"/>
<path d="M34.672 46.644C34.672 45.5773 34.8533 44.6333 35.216 43.812C35.5893 42.98 36.112 42.34 36.784 41.892C37.456 41.4333 38.224 41.204 39.088 41.204C39.9413 41.204 40.6987 41.4333 41.36 41.892C42.032 42.34 42.5547 42.98 42.928 43.812C43.3013 44.6333 43.488 45.5773 43.488 46.644V47.156C43.488 48.2653 43.3013 49.2307 42.928 50.052C42.5653 50.8733 42.048 51.5027 41.376 51.94C40.7147 52.3773 39.952 52.596 39.088 52.596C38.2133 52.596 37.44 52.3773 36.768 51.94C36.1067 51.5027 35.5893 50.8733 35.216 50.052C34.8533 49.2307 34.672 48.2653 34.672 47.156V46.644ZM41.712 46.708C41.712 45.4707 41.472 44.5053 40.992 43.812C40.5227 43.108 39.888 42.756 39.088 42.756C38.288 42.756 37.648 43.108 37.168 43.812C36.688 44.5053 36.448 45.4707 36.448 46.708V47.092C36.448 48.3293 36.688 49.3 37.168 50.004C37.648 50.6973 38.288 51.044 39.088 51.044C39.888 51.044 40.5227 50.6973 40.992 50.004C41.472 49.3 41.712 48.3293 41.712 47.092V46.708ZM48.5563 41.3V52.5H46.7963V44.932C46.6363 45.028 46.4016 45.076 46.0923 45.076H44.2523V43.572H46.0123C46.2789 43.572 46.4816 43.476 46.6203 43.284C46.7589 43.092 46.8283 42.8413 46.8283 42.532V41.3H48.5563Z" fill="#001140"/>
<path d="M24.666 95.7C24.666 94.428 24.912 93.312 25.404 92.352C25.908 91.38 26.616 90.63 27.528 90.102C28.452 89.562 29.526 89.292 30.75 89.292C31.698 89.292 32.55 89.472 33.306 89.832C34.074 90.192 34.698 90.708 35.178 91.38C35.658 92.04 35.964 92.808 36.096 93.684H34.026C33.822 92.88 33.426 92.25 32.838 91.794C32.25 91.338 31.524 91.11 30.66 91.11C29.88 91.11 29.196 91.308 28.608 91.704C28.02 92.088 27.57 92.628 27.258 93.324C26.946 94.008 26.79 94.8 26.79 95.7C26.79 96.588 26.946 97.38 27.258 98.076C27.57 98.772 28.02 99.318 28.608 99.714C29.196 100.098 29.88 100.29 30.66 100.29C31.524 100.29 32.244 100.062 32.82 99.606C33.408 99.15 33.804 98.52 34.008 97.716H36.078C35.946 98.604 35.64 99.378 35.16 100.038C34.692 100.698 34.08 101.208 33.324 101.568C32.568 101.928 31.71 102.108 30.75 102.108C29.526 102.108 28.452 101.844 27.528 101.316C26.616 100.788 25.908 100.044 25.404 99.084C24.912 98.112 24.666 96.984 24.666 95.7ZM42.757 92.784V94.602H41.893C41.089 94.602 40.507 94.866 40.147 95.394C39.787 95.91 39.607 96.57 39.607 97.374V102H37.663V92.784H39.391L39.607 94.17C39.871 93.738 40.213 93.402 40.633 93.162C41.053 92.91 41.617 92.784 42.325 92.784H42.757ZM43.2097 97.41C43.2097 96.462 43.3957 95.634 43.7677 94.926C44.1517 94.206 44.6797 93.654 45.3517 93.27C46.0357 92.874 46.8157 92.676 47.6917 92.676C48.5797 92.676 49.3597 92.856 50.0317 93.216C50.7157 93.576 51.2497 94.086 51.6337 94.746C52.0297 95.406 52.2337 96.18 52.2457 97.068C52.2457 97.308 52.2277 97.554 52.1917 97.806H45.2437V97.914C45.2917 98.718 45.5437 99.354 45.9997 99.822C46.4557 100.29 47.0617 100.524 47.8177 100.524C48.4177 100.524 48.9217 100.386 49.3297 100.11C49.7377 99.822 50.0077 99.42 50.1397 98.904H52.0837C51.9157 99.84 51.4597 100.608 50.7157 101.208C49.9837 101.808 49.0657 102.108 47.9617 102.108C47.0017 102.108 46.1617 101.916 45.4417 101.532C44.7337 101.136 44.1817 100.584 43.7857 99.876C43.4017 99.168 43.2097 98.346 43.2097 97.41ZM50.2657 96.384C50.1817 95.712 49.9117 95.19 49.4557 94.818C49.0117 94.434 48.4477 94.242 47.7637 94.242C47.1277 94.242 46.5757 94.44 46.1077 94.836C45.6517 95.22 45.3877 95.736 45.3157 96.384H50.2657ZM62.6373 100.308V102H61.6113C61.0113 102 60.5793 101.874 60.3153 101.622C60.0513 101.37 59.9193 101.004 59.9193 100.524C59.2233 101.58 58.2093 102.108 56.8773 102.108C55.8453 102.108 55.0173 101.868 54.3933 101.388C53.7693 100.908 53.4573 100.248 53.4573 99.408C53.4573 98.46 53.7933 97.734 54.4653 97.23C55.1373 96.714 56.1153 96.456 57.3993 96.456H59.7213V95.898C59.7213 95.382 59.5413 94.98 59.1813 94.692C58.8213 94.392 58.3233 94.242 57.6873 94.242C57.1233 94.242 56.6553 94.368 56.2833 94.62C55.9233 94.86 55.7073 95.184 55.6353 95.592H53.7273C53.8233 94.668 54.2313 93.954 54.9513 93.45C55.6713 92.934 56.6133 92.676 57.7773 92.676C59.0133 92.676 59.9673 92.964 60.6393 93.54C61.3113 94.116 61.6473 94.944 61.6473 96.024V99.66C61.6473 100.092 61.8513 100.308 62.2593 100.308H62.6373ZM59.7213 97.896H57.3093C56.7093 97.896 56.2473 98.016 55.9233 98.256C55.5993 98.484 55.4373 98.826 55.4373 99.282C55.4373 99.678 55.5873 99.996 55.8873 100.236C56.1993 100.476 56.6193 100.596 57.1473 100.596C57.9513 100.596 58.5753 100.38 59.0193 99.948C59.4753 99.516 59.7093 98.94 59.7213 98.22V97.896ZM64.2902 94.494H62.6882V92.784H64.2902V90.21H66.2522V92.784H68.4662V94.494H66.2522V99.3C66.2522 99.66 66.3242 99.918 66.4682 100.074C66.6122 100.218 66.8582 100.29 67.2062 100.29H68.6822V102H66.8102C65.9342 102 65.2922 101.796 64.8842 101.388C64.4882 100.98 64.2902 100.35 64.2902 99.498V94.494ZM69.1901 97.41C69.1901 96.462 69.3761 95.634 69.7481 94.926C70.1321 94.206 70.6601 93.654 71.3321 93.27C72.0161 92.874 72.7961 92.676 73.6721 92.676C74.5601 92.676 75.3401 92.856 76.0121 93.216C76.6961 93.576 77.2301 94.086 77.6141 94.746C78.0101 95.406 78.2141 96.18 78.2261 97.068C78.2261 97.308 78.2081 97.554 78.1721 97.806H71.2241V97.914C71.2721 98.718 71.5241 99.354 71.9801 99.822C72.4361 100.29 73.0421 100.524 73.7981 100.524C74.3981 100.524 74.9021 100.386 75.3101 100.11C75.7181 99.822 75.9881 99.42 76.1201 98.904H78.0641C77.8961 99.84 77.4401 100.608 76.6961 101.208C75.9641 101.808 75.0461 102.108 73.9421 102.108C72.9821 102.108 72.1421 101.916 71.4221 101.532C70.7141 101.136 70.1621 100.584 69.7661 99.876C69.3821 99.168 69.1901 98.346 69.1901 97.41ZM76.2461 96.384C76.1621 95.712 75.8921 95.19 75.4361 94.818C74.9921 94.434 74.4281 94.242 73.7441 94.242C73.1081 94.242 72.5561 94.44 72.0881 94.836C71.6321 95.22 71.3681 95.736 71.2961 96.384H76.2461ZM93.2232 100.308V102H92.1972C91.5972 102 91.1652 101.874 90.9012 101.622C90.6372 101.37 90.5052 101.004 90.5052 100.524C89.8092 101.58 88.7952 102.108 87.4632 102.108C86.4312 102.108 85.6032 101.868 84.9792 101.388C84.3552 100.908 84.0432 100.248 84.0432 99.408C84.0432 98.46 84.3792 97.734 85.0512 97.23C85.7232 96.714 86.7012 96.456 87.9852 96.456H90.3072V95.898C90.3072 95.382 90.1272 94.98 89.7672 94.692C89.4072 94.392 88.9092 94.242 88.2732 94.242C87.7092 94.242 87.2412 94.368 86.8692 94.62C86.5092 94.86 86.2932 95.184 86.2212 95.592H84.3132C84.4092 94.668 84.8172 93.954 85.5372 93.45C86.2572 92.934 87.1992 92.676 88.3632 92.676C89.5992 92.676 90.5532 92.964 91.2252 93.54C91.8972 94.116 92.2332 94.944 92.2332 96.024V99.66C92.2332 100.092 92.4372 100.308 92.8452 100.308H93.2232ZM90.3072 97.896H87.8952C87.2952 97.896 86.8332 98.016 86.5092 98.256C86.1852 98.484 86.0232 98.826 86.0232 99.282C86.0232 99.678 86.1732 99.996 86.4732 100.236C86.7852 100.476 87.2052 100.596 87.7332 100.596C88.5372 100.596 89.1612 100.38 89.6052 99.948C90.0612 99.516 90.2952 98.94 90.3072 98.22V97.896ZM99.1421 92.676C100.234 92.676 101.122 93.012 101.806 93.684C102.502 94.356 102.85 95.436 102.85 96.924V102H100.888V97.032C100.888 96.156 100.702 95.49 100.33 95.034C99.9581 94.578 99.4121 94.35 98.6921 94.35C97.9241 94.35 97.3181 94.62 96.8741 95.16C96.4421 95.688 96.2261 96.42 96.2261 97.356V102H94.2821V92.784H95.9741L96.1901 93.99C96.8861 93.114 97.8701 92.676 99.1421 92.676ZM113.564 89.4V102H111.872L111.638 100.614C110.906 101.61 109.904 102.108 108.632 102.108C107.792 102.108 107.042 101.922 106.382 101.55C105.722 101.166 105.206 100.62 104.834 99.912C104.462 99.192 104.276 98.352 104.276 97.392C104.276 96.456 104.462 95.634 104.834 94.926C105.218 94.206 105.74 93.654 106.4 93.27C107.06 92.874 107.804 92.676 108.632 92.676C109.304 92.676 109.892 92.802 110.396 93.054C110.9 93.294 111.308 93.63 111.62 94.062V89.4H113.564ZM108.956 100.47C109.76 100.47 110.408 100.188 110.9 99.624C111.392 99.06 111.638 98.328 111.638 97.428C111.638 96.504 111.392 95.76 110.9 95.196C110.408 94.62 109.76 94.332 108.956 94.332C108.152 94.332 107.504 94.62 107.012 95.196C106.52 95.76 106.274 96.492 106.274 97.392C106.274 98.304 106.52 99.048 107.012 99.624C107.504 100.188 108.152 100.47 108.956 100.47ZM119.151 92.784H121.239L123.777 99.912L126.279 92.784H128.331L124.929 102H122.553L119.151 92.784ZM128.622 97.41C128.622 96.462 128.808 95.634 129.18 94.926C129.564 94.206 130.092 93.654 130.764 93.27C131.448 92.874 132.228 92.676 133.104 92.676C133.992 92.676 134.772 92.856 135.444 93.216C136.128 93.576 136.662 94.086 137.046 94.746C137.442 95.406 137.646 96.18 137.658 97.068C137.658 97.308 137.64 97.554 137.604 97.806H130.656V97.914C130.704 98.718 130.956 99.354 131.412 99.822C131.868 100.29 132.474 100.524 133.23 100.524C133.83 100.524 134.334 100.386 134.742 100.11C135.15 99.822 135.42 99.42 135.552 98.904H137.496C137.328 99.84 136.872 100.608 136.128 101.208C135.396 101.808 134.478 102.108 133.374 102.108C132.414 102.108 131.574 101.916 130.854 101.532C130.146 101.136 129.594 100.584 129.198 99.876C128.814 99.168 128.622 98.346 128.622 97.41ZM135.678 96.384C135.594 95.712 135.324 95.19 134.868 94.818C134.424 94.434 133.86 94.242 133.176 94.242C132.54 94.242 131.988 94.44 131.52 94.836C131.064 95.22 130.8 95.736 130.728 96.384H135.678ZM144.323 92.784V94.602H143.459C142.655 94.602 142.073 94.866 141.713 95.394C141.353 95.91 141.173 96.57 141.173 97.374V102H139.229V92.784H140.957L141.173 94.17C141.437 93.738 141.779 93.402 142.199 93.162C142.619 92.91 143.183 92.784 143.891 92.784H144.323ZM146.53 89.094C146.866 89.094 147.148 89.208 147.376 89.436C147.604 89.652 147.718 89.928 147.718 90.264C147.718 90.6 147.604 90.882 147.376 91.11C147.148 91.326 146.866 91.434 146.53 91.434C146.194 91.434 145.912 91.326 145.684 91.11C145.456 90.882 145.342 90.6 145.342 90.264C145.342 89.928 145.456 89.652 145.684 89.436C145.912 89.208 146.194 89.094 146.53 89.094ZM145.558 92.784H147.502V102H145.558V92.784ZM150.001 92.784V91.866C150.001 91.05 150.211 90.438 150.631 90.03C151.051 89.61 151.699 89.4 152.575 89.4H154.447V91.11H152.845C152.533 91.11 152.305 91.182 152.161 91.326C152.029 91.47 151.963 91.698 151.963 92.01V92.784H154.429V94.494H151.963V102H150.001V94.494H148.399V92.784H150.001ZM156.694 92.784L159.268 99.894L161.77 92.784H163.84L159.664 103.44C159.448 103.992 159.25 104.412 159.07 104.7C158.89 105 158.668 105.222 158.404 105.366C158.14 105.522 157.786 105.6 157.342 105.6H155.254V103.89H156.622C156.994 103.89 157.252 103.83 157.396 103.71C157.54 103.602 157.69 103.35 157.846 102.954L158.224 102.072L154.624 92.784H156.694ZM170.581 92.784L173.155 99.894L175.657 92.784H177.727L173.551 103.44C173.335 103.992 173.137 104.412 172.957 104.7C172.777 105 172.555 105.222 172.291 105.366C172.027 105.522 171.673 105.6 171.229 105.6H169.141V103.89H170.509C170.881 103.89 171.139 103.83 171.283 103.71C171.427 103.602 171.577 103.35 171.733 102.954L172.111 102.072L168.511 92.784H170.581ZM182.714 102.108C181.79 102.108 180.968 101.916 180.248 101.532C179.54 101.136 178.988 100.584 178.592 99.876C178.208 99.156 178.016 98.328 178.016 97.392C178.016 96.468 178.208 95.652 178.592 94.944C178.988 94.224 179.54 93.666 180.248 93.27C180.968 92.874 181.79 92.676 182.714 92.676C183.638 92.676 184.454 92.874 185.162 93.27C185.882 93.666 186.434 94.224 186.818 94.944C187.214 95.652 187.412 96.468 187.412 97.392C187.412 98.328 187.214 99.156 186.818 99.876C186.434 100.584 185.882 101.136 185.162 101.532C184.454 101.916 183.638 102.108 182.714 102.108ZM182.714 100.452C183.53 100.452 184.184 100.17 184.676 99.606C185.18 99.03 185.432 98.292 185.432 97.392C185.432 96.492 185.18 95.76 184.676 95.196C184.184 94.62 183.53 94.332 182.714 94.332C181.898 94.332 181.244 94.62 180.752 95.196C180.26 95.76 180.014 96.492 180.014 97.392C180.014 98.292 180.26 99.03 180.752 99.606C181.244 100.17 181.898 100.452 182.714 100.452ZM197.237 92.784V102H195.527L195.311 100.83C194.615 101.682 193.667 102.108 192.467 102.108C191.387 102.108 190.511 101.772 189.839 101.1C189.167 100.428 188.831 99.348 188.831 97.86V92.784H190.775V97.662C190.775 98.562 190.955 99.246 191.315 99.714C191.675 100.182 192.209 100.416 192.917 100.416C193.661 100.416 194.243 100.146 194.663 99.606C195.083 99.054 195.293 98.304 195.293 97.356V92.784H197.237ZM204.247 92.784V94.602H203.383C202.579 94.602 201.997 94.866 201.637 95.394C201.277 95.91 201.097 96.57 201.097 97.374V102H199.153V92.784H200.881L201.097 94.17C201.361 93.738 201.703 93.402 202.123 93.162C202.543 92.91 203.107 92.784 203.815 92.784H204.247ZM218.907 100.308V102H217.881C217.281 102 216.849 101.874 216.585 101.622C216.321 101.37 216.189 101.004 216.189 100.524C215.493 101.58 214.479 102.108 213.147 102.108C212.115 102.108 211.287 101.868 210.663 101.388C210.039 100.908 209.727 100.248 209.727 99.408C209.727 98.46 210.063 97.734 210.735 97.23C211.407 96.714 212.385 96.456 213.669 96.456H215.991V95.898C215.991 95.382 215.811 94.98 215.451 94.692C215.091 94.392 214.593 94.242 213.957 94.242C213.393 94.242 212.925 94.368 212.553 94.62C212.193 94.86 211.977 95.184 211.905 95.592H209.997C210.093 94.668 210.501 93.954 211.221 93.45C211.941 92.934 212.883 92.676 214.047 92.676C215.283 92.676 216.237 92.964 216.909 93.54C217.581 94.116 217.917 94.944 217.917 96.024V99.66C217.917 100.092 218.121 100.308 218.529 100.308H218.907ZM215.991 97.896H213.579C212.979 97.896 212.517 98.016 212.193 98.256C211.869 98.484 211.707 98.826 211.707 99.282C211.707 99.678 211.857 99.996 212.157 100.236C212.469 100.476 212.889 100.596 213.417 100.596C214.221 100.596 214.845 100.38 215.289 99.948C215.745 99.516 215.979 98.94 215.991 98.22V97.896ZM228.462 98.688C228.282 99.756 227.82 100.596 227.076 101.208C226.332 101.808 225.378 102.108 224.214 102.108C223.302 102.108 222.498 101.916 221.802 101.532C221.106 101.136 220.566 100.578 220.182 99.858C219.81 99.138 219.624 98.31 219.624 97.374C219.624 96.438 219.816 95.616 220.2 94.908C220.584 94.2 221.124 93.654 221.82 93.27C222.528 92.874 223.344 92.676 224.268 92.676C225.42 92.676 226.362 92.982 227.094 93.594C227.826 94.194 228.282 95.016 228.462 96.06H226.464C226.332 95.532 226.068 95.112 225.672 94.8C225.276 94.488 224.79 94.332 224.214 94.332C223.434 94.332 222.804 94.614 222.324 95.178C221.856 95.742 221.622 96.474 221.622 97.374C221.622 98.286 221.856 99.03 222.324 99.606C222.804 100.17 223.434 100.452 224.214 100.452C224.814 100.452 225.312 100.296 225.708 99.984C226.104 99.66 226.362 99.228 226.482 98.688H228.462ZM238.358 98.688C238.178 99.756 237.716 100.596 236.972 101.208C236.228 101.808 235.274 102.108 234.11 102.108C233.198 102.108 232.394 101.916 231.698 101.532C231.002 101.136 230.462 100.578 230.078 99.858C229.706 99.138 229.52 98.31 229.52 97.374C229.52 96.438 229.712 95.616 230.096 94.908C230.48 94.2 231.02 93.654 231.716 93.27C232.424 92.874 233.24 92.676 234.164 92.676C235.316 92.676 236.258 92.982 236.99 93.594C237.722 94.194 238.178 95.016 238.358 96.06H236.36C236.228 95.532 235.964 95.112 235.568 94.8C235.172 94.488 234.686 94.332 234.11 94.332C233.33 94.332 232.7 94.614 232.22 95.178C231.752 95.742 231.518 96.474 231.518 97.374C231.518 98.286 231.752 99.03 232.22 99.606C232.7 100.17 233.33 100.452 234.11 100.452C234.71 100.452 235.208 100.296 235.604 99.984C236 99.66 236.258 99.228 236.378 98.688H238.358ZM244.115 102.108C243.191 102.108 242.369 101.916 241.649 101.532C240.941 101.136 240.389 100.584 239.993 99.876C239.609 99.156 239.417 98.328 239.417 97.392C239.417 96.468 239.609 95.652 239.993 94.944C240.389 94.224 240.941 93.666 241.649 93.27C242.369 92.874 243.191 92.676 244.115 92.676C245.039 92.676 245.855 92.874 246.563 93.27C247.283 93.666 247.835 94.224 248.219 94.944C248.615 95.652 248.813 96.468 248.813 97.392C248.813 98.328 248.615 99.156 248.219 99.876C247.835 100.584 247.283 101.136 246.563 101.532C245.855 101.916 245.039 102.108 244.115 102.108ZM244.115 100.452C244.931 100.452 245.585 100.17 246.077 99.606C246.581 99.03 246.833 98.292 246.833 97.392C246.833 96.492 246.581 95.76 246.077 95.196C245.585 94.62 244.931 94.332 244.115 94.332C243.299 94.332 242.645 94.62 242.153 95.196C241.661 95.76 241.415 96.492 241.415 97.392C241.415 98.292 241.661 99.03 242.153 99.606C242.645 100.17 243.299 100.452 244.115 100.452ZM258.638 92.784V102H256.928L256.712 100.83C256.016 101.682 255.068 102.108 253.868 102.108C252.788 102.108 251.912 101.772 251.24 101.1C250.568 100.428 250.232 99.348 250.232 97.86V92.784H252.176V97.662C252.176 98.562 252.356 99.246 252.716 99.714C253.076 100.182 253.61 100.416 254.318 100.416C255.062 100.416 255.644 100.146 256.064 99.606C256.484 99.054 256.694 98.304 256.694 97.356V92.784H258.638ZM265.414 92.676C266.506 92.676 267.394 93.012 268.078 93.684C268.774 94.356 269.122 95.436 269.122 96.924V102H267.16V97.032C267.16 96.156 266.974 95.49 266.602 95.034C266.23 94.578 265.684 94.35 264.964 94.35C264.196 94.35 263.59 94.62 263.146 95.16C262.714 95.688 262.498 96.42 262.498 97.356V102H260.554V92.784H262.246L262.462 93.99C263.158 93.114 264.142 92.676 265.414 92.676ZM271.484 94.494H269.882V92.784H271.484V90.21H273.446V92.784H275.66V94.494H273.446V99.3C273.446 99.66 273.518 99.918 273.662 100.074C273.806 100.218 274.052 100.29 274.4 100.29H275.876V102H274.004C273.128 102 272.486 101.796 272.078 101.388C271.682 100.98 271.484 100.35 271.484 99.498V94.494Z" fill="#001140"/>
<path d="M25.792 128.794C25.8387 129.457 26.1047 129.989 26.59 130.39C27.0753 130.782 27.6913 130.978 28.438 130.978C29.11 130.978 29.6513 130.833 30.062 130.544C30.482 130.245 30.692 129.835 30.692 129.312C30.692 128.929 30.5753 128.626 30.342 128.402C30.118 128.178 29.824 128.015 29.46 127.912C29.1053 127.8 28.62 127.693 28.004 127.59C27.024 127.422 26.2447 127.147 25.666 126.764C25.0873 126.381 24.798 125.761 24.798 124.902C24.798 124.351 24.938 123.866 25.218 123.446C25.498 123.017 25.89 122.685 26.394 122.452C26.9073 122.219 27.4907 122.102 28.144 122.102C28.8347 122.102 29.446 122.228 29.978 122.48C30.51 122.732 30.93 123.087 31.238 123.544C31.546 123.992 31.7187 124.51 31.756 125.098H30.552C30.4773 124.529 30.2207 124.071 29.782 123.726C29.3433 123.381 28.7973 123.208 28.144 123.208C27.4907 123.208 26.9727 123.353 26.59 123.642C26.2073 123.922 26.016 124.319 26.016 124.832C26.016 125.205 26.128 125.499 26.352 125.714C26.576 125.919 26.8653 126.078 27.22 126.19C27.5747 126.293 28.06 126.395 28.676 126.498C29.656 126.666 30.44 126.946 31.028 127.338C31.616 127.721 31.91 128.341 31.91 129.2C31.91 129.76 31.7607 130.259 31.462 130.698C31.1727 131.137 30.762 131.477 30.23 131.72C29.7073 131.963 29.1053 132.084 28.424 132.084C27.6587 132.084 26.9913 131.949 26.422 131.678C25.8527 131.398 25.4093 131.011 25.092 130.516C24.784 130.012 24.616 129.438 24.588 128.794H25.792ZM33.8619 122.102C34.0766 122.102 34.2539 122.172 34.3939 122.312C34.5339 122.452 34.6039 122.629 34.6039 122.844C34.6039 123.059 34.5339 123.236 34.3939 123.376C34.2539 123.516 34.0766 123.586 33.8619 123.586C33.6472 123.586 33.4699 123.516 33.3299 123.376C33.1899 123.236 33.1199 123.059 33.1199 122.844C33.1199 122.629 33.1899 122.452 33.3299 122.312C33.4699 122.172 33.6472 122.102 33.8619 122.102ZM33.2879 124.86H34.4359V132H33.2879V124.86ZM42.7846 124.86V131.65C42.7846 133.806 41.6039 134.884 39.2426 134.884C38.3186 134.884 37.5626 134.674 36.9746 134.254C36.3959 133.834 36.0599 133.237 35.9666 132.462H37.1426C37.2359 132.91 37.4739 133.255 37.8566 133.498C38.2393 133.741 38.7293 133.862 39.3266 133.862C40.8666 133.862 41.6366 133.111 41.6366 131.608V130.768C41.1233 131.645 40.3066 132.084 39.1866 132.084C38.5239 132.084 37.9313 131.939 37.4086 131.65C36.8953 131.361 36.4893 130.941 36.1906 130.39C35.9013 129.839 35.7566 129.186 35.7566 128.43C35.7566 127.711 35.9013 127.077 36.1906 126.526C36.4893 125.975 36.8999 125.546 37.4226 125.238C37.9453 124.93 38.5333 124.776 39.1866 124.776C39.7653 124.776 40.2599 124.893 40.6706 125.126C41.0813 125.35 41.4033 125.672 41.6366 126.092L41.7906 124.86H42.7846ZM39.2986 131.062C39.7559 131.062 40.1619 130.955 40.5166 130.74C40.8806 130.516 41.1606 130.208 41.3566 129.816C41.5526 129.415 41.6506 128.962 41.6506 128.458C41.6506 127.945 41.5526 127.487 41.3566 127.086C41.1606 126.675 40.8806 126.358 40.5166 126.134C40.1619 125.91 39.7559 125.798 39.2986 125.798C38.5893 125.798 38.0153 126.045 37.5766 126.54C37.1473 127.025 36.9326 127.655 36.9326 128.43C36.9326 129.205 37.1473 129.839 37.5766 130.334C38.0153 130.819 38.5893 131.062 39.2986 131.062ZM47.8485 124.776C48.7165 124.776 49.4118 125.037 49.9345 125.56C50.4665 126.083 50.7325 126.904 50.7325 128.024V132H49.5845V128.094C49.5845 127.357 49.4165 126.797 49.0805 126.414C48.7538 126.022 48.2778 125.826 47.6525 125.826C46.9805 125.826 46.4531 126.059 46.0705 126.526C45.6878 126.993 45.4965 127.627 45.4965 128.43V132H44.3485V124.86H45.3425L45.4965 125.826C46.0378 125.126 46.8218 124.776 47.8485 124.776ZM62.0062 124.86V132H61.0122L60.8582 131.048C60.3168 131.739 59.5562 132.084 58.5762 132.084C57.7268 132.084 57.0455 131.823 56.5322 131.3C56.0188 130.777 55.7622 129.956 55.7622 128.836V124.86H56.9102V128.766C56.9102 129.503 57.0688 130.068 57.3862 130.46C57.7128 130.843 58.1748 131.034 58.7722 131.034C59.4255 131.034 59.9342 130.801 60.2982 130.334C60.6715 129.867 60.8582 129.233 60.8582 128.43V124.86H62.0062ZM67.1691 124.776C67.8318 124.776 68.4198 124.921 68.9331 125.21C69.4558 125.499 69.8618 125.919 70.1511 126.47C70.4498 127.021 70.5991 127.674 70.5991 128.43C70.5991 129.149 70.4498 129.783 70.1511 130.334C69.8618 130.885 69.4558 131.314 68.9331 131.622C68.4104 131.93 67.8224 132.084 67.1691 132.084C66.5904 132.084 66.0958 131.981 65.6851 131.776C65.2744 131.561 64.9524 131.272 64.7191 130.908V134.8H63.5711V124.86H64.5651L64.7191 126.008C65.3164 125.187 66.1331 124.776 67.1691 124.776ZM67.0571 131.062C67.7664 131.062 68.3358 130.819 68.7651 130.334C69.2038 129.839 69.4231 129.205 69.4231 128.43C69.4231 127.655 69.2038 127.025 68.7651 126.54C68.3358 126.045 67.7664 125.798 67.0571 125.798C66.5998 125.798 66.1891 125.91 65.8251 126.134C65.4704 126.349 65.1951 126.657 64.9991 127.058C64.8031 127.45 64.7051 127.898 64.7051 128.402C64.7051 128.915 64.8031 129.377 64.9991 129.788C65.1951 130.189 65.4704 130.502 65.8251 130.726C66.1891 130.95 66.5998 131.062 67.0571 131.062ZM74.903 124.86H76.107L77.885 130.67L79.761 124.86H80.825L82.603 130.67L84.465 124.86H85.627L83.247 132H81.987L80.265 126.694L78.473 132L77.213 132.014L74.903 124.86ZM87.1002 122.102C87.3149 122.102 87.4922 122.172 87.6322 122.312C87.7722 122.452 87.8422 122.629 87.8422 122.844C87.8422 123.059 87.7722 123.236 87.6322 123.376C87.4922 123.516 87.3149 123.586 87.1002 123.586C86.8855 123.586 86.7082 123.516 86.5682 123.376C86.4282 123.236 86.3582 123.059 86.3582 122.844C86.3582 122.629 86.4282 122.452 86.5682 122.312C86.7082 122.172 86.8855 122.102 87.1002 122.102ZM86.5262 124.86H87.6742V132H86.5262V124.86ZM89.7229 125.91H88.4349V124.86H89.7229V122.858H90.8709V124.86H92.6769V125.91H90.8709V130.124C90.8709 130.423 90.9269 130.637 91.0389 130.768C91.1602 130.889 91.3656 130.95 91.6549 130.95H92.9009V132H91.5849C90.9129 132 90.4322 131.851 90.1429 131.552C89.8629 131.253 89.7229 130.782 89.7229 130.138V125.91ZM97.2176 124.776C98.0856 124.776 98.7856 125.037 99.3176 125.56C99.8496 126.083 100.116 126.904 100.116 128.024V132H98.9676V128.094C98.9676 127.357 98.7996 126.797 98.4636 126.414C98.1276 126.022 97.6469 125.826 97.0216 125.826C96.3589 125.826 95.8316 126.059 95.4396 126.526C95.0569 126.993 94.8656 127.627 94.8656 128.43V132H93.7176V122.2H94.8656V126.036C95.0989 125.663 95.4069 125.359 95.7896 125.126C96.1816 124.893 96.6576 124.776 97.2176 124.776ZM105.747 124.86L107.945 130.684L110.073 124.86H111.291L108.001 133.204C107.833 133.633 107.684 133.955 107.553 134.17C107.422 134.385 107.259 134.543 107.063 134.646C106.867 134.749 106.606 134.8 106.279 134.8H104.907V133.75H105.929C106.153 133.75 106.321 133.727 106.433 133.68C106.545 133.633 106.634 133.554 106.699 133.442C106.774 133.339 106.862 133.162 106.965 132.91L107.329 132.056L104.529 124.86H105.747ZM115.164 132.084C114.473 132.084 113.857 131.93 113.316 131.622C112.784 131.314 112.369 130.885 112.07 130.334C111.771 129.783 111.622 129.149 111.622 128.43C111.622 127.711 111.771 127.077 112.07 126.526C112.369 125.975 112.784 125.546 113.316 125.238C113.857 124.93 114.473 124.776 115.164 124.776C115.855 124.776 116.466 124.93 116.998 125.238C117.539 125.546 117.959 125.975 118.258 126.526C118.557 127.077 118.706 127.711 118.706 128.43C118.706 129.149 118.557 129.783 118.258 130.334C117.959 130.885 117.539 131.314 116.998 131.622C116.466 131.93 115.855 132.084 115.164 132.084ZM115.164 131.062C115.631 131.062 116.041 130.95 116.396 130.726C116.76 130.502 117.04 130.189 117.236 129.788C117.432 129.387 117.53 128.934 117.53 128.43C117.53 127.926 117.432 127.473 117.236 127.072C117.04 126.671 116.76 126.358 116.396 126.134C116.041 125.91 115.631 125.798 115.164 125.798C114.697 125.798 114.282 125.91 113.918 126.134C113.563 126.358 113.288 126.671 113.092 127.072C112.896 127.473 112.798 127.926 112.798 128.43C112.798 128.934 112.896 129.387 113.092 129.788C113.288 130.189 113.563 130.502 113.918 130.726C114.282 130.95 114.697 131.062 115.164 131.062ZM126.168 124.86V132H125.174L125.02 131.048C124.479 131.739 123.718 132.084 122.738 132.084C121.889 132.084 121.208 131.823 120.694 131.3C120.181 130.777 119.924 129.956 119.924 128.836V124.86H121.072V128.766C121.072 129.503 121.231 130.068 121.548 130.46C121.875 130.843 122.337 131.034 122.934 131.034C123.588 131.034 124.096 130.801 124.46 130.334C124.834 129.867 125.02 129.233 125.02 128.43V124.86H126.168ZM131.359 124.86V125.98H130.785C130.104 125.98 129.614 126.209 129.315 126.666C129.026 127.123 128.881 127.688 128.881 128.36V132H127.733V124.86H128.727L128.881 125.938C129.087 125.611 129.353 125.35 129.679 125.154C130.006 124.958 130.459 124.86 131.037 124.86H131.359ZM142.849 122.2V132H141.855L141.701 130.852C141.104 131.673 140.287 132.084 139.251 132.084C138.588 132.084 137.996 131.939 137.473 131.65C136.96 131.361 136.554 130.941 136.255 130.39C135.966 129.839 135.821 129.186 135.821 128.43C135.821 127.711 135.966 127.077 136.255 126.526C136.554 125.975 136.964 125.546 137.487 125.238C138.01 124.93 138.598 124.776 139.251 124.776C139.83 124.776 140.324 124.883 140.735 125.098C141.146 125.303 141.468 125.588 141.701 125.952V122.2H142.849ZM139.363 131.062C139.82 131.062 140.226 130.955 140.581 130.74C140.945 130.516 141.225 130.208 141.421 129.816C141.617 129.415 141.715 128.962 141.715 128.458C141.715 127.945 141.617 127.487 141.421 127.086C141.225 126.675 140.945 126.358 140.581 126.134C140.226 125.91 139.82 125.798 139.363 125.798C138.654 125.798 138.08 126.045 137.641 126.54C137.212 127.025 136.997 127.655 136.997 128.43C136.997 129.205 137.212 129.839 137.641 130.334C138.08 130.819 138.654 131.062 139.363 131.062ZM144.161 128.43C144.161 127.702 144.301 127.063 144.581 126.512C144.87 125.961 145.272 125.537 145.785 125.238C146.298 124.93 146.886 124.776 147.549 124.776C148.202 124.776 148.781 124.911 149.285 125.182C149.789 125.453 150.186 125.845 150.475 126.358C150.764 126.871 150.918 127.473 150.937 128.164C150.937 128.267 150.928 128.43 150.909 128.654H145.365V128.752C145.384 129.452 145.598 130.012 146.009 130.432C146.42 130.852 146.956 131.062 147.619 131.062C148.132 131.062 148.566 130.936 148.921 130.684C149.285 130.423 149.528 130.063 149.649 129.606H150.811C150.671 130.334 150.321 130.931 149.761 131.398C149.201 131.855 148.515 132.084 147.703 132.084C146.994 132.084 146.373 131.935 145.841 131.636C145.309 131.328 144.894 130.899 144.595 130.348C144.306 129.788 144.161 129.149 144.161 128.43ZM149.747 127.702C149.691 127.095 149.462 126.624 149.061 126.288C148.669 125.952 148.17 125.784 147.563 125.784C147.022 125.784 146.546 125.961 146.135 126.316C145.724 126.671 145.491 127.133 145.435 127.702H149.747ZM152.641 125.91H151.353V124.86H152.641V122.858H153.789V124.86H155.595V125.91H153.789V130.124C153.789 130.423 153.845 130.637 153.957 130.768C154.078 130.889 154.284 130.95 154.573 130.95H155.819V132H154.503C153.831 132 153.35 131.851 153.061 131.552C152.781 131.253 152.641 130.782 152.641 130.138V125.91ZM163.204 130.95V132H162.574C162.117 132 161.79 131.907 161.594 131.72C161.398 131.533 161.296 131.258 161.286 130.894C160.736 131.687 159.938 132.084 158.892 132.084C158.099 132.084 157.46 131.897 156.974 131.524C156.498 131.151 156.26 130.642 156.26 129.998C156.26 129.279 156.503 128.729 156.988 128.346C157.483 127.963 158.197 127.772 159.13 127.772H161.23V127.282C161.23 126.815 161.072 126.451 160.754 126.19C160.446 125.929 160.012 125.798 159.452 125.798C158.958 125.798 158.547 125.91 158.22 126.134C157.903 126.349 157.707 126.638 157.632 127.002H156.484C156.568 126.302 156.876 125.756 157.408 125.364C157.95 124.972 158.65 124.776 159.508 124.776C160.423 124.776 161.128 125 161.622 125.448C162.126 125.887 162.378 126.521 162.378 127.352V130.432C162.378 130.777 162.537 130.95 162.854 130.95H163.204ZM161.23 128.738H159.018C157.954 128.738 157.422 129.135 157.422 129.928C157.422 130.283 157.562 130.567 157.842 130.782C158.122 130.997 158.5 131.104 158.976 131.104C159.676 131.104 160.227 130.922 160.628 130.558C161.03 130.185 161.23 129.695 161.23 129.088V128.738ZM164.661 122.102C164.875 122.102 165.053 122.172 165.193 122.312C165.333 122.452 165.403 122.629 165.403 122.844C165.403 123.059 165.333 123.236 165.193 123.376C165.053 123.516 164.875 123.586 164.661 123.586C164.446 123.586 164.269 123.516 164.129 123.376C163.989 123.236 163.919 123.059 163.919 122.844C163.919 122.629 163.989 122.452 164.129 122.312C164.269 122.172 164.446 122.102 164.661 122.102ZM164.087 124.86H165.235V132H164.087V124.86ZM166.807 122.2H167.955V132H166.807V122.2ZM170.424 129.648C170.443 130.077 170.629 130.427 170.984 130.698C171.348 130.969 171.815 131.104 172.384 131.104C172.888 131.104 173.294 131.006 173.602 130.81C173.919 130.605 174.078 130.339 174.078 130.012C174.078 129.732 174.003 129.517 173.854 129.368C173.705 129.219 173.509 129.116 173.266 129.06C173.033 129.004 172.697 128.948 172.258 128.892C171.642 128.817 171.138 128.719 170.746 128.598C170.354 128.477 170.037 128.285 169.794 128.024C169.551 127.753 169.43 127.385 169.43 126.918C169.43 126.498 169.547 126.125 169.78 125.798C170.023 125.471 170.349 125.219 170.76 125.042C171.171 124.855 171.633 124.762 172.146 124.762C172.986 124.762 173.667 124.958 174.19 125.35C174.722 125.742 175.016 126.302 175.072 127.03H173.924C173.877 126.657 173.695 126.349 173.378 126.106C173.061 125.863 172.664 125.742 172.188 125.742C171.703 125.742 171.311 125.845 171.012 126.05C170.713 126.246 170.564 126.507 170.564 126.834C170.564 127.077 170.634 127.263 170.774 127.394C170.914 127.525 171.091 127.613 171.306 127.66C171.53 127.707 171.866 127.758 172.314 127.814C172.939 127.889 173.453 127.991 173.854 128.122C174.265 128.253 174.591 128.463 174.834 128.752C175.086 129.041 175.212 129.433 175.212 129.928C175.212 130.357 175.086 130.735 174.834 131.062C174.582 131.389 174.241 131.641 173.812 131.818C173.383 131.995 172.907 132.084 172.384 132.084C171.451 132.084 170.699 131.869 170.13 131.44C169.57 131.011 169.285 130.413 169.276 129.648H170.424ZM186.857 130.95V132H186.227C185.769 132 185.443 131.907 185.247 131.72C185.051 131.533 184.948 131.258 184.939 130.894C184.388 131.687 183.59 132.084 182.545 132.084C181.751 132.084 181.112 131.897 180.627 131.524C180.151 131.151 179.913 130.642 179.913 129.998C179.913 129.279 180.155 128.729 180.641 128.346C181.135 127.963 181.849 127.772 182.783 127.772H184.883V127.282C184.883 126.815 184.724 126.451 184.407 126.19C184.099 125.929 183.665 125.798 183.105 125.798C182.61 125.798 182.199 125.91 181.873 126.134C181.555 126.349 181.359 126.638 181.285 127.002H180.137C180.221 126.302 180.529 125.756 181.061 125.364C181.602 124.972 182.302 124.776 183.161 124.776C184.075 124.776 184.78 125 185.275 125.448C185.779 125.887 186.031 126.521 186.031 127.352V130.432C186.031 130.777 186.189 130.95 186.507 130.95H186.857ZM184.883 128.738H182.671C181.607 128.738 181.075 129.135 181.075 129.928C181.075 130.283 181.215 130.567 181.495 130.782C181.775 130.997 182.153 131.104 182.629 131.104C183.329 131.104 183.879 130.922 184.281 130.558C184.682 130.185 184.883 129.695 184.883 129.088V128.738ZM191.239 124.776C192.107 124.776 192.802 125.037 193.325 125.56C193.857 126.083 194.123 126.904 194.123 128.024V132H192.975V128.094C192.975 127.357 192.807 126.797 192.471 126.414C192.144 126.022 191.668 125.826 191.043 125.826C190.371 125.826 189.844 126.059 189.461 126.526C189.078 126.993 188.887 127.627 188.887 128.43V132H187.739V124.86H188.733L188.887 125.826C189.428 125.126 190.212 124.776 191.239 124.776ZM202.363 122.2V132H201.369L201.215 130.852C200.617 131.673 199.801 132.084 198.765 132.084C198.102 132.084 197.509 131.939 196.987 131.65C196.473 131.361 196.067 130.941 195.769 130.39C195.479 129.839 195.335 129.186 195.335 128.43C195.335 127.711 195.479 127.077 195.769 126.526C196.067 125.975 196.478 125.546 197.001 125.238C197.523 124.93 198.111 124.776 198.765 124.776C199.343 124.776 199.838 124.883 200.249 125.098C200.659 125.303 200.981 125.588 201.215 125.952V122.2H202.363ZM198.877 131.062C199.334 131.062 199.74 130.955 200.095 130.74C200.459 130.516 200.739 130.208 200.935 129.816C201.131 129.415 201.229 128.962 201.229 128.458C201.229 127.945 201.131 127.487 200.935 127.086C200.739 126.675 200.459 126.358 200.095 126.134C199.74 125.91 199.334 125.798 198.877 125.798C198.167 125.798 197.593 126.045 197.155 126.54C196.725 127.025 196.511 127.655 196.511 128.43C196.511 129.205 196.725 129.839 197.155 130.334C197.593 130.819 198.167 131.062 198.877 131.062ZM206.877 124.86H208.109L210.265 130.698L212.407 124.86H213.611L210.937 132H209.551L206.877 124.86ZM213.942 128.43C213.942 127.702 214.082 127.063 214.362 126.512C214.651 125.961 215.053 125.537 215.566 125.238C216.079 124.93 216.667 124.776 217.33 124.776C217.983 124.776 218.562 124.911 219.066 125.182C219.57 125.453 219.967 125.845 220.256 126.358C220.545 126.871 220.699 127.473 220.718 128.164C220.718 128.267 220.709 128.43 220.69 128.654H215.146V128.752C215.165 129.452 215.379 130.012 215.79 130.432C216.201 130.852 216.737 131.062 217.4 131.062C217.913 131.062 218.347 130.936 218.702 130.684C219.066 130.423 219.309 130.063 219.43 129.606H220.592C220.452 130.334 220.102 130.931 219.542 131.398C218.982 131.855 218.296 132.084 217.484 132.084C216.775 132.084 216.154 131.935 215.622 131.636C215.09 131.328 214.675 130.899 214.376 130.348C214.087 129.788 213.942 129.149 213.942 128.43ZM219.528 127.702C219.472 127.095 219.243 126.624 218.842 126.288C218.45 125.952 217.951 125.784 217.344 125.784C216.803 125.784 216.327 125.961 215.916 126.316C215.505 126.671 215.272 127.133 215.216 127.702H219.528ZM225.654 124.86V125.98H225.08C224.399 125.98 223.909 126.209 223.61 126.666C223.321 127.123 223.176 127.688 223.176 128.36V132H222.028V124.86H223.022L223.176 125.938C223.381 125.611 223.647 125.35 223.974 125.154C224.301 124.958 224.753 124.86 225.332 124.86H225.654ZM227.278 122.102C227.493 122.102 227.67 122.172 227.81 122.312C227.95 122.452 228.02 122.629 228.02 122.844C228.02 123.059 227.95 123.236 227.81 123.376C227.67 123.516 227.493 123.586 227.278 123.586C227.063 123.586 226.886 123.516 226.746 123.376C226.606 123.236 226.536 123.059 226.536 122.844C226.536 122.629 226.606 122.452 226.746 122.312C226.886 122.172 227.063 122.102 227.278 122.102ZM226.704 124.86H227.852V132H226.704V124.86ZM229.901 124.86V124.062C229.901 123.427 230.045 122.961 230.335 122.662C230.633 122.354 231.109 122.2 231.763 122.2H233.079V123.25H231.833C231.553 123.25 231.352 123.311 231.231 123.432C231.109 123.553 231.049 123.754 231.049 124.034V124.86H233.065V125.91H231.049V132H229.901V125.91H228.613V124.86H229.901ZM234.44 124.86L236.638 130.684L238.766 124.86H239.984L236.694 133.204C236.526 133.633 236.377 133.955 236.246 134.17C236.116 134.385 235.952 134.543 235.756 134.646C235.56 134.749 235.299 134.8 234.972 134.8H233.6V133.75H234.622C234.846 133.75 235.014 133.727 235.126 133.68C235.238 133.633 235.327 133.554 235.392 133.442C235.467 133.339 235.556 133.162 235.658 132.91L236.022 132.056L233.222 124.86H234.44ZM245.009 124.86L247.207 130.684L249.335 124.86H250.553L247.263 133.204C247.095 133.633 246.945 133.955 246.815 134.17C246.684 134.385 246.521 134.543 246.325 134.646C246.129 134.749 245.867 134.8 245.541 134.8H244.169V133.75H245.191C245.415 133.75 245.583 133.727 245.695 133.68C245.807 133.633 245.895 133.554 245.961 133.442C246.035 133.339 246.124 133.162 246.227 132.91L246.591 132.056L243.791 124.86H245.009ZM254.426 132.084C253.735 132.084 253.119 131.93 252.578 131.622C252.046 131.314 251.63 130.885 251.332 130.334C251.033 129.783 250.884 129.149 250.884 128.43C250.884 127.711 251.033 127.077 251.332 126.526C251.63 125.975 252.046 125.546 252.578 125.238C253.119 124.93 253.735 124.776 254.426 124.776C255.116 124.776 255.728 124.93 256.26 125.238C256.801 125.546 257.221 125.975 257.52 126.526C257.818 127.077 257.968 127.711 257.968 128.43C257.968 129.149 257.818 129.783 257.52 130.334C257.221 130.885 256.801 131.314 256.26 131.622C255.728 131.93 255.116 132.084 254.426 132.084ZM254.426 131.062C254.892 131.062 255.303 130.95 255.658 130.726C256.022 130.502 256.302 130.189 256.498 129.788C256.694 129.387 256.792 128.934 256.792 128.43C256.792 127.926 256.694 127.473 256.498 127.072C256.302 126.671 256.022 126.358 255.658 126.134C255.303 125.91 254.892 125.798 254.426 125.798C253.959 125.798 253.544 125.91 253.18 126.134C252.825 126.358 252.55 126.671 252.354 127.072C252.158 127.473 252.06 127.926 252.06 128.43C252.06 128.934 252.158 129.387 252.354 129.788C252.55 130.189 252.825 130.502 253.18 130.726C253.544 130.95 253.959 131.062 254.426 131.062ZM265.43 124.86V132H264.436L264.282 131.048C263.741 131.739 262.98 132.084 262 132.084C261.151 132.084 260.469 131.823 259.956 131.3C259.443 130.777 259.186 129.956 259.186 128.836V124.86H260.334V128.766C260.334 129.503 260.493 130.068 260.81 130.46C261.137 130.843 261.599 131.034 262.196 131.034C262.849 131.034 263.358 130.801 263.722 130.334C264.095 129.867 264.282 129.233 264.282 128.43V124.86H265.43ZM270.621 124.86V125.98H270.047C269.366 125.98 268.876 126.209 268.577 126.666C268.288 127.123 268.143 127.688 268.143 128.36V132H266.995V124.86H267.989L268.143 125.938C268.348 125.611 268.614 125.35 268.941 125.154C269.268 124.958 269.72 124.86 270.299 124.86H270.621ZM282.013 130.95V132H281.383C280.925 132 280.599 131.907 280.403 131.72C280.207 131.533 280.104 131.258 280.095 130.894C279.544 131.687 278.746 132.084 277.701 132.084C276.907 132.084 276.268 131.897 275.783 131.524C275.307 131.151 275.069 130.642 275.069 129.998C275.069 129.279 275.311 128.729 275.797 128.346C276.291 127.963 277.005 127.772 277.939 127.772H280.039V127.282C280.039 126.815 279.88 126.451 279.563 126.19C279.255 125.929 278.821 125.798 278.261 125.798C277.766 125.798 277.355 125.91 277.029 126.134C276.711 126.349 276.515 126.638 276.441 127.002H275.293C275.377 126.302 275.685 125.756 276.217 125.364C276.758 124.972 277.458 124.776 278.317 124.776C279.231 124.776 279.936 125 280.431 125.448C280.935 125.887 281.187 126.521 281.187 127.352V130.432C281.187 130.777 281.345 130.95 281.663 130.95H282.013ZM280.039 128.738H277.827C276.763 128.738 276.231 129.135 276.231 129.928C276.231 130.283 276.371 130.567 276.651 130.782C276.931 130.997 277.309 131.104 277.785 131.104C278.485 131.104 279.035 130.922 279.437 130.558C279.838 130.185 280.039 129.695 280.039 129.088V128.738ZM289.265 129.536C289.116 130.329 288.766 130.955 288.215 131.412C287.665 131.86 286.965 132.084 286.115 132.084C285.425 132.084 284.818 131.93 284.295 131.622C283.773 131.314 283.367 130.885 283.077 130.334C282.788 129.774 282.643 129.135 282.643 128.416C282.643 127.697 282.788 127.063 283.077 126.512C283.376 125.961 283.791 125.537 284.323 125.238C284.855 124.93 285.467 124.776 286.157 124.776C286.997 124.776 287.688 125 288.229 125.448C288.78 125.896 289.125 126.512 289.265 127.296H288.103C287.991 126.839 287.758 126.475 287.403 126.204C287.049 125.933 286.619 125.798 286.115 125.798C285.434 125.798 284.879 126.041 284.449 126.526C284.029 127.011 283.819 127.641 283.819 128.416C283.819 129.2 284.029 129.839 284.449 130.334C284.879 130.819 285.434 131.062 286.115 131.062C286.638 131.062 287.077 130.927 287.431 130.656C287.786 130.385 288.015 130.012 288.117 129.536H289.265ZM296.812 129.536C296.663 130.329 296.313 130.955 295.762 131.412C295.212 131.86 294.512 132.084 293.662 132.084C292.972 132.084 292.365 131.93 291.842 131.622C291.32 131.314 290.914 130.885 290.624 130.334C290.335 129.774 290.19 129.135 290.19 128.416C290.19 127.697 290.335 127.063 290.624 126.512C290.923 125.961 291.338 125.537 291.87 125.238C292.402 124.93 293.014 124.776 293.704 124.776C294.544 124.776 295.235 125 295.776 125.448C296.327 125.896 296.672 126.512 296.812 127.296H295.65C295.538 126.839 295.305 126.475 294.95 126.204C294.596 125.933 294.166 125.798 293.662 125.798C292.981 125.798 292.426 126.041 291.996 126.526C291.576 127.011 291.366 127.641 291.366 128.416C291.366 129.2 291.576 129.839 291.996 130.334C292.426 130.819 292.981 131.062 293.662 131.062C294.185 131.062 294.624 130.927 294.978 130.656C295.333 130.385 295.562 130.012 295.664 129.536H296.812ZM301.279 132.084C300.588 132.084 299.972 131.93 299.431 131.622C298.899 131.314 298.484 130.885 298.185 130.334C297.886 129.783 297.737 129.149 297.737 128.43C297.737 127.711 297.886 127.077 298.185 126.526C298.484 125.975 298.899 125.546 299.431 125.238C299.972 124.93 300.588 124.776 301.279 124.776C301.97 124.776 302.581 124.93 303.113 125.238C303.654 125.546 304.074 125.975 304.373 126.526C304.672 127.077 304.821 127.711 304.821 128.43C304.821 129.149 304.672 129.783 304.373 130.334C304.074 130.885 303.654 131.314 303.113 131.622C302.581 131.93 301.97 132.084 301.279 132.084ZM301.279 131.062C301.746 131.062 302.156 130.95 302.511 130.726C302.875 130.502 303.155 130.189 303.351 129.788C303.547 129.387 303.645 128.934 303.645 128.43C303.645 127.926 303.547 127.473 303.351 127.072C303.155 126.671 302.875 126.358 302.511 126.134C302.156 125.91 301.746 125.798 301.279 125.798C300.812 125.798 300.397 125.91 300.033 126.134C299.678 126.358 299.403 126.671 299.207 127.072C299.011 127.473 298.913 127.926 298.913 128.43C298.913 128.934 299.011 129.387 299.207 129.788C299.403 130.189 299.678 130.502 300.033 130.726C300.397 130.95 300.812 131.062 301.279 131.062ZM312.284 124.86V132H311.29L311.136 131.048C310.594 131.739 309.834 132.084 308.854 132.084C308.004 132.084 307.323 131.823 306.81 131.3C306.296 130.777 306.04 129.956 306.04 128.836V124.86H307.188V128.766C307.188 129.503 307.346 130.068 307.664 130.46C307.99 130.843 308.452 131.034 309.05 131.034C309.703 131.034 310.212 130.801 310.576 130.334C310.949 129.867 311.136 129.233 311.136 128.43V124.86H312.284ZM317.348 124.776C318.216 124.776 318.912 125.037 319.434 125.56C319.966 126.083 320.232 126.904 320.232 128.024V132H319.084V128.094C319.084 127.357 318.916 126.797 318.58 126.414C318.254 126.022 317.778 125.826 317.152 125.826C316.48 125.826 315.953 126.059 315.57 126.526C315.188 126.993 314.996 127.627 314.996 128.43V132H313.848V124.86H314.842L314.996 125.826C315.538 125.126 316.322 124.776 317.348 124.776ZM322.172 125.91H320.884V124.86H322.172V122.858H323.32V124.86H325.126V125.91H323.32V130.124C323.32 130.423 323.376 130.637 323.488 130.768C323.609 130.889 323.815 130.95 324.104 130.95H325.35V132H324.034C323.362 132 322.881 131.851 322.592 131.552C322.312 131.253 322.172 130.782 322.172 130.138V125.91ZM330.307 124.86V124.062C330.307 123.427 330.452 122.961 330.741 122.662C331.04 122.354 331.516 122.2 332.169 122.2H333.485V123.25H332.239C331.959 123.25 331.758 123.311 331.637 123.432C331.516 123.553 331.455 123.754 331.455 124.034V124.86H333.471V125.91H331.455V132H330.307V125.91H329.019V124.86H330.307ZM337.209 132.084C336.518 132.084 335.902 131.93 335.361 131.622C334.829 131.314 334.413 130.885 334.115 130.334C333.816 129.783 333.667 129.149 333.667 128.43C333.667 127.711 333.816 127.077 334.115 126.526C334.413 125.975 334.829 125.546 335.361 125.238C335.902 124.93 336.518 124.776 337.209 124.776C337.899 124.776 338.511 124.93 339.043 125.238C339.584 125.546 340.004 125.975 340.303 126.526C340.601 127.077 340.751 127.711 340.751 128.43C340.751 129.149 340.601 129.783 340.303 130.334C340.004 130.885 339.584 131.314 339.043 131.622C338.511 131.93 337.899 132.084 337.209 132.084ZM337.209 131.062C337.675 131.062 338.086 130.95 338.441 130.726C338.805 130.502 339.085 130.189 339.281 129.788C339.477 129.387 339.575 128.934 339.575 128.43C339.575 127.926 339.477 127.473 339.281 127.072C339.085 126.671 338.805 126.358 338.441 126.134C338.086 125.91 337.675 125.798 337.209 125.798C336.742 125.798 336.327 125.91 335.963 126.134C335.608 126.358 335.333 126.671 335.137 127.072C334.941 127.473 334.843 127.926 334.843 128.43C334.843 128.934 334.941 129.387 335.137 129.788C335.333 130.189 335.608 130.502 335.963 130.726C336.327 130.95 336.742 131.062 337.209 131.062ZM345.693 124.86V125.98H345.119C344.438 125.98 343.948 126.209 343.649 126.666C343.36 127.123 343.215 127.688 343.215 128.36V132H342.067V124.86H343.061L343.215 125.938C343.421 125.611 343.687 125.35 344.013 125.154C344.34 124.958 344.793 124.86 345.371 124.86H345.693ZM357.085 130.95V132H356.455C355.998 132 355.671 131.907 355.475 131.72C355.279 131.533 355.176 131.258 355.167 130.894C354.616 131.687 353.818 132.084 352.773 132.084C351.98 132.084 351.34 131.897 350.855 131.524C350.379 131.151 350.141 130.642 350.141 129.998C350.141 129.279 350.384 128.729 350.869 128.346C351.364 127.963 352.078 127.772 353.011 127.772H355.111V127.282C355.111 126.815 354.952 126.451 354.635 126.19C354.327 125.929 353.893 125.798 353.333 125.798C352.838 125.798 352.428 125.91 352.101 126.134C351.784 126.349 351.588 126.638 351.513 127.002H350.365C350.449 126.302 350.757 125.756 351.289 125.364C351.83 124.972 352.53 124.776 353.389 124.776C354.304 124.776 355.008 125 355.503 125.448C356.007 125.887 356.259 126.521 356.259 127.352V130.432C356.259 130.777 356.418 130.95 356.735 130.95H357.085ZM355.111 128.738H352.899C351.835 128.738 351.303 129.135 351.303 129.928C351.303 130.283 351.443 130.567 351.723 130.782C352.003 130.997 352.381 131.104 352.857 131.104C353.557 131.104 354.108 130.922 354.509 130.558C354.91 130.185 355.111 129.695 355.111 129.088V128.738ZM25.68 146.648C25.6987 147.077 25.8853 147.427 26.24 147.698C26.604 147.969 27.0707 148.104 27.64 148.104C28.144 148.104 28.55 148.006 28.858 147.81C29.1753 147.605 29.334 147.339 29.334 147.012C29.334 146.732 29.2593 146.517 29.11 146.368C28.9607 146.219 28.7647 146.116 28.522 146.06C28.2887 146.004 27.9527 145.948 27.514 145.892C26.898 145.817 26.394 145.719 26.002 145.598C25.61 145.477 25.2927 145.285 25.05 145.024C24.8073 144.753 24.686 144.385 24.686 143.918C24.686 143.498 24.8027 143.125 25.036 142.798C25.2787 142.471 25.6053 142.219 26.016 142.042C26.4267 141.855 26.8887 141.762 27.402 141.762C28.242 141.762 28.9233 141.958 29.446 142.35C29.978 142.742 30.272 143.302 30.328 144.03H29.18C29.1333 143.657 28.9513 143.349 28.634 143.106C28.3167 142.863 27.92 142.742 27.444 142.742C26.9587 142.742 26.5667 142.845 26.268 143.05C25.9693 143.246 25.82 143.507 25.82 143.834C25.82 144.077 25.89 144.263 26.03 144.394C26.17 144.525 26.3473 144.613 26.562 144.66C26.786 144.707 27.122 144.758 27.57 144.814C28.1953 144.889 28.7087 144.991 29.11 145.122C29.5207 145.253 29.8473 145.463 30.09 145.752C30.342 146.041 30.468 146.433 30.468 146.928C30.468 147.357 30.342 147.735 30.09 148.062C29.838 148.389 29.4973 148.641 29.068 148.818C28.6387 148.995 28.1627 149.084 27.64 149.084C26.7067 149.084 25.9553 148.869 25.386 148.44C24.826 148.011 24.5413 147.413 24.532 146.648H25.68ZM31.5183 145.43C31.5183 144.702 31.6583 144.063 31.9383 143.512C32.2277 142.961 32.629 142.537 33.1423 142.238C33.6557 141.93 34.2437 141.776 34.9063 141.776C35.5597 141.776 36.1383 141.911 36.6423 142.182C37.1463 142.453 37.543 142.845 37.8323 143.358C38.1217 143.871 38.2757 144.473 38.2943 145.164C38.2943 145.267 38.285 145.43 38.2663 145.654H32.7223V145.752C32.741 146.452 32.9557 147.012 33.3663 147.432C33.777 147.852 34.3137 148.062 34.9763 148.062C35.4897 148.062 35.9237 147.936 36.2783 147.684C36.6423 147.423 36.885 147.063 37.0063 146.606H38.1683C38.0283 147.334 37.6783 147.931 37.1183 148.398C36.5583 148.855 35.8723 149.084 35.0603 149.084C34.351 149.084 33.7303 148.935 33.1983 148.636C32.6663 148.328 32.251 147.899 31.9523 147.348C31.663 146.788 31.5183 146.149 31.5183 145.43ZM37.1043 144.702C37.0483 144.095 36.8197 143.624 36.4183 143.288C36.0263 142.952 35.527 142.784 34.9203 142.784C34.379 142.784 33.903 142.961 33.4923 143.316C33.0817 143.671 32.8483 144.133 32.7923 144.702H37.1043ZM45.9743 146.536C45.825 147.329 45.475 147.955 44.9243 148.412C44.3736 148.86 43.6736 149.084 42.8243 149.084C42.1336 149.084 41.527 148.93 41.0043 148.622C40.4816 148.314 40.0756 147.885 39.7863 147.334C39.497 146.774 39.3523 146.135 39.3523 145.416C39.3523 144.697 39.497 144.063 39.7863 143.512C40.085 142.961 40.5003 142.537 41.0323 142.238C41.5643 141.93 42.1756 141.776 42.8663 141.776C43.7063 141.776 44.397 142 44.9383 142.448C45.489 142.896 45.8343 143.512 45.9743 144.296H44.8123C44.7003 143.839 44.467 143.475 44.1123 143.204C43.7576 142.933 43.3283 142.798 42.8243 142.798C42.143 142.798 41.5876 143.041 41.1583 143.526C40.7383 144.011 40.5283 144.641 40.5283 145.416C40.5283 146.2 40.7383 146.839 41.1583 147.334C41.5876 147.819 42.143 148.062 42.8243 148.062C43.347 148.062 43.7856 147.927 44.1403 147.656C44.495 147.385 44.7236 147.012 44.8263 146.536H45.9743ZM53.4476 141.86V149H52.4536L52.2996 148.048C51.7582 148.739 50.9976 149.084 50.0176 149.084C49.1682 149.084 48.4869 148.823 47.9736 148.3C47.4602 147.777 47.2036 146.956 47.2036 145.836V141.86H48.3516V145.766C48.3516 146.503 48.5102 147.068 48.8276 147.46C49.1542 147.843 49.6162 148.034 50.2136 148.034C50.8669 148.034 51.3756 147.801 51.7396 147.334C52.1129 146.867 52.2996 146.233 52.2996 145.43V141.86H53.4476ZM58.6385 141.86V142.98H58.0645C57.3832 142.98 56.8932 143.209 56.5945 143.666C56.3052 144.123 56.1605 144.688 56.1605 145.36V149H55.0125V141.86H56.0065L56.1605 142.938C56.3658 142.611 56.6318 142.35 56.9585 142.154C57.2852 141.958 57.7378 141.86 58.3165 141.86H58.6385ZM59.0261 145.43C59.0261 144.702 59.1661 144.063 59.4461 143.512C59.7355 142.961 60.1368 142.537 60.6501 142.238C61.1635 141.93 61.7515 141.776 62.4141 141.776C63.0675 141.776 63.6461 141.911 64.1501 142.182C64.6541 142.453 65.0508 142.845 65.3401 143.358C65.6295 143.871 65.7835 144.473 65.8021 145.164C65.8021 145.267 65.7928 145.43 65.7741 145.654H60.2301V145.752C60.2488 146.452 60.4635 147.012 60.8741 147.432C61.2848 147.852 61.8215 148.062 62.4841 148.062C62.9975 148.062 63.4315 147.936 63.7861 147.684C64.1501 147.423 64.3928 147.063 64.5141 146.606H65.6761C65.5361 147.334 65.1861 147.931 64.6261 148.398C64.0661 148.855 63.3801 149.084 62.5681 149.084C61.8588 149.084 61.2381 148.935 60.7061 148.636C60.1741 148.328 59.7588 147.899 59.4601 147.348C59.1708 146.788 59.0261 146.149 59.0261 145.43ZM64.6121 144.702C64.5561 144.095 64.3275 143.624 63.9261 143.288C63.5341 142.952 63.0348 142.784 62.4281 142.784C61.8868 142.784 61.4108 142.961 61.0001 143.316C60.5895 143.671 60.3561 144.133 60.3001 144.702H64.6121ZM71.2522 142.91H69.9642V141.86H71.2522V139.858H72.4002V141.86H74.2062V142.91H72.4002V147.124C72.4002 147.423 72.4562 147.637 72.5682 147.768C72.6895 147.889 72.8949 147.95 73.1842 147.95H74.4302V149H73.1142C72.4422 149 71.9615 148.851 71.6722 148.552C71.3922 148.253 71.2522 147.782 71.2522 147.138V142.91ZM78.8729 141.86V142.98H78.2989C77.6176 142.98 77.1276 143.209 76.8289 143.666C76.5396 144.123 76.3949 144.688 76.3949 145.36V149H75.2469V141.86H76.2409L76.3949 142.938C76.6002 142.611 76.8662 142.35 77.1929 142.154C77.5196 141.958 77.9722 141.86 78.5509 141.86H78.8729ZM86.2589 147.95V149H85.6289C85.1715 149 84.8449 148.907 84.6489 148.72C84.4529 148.533 84.3502 148.258 84.3409 147.894C83.7902 148.687 82.9922 149.084 81.9469 149.084C81.1535 149.084 80.5142 148.897 80.0289 148.524C79.5529 148.151 79.3149 147.642 79.3149 146.998C79.3149 146.279 79.5575 145.729 80.0429 145.346C80.5375 144.963 81.2515 144.772 82.1849 144.772H84.2849V144.282C84.2849 143.815 84.1262 143.451 83.8089 143.19C83.5009 142.929 83.0669 142.798 82.5069 142.798C82.0122 142.798 81.6015 142.91 81.2749 143.134C80.9575 143.349 80.7615 143.638 80.6869 144.002H79.5389C79.6229 143.302 79.9309 142.756 80.4629 142.364C81.0042 141.972 81.7042 141.776 82.5629 141.776C83.4775 141.776 84.1822 142 84.6769 142.448C85.1809 142.887 85.4329 143.521 85.4329 144.352V147.432C85.4329 147.777 85.5915 147.95 85.9089 147.95H86.2589ZM84.2849 145.738H82.0729C81.0089 145.738 80.4769 146.135 80.4769 146.928C80.4769 147.283 80.6169 147.567 80.8969 147.782C81.1769 147.997 81.5549 148.104 82.0309 148.104C82.7309 148.104 83.2815 147.922 83.6829 147.558C84.0842 147.185 84.2849 146.695 84.2849 146.088V145.738ZM90.6414 141.776C91.5094 141.776 92.2048 142.037 92.7274 142.56C93.2594 143.083 93.5254 143.904 93.5254 145.024V149H92.3774V145.094C92.3774 144.357 92.2094 143.797 91.8734 143.414C91.5468 143.022 91.0708 142.826 90.4454 142.826C89.7734 142.826 89.2461 143.059 88.8634 143.526C88.4808 143.993 88.2894 144.627 88.2894 145.43V149H87.1414V141.86H88.1354L88.2894 142.826C88.8308 142.126 89.6148 141.776 90.6414 141.776ZM95.8851 146.648C95.9037 147.077 96.0904 147.427 96.4451 147.698C96.8091 147.969 97.2757 148.104 97.8451 148.104C98.3491 148.104 98.7551 148.006 99.0631 147.81C99.3804 147.605 99.5391 147.339 99.5391 147.012C99.5391 146.732 99.4644 146.517 99.3151 146.368C99.1657 146.219 98.9697 146.116 98.7271 146.06C98.4937 146.004 98.1577 145.948 97.7191 145.892C97.1031 145.817 96.5991 145.719 96.2071 145.598C95.8151 145.477 95.4977 145.285 95.2551 145.024C95.0124 144.753 94.8911 144.385 94.8911 143.918C94.8911 143.498 95.0077 143.125 95.2411 142.798C95.4837 142.471 95.8104 142.219 96.2211 142.042C96.6317 141.855 97.0937 141.762 97.6071 141.762C98.4471 141.762 99.1284 141.958 99.6511 142.35C100.183 142.742 100.477 143.302 100.533 144.03H99.3851C99.3384 143.657 99.1564 143.349 98.8391 143.106C98.5217 142.863 98.1251 142.742 97.6491 142.742C97.1637 142.742 96.7717 142.845 96.4731 143.05C96.1744 143.246 96.0251 143.507 96.0251 143.834C96.0251 144.077 96.0951 144.263 96.2351 144.394C96.3751 144.525 96.5524 144.613 96.7671 144.66C96.9911 144.707 97.3271 144.758 97.7751 144.814C98.4004 144.889 98.9137 144.991 99.3151 145.122C99.7257 145.253 100.052 145.463 100.295 145.752C100.547 146.041 100.673 146.433 100.673 146.928C100.673 147.357 100.547 147.735 100.295 148.062C100.043 148.389 99.7024 148.641 99.2731 148.818C98.8437 148.995 98.3677 149.084 97.8451 149.084C96.9117 149.084 96.1604 148.869 95.5911 148.44C95.0311 148.011 94.7464 147.413 94.7371 146.648H95.8851ZM102.451 141.86V141.062C102.451 140.427 102.596 139.961 102.885 139.662C103.184 139.354 103.66 139.2 104.313 139.2H105.629V140.25H104.383C104.103 140.25 103.903 140.311 103.781 140.432C103.66 140.553 103.599 140.754 103.599 141.034V141.86H105.615V142.91H103.599V149H102.451V142.91H101.163V141.86H102.451ZM105.811 145.43C105.811 144.702 105.951 144.063 106.231 143.512C106.521 142.961 106.922 142.537 107.435 142.238C107.949 141.93 108.537 141.776 109.199 141.776C109.853 141.776 110.431 141.911 110.935 142.182C111.439 142.453 111.836 142.845 112.125 143.358C112.415 143.871 112.569 144.473 112.587 145.164C112.587 145.267 112.578 145.43 112.559 145.654H107.015V145.752C107.034 146.452 107.249 147.012 107.659 147.432C108.07 147.852 108.607 148.062 109.269 148.062C109.783 148.062 110.217 147.936 110.571 147.684C110.935 147.423 111.178 147.063 111.299 146.606H112.461C112.321 147.334 111.971 147.931 111.411 148.398C110.851 148.855 110.165 149.084 109.353 149.084C108.644 149.084 108.023 148.935 107.491 148.636C106.959 148.328 106.544 147.899 106.245 147.348C105.956 146.788 105.811 146.149 105.811 145.43ZM111.397 144.702C111.341 144.095 111.113 143.624 110.711 143.288C110.319 142.952 109.82 142.784 109.213 142.784C108.672 142.784 108.196 142.961 107.785 143.316C107.375 143.671 107.141 144.133 107.085 144.702H111.397ZM117.523 141.86V142.98H116.949C116.268 142.98 115.778 143.209 115.479 143.666C115.19 144.123 115.045 144.688 115.045 145.36V149H113.897V141.86H114.891L115.045 142.938C115.251 142.611 115.517 142.35 115.843 142.154C116.17 141.958 116.623 141.86 117.201 141.86H117.523ZM125.835 141.776C126.498 141.776 127.086 141.921 127.599 142.21C128.122 142.499 128.528 142.919 128.817 143.47C129.116 144.021 129.265 144.674 129.265 145.43C129.265 146.149 129.116 146.783 128.817 147.334C128.528 147.885 128.122 148.314 127.599 148.622C127.076 148.93 126.488 149.084 125.835 149.084C125.256 149.084 124.762 148.981 124.351 148.776C123.94 148.561 123.618 148.272 123.385 147.908V151.8H122.237V141.86H123.231L123.385 143.008C123.982 142.187 124.799 141.776 125.835 141.776ZM125.723 148.062C126.432 148.062 127.002 147.819 127.431 147.334C127.87 146.839 128.089 146.205 128.089 145.43C128.089 144.655 127.87 144.025 127.431 143.54C127.002 143.045 126.432 142.798 125.723 142.798C125.266 142.798 124.855 142.91 124.491 143.134C124.136 143.349 123.861 143.657 123.665 144.058C123.469 144.45 123.371 144.898 123.371 145.402C123.371 145.915 123.469 146.377 123.665 146.788C123.861 147.189 124.136 147.502 124.491 147.726C124.855 147.95 125.266 148.062 125.723 148.062ZM134.203 141.86V142.98H133.629C132.948 142.98 132.458 143.209 132.159 143.666C131.87 144.123 131.725 144.688 131.725 145.36V149H130.577V141.86H131.571L131.725 142.938C131.93 142.611 132.196 142.35 132.523 142.154C132.85 141.958 133.302 141.86 133.881 141.86H134.203ZM138.133 149.084C137.442 149.084 136.826 148.93 136.285 148.622C135.753 148.314 135.337 147.885 135.039 147.334C134.74 146.783 134.591 146.149 134.591 145.43C134.591 144.711 134.74 144.077 135.039 143.526C135.337 142.975 135.753 142.546 136.285 142.238C136.826 141.93 137.442 141.776 138.133 141.776C138.823 141.776 139.435 141.93 139.967 142.238C140.508 142.546 140.928 142.975 141.227 143.526C141.525 144.077 141.675 144.711 141.675 145.43C141.675 146.149 141.525 146.783 141.227 147.334C140.928 147.885 140.508 148.314 139.967 148.622C139.435 148.93 138.823 149.084 138.133 149.084ZM138.133 148.062C138.599 148.062 139.01 147.95 139.365 147.726C139.729 147.502 140.009 147.189 140.205 146.788C140.401 146.387 140.499 145.934 140.499 145.43C140.499 144.926 140.401 144.473 140.205 144.072C140.009 143.671 139.729 143.358 139.365 143.134C139.01 142.91 138.599 142.798 138.133 142.798C137.666 142.798 137.251 142.91 136.887 143.134C136.532 143.358 136.257 143.671 136.061 144.072C135.865 144.473 135.767 144.926 135.767 145.43C135.767 145.934 135.865 146.387 136.061 146.788C136.257 147.189 136.532 147.502 136.887 147.726C137.251 147.95 137.666 148.062 138.133 148.062ZM149.361 146.536C149.212 147.329 148.862 147.955 148.311 148.412C147.76 148.86 147.06 149.084 146.211 149.084C145.52 149.084 144.914 148.93 144.391 148.622C143.868 148.314 143.462 147.885 143.173 147.334C142.884 146.774 142.739 146.135 142.739 145.416C142.739 144.697 142.884 144.063 143.173 143.512C143.472 142.961 143.887 142.537 144.419 142.238C144.951 141.93 145.562 141.776 146.253 141.776C147.093 141.776 147.784 142 148.325 142.448C148.876 142.896 149.221 143.512 149.361 144.296H148.199C148.087 143.839 147.854 143.475 147.499 143.204C147.144 142.933 146.715 142.798 146.211 142.798C145.53 142.798 144.974 143.041 144.545 143.526C144.125 144.011 143.915 144.641 143.915 145.416C143.915 146.2 144.125 146.839 144.545 147.334C144.974 147.819 145.53 148.062 146.211 148.062C146.734 148.062 147.172 147.927 147.527 147.656C147.882 147.385 148.11 147.012 148.213 146.536H149.361ZM150.286 145.43C150.286 144.702 150.426 144.063 150.706 143.512C150.995 142.961 151.397 142.537 151.91 142.238C152.423 141.93 153.011 141.776 153.674 141.776C154.327 141.776 154.906 141.911 155.41 142.182C155.914 142.453 156.311 142.845 156.6 143.358C156.889 143.871 157.043 144.473 157.062 145.164C157.062 145.267 157.053 145.43 157.034 145.654H151.49V145.752C151.509 146.452 151.723 147.012 152.134 147.432C152.545 147.852 153.081 148.062 153.744 148.062C154.257 148.062 154.691 147.936 155.046 147.684C155.41 147.423 155.653 147.063 155.774 146.606H156.936C156.796 147.334 156.446 147.931 155.886 148.398C155.326 148.855 154.64 149.084 153.828 149.084C153.119 149.084 152.498 148.935 151.966 148.636C151.434 148.328 151.019 147.899 150.72 147.348C150.431 146.788 150.286 146.149 150.286 145.43ZM155.872 144.702C155.816 144.095 155.587 143.624 155.186 143.288C154.794 142.952 154.295 142.784 153.688 142.784C153.147 142.784 152.671 142.961 152.26 143.316C151.849 143.671 151.616 144.133 151.56 144.702H155.872ZM159.241 146.648C159.259 147.077 159.446 147.427 159.801 147.698C160.165 147.969 160.631 148.104 161.201 148.104C161.705 148.104 162.111 148.006 162.419 147.81C162.736 147.605 162.895 147.339 162.895 147.012C162.895 146.732 162.82 146.517 162.671 146.368C162.521 146.219 162.325 146.116 162.083 146.06C161.849 146.004 161.513 145.948 161.075 145.892C160.459 145.817 159.955 145.719 159.563 145.598C159.171 145.477 158.853 145.285 158.611 145.024C158.368 144.753 158.247 144.385 158.247 143.918C158.247 143.498 158.363 143.125 158.597 142.798C158.839 142.471 159.166 142.219 159.577 142.042C159.987 141.855 160.449 141.762 160.963 141.762C161.803 141.762 162.484 141.958 163.007 142.35C163.539 142.742 163.833 143.302 163.889 144.03H162.741C162.694 143.657 162.512 143.349 162.195 143.106C161.877 142.863 161.481 142.742 161.005 142.742C160.519 142.742 160.127 142.845 159.829 143.05C159.53 143.246 159.381 143.507 159.381 143.834C159.381 144.077 159.451 144.263 159.591 144.394C159.731 144.525 159.908 144.613 160.123 144.66C160.347 144.707 160.683 144.758 161.131 144.814C161.756 144.889 162.269 144.991 162.671 145.122C163.081 145.253 163.408 145.463 163.651 145.752C163.903 146.041 164.029 146.433 164.029 146.928C164.029 147.357 163.903 147.735 163.651 148.062C163.399 148.389 163.058 148.641 162.629 148.818C162.199 148.995 161.723 149.084 161.201 149.084C160.267 149.084 159.516 148.869 158.947 148.44C158.387 148.011 158.102 147.413 158.093 146.648H159.241ZM166.09 146.648C166.109 147.077 166.295 147.427 166.65 147.698C167.014 147.969 167.481 148.104 168.05 148.104C168.554 148.104 168.96 148.006 169.268 147.81C169.585 147.605 169.744 147.339 169.744 147.012C169.744 146.732 169.669 146.517 169.52 146.368C169.371 146.219 169.175 146.116 168.932 146.06C168.699 146.004 168.363 145.948 167.924 145.892C167.308 145.817 166.804 145.719 166.412 145.598C166.02 145.477 165.703 145.285 165.46 145.024C165.217 144.753 165.096 144.385 165.096 143.918C165.096 143.498 165.213 143.125 165.446 142.798C165.689 142.471 166.015 142.219 166.426 142.042C166.837 141.855 167.299 141.762 167.812 141.762C168.652 141.762 169.333 141.958 169.856 142.35C170.388 142.742 170.682 143.302 170.738 144.03H169.59C169.543 143.657 169.361 143.349 169.044 143.106C168.727 142.863 168.33 142.742 167.854 142.742C167.369 142.742 166.977 142.845 166.678 143.05C166.379 143.246 166.23 143.507 166.23 143.834C166.23 144.077 166.3 144.263 166.44 144.394C166.58 144.525 166.757 144.613 166.972 144.66C167.196 144.707 167.532 144.758 167.98 144.814C168.605 144.889 169.119 144.991 169.52 145.122C169.931 145.253 170.257 145.463 170.5 145.752C170.752 146.041 170.878 146.433 170.878 146.928C170.878 147.357 170.752 147.735 170.5 148.062C170.248 148.389 169.907 148.641 169.478 148.818C169.049 148.995 168.573 149.084 168.05 149.084C167.117 149.084 166.365 148.869 165.796 148.44C165.236 148.011 164.951 147.413 164.942 146.648H166.09ZM171.931 148.3C171.931 148.067 172.006 147.88 172.155 147.74C172.304 147.591 172.496 147.516 172.729 147.516C172.962 147.516 173.154 147.591 173.303 147.74C173.452 147.88 173.527 148.067 173.527 148.3C173.527 148.533 173.452 148.725 173.303 148.874C173.154 149.014 172.962 149.084 172.729 149.084C172.496 149.084 172.304 149.014 172.155 148.874C172.006 148.725 171.931 148.533 171.931 148.3Z" fill="#2F4858"/>
<circle cx="200" cy="463" r="99.725" stroke="#FE5719" stroke-width="0.55" stroke-dasharray="1 1"/>
<circle cx="200" cy="455" r="155.725" stroke="#FE5719" stroke-width="0.55" stroke-dasharray="1 1"/>
<circle cx="200" cy="451" r="215.725" stroke="#FE5719" stroke-width="0.55" stroke-dasharray="1 1"/>
<rect x="64" y="242" width="46" height="46" rx="23" fill="#FFEEE8"/>
<path d="M91.5837 260.416C91.5837 261.323 91.3149 262.209 90.8113 262.963C90.3077 263.716 89.5919 264.304 88.7544 264.651C87.9169 264.998 86.9953 265.088 86.1062 264.912C85.2172 264.735 84.4005 264.298 83.7595 263.657C83.1185 263.016 82.682 262.2 82.5051 261.311C82.3283 260.421 82.4191 259.5 82.766 258.662C83.1129 257.825 83.7003 257.109 84.454 256.605C85.2078 256.102 86.0939 255.833 87.0004 255.833C88.216 255.833 89.3818 256.316 90.2413 257.175C91.1008 258.035 91.5837 259.201 91.5837 260.416ZM94.0587 274.166C94.2086 274.175 94.3585 274.151 94.4983 274.096C94.6381 274.042 94.7645 273.958 94.8688 273.85C94.9732 273.742 95.0531 273.613 95.1032 273.471C95.1532 273.33 95.1721 273.179 95.1587 273.03C94.5721 269.583 91.1437 266.934 87.0004 266.934C82.8571 266.934 79.4287 269.583 78.8421 273.03C78.8287 273.179 78.8476 273.33 78.8976 273.471C78.9477 273.613 79.0276 273.742 79.132 273.85C79.2363 273.958 79.3627 274.042 79.5025 274.096C79.6423 274.151 79.7922 274.175 79.9421 274.166H94.0587Z" fill="#FE5719"/>
<rect x="136" y="354" width="34" height="34" rx="17" fill="#EEEDFC"/>
<g opacity="0.3">
<path d="M157.064 366.378H148.967C148.572 366.379 148.182 366.462 147.822 366.623C147.461 366.785 147.138 367.02 146.875 367.313C146.611 367.607 146.412 367.953 146.29 368.329C146.169 368.705 146.127 369.102 146.169 369.495L146.772 375.145C146.847 375.835 147.174 376.473 147.691 376.937C148.207 377.401 148.876 377.658 149.57 377.659H156.502C157.204 377.66 157.881 377.399 158.4 376.926C158.919 376.453 159.242 375.804 159.307 375.105L159.835 369.461C159.871 369.073 159.826 368.682 159.703 368.313C159.58 367.944 159.383 367.604 159.123 367.314C158.863 367.025 158.545 366.792 158.191 366.631C157.837 366.47 157.453 366.384 157.064 366.378ZM154.239 372.252C154.239 372.374 154.215 372.494 154.168 372.606C154.121 372.719 154.053 372.82 153.966 372.906C153.88 372.992 153.778 373.06 153.665 373.105C153.552 373.151 153.432 373.175 153.31 373.174H152.524C152.403 373.175 152.282 373.151 152.17 373.105C152.057 373.06 151.955 372.992 151.868 372.906C151.782 372.82 151.714 372.719 151.667 372.606C151.62 372.494 151.596 372.374 151.596 372.252V370.64H154.205L154.239 372.252Z" fill="#554ADF"/>
</g>
<path d="M159.835 369.462C159.871 369.074 159.826 368.683 159.703 368.314C159.58 367.945 159.383 367.605 159.123 367.315C158.863 367.026 158.545 366.793 158.191 366.632C157.837 366.471 157.453 366.385 157.064 366.379H155.973V365.701C155.973 365.214 155.78 364.747 155.435 364.403C155.091 364.059 154.624 363.865 154.137 363.865H151.84C151.359 363.865 150.897 364.054 150.554 364.391C150.21 364.728 150.013 365.186 150.004 365.667V366.345H148.967C148.572 366.346 148.182 366.429 147.822 366.59C147.461 366.752 147.138 366.987 146.875 367.281C146.611 367.574 146.412 367.92 146.29 368.296C146.169 368.672 146.127 369.069 146.169 369.462L146.271 370.437C147.683 371.493 149.35 372.154 151.102 372.355C151.122 372.719 151.281 373.062 151.545 373.314C151.809 373.565 152.159 373.707 152.524 373.71H153.276C153.632 373.708 153.974 373.575 154.236 373.336C154.499 373.097 154.664 372.769 154.699 372.416C156.557 372.219 158.318 371.492 159.774 370.322L159.835 369.462ZM151.027 365.667C151.027 365.45 151.113 365.242 151.267 365.088C151.421 364.934 151.629 364.848 151.847 364.848H154.144C154.361 364.848 154.57 364.934 154.723 365.088C154.877 365.242 154.964 365.45 154.964 365.667V366.345H151.02L151.027 365.667ZM153.676 372.253C153.676 372.308 153.665 372.362 153.644 372.413C153.623 372.463 153.592 372.509 153.553 372.548C153.514 372.586 153.467 372.617 153.416 372.637C153.365 372.657 153.311 372.667 153.256 372.666H152.524C152.47 372.667 152.415 372.657 152.364 372.637C152.313 372.617 152.267 372.586 152.228 372.548C152.189 372.509 152.158 372.463 152.136 372.413C152.115 372.362 152.104 372.308 152.104 372.253V371.149H153.676V372.253Z" fill="#554ADF"/>
<rect x="304" y="336" width="28" height="28" rx="14" fill="#FFFBEB"/>
<path opacity="0.3" d="M316.343 349.665C317.804 349.665 318.988 348.491 318.988 347.042C318.988 345.594 317.804 344.42 316.343 344.42C314.882 344.42 313.698 345.594 313.698 347.042C313.698 348.491 314.882 349.665 316.343 349.665Z" fill="#F59E0C"/>
<path d="M316.342 355.58C318.509 355.58 320.265 354.406 320.265 352.957C320.265 351.509 318.509 350.335 316.342 350.335C314.176 350.335 312.42 351.509 312.42 352.957C312.42 354.406 314.176 355.58 316.342 355.58Z" fill="#F59E0C"/>
<g opacity="0.3">
<path d="M320.449 345.536C320.142 345.537 319.839 345.605 319.562 345.737C319.796 346.305 319.872 346.925 319.781 347.532C319.691 348.139 319.438 348.71 319.049 349.185C319.301 349.415 319.606 349.58 319.936 349.665C320.267 349.751 320.613 349.754 320.945 349.675C321.278 349.597 321.586 349.438 321.843 349.213C322.099 348.989 322.298 348.705 322.42 348.386C322.542 348.067 322.585 347.723 322.544 347.384C322.504 347.045 322.381 346.722 322.187 346.441C321.993 346.16 321.733 345.931 321.43 345.773C321.127 345.616 320.791 345.534 320.449 345.536Z" fill="#F59E0C"/>
</g>
<path d="M320.449 350.278C320.136 350.278 319.824 350.31 319.518 350.373C319.979 350.634 320.365 351.008 320.642 351.46C320.918 351.912 321.074 352.427 321.097 352.957C321.094 353.493 320.933 354.018 320.634 354.463C322.274 354.402 323.58 353.492 323.58 352.376C323.58 351.26 322.179 350.278 320.449 350.278Z" fill="#F59E0C"/>
<rect x="290" y="242" width="46" height="46" rx="23" fill="#EFFEF4"/>
<path d="M321.608 263.653L320.334 262.36C320.245 262.273 320.174 262.169 320.127 262.054C320.08 261.939 320.057 261.815 320.059 261.691V259.858C320.057 259.607 320.007 259.358 319.909 259.127C319.812 258.895 319.669 258.685 319.49 258.509C319.311 258.333 319.1 258.193 318.867 258.099C318.634 258.005 318.385 257.958 318.134 257.96H316.3C316.176 257.962 316.052 257.939 315.937 257.892C315.822 257.844 315.718 257.774 315.631 257.685L314.348 256.393C313.99 256.036 313.506 255.835 313 255.835C312.495 255.835 312.01 256.036 311.653 256.393L310.36 257.667C310.273 257.756 310.169 257.826 310.054 257.873C309.939 257.92 309.815 257.944 309.691 257.942H307.858C307.607 257.943 307.358 257.994 307.127 258.091C306.895 258.189 306.685 258.331 306.509 258.51C306.333 258.689 306.193 258.901 306.099 259.134C306.005 259.367 305.958 259.616 305.96 259.867V261.7C305.962 261.825 305.939 261.948 305.892 262.063C305.844 262.178 305.774 262.282 305.685 262.369L304.393 263.653C304.036 264.01 303.835 264.495 303.835 265C303.835 265.506 304.036 265.99 304.393 266.348L305.667 267.64C305.756 267.727 305.826 267.831 305.873 267.947C305.92 268.062 305.944 268.185 305.942 268.309V270.143C305.943 270.394 305.994 270.642 306.091 270.874C306.189 271.105 306.331 271.315 306.51 271.491C306.689 271.668 306.901 271.807 307.134 271.901C307.367 271.995 307.616 272.043 307.867 272.04H309.7C309.825 272.038 309.948 272.062 310.063 272.109C310.178 272.156 310.282 272.226 310.369 272.315L311.662 273.608C312.019 273.965 312.504 274.165 313.009 274.165C313.515 274.165 313.999 273.965 314.357 273.608L315.64 272.334C315.727 272.245 315.831 272.174 315.946 272.127C316.062 272.08 316.185 272.057 316.309 272.059H318.143C318.648 272.059 319.133 271.858 319.491 271.5C319.848 271.143 320.049 270.658 320.049 270.152V268.319C320.047 268.194 320.071 268.071 320.118 267.956C320.165 267.841 320.236 267.736 320.324 267.649L321.617 266.357C321.794 266.179 321.935 265.968 322.031 265.736C322.127 265.503 322.175 265.254 322.175 265.003C322.174 264.752 322.123 264.503 322.026 264.271C321.929 264.039 321.787 263.829 321.608 263.653ZM316.832 263.35L312.331 267.75C312.268 267.814 312.192 267.865 312.108 267.9C312.025 267.935 311.936 267.952 311.845 267.952C311.754 267.951 311.665 267.931 311.581 267.895C311.498 267.859 311.422 267.807 311.359 267.741L309.187 265.541C309.12 265.477 309.067 265.401 309.03 265.316C308.993 265.232 308.974 265.141 308.973 265.048C308.973 264.956 308.991 264.865 309.026 264.779C309.061 264.694 309.114 264.617 309.179 264.552C309.245 264.488 309.323 264.437 309.409 264.403C309.495 264.37 309.587 264.353 309.679 264.356C309.771 264.358 309.862 264.379 309.946 264.418C310.03 264.456 310.105 264.511 310.168 264.579L311.854 266.293L315.869 262.369C315.998 262.241 316.173 262.168 316.355 262.168C316.537 262.168 316.712 262.241 316.841 262.369C316.906 262.434 316.957 262.511 316.991 262.595C317.026 262.68 317.043 262.77 317.042 262.862C317.041 262.953 317.022 263.043 316.986 263.127C316.95 263.211 316.898 263.287 316.832 263.35Z" fill="#22C55D"/>
</g>
<rect x="0.25" y="0.25" width="399.5" height="399.5" rx="19.75" stroke="#DCDAE1" stroke-width="0.5"/>
<defs>
<clipPath id="clip0_8889_21834">
<rect width="400" height="400" rx="20" fill="white"/>
</clipPath>
</defs>
</svg>
