<svg width="400" height="400" viewBox="0 0 400 400" fill="none" xmlns="http://www.w3.org/2000/svg">
<g clip-path="url(#clip0_8995_18027)">
<rect width="400" height="400" rx="20" fill="white"/>
<rect x="24" y="28" width="36" height="36" rx="18" fill="#FFEEE8"/>
<path d="M32.672 46.644C32.672 45.5773 32.8533 44.6333 33.216 43.812C33.5893 42.98 34.112 42.34 34.784 41.892C35.456 41.4333 36.224 41.204 37.088 41.204C37.9413 41.204 38.6987 41.4333 39.36 41.892C40.032 42.34 40.5547 42.98 40.928 43.812C41.3013 44.6333 41.488 45.5773 41.488 46.644V47.156C41.488 48.2653 41.3013 49.2307 40.928 50.052C40.5653 50.8733 40.048 51.5027 39.376 51.94C38.7147 52.3773 37.952 52.596 37.088 52.596C36.2133 52.596 35.44 52.3773 34.768 51.94C34.1067 51.5027 33.5893 50.8733 33.216 50.052C32.8533 49.2307 32.672 48.2653 32.672 47.156V46.644ZM39.712 46.708C39.712 45.4707 39.472 44.5053 38.992 43.812C38.5227 43.108 37.888 42.756 37.088 42.756C36.288 42.756 35.648 43.108 35.168 43.812C34.688 44.5053 34.448 45.4707 34.448 46.708V47.092C34.448 48.3293 34.688 49.3 35.168 50.004C35.648 50.6973 36.288 51.044 37.088 51.044C37.888 51.044 38.5227 50.6973 38.992 50.004C39.472 49.3 39.712 48.3293 39.712 47.092V46.708ZM48.6541 46.708C49.3475 46.8467 49.9235 47.1453 50.3821 47.604C50.8515 48.052 51.0861 48.644 51.0861 49.38C51.0861 50.02 50.9101 50.5853 50.5581 51.076C50.2168 51.556 49.7261 51.9293 49.0861 52.196C48.4568 52.4627 47.7208 52.596 46.8781 52.596C45.5981 52.596 44.5795 52.2707 43.8221 51.62C43.0755 50.9587 42.7021 50.0573 42.7021 48.916H44.4781C44.4888 49.5987 44.7235 50.1373 45.1821 50.532C45.6408 50.9267 46.2435 51.124 46.9901 51.124C47.6515 51.124 48.1955 50.9533 48.6221 50.612C49.0595 50.2707 49.2781 49.8173 49.2781 49.252C49.2781 48.7187 49.0648 48.3027 48.6381 48.004C48.2221 47.6947 47.6248 47.54 46.8461 47.54H45.8221V46.068H46.7341C47.4701 46.068 48.0301 45.908 48.4141 45.588C48.8088 45.268 49.0061 44.8413 49.0061 44.308C49.0061 43.8067 48.8141 43.412 48.4301 43.124C48.0461 42.8253 47.5501 42.676 46.9421 42.676C46.3021 42.676 45.7741 42.8467 45.3581 43.188C44.9528 43.5187 44.7448 43.972 44.7341 44.548H42.9901C43.0008 43.5133 43.3581 42.6973 44.0621 42.1C44.7661 41.5027 45.7048 41.204 46.8781 41.204C47.6888 41.204 48.3875 41.3267 48.9741 41.572C49.5715 41.8173 50.0248 42.1693 50.3341 42.628C50.6541 43.076 50.8141 43.5933 50.8141 44.18C50.8141 44.852 50.6168 45.4067 50.2221 45.844C49.8381 46.2707 49.3155 46.5587 48.6541 46.708Z" fill="#001140"/>
<path d="M25.152 89.4H27.222V95.898L33 89.4H35.52L30.894 94.656L35.862 102H33.36L29.418 96.24L27.222 98.706V102H25.152V89.4ZM36.1433 97.41C36.1433 96.462 36.3293 95.634 36.7013 94.926C37.0853 94.206 37.6133 93.654 38.2853 93.27C38.9693 92.874 39.7493 92.676 40.6253 92.676C41.5133 92.676 42.2933 92.856 42.9653 93.216C43.6493 93.576 44.1833 94.086 44.5673 94.746C44.9633 95.406 45.1673 96.18 45.1793 97.068C45.1793 97.308 45.1613 97.554 45.1253 97.806H38.1772V97.914C38.2253 98.718 38.4773 99.354 38.9333 99.822C39.3893 100.29 39.9953 100.524 40.7513 100.524C41.3513 100.524 41.8553 100.386 42.2633 100.11C42.6713 99.822 42.9413 99.42 43.0733 98.904H45.0173C44.8493 99.84 44.3933 100.608 43.6493 101.208C42.9173 101.808 41.9993 102.108 40.8953 102.108C39.9353 102.108 39.0953 101.916 38.3753 101.532C37.6673 101.136 37.1153 100.584 36.7192 99.876C36.3353 99.168 36.1433 98.346 36.1433 97.41ZM43.1993 96.384C43.1153 95.712 42.8453 95.19 42.3893 94.818C41.9453 94.434 41.3813 94.242 40.6973 94.242C40.0613 94.242 39.5093 94.44 39.0413 94.836C38.5853 95.22 38.3213 95.736 38.2493 96.384H43.1993ZM46.4089 97.41C46.4089 96.462 46.5949 95.634 46.9669 94.926C47.3509 94.206 47.8789 93.654 48.5509 93.27C49.2349 92.874 50.0149 92.676 50.8909 92.676C51.7789 92.676 52.5589 92.856 53.2309 93.216C53.9149 93.576 54.4489 94.086 54.8329 94.746C55.2289 95.406 55.4329 96.18 55.4449 97.068C55.4449 97.308 55.4269 97.554 55.3909 97.806H48.4429V97.914C48.4909 98.718 48.7429 99.354 49.1989 99.822C49.6549 100.29 50.2609 100.524 51.0169 100.524C51.6169 100.524 52.1209 100.386 52.5289 100.11C52.9369 99.822 53.2069 99.42 53.3389 98.904H55.2829C55.1149 99.84 54.6589 100.608 53.9149 101.208C53.1829 101.808 52.2649 102.108 51.1609 102.108C50.2009 102.108 49.3609 101.916 48.6409 101.532C47.9329 101.136 47.3809 100.584 46.9849 99.876C46.6009 99.168 46.4089 98.346 46.4089 97.41ZM53.4649 96.384C53.3809 95.712 53.1109 95.19 52.6549 94.818C52.2109 94.434 51.6469 94.242 50.9629 94.242C50.3269 94.242 49.7749 94.44 49.3069 94.836C48.8509 95.22 48.5869 95.736 48.5149 96.384H53.4649ZM61.9485 92.676C62.7885 92.676 63.5385 92.868 64.1985 93.252C64.8585 93.624 65.3745 94.17 65.7465 94.89C66.1185 95.598 66.3045 96.432 66.3045 97.392C66.3045 98.328 66.1185 99.156 65.7465 99.876C65.3745 100.584 64.8585 101.136 64.1985 101.532C63.5385 101.916 62.7885 102.108 61.9485 102.108C61.2645 102.108 60.6705 101.982 60.1665 101.73C59.6625 101.478 59.2605 101.136 58.9605 100.704V105.6H57.0165V92.784H58.7085L58.9425 94.152C59.6865 93.168 60.6885 92.676 61.9485 92.676ZM61.6245 100.47C62.4285 100.47 63.0765 100.182 63.5685 99.606C64.0725 99.03 64.3245 98.292 64.3245 97.392C64.3245 96.48 64.0725 95.742 63.5685 95.178C63.0765 94.614 62.4285 94.332 61.6245 94.332C60.8205 94.332 60.1725 94.614 59.6805 95.178C59.1885 95.73 58.9425 96.456 58.9425 97.356C58.9425 98.28 59.1885 99.03 59.6805 99.606C60.1725 100.182 60.8205 100.47 61.6245 100.47ZM73.0617 94.494H71.4597V92.784H73.0617V90.21H75.0237V92.784H77.2377V94.494H75.0237V99.3C75.0237 99.66 75.0957 99.918 75.2397 100.074C75.3837 100.218 75.6297 100.29 75.9777 100.29H77.4537V102H75.5817C74.7057 102 74.0637 101.796 73.6557 101.388C73.2597 100.98 73.0617 100.35 73.0617 99.498V94.494ZM83.591 92.784V94.602H82.727C81.923 94.602 81.341 94.866 80.981 95.394C80.621 95.91 80.441 96.57 80.441 97.374V102H78.497V92.784H80.225L80.441 94.17C80.705 93.738 81.047 93.402 81.467 93.162C81.887 92.91 82.451 92.784 83.159 92.784H83.591ZM93.2935 100.308V102H92.2675C91.6675 102 91.2355 101.874 90.9715 101.622C90.7075 101.37 90.5755 101.004 90.5755 100.524C89.8795 101.58 88.8655 102.108 87.5335 102.108C86.5015 102.108 85.6735 101.868 85.0495 101.388C84.4255 100.908 84.1135 100.248 84.1135 99.408C84.1135 98.46 84.4495 97.734 85.1215 97.23C85.7935 96.714 86.7715 96.456 88.0555 96.456H90.3775V95.898C90.3775 95.382 90.1975 94.98 89.8375 94.692C89.4775 94.392 88.9795 94.242 88.3435 94.242C87.7795 94.242 87.3115 94.368 86.9395 94.62C86.5795 94.86 86.3635 95.184 86.2915 95.592H84.3835C84.4795 94.668 84.8875 93.954 85.6075 93.45C86.3275 92.934 87.2695 92.676 88.4335 92.676C89.6695 92.676 90.6235 92.964 91.2955 93.54C91.9675 94.116 92.3035 94.944 92.3035 96.024V99.66C92.3035 100.092 92.5075 100.308 92.9155 100.308H93.2935ZM90.3775 97.896H87.9655C87.3655 97.896 86.9035 98.016 86.5795 98.256C86.2555 98.484 86.0935 98.826 86.0935 99.282C86.0935 99.678 86.2435 99.996 86.5435 100.236C86.8555 100.476 87.2755 100.596 87.8035 100.596C88.6075 100.596 89.2315 100.38 89.6755 99.948C90.1315 99.516 90.3655 98.94 90.3775 98.22V97.896ZM102.848 98.688C102.668 99.756 102.206 100.596 101.462 101.208C100.718 101.808 99.7644 102.108 98.6004 102.108C97.6884 102.108 96.8844 101.916 96.1884 101.532C95.4924 101.136 94.9524 100.578 94.5684 99.858C94.1964 99.138 94.0104 98.31 94.0104 97.374C94.0104 96.438 94.2024 95.616 94.5864 94.908C94.9704 94.2 95.5104 93.654 96.2064 93.27C96.9144 92.874 97.7304 92.676 98.6544 92.676C99.8064 92.676 100.748 92.982 101.48 93.594C102.212 94.194 102.668 95.016 102.848 96.06H100.85C100.718 95.532 100.454 95.112 100.058 94.8C99.6624 94.488 99.1764 94.332 98.6004 94.332C97.8204 94.332 97.1904 94.614 96.7104 95.178C96.2424 95.742 96.0084 96.474 96.0084 97.374C96.0084 98.286 96.2424 99.03 96.7104 99.606C97.1904 100.17 97.8204 100.452 98.6004 100.452C99.2004 100.452 99.6984 100.296 100.094 99.984C100.49 99.66 100.748 99.228 100.868 98.688H102.848ZM104.407 89.4H106.351V97.284L110.563 92.784H112.813L109.375 96.492L113.029 102H110.725L107.989 97.914L106.351 99.642V102H104.407V89.4ZM123.037 102.108C122.113 102.108 121.291 101.916 120.571 101.532C119.863 101.136 119.311 100.584 118.915 99.876C118.531 99.156 118.339 98.328 118.339 97.392C118.339 96.468 118.531 95.652 118.915 94.944C119.311 94.224 119.863 93.666 120.571 93.27C121.291 92.874 122.113 92.676 123.037 92.676C123.961 92.676 124.777 92.874 125.485 93.27C126.205 93.666 126.757 94.224 127.141 94.944C127.537 95.652 127.735 96.468 127.735 97.392C127.735 98.328 127.537 99.156 127.141 99.876C126.757 100.584 126.205 101.136 125.485 101.532C124.777 101.916 123.961 102.108 123.037 102.108ZM123.037 100.452C123.853 100.452 124.507 100.17 124.999 99.606C125.503 99.03 125.755 98.292 125.755 97.392C125.755 96.492 125.503 95.76 124.999 95.196C124.507 94.62 123.853 94.332 123.037 94.332C122.221 94.332 121.567 94.62 121.075 95.196C120.583 95.76 120.337 96.492 120.337 97.392C120.337 98.292 120.583 99.03 121.075 99.606C121.567 100.17 122.221 100.452 123.037 100.452ZM129.821 92.784V91.866C129.821 91.05 130.031 90.438 130.451 90.03C130.871 89.61 131.519 89.4 132.395 89.4H134.267V91.11H132.665C132.353 91.11 132.125 91.182 131.981 91.326C131.849 91.47 131.783 91.698 131.783 92.01V92.784H134.249V94.494H131.783V102H129.821V94.494H128.219V92.784H129.821ZM140.979 92.784L143.553 99.894L146.055 92.784H148.125L143.949 103.44C143.733 103.992 143.535 104.412 143.355 104.7C143.175 105 142.953 105.222 142.689 105.366C142.425 105.522 142.071 105.6 141.627 105.6H139.539V103.89H140.907C141.279 103.89 141.537 103.83 141.681 103.71C141.825 103.602 141.975 103.35 142.131 102.954L142.509 102.072L138.909 92.784H140.979ZM153.113 102.108C152.189 102.108 151.367 101.916 150.647 101.532C149.939 101.136 149.387 100.584 148.991 99.876C148.607 99.156 148.415 98.328 148.415 97.392C148.415 96.468 148.607 95.652 148.991 94.944C149.387 94.224 149.939 93.666 150.647 93.27C151.367 92.874 152.189 92.676 153.113 92.676C154.037 92.676 154.853 92.874 155.561 93.27C156.281 93.666 156.833 94.224 157.217 94.944C157.613 95.652 157.811 96.468 157.811 97.392C157.811 98.328 157.613 99.156 157.217 99.876C156.833 100.584 156.281 101.136 155.561 101.532C154.853 101.916 154.037 102.108 153.113 102.108ZM153.113 100.452C153.929 100.452 154.583 100.17 155.075 99.606C155.579 99.03 155.831 98.292 155.831 97.392C155.831 96.492 155.579 95.76 155.075 95.196C154.583 94.62 153.929 94.332 153.113 94.332C152.297 94.332 151.643 94.62 151.151 95.196C150.659 95.76 150.413 96.492 150.413 97.392C150.413 98.292 150.659 99.03 151.151 99.606C151.643 100.17 152.297 100.452 153.113 100.452ZM167.636 92.784V102H165.926L165.71 100.83C165.014 101.682 164.066 102.108 162.866 102.108C161.786 102.108 160.91 101.772 160.238 101.1C159.566 100.428 159.23 99.348 159.23 97.86V92.784H161.174V97.662C161.174 98.562 161.354 99.246 161.714 99.714C162.074 100.182 162.608 100.416 163.316 100.416C164.06 100.416 164.642 100.146 165.062 99.606C165.482 99.054 165.692 98.304 165.692 97.356V92.784H167.636ZM174.646 92.784V94.602H173.782C172.978 94.602 172.396 94.866 172.036 95.394C171.676 95.91 171.496 96.57 171.496 97.374V102H169.552V92.784H171.28L171.496 94.17C171.76 93.738 172.102 93.402 172.522 93.162C172.942 92.91 173.506 92.784 174.214 92.784H174.646ZM181.079 94.494H179.477V92.784H181.079V90.21H183.041V92.784H185.255V94.494H183.041V99.3C183.041 99.66 183.113 99.918 183.257 100.074C183.401 100.218 183.647 100.29 183.995 100.29H185.471V102H183.599C182.723 102 182.081 101.796 181.673 101.388C181.277 100.98 181.079 100.35 181.079 99.498V94.494ZM191.609 92.784V94.602H190.745C189.941 94.602 189.359 94.866 188.999 95.394C188.639 95.91 188.459 96.57 188.459 97.374V102H186.515V92.784H188.243L188.459 94.17C188.723 93.738 189.065 93.402 189.485 93.162C189.905 92.91 190.469 92.784 191.177 92.784H191.609ZM201.311 100.308V102H200.285C199.685 102 199.253 101.874 198.989 101.622C198.725 101.37 198.593 101.004 198.593 100.524C197.897 101.58 196.883 102.108 195.551 102.108C194.519 102.108 193.691 101.868 193.067 101.388C192.443 100.908 192.131 100.248 192.131 99.408C192.131 98.46 192.467 97.734 193.139 97.23C193.811 96.714 194.789 96.456 196.073 96.456H198.395V95.898C198.395 95.382 198.215 94.98 197.855 94.692C197.495 94.392 196.997 94.242 196.361 94.242C195.797 94.242 195.329 94.368 194.957 94.62C194.597 94.86 194.381 95.184 194.309 95.592H192.401C192.497 94.668 192.905 93.954 193.625 93.45C194.345 92.934 195.287 92.676 196.451 92.676C197.687 92.676 198.641 92.964 199.313 93.54C199.985 94.116 200.321 94.944 200.321 96.024V99.66C200.321 100.092 200.525 100.308 200.933 100.308H201.311ZM198.395 97.896H195.983C195.383 97.896 194.921 98.016 194.597 98.256C194.273 98.484 194.111 98.826 194.111 99.282C194.111 99.678 194.261 99.996 194.561 100.236C194.873 100.476 195.293 100.596 195.821 100.596C196.625 100.596 197.249 100.38 197.693 99.948C198.149 99.516 198.383 98.94 198.395 98.22V97.896ZM207.23 92.676C208.322 92.676 209.21 93.012 209.894 93.684C210.59 94.356 210.938 95.436 210.938 96.924V102H208.976V97.032C208.976 96.156 208.79 95.49 208.418 95.034C208.046 94.578 207.5 94.35 206.78 94.35C206.012 94.35 205.406 94.62 204.962 95.16C204.53 95.688 204.314 96.42 204.314 97.356V102H202.37V92.784H204.062L204.278 93.99C204.974 93.114 205.958 92.676 207.23 92.676ZM214.254 98.958C214.29 99.438 214.512 99.834 214.92 100.146C215.34 100.446 215.88 100.596 216.54 100.596C217.128 100.596 217.602 100.488 217.962 100.272C218.334 100.044 218.52 99.744 218.52 99.372C218.52 99.06 218.436 98.826 218.268 98.67C218.1 98.514 217.872 98.406 217.584 98.346C217.308 98.274 216.876 98.202 216.288 98.13C215.484 98.034 214.818 97.908 214.29 97.752C213.774 97.584 213.354 97.326 213.03 96.978C212.718 96.618 212.562 96.138 212.562 95.538C212.562 94.974 212.718 94.476 213.03 94.044C213.354 93.6 213.792 93.258 214.344 93.018C214.908 92.778 215.544 92.658 216.252 92.658C217.416 92.658 218.358 92.916 219.078 93.432C219.81 93.948 220.206 94.674 220.266 95.61H218.376C218.328 95.19 218.118 94.848 217.746 94.584C217.374 94.308 216.906 94.17 216.342 94.17C215.778 94.17 215.322 94.278 214.974 94.494C214.626 94.71 214.452 95.004 214.452 95.376C214.452 95.652 214.536 95.862 214.704 96.006C214.884 96.138 215.106 96.234 215.37 96.294C215.634 96.342 216.06 96.402 216.648 96.474C217.44 96.558 218.106 96.69 218.646 96.87C219.186 97.038 219.618 97.314 219.942 97.698C220.266 98.07 220.428 98.58 220.428 99.228C220.428 99.804 220.26 100.314 219.924 100.758C219.588 101.19 219.126 101.526 218.538 101.766C217.95 101.994 217.29 102.108 216.558 102.108C215.322 102.108 214.32 101.832 213.552 101.28C212.796 100.716 212.406 99.942 212.382 98.958H214.254ZM222.599 92.784V91.866C222.599 91.05 222.809 90.438 223.229 90.03C223.649 89.61 224.297 89.4 225.173 89.4H227.045V91.11H225.443C225.131 91.11 224.903 91.182 224.759 91.326C224.627 91.47 224.561 91.698 224.561 92.01V92.784H227.027V94.494H224.561V102H222.599V94.494H220.997V92.784H222.599ZM227.27 97.41C227.27 96.462 227.456 95.634 227.828 94.926C228.212 94.206 228.74 93.654 229.412 93.27C230.096 92.874 230.876 92.676 231.752 92.676C232.64 92.676 233.42 92.856 234.092 93.216C234.776 93.576 235.31 94.086 235.694 94.746C236.09 95.406 236.294 96.18 236.306 97.068C236.306 97.308 236.288 97.554 236.252 97.806H229.304V97.914C229.352 98.718 229.604 99.354 230.06 99.822C230.516 100.29 231.122 100.524 231.878 100.524C232.478 100.524 232.982 100.386 233.39 100.11C233.798 99.822 234.068 99.42 234.2 98.904H236.144C235.976 99.84 235.52 100.608 234.776 101.208C234.044 101.808 233.126 102.108 232.022 102.108C231.062 102.108 230.222 101.916 229.502 101.532C228.794 101.136 228.242 100.584 227.846 99.876C227.462 99.168 227.27 98.346 227.27 97.41ZM234.326 96.384C234.242 95.712 233.972 95.19 233.516 94.818C233.072 94.434 232.508 94.242 231.824 94.242C231.188 94.242 230.636 94.44 230.168 94.836C229.712 95.22 229.448 95.736 229.376 96.384H234.326ZM242.972 92.784V94.602H242.108C241.304 94.602 240.722 94.866 240.362 95.394C240.002 95.91 239.822 96.57 239.822 97.374V102H237.878V92.784H239.606L239.822 94.17C240.086 93.738 240.428 93.402 240.848 93.162C241.268 92.91 241.832 92.784 242.54 92.784H242.972ZM245.49 98.958C245.526 99.438 245.748 99.834 246.156 100.146C246.576 100.446 247.116 100.596 247.776 100.596C248.364 100.596 248.838 100.488 249.198 100.272C249.57 100.044 249.756 99.744 249.756 99.372C249.756 99.06 249.672 98.826 249.504 98.67C249.336 98.514 249.108 98.406 248.82 98.346C248.544 98.274 248.112 98.202 247.524 98.13C246.72 98.034 246.054 97.908 245.526 97.752C245.01 97.584 244.59 97.326 244.266 96.978C243.954 96.618 243.798 96.138 243.798 95.538C243.798 94.974 243.954 94.476 244.266 94.044C244.59 93.6 245.028 93.258 245.58 93.018C246.144 92.778 246.78 92.658 247.488 92.658C248.652 92.658 249.594 92.916 250.314 93.432C251.046 93.948 251.442 94.674 251.502 95.61H249.612C249.564 95.19 249.354 94.848 248.982 94.584C248.61 94.308 248.142 94.17 247.578 94.17C247.014 94.17 246.558 94.278 246.21 94.494C245.862 94.71 245.688 95.004 245.688 95.376C245.688 95.652 245.772 95.862 245.94 96.006C246.12 96.138 246.342 96.234 246.606 96.294C246.87 96.342 247.296 96.402 247.884 96.474C248.676 96.558 249.342 96.69 249.882 96.87C250.422 97.038 250.854 97.314 251.178 97.698C251.502 98.07 251.664 98.58 251.664 99.228C251.664 99.804 251.496 100.314 251.16 100.758C250.824 101.19 250.362 101.526 249.774 101.766C249.186 101.994 248.526 102.108 247.794 102.108C246.558 102.108 245.556 101.832 244.788 101.28C244.032 100.716 243.642 99.942 243.618 98.958H245.49ZM262.203 102.108C261.279 102.108 260.457 101.916 259.737 101.532C259.029 101.136 258.477 100.584 258.081 99.876C257.697 99.156 257.505 98.328 257.505 97.392C257.505 96.468 257.697 95.652 258.081 94.944C258.477 94.224 259.029 93.666 259.737 93.27C260.457 92.874 261.279 92.676 262.203 92.676C263.127 92.676 263.943 92.874 264.651 93.27C265.371 93.666 265.923 94.224 266.307 94.944C266.703 95.652 266.901 96.468 266.901 97.392C266.901 98.328 266.703 99.156 266.307 99.876C265.923 100.584 265.371 101.136 264.651 101.532C263.943 101.916 263.127 102.108 262.203 102.108ZM262.203 100.452C263.019 100.452 263.673 100.17 264.165 99.606C264.669 99.03 264.921 98.292 264.921 97.392C264.921 96.492 264.669 95.76 264.165 95.196C263.673 94.62 263.019 94.332 262.203 94.332C261.387 94.332 260.733 94.62 260.241 95.196C259.749 95.76 259.503 96.492 259.503 97.392C259.503 98.292 259.749 99.03 260.241 99.606C260.733 100.17 261.387 100.452 262.203 100.452ZM273.324 92.676C274.416 92.676 275.304 93.012 275.988 93.684C276.684 94.356 277.032 95.436 277.032 96.924V102H275.07V97.032C275.07 96.156 274.884 95.49 274.512 95.034C274.14 94.578 273.594 94.35 272.874 94.35C272.106 94.35 271.5 94.62 271.056 95.16C270.624 95.688 270.408 96.42 270.408 97.356V102H268.464V92.784H270.156L270.372 93.99C271.068 93.114 272.052 92.676 273.324 92.676ZM283.999 94.494H282.397V92.784H283.999V90.21H285.961V92.784H288.175V94.494H285.961V99.3C285.961 99.66 286.033 99.918 286.177 100.074C286.321 100.218 286.567 100.29 286.915 100.29H288.391V102H286.519C285.643 102 285.001 101.796 284.593 101.388C284.197 100.98 283.999 100.35 283.999 99.498V94.494ZM294.276 92.676C295.38 92.676 296.274 93.012 296.958 93.684C297.654 94.356 298.002 95.436 298.002 96.924V102H296.058V97.032C296.058 96.156 295.866 95.49 295.482 95.034C295.11 94.578 294.564 94.35 293.844 94.35C293.076 94.35 292.47 94.62 292.026 95.16C291.594 95.688 291.378 96.414 291.378 97.338V102H289.434V89.4H291.378V94.116C292.074 93.156 293.04 92.676 294.276 92.676ZM299.428 97.41C299.428 96.462 299.614 95.634 299.986 94.926C300.37 94.206 300.898 93.654 301.57 93.27C302.254 92.874 303.034 92.676 303.91 92.676C304.798 92.676 305.578 92.856 306.25 93.216C306.934 93.576 307.468 94.086 307.852 94.746C308.248 95.406 308.452 96.18 308.464 97.068C308.464 97.308 308.446 97.554 308.41 97.806H301.462V97.914C301.51 98.718 301.762 99.354 302.218 99.822C302.674 100.29 303.28 100.524 304.036 100.524C304.636 100.524 305.14 100.386 305.548 100.11C305.956 99.822 306.226 99.42 306.358 98.904H308.302C308.134 99.84 307.678 100.608 306.934 101.208C306.202 101.808 305.284 102.108 304.18 102.108C303.22 102.108 302.38 101.916 301.66 101.532C300.952 101.136 300.4 100.584 300.004 99.876C299.62 99.168 299.428 98.346 299.428 97.41ZM306.484 96.384C306.4 95.712 306.13 95.19 305.674 94.818C305.23 94.434 304.666 94.242 303.982 94.242C303.346 94.242 302.794 94.44 302.326 94.836C301.87 95.22 301.606 95.736 301.534 96.384H306.484ZM323.588 92.784V101.622C323.588 102.918 323.204 103.92 322.436 104.628C321.668 105.348 320.48 105.708 318.872 105.708C317.624 105.708 316.61 105.426 315.83 104.862C315.05 104.31 314.618 103.524 314.534 102.504H316.514C316.634 103.02 316.91 103.416 317.342 103.692C317.774 103.98 318.332 104.124 319.016 104.124C320.78 104.124 321.662 103.266 321.662 101.55V100.524C320.99 101.532 319.988 102.036 318.656 102.036C317.816 102.036 317.066 101.85 316.406 101.478C315.746 101.094 315.23 100.554 314.858 99.858C314.486 99.15 314.3 98.316 314.3 97.356C314.3 96.432 314.486 95.616 314.858 94.908C315.242 94.2 315.764 93.654 316.424 93.27C317.084 92.874 317.828 92.676 318.656 92.676C319.352 92.676 319.952 92.814 320.456 93.09C320.96 93.366 321.368 93.744 321.68 94.224L321.896 92.784H323.588ZM318.979 100.398C319.784 100.398 320.432 100.122 320.924 99.57C321.416 99.006 321.662 98.28 321.662 97.392C321.662 96.48 321.416 95.742 320.924 95.178C320.432 94.602 319.784 94.314 318.979 94.314C318.176 94.314 317.528 94.596 317.036 95.16C316.544 95.724 316.298 96.456 316.298 97.356C316.298 98.256 316.544 98.988 317.036 99.552C317.528 100.116 318.176 100.398 318.979 100.398ZM329.843 102.108C328.919 102.108 328.097 101.916 327.377 101.532C326.669 101.136 326.117 100.584 325.721 99.876C325.337 99.156 325.145 98.328 325.145 97.392C325.145 96.468 325.337 95.652 325.721 94.944C326.117 94.224 326.669 93.666 327.377 93.27C328.097 92.874 328.919 92.676 329.843 92.676C330.767 92.676 331.583 92.874 332.291 93.27C333.011 93.666 333.563 94.224 333.947 94.944C334.343 95.652 334.541 96.468 334.541 97.392C334.541 98.328 334.343 99.156 333.947 99.876C333.563 100.584 333.011 101.136 332.291 101.532C331.583 101.916 330.767 102.108 329.843 102.108ZM329.843 100.452C330.659 100.452 331.313 100.17 331.805 99.606C332.309 99.03 332.561 98.292 332.561 97.392C332.561 96.492 332.309 95.76 331.805 95.196C331.313 94.62 330.659 94.332 329.843 94.332C329.027 94.332 328.373 94.62 327.881 95.196C327.389 95.76 327.143 96.492 327.143 97.392C327.143 98.292 327.389 99.03 327.881 99.606C328.373 100.17 329.027 100.452 329.843 100.452Z" fill="#001140"/>
<path d="M25.792 128.794C25.8387 129.457 26.1047 129.989 26.59 130.39C27.0753 130.782 27.6913 130.978 28.438 130.978C29.11 130.978 29.6513 130.833 30.062 130.544C30.482 130.245 30.692 129.835 30.692 129.312C30.692 128.929 30.5753 128.626 30.342 128.402C30.118 128.178 29.824 128.015 29.46 127.912C29.1053 127.8 28.62 127.693 28.004 127.59C27.024 127.422 26.2447 127.147 25.666 126.764C25.0873 126.381 24.798 125.761 24.798 124.902C24.798 124.351 24.938 123.866 25.218 123.446C25.498 123.017 25.89 122.685 26.394 122.452C26.9073 122.219 27.4907 122.102 28.144 122.102C28.8347 122.102 29.446 122.228 29.978 122.48C30.51 122.732 30.93 123.087 31.238 123.544C31.546 123.992 31.7187 124.51 31.756 125.098H30.552C30.4773 124.529 30.2207 124.071 29.782 123.726C29.3433 123.381 28.7973 123.208 28.144 123.208C27.4907 123.208 26.9727 123.353 26.59 123.642C26.2073 123.922 26.016 124.319 26.016 124.832C26.016 125.205 26.128 125.499 26.352 125.714C26.576 125.919 26.8653 126.078 27.22 126.19C27.5747 126.293 28.06 126.395 28.676 126.498C29.656 126.666 30.44 126.946 31.028 127.338C31.616 127.721 31.91 128.341 31.91 129.2C31.91 129.76 31.7607 130.259 31.462 130.698C31.1727 131.137 30.762 131.477 30.23 131.72C29.7073 131.963 29.1053 132.084 28.424 132.084C27.6587 132.084 26.9913 131.949 26.422 131.678C25.8527 131.398 25.4093 131.011 25.092 130.516C24.784 130.012 24.616 129.438 24.588 128.794H25.792ZM33.7639 125.91H32.4759V124.86H33.7639V122.858H34.9119V124.86H36.7179V125.91H34.9119V130.124C34.9119 130.423 34.9679 130.637 35.0799 130.768C35.2012 130.889 35.4066 130.95 35.6959 130.95H36.9419V132H35.6259C34.9539 132 34.4732 131.851 34.1839 131.552C33.9039 131.253 33.7639 130.782 33.7639 130.138V125.91ZM44.3272 130.95V132H43.6972C43.2399 132 42.9132 131.907 42.7172 131.72C42.5212 131.533 42.4186 131.258 42.4092 130.894C41.8586 131.687 41.0606 132.084 40.0152 132.084C39.2219 132.084 38.5826 131.897 38.0972 131.524C37.6212 131.151 37.3832 130.642 37.3832 129.998C37.3832 129.279 37.6259 128.729 38.1112 128.346C38.6059 127.963 39.3199 127.772 40.2532 127.772H42.3532V127.282C42.3532 126.815 42.1946 126.451 41.8772 126.19C41.5692 125.929 41.1352 125.798 40.5752 125.798C40.0806 125.798 39.6699 125.91 39.3432 126.134C39.0259 126.349 38.8299 126.638 38.7552 127.002H37.6072C37.6912 126.302 37.9992 125.756 38.5312 125.364C39.0726 124.972 39.7726 124.776 40.6312 124.776C41.5459 124.776 42.2506 125 42.7452 125.448C43.2492 125.887 43.5012 126.521 43.5012 127.352V130.432C43.5012 130.777 43.6599 130.95 43.9772 130.95H44.3272ZM42.3532 128.738H40.1412C39.0772 128.738 38.5452 129.135 38.5452 129.928C38.5452 130.283 38.6852 130.567 38.9652 130.782C39.2452 130.997 39.6232 131.104 40.0992 131.104C40.7992 131.104 41.3499 130.922 41.7512 130.558C42.1526 130.185 42.3532 129.695 42.3532 129.088V128.738ZM45.5087 124.86L47.7067 130.684L49.8347 124.86H51.0527L47.7627 133.204C47.5947 133.633 47.4454 133.955 47.3147 134.17C47.184 134.385 47.0207 134.543 46.8247 134.646C46.6287 134.749 46.3674 134.8 46.0407 134.8H44.6687V133.75H45.6907C45.9147 133.75 46.0827 133.727 46.1947 133.68C46.3067 133.633 46.3954 133.554 46.4607 133.442C46.5354 133.339 46.624 133.162 46.7267 132.91L47.0907 132.056L44.2907 124.86H45.5087ZM61.7191 124.86V132H60.7251L60.5711 131.048C60.0297 131.739 59.2691 132.084 58.2891 132.084C57.4397 132.084 56.7584 131.823 56.2451 131.3C55.7317 130.777 55.4751 129.956 55.4751 128.836V124.86H56.6231V128.766C56.6231 129.503 56.7817 130.068 57.0991 130.46C57.4257 130.843 57.8877 131.034 58.4851 131.034C59.1384 131.034 59.6471 130.801 60.0111 130.334C60.3844 129.867 60.5711 129.233 60.5711 128.43V124.86H61.7191ZM66.882 124.776C67.5447 124.776 68.1327 124.921 68.646 125.21C69.1687 125.499 69.5747 125.919 69.864 126.47C70.1627 127.021 70.312 127.674 70.312 128.43C70.312 129.149 70.1627 129.783 69.864 130.334C69.5747 130.885 69.1687 131.314 68.646 131.622C68.1233 131.93 67.5353 132.084 66.882 132.084C66.3033 132.084 65.8087 131.981 65.398 131.776C64.9873 131.561 64.6653 131.272 64.432 130.908V134.8H63.284V124.86H64.278L64.432 126.008C65.0293 125.187 65.846 124.776 66.882 124.776ZM66.77 131.062C67.4793 131.062 68.0487 130.819 68.478 130.334C68.9167 129.839 69.136 129.205 69.136 128.43C69.136 127.655 68.9167 127.025 68.478 126.54C68.0487 126.045 67.4793 125.798 66.77 125.798C66.3127 125.798 65.902 125.91 65.538 126.134C65.1833 126.349 64.908 126.657 64.712 127.058C64.516 127.45 64.418 127.898 64.418 128.402C64.418 128.915 64.516 129.377 64.712 129.788C64.908 130.189 65.1833 130.502 65.538 130.726C65.902 130.95 66.3127 131.062 66.77 131.062ZM78.3998 122.2V132H77.4058L77.2518 130.852C76.6545 131.673 75.8378 132.084 74.8018 132.084C74.1392 132.084 73.5465 131.939 73.0238 131.65C72.5105 131.361 72.1045 130.941 71.8058 130.39C71.5165 129.839 71.3718 129.186 71.3718 128.43C71.3718 127.711 71.5165 127.077 71.8058 126.526C72.1045 125.975 72.5152 125.546 73.0378 125.238C73.5605 124.93 74.1485 124.776 74.8018 124.776C75.3805 124.776 75.8752 124.883 76.2858 125.098C76.6965 125.303 77.0185 125.588 77.2518 125.952V122.2H78.3998ZM74.9138 131.062C75.3712 131.062 75.7772 130.955 76.1318 130.74C76.4958 130.516 76.7758 130.208 76.9718 129.816C77.1678 129.415 77.2658 128.962 77.2658 128.458C77.2658 127.945 77.1678 127.487 76.9718 127.086C76.7758 126.675 76.4958 126.358 76.1318 126.134C75.7772 125.91 75.3712 125.798 74.9138 125.798C74.2045 125.798 73.6305 126.045 73.1918 126.54C72.7625 127.025 72.5478 127.655 72.5478 128.43C72.5478 129.205 72.7625 129.839 73.1918 130.334C73.6305 130.819 74.2045 131.062 74.9138 131.062ZM86.6417 130.95V132H86.0117C85.5544 132 85.2277 131.907 85.0317 131.72C84.8357 131.533 84.733 131.258 84.7237 130.894C84.173 131.687 83.375 132.084 82.3297 132.084C81.5364 132.084 80.897 131.897 80.4117 131.524C79.9357 131.151 79.6977 130.642 79.6977 129.998C79.6977 129.279 79.9404 128.729 80.4257 128.346C80.9204 127.963 81.6344 127.772 82.5677 127.772H84.6677V127.282C84.6677 126.815 84.509 126.451 84.1917 126.19C83.8837 125.929 83.4497 125.798 82.8897 125.798C82.395 125.798 81.9844 125.91 81.6577 126.134C81.3404 126.349 81.1444 126.638 81.0697 127.002H79.9217C80.0057 126.302 80.3137 125.756 80.8457 125.364C81.387 124.972 82.087 124.776 82.9457 124.776C83.8604 124.776 84.565 125 85.0597 125.448C85.5637 125.887 85.8157 126.521 85.8157 127.352V130.432C85.8157 130.777 85.9744 130.95 86.2917 130.95H86.6417ZM84.6677 128.738H82.4557C81.3917 128.738 80.8597 129.135 80.8597 129.928C80.8597 130.283 80.9997 130.567 81.2797 130.782C81.5597 130.997 81.9377 131.104 82.4137 131.104C83.1137 131.104 83.6644 130.922 84.0657 130.558C84.467 130.185 84.6677 129.695 84.6677 129.088V128.738ZM88.0002 125.91H86.7122V124.86H88.0002V122.858H89.1482V124.86H90.9542V125.91H89.1482V130.124C89.1482 130.423 89.2042 130.637 89.3162 130.768C89.4376 130.889 89.6429 130.95 89.9322 130.95H91.1782V132H89.8622C89.1902 132 88.7096 131.851 88.4202 131.552C88.1402 131.253 88.0002 130.782 88.0002 130.138V125.91ZM91.5652 128.43C91.5652 127.702 91.7052 127.063 91.9852 126.512C92.2745 125.961 92.6759 125.537 93.1892 125.238C93.7025 124.93 94.2905 124.776 94.9532 124.776C95.6065 124.776 96.1852 124.911 96.6892 125.182C97.1932 125.453 97.5899 125.845 97.8792 126.358C98.1685 126.871 98.3225 127.473 98.3412 128.164C98.3412 128.267 98.3319 128.43 98.3132 128.654H92.7692V128.752C92.7879 129.452 93.0025 130.012 93.4132 130.432C93.8239 130.852 94.3605 131.062 95.0232 131.062C95.5365 131.062 95.9705 130.936 96.3252 130.684C96.6892 130.423 96.9319 130.063 97.0532 129.606H98.2152C98.0752 130.334 97.7252 130.931 97.1652 131.398C96.6052 131.855 95.9192 132.084 95.1072 132.084C94.3979 132.084 93.7772 131.935 93.2452 131.636C92.7132 131.328 92.2979 130.899 91.9992 130.348C91.7099 129.788 91.5652 129.149 91.5652 128.43ZM97.1512 127.702C97.0952 127.095 96.8665 126.624 96.4652 126.288C96.0732 125.952 95.5739 125.784 94.9672 125.784C94.4259 125.784 93.9499 125.961 93.5392 126.316C93.1285 126.671 92.8952 127.133 92.8392 127.702H97.1512ZM106.427 122.2V132H105.433L105.279 130.852C104.682 131.673 103.865 132.084 102.829 132.084C102.167 132.084 101.574 131.939 101.051 131.65C100.538 131.361 100.132 130.941 99.8332 130.39C99.5439 129.839 99.3992 129.186 99.3992 128.43C99.3992 127.711 99.5439 127.077 99.8332 126.526C100.132 125.975 100.543 125.546 101.065 125.238C101.588 124.93 102.176 124.776 102.829 124.776C103.408 124.776 103.903 124.883 104.313 125.098C104.724 125.303 105.046 125.588 105.279 125.952V122.2H106.427ZM102.941 131.062C103.399 131.062 103.805 130.955 104.159 130.74C104.523 130.516 104.803 130.208 104.999 129.816C105.195 129.415 105.293 128.962 105.293 128.458C105.293 127.945 105.195 127.487 104.999 127.086C104.803 126.675 104.523 126.358 104.159 126.134C103.805 125.91 103.399 125.798 102.941 125.798C102.232 125.798 101.658 126.045 101.219 126.54C100.79 127.025 100.575 127.655 100.575 128.43C100.575 129.205 100.79 129.839 101.219 130.334C101.658 130.819 102.232 131.062 102.941 131.062ZM110.983 124.86H112.187L113.965 130.67L115.841 124.86H116.905L118.683 130.67L120.545 124.86H121.707L119.327 132H118.067L116.345 126.694L114.553 132L113.293 132.014L110.983 124.86ZM123.18 122.102C123.395 122.102 123.572 122.172 123.712 122.312C123.852 122.452 123.922 122.629 123.922 122.844C123.922 123.059 123.852 123.236 123.712 123.376C123.572 123.516 123.395 123.586 123.18 123.586C122.966 123.586 122.788 123.516 122.648 123.376C122.508 123.236 122.438 123.059 122.438 122.844C122.438 122.629 122.508 122.452 122.648 122.312C122.788 122.172 122.966 122.102 123.18 122.102ZM122.606 124.86H123.754V132H122.606V124.86ZM125.803 125.91H124.515V124.86H125.803V122.858H126.951V124.86H128.757V125.91H126.951V130.124C126.951 130.423 127.007 130.637 127.119 130.768C127.24 130.889 127.446 130.95 127.735 130.95H128.981V132H127.665C126.993 132 126.512 131.851 126.223 131.552C125.943 131.253 125.803 130.782 125.803 130.138V125.91ZM133.298 124.776C134.166 124.776 134.866 125.037 135.398 125.56C135.93 126.083 136.196 126.904 136.196 128.024V132H135.048V128.094C135.048 127.357 134.88 126.797 134.544 126.414C134.208 126.022 133.727 125.826 133.102 125.826C132.439 125.826 131.912 126.059 131.52 126.526C131.137 126.993 130.946 127.627 130.946 128.43V132H129.798V122.2H130.946V126.036C131.179 125.663 131.487 125.359 131.87 125.126C132.262 124.893 132.738 124.776 133.298 124.776ZM144.949 124.86V125.98H144.375C143.694 125.98 143.204 126.209 142.905 126.666C142.616 127.123 142.471 127.688 142.471 128.36V132H141.323V124.86H142.317L142.471 125.938C142.676 125.611 142.942 125.35 143.269 125.154C143.596 124.958 144.048 124.86 144.627 124.86H144.949ZM145.337 128.43C145.337 127.702 145.477 127.063 145.757 126.512C146.046 125.961 146.447 125.537 146.961 125.238C147.474 124.93 148.062 124.776 148.725 124.776C149.378 124.776 149.957 124.911 150.461 125.182C150.965 125.453 151.361 125.845 151.651 126.358C151.94 126.871 152.094 127.473 152.113 128.164C152.113 128.267 152.103 128.43 152.085 128.654H146.541V128.752C146.559 129.452 146.774 130.012 147.185 130.432C147.595 130.852 148.132 131.062 148.795 131.062C149.308 131.062 149.742 130.936 150.097 130.684C150.461 130.423 150.703 130.063 150.825 129.606H151.987C151.847 130.334 151.497 130.931 150.937 131.398C150.377 131.855 149.691 132.084 148.879 132.084C148.169 132.084 147.549 131.935 147.017 131.636C146.485 131.328 146.069 130.899 145.771 130.348C145.481 129.788 145.337 129.149 145.337 128.43ZM150.923 127.702C150.867 127.095 150.638 126.624 150.237 126.288C149.845 125.952 149.345 125.784 148.739 125.784C148.197 125.784 147.721 125.961 147.311 126.316C146.9 126.671 146.667 127.133 146.611 127.702H150.923ZM160.101 130.95V132H159.471C159.013 132 158.687 131.907 158.491 131.72C158.295 131.533 158.192 131.258 158.183 130.894C157.632 131.687 156.834 132.084 155.789 132.084C154.995 132.084 154.356 131.897 153.871 131.524C153.395 131.151 153.157 130.642 153.157 129.998C153.157 129.279 153.399 128.729 153.885 128.346C154.379 127.963 155.093 127.772 156.027 127.772H158.127V127.282C158.127 126.815 157.968 126.451 157.651 126.19C157.343 125.929 156.909 125.798 156.349 125.798C155.854 125.798 155.443 125.91 155.117 126.134C154.799 126.349 154.603 126.638 154.529 127.002H153.381C153.465 126.302 153.773 125.756 154.305 125.364C154.846 124.972 155.546 124.776 156.405 124.776C157.319 124.776 158.024 125 158.519 125.448C159.023 125.887 159.275 126.521 159.275 127.352V130.432C159.275 130.777 159.433 130.95 159.751 130.95H160.101ZM158.127 128.738H155.915C154.851 128.738 154.319 129.135 154.319 129.928C154.319 130.283 154.459 130.567 154.739 130.782C155.019 130.997 155.397 131.104 155.873 131.104C156.573 131.104 157.123 130.922 157.525 130.558C157.926 130.185 158.127 129.695 158.127 129.088V128.738ZM160.983 122.2H162.131V132H160.983V122.2ZM163.648 128.5V127.548H168.31V128.5H163.648ZM170.1 125.91H168.812V124.86H170.1V122.858H171.248V124.86H173.054V125.91H171.248V130.124C171.248 130.423 171.304 130.637 171.416 130.768C171.537 130.889 171.743 130.95 172.032 130.95H173.278V132H171.962C171.29 132 170.809 131.851 170.52 131.552C170.24 131.253 170.1 130.782 170.1 130.138V125.91ZM174.669 122.102C174.883 122.102 175.061 122.172 175.201 122.312C175.341 122.452 175.411 122.629 175.411 122.844C175.411 123.059 175.341 123.236 175.201 123.376C175.061 123.516 174.883 123.586 174.669 123.586C174.454 123.586 174.277 123.516 174.137 123.376C173.997 123.236 173.927 123.059 173.927 122.844C173.927 122.629 173.997 122.452 174.137 122.312C174.277 122.172 174.454 122.102 174.669 122.102ZM174.095 124.86H175.243V132H174.095V124.86ZM184.781 124.776C185.584 124.776 186.233 125.028 186.727 125.532C187.231 126.036 187.483 126.82 187.483 127.884V132H186.335V127.954C186.335 127.263 186.186 126.736 185.887 126.372C185.598 126.008 185.183 125.826 184.641 125.826C184.044 125.826 183.573 126.036 183.227 126.456C182.891 126.876 182.723 127.45 182.723 128.178V132H181.575V127.954C181.575 127.263 181.426 126.736 181.127 126.372C180.829 126.008 180.404 125.826 179.853 125.826C179.275 125.826 178.813 126.05 178.467 126.498C178.131 126.937 177.963 127.515 177.963 128.234V132H176.815V124.86H177.809L177.963 125.84C178.477 125.131 179.172 124.776 180.049 124.776C180.563 124.776 181.015 124.893 181.407 125.126C181.809 125.35 182.107 125.686 182.303 126.134C182.817 125.229 183.643 124.776 184.781 124.776ZM188.704 128.43C188.704 127.702 188.844 127.063 189.124 126.512C189.413 125.961 189.815 125.537 190.328 125.238C190.841 124.93 191.429 124.776 192.092 124.776C192.745 124.776 193.324 124.911 193.828 125.182C194.332 125.453 194.729 125.845 195.018 126.358C195.307 126.871 195.461 127.473 195.48 128.164C195.48 128.267 195.471 128.43 195.452 128.654H189.908V128.752C189.927 129.452 190.141 130.012 190.552 130.432C190.963 130.852 191.499 131.062 192.162 131.062C192.675 131.062 193.109 130.936 193.464 130.684C193.828 130.423 194.071 130.063 194.192 129.606H195.354C195.214 130.334 194.864 130.931 194.304 131.398C193.744 131.855 193.058 132.084 192.246 132.084C191.537 132.084 190.916 131.935 190.384 131.636C189.852 131.328 189.437 130.899 189.138 130.348C188.849 129.788 188.704 129.149 188.704 128.43ZM194.29 127.702C194.234 127.095 194.005 126.624 193.604 126.288C193.212 125.952 192.713 125.784 192.106 125.784C191.565 125.784 191.089 125.961 190.678 126.316C190.267 126.671 190.034 127.133 189.978 127.702H194.29ZM203.954 124.776C204.822 124.776 205.517 125.037 206.04 125.56C206.572 126.083 206.838 126.904 206.838 128.024V132H205.69V128.094C205.69 127.357 205.522 126.797 205.186 126.414C204.859 126.022 204.383 125.826 203.758 125.826C203.086 125.826 202.559 126.059 202.176 126.526C201.793 126.993 201.602 127.627 201.602 128.43V132H200.454V124.86H201.448L201.602 125.826C202.143 125.126 202.927 124.776 203.954 124.776ZM211.592 132.084C210.901 132.084 210.285 131.93 209.744 131.622C209.212 131.314 208.796 130.885 208.498 130.334C208.199 129.783 208.05 129.149 208.05 128.43C208.05 127.711 208.199 127.077 208.498 126.526C208.796 125.975 209.212 125.546 209.744 125.238C210.285 124.93 210.901 124.776 211.592 124.776C212.282 124.776 212.894 124.93 213.426 125.238C213.967 125.546 214.387 125.975 214.686 126.526C214.984 127.077 215.134 127.711 215.134 128.43C215.134 129.149 214.984 129.783 214.686 130.334C214.387 130.885 213.967 131.314 213.426 131.622C212.894 131.93 212.282 132.084 211.592 132.084ZM211.592 131.062C212.058 131.062 212.469 130.95 212.824 130.726C213.188 130.502 213.468 130.189 213.664 129.788C213.86 129.387 213.958 128.934 213.958 128.43C213.958 127.926 213.86 127.473 213.664 127.072C213.468 126.671 213.188 126.358 212.824 126.134C212.469 125.91 212.058 125.798 211.592 125.798C211.125 125.798 210.71 125.91 210.346 126.134C209.991 126.358 209.716 126.671 209.52 127.072C209.324 127.473 209.226 127.926 209.226 128.43C209.226 128.934 209.324 129.387 209.52 129.788C209.716 130.189 209.991 130.502 210.346 130.726C210.71 130.95 211.125 131.062 211.592 131.062ZM216.844 125.91H215.556V124.86H216.844V122.858H217.992V124.86H219.798V125.91H217.992V130.124C217.992 130.423 218.048 130.637 218.16 130.768C218.281 130.889 218.487 130.95 218.776 130.95H220.022V132H218.706C218.034 132 217.553 131.851 217.264 131.552C216.984 131.253 216.844 130.782 216.844 130.138V125.91ZM221.413 122.102C221.627 122.102 221.805 122.172 221.945 122.312C222.085 122.452 222.155 122.629 222.155 122.844C222.155 123.059 222.085 123.236 221.945 123.376C221.805 123.516 221.627 123.586 221.413 123.586C221.198 123.586 221.021 123.516 220.881 123.376C220.741 123.236 220.671 123.059 220.671 122.844C220.671 122.629 220.741 122.452 220.881 122.312C221.021 122.172 221.198 122.102 221.413 122.102ZM220.839 124.86H221.987V132H220.839V124.86ZM228.697 123.586C228.483 123.586 228.305 123.516 228.165 123.376C228.025 123.236 227.955 123.059 227.955 122.844C227.955 122.629 228.025 122.452 228.165 122.312C228.305 122.172 228.483 122.102 228.697 122.102C228.912 122.102 229.089 122.172 229.229 122.312C229.369 122.452 229.439 122.629 229.439 122.844C229.439 123.059 229.369 123.236 229.229 123.376C229.089 123.516 228.912 123.586 228.697 123.586ZM229.271 132H228.123V125.91H225.183V132H224.035V125.91H222.747V124.86H224.035V124.062C224.035 123.427 224.18 122.961 224.469 122.662C224.768 122.354 225.244 122.2 225.897 122.2H227.073V123.25H225.967C225.687 123.25 225.487 123.311 225.365 123.432C225.244 123.553 225.183 123.754 225.183 124.034V124.86H229.271V132ZM237.203 129.536C237.053 130.329 236.703 130.955 236.153 131.412C235.602 131.86 234.902 132.084 234.053 132.084C233.362 132.084 232.755 131.93 232.233 131.622C231.71 131.314 231.304 130.885 231.015 130.334C230.725 129.774 230.581 129.135 230.581 128.416C230.581 127.697 230.725 127.063 231.015 126.512C231.313 125.961 231.729 125.537 232.261 125.238C232.793 124.93 233.404 124.776 234.095 124.776C234.935 124.776 235.625 125 236.167 125.448C236.717 125.896 237.063 126.512 237.203 127.296H236.041C235.929 126.839 235.695 126.475 235.341 126.204C234.986 125.933 234.557 125.798 234.053 125.798C233.371 125.798 232.816 126.041 232.387 126.526C231.967 127.011 231.757 127.641 231.757 128.416C231.757 129.2 231.967 129.839 232.387 130.334C232.816 130.819 233.371 131.062 234.053 131.062C234.575 131.062 235.014 130.927 235.369 130.656C235.723 130.385 235.952 130.012 236.055 129.536H237.203ZM245.208 130.95V132H244.578C244.121 132 243.794 131.907 243.598 131.72C243.402 131.533 243.299 131.258 243.29 130.894C242.739 131.687 241.941 132.084 240.896 132.084C240.103 132.084 239.463 131.897 238.978 131.524C238.502 131.151 238.264 130.642 238.264 129.998C238.264 129.279 238.507 128.729 238.992 128.346C239.487 127.963 240.201 127.772 241.134 127.772H243.234V127.282C243.234 126.815 243.075 126.451 242.758 126.19C242.45 125.929 242.016 125.798 241.456 125.798C240.961 125.798 240.551 125.91 240.224 126.134C239.907 126.349 239.711 126.638 239.636 127.002H238.488C238.572 126.302 238.88 125.756 239.412 125.364C239.953 124.972 240.653 124.776 241.512 124.776C242.427 124.776 243.131 125 243.626 125.448C244.13 125.887 244.382 126.521 244.382 127.352V130.432C244.382 130.777 244.541 130.95 244.858 130.95H245.208ZM243.234 128.738H241.022C239.958 128.738 239.426 129.135 239.426 129.928C239.426 130.283 239.566 130.567 239.846 130.782C240.126 130.997 240.504 131.104 240.98 131.104C241.68 131.104 242.231 130.922 242.632 130.558C243.033 130.185 243.234 129.695 243.234 129.088V128.738ZM246.567 125.91H245.279V124.86H246.567V122.858H247.715V124.86H249.521V125.91H247.715V130.124C247.715 130.423 247.771 130.637 247.883 130.768C248.004 130.889 248.209 130.95 248.499 130.95H249.745V132H248.429C247.757 132 247.276 131.851 246.987 131.552C246.707 131.253 246.567 130.782 246.567 130.138V125.91ZM251.135 122.102C251.35 122.102 251.527 122.172 251.667 122.312C251.807 122.452 251.877 122.629 251.877 122.844C251.877 123.059 251.807 123.236 251.667 123.376C251.527 123.516 251.35 123.586 251.135 123.586C250.921 123.586 250.743 123.516 250.603 123.376C250.463 123.236 250.393 123.059 250.393 122.844C250.393 122.629 250.463 122.452 250.603 122.312C250.743 122.172 250.921 122.102 251.135 122.102ZM250.561 124.86H251.709V132H250.561V124.86ZM256.572 132.084C255.881 132.084 255.265 131.93 254.724 131.622C254.192 131.314 253.777 130.885 253.478 130.334C253.179 129.783 253.03 129.149 253.03 128.43C253.03 127.711 253.179 127.077 253.478 126.526C253.777 125.975 254.192 125.546 254.724 125.238C255.265 124.93 255.881 124.776 256.572 124.776C257.263 124.776 257.874 124.93 258.406 125.238C258.947 125.546 259.367 125.975 259.666 126.526C259.965 127.077 260.114 127.711 260.114 128.43C260.114 129.149 259.965 129.783 259.666 130.334C259.367 130.885 258.947 131.314 258.406 131.622C257.874 131.93 257.263 132.084 256.572 132.084ZM256.572 131.062C257.039 131.062 257.449 130.95 257.804 130.726C258.168 130.502 258.448 130.189 258.644 129.788C258.84 129.387 258.938 128.934 258.938 128.43C258.938 127.926 258.84 127.473 258.644 127.072C258.448 126.671 258.168 126.358 257.804 126.134C257.449 125.91 257.039 125.798 256.572 125.798C256.105 125.798 255.69 125.91 255.326 126.134C254.971 126.358 254.696 126.671 254.5 127.072C254.304 127.473 254.206 127.926 254.206 128.43C254.206 128.934 254.304 129.387 254.5 129.788C254.696 130.189 254.971 130.502 255.326 130.726C255.69 130.95 256.105 131.062 256.572 131.062ZM264.93 124.776C265.798 124.776 266.494 125.037 267.016 125.56C267.548 126.083 267.814 126.904 267.814 128.024V132H266.666V128.094C266.666 127.357 266.498 126.797 266.162 126.414C265.836 126.022 265.36 125.826 264.734 125.826C264.062 125.826 263.535 126.059 263.152 126.526C262.77 126.993 262.578 127.627 262.578 128.43V132H261.43V124.86H262.424L262.578 125.826C263.12 125.126 263.904 124.776 264.93 124.776ZM270.174 129.648C270.193 130.077 270.379 130.427 270.734 130.698C271.098 130.969 271.565 131.104 272.134 131.104C272.638 131.104 273.044 131.006 273.352 130.81C273.669 130.605 273.828 130.339 273.828 130.012C273.828 129.732 273.753 129.517 273.604 129.368C273.455 129.219 273.259 129.116 273.016 129.06C272.783 129.004 272.447 128.948 272.008 128.892C271.392 128.817 270.888 128.719 270.496 128.598C270.104 128.477 269.787 128.285 269.544 128.024C269.301 127.753 269.18 127.385 269.18 126.918C269.18 126.498 269.297 126.125 269.53 125.798C269.773 125.471 270.099 125.219 270.51 125.042C270.921 124.855 271.383 124.762 271.896 124.762C272.736 124.762 273.417 124.958 273.94 125.35C274.472 125.742 274.766 126.302 274.822 127.03H273.674C273.627 126.657 273.445 126.349 273.128 126.106C272.811 125.863 272.414 125.742 271.938 125.742C271.453 125.742 271.061 125.845 270.762 126.05C270.463 126.246 270.314 126.507 270.314 126.834C270.314 127.077 270.384 127.263 270.524 127.394C270.664 127.525 270.841 127.613 271.056 127.66C271.28 127.707 271.616 127.758 272.064 127.814C272.689 127.889 273.203 127.991 273.604 128.122C274.015 128.253 274.341 128.463 274.584 128.752C274.836 129.041 274.962 129.433 274.962 129.928C274.962 130.357 274.836 130.735 274.584 131.062C274.332 131.389 273.991 131.641 273.562 131.818C273.133 131.995 272.657 132.084 272.134 132.084C271.201 132.084 270.449 131.869 269.88 131.44C269.32 131.011 269.035 130.413 269.026 129.648H270.174ZM286.607 130.95V132H285.977C285.519 132 285.193 131.907 284.997 131.72C284.801 131.533 284.698 131.258 284.689 130.894C284.138 131.687 283.34 132.084 282.295 132.084C281.501 132.084 280.862 131.897 280.377 131.524C279.901 131.151 279.663 130.642 279.663 129.998C279.663 129.279 279.905 128.729 280.391 128.346C280.885 127.963 281.599 127.772 282.533 127.772H284.633V127.282C284.633 126.815 284.474 126.451 284.157 126.19C283.849 125.929 283.415 125.798 282.855 125.798C282.36 125.798 281.949 125.91 281.623 126.134C281.305 126.349 281.109 126.638 281.035 127.002H279.887C279.971 126.302 280.279 125.756 280.811 125.364C281.352 124.972 282.052 124.776 282.911 124.776C283.825 124.776 284.53 125 285.025 125.448C285.529 125.887 285.781 126.521 285.781 127.352V130.432C285.781 130.777 285.939 130.95 286.257 130.95H286.607ZM284.633 128.738H282.421C281.357 128.738 280.825 129.135 280.825 129.928C280.825 130.283 280.965 130.567 281.245 130.782C281.525 130.997 281.903 131.104 282.379 131.104C283.079 131.104 283.629 130.922 284.031 130.558C284.432 130.185 284.633 129.695 284.633 129.088V128.738ZM290.989 124.776C291.857 124.776 292.552 125.037 293.075 125.56C293.607 126.083 293.873 126.904 293.873 128.024V132H292.725V128.094C292.725 127.357 292.557 126.797 292.221 126.414C291.894 126.022 291.418 125.826 290.793 125.826C290.121 125.826 289.594 126.059 289.211 126.526C288.828 126.993 288.637 127.627 288.637 128.43V132H287.489V124.86H288.483L288.637 125.826C289.178 125.126 289.962 124.776 290.989 124.776ZM302.113 122.2V132H301.119L300.965 130.852C300.367 131.673 299.551 132.084 298.515 132.084C297.852 132.084 297.259 131.939 296.737 131.65C296.223 131.361 295.817 130.941 295.519 130.39C295.229 129.839 295.085 129.186 295.085 128.43C295.085 127.711 295.229 127.077 295.519 126.526C295.817 125.975 296.228 125.546 296.751 125.238C297.273 124.93 297.861 124.776 298.515 124.776C299.093 124.776 299.588 124.883 299.999 125.098C300.409 125.303 300.731 125.588 300.965 125.952V122.2H302.113ZM298.627 131.062C299.084 131.062 299.49 130.955 299.845 130.74C300.209 130.516 300.489 130.208 300.685 129.816C300.881 129.415 300.979 128.962 300.979 128.458C300.979 127.945 300.881 127.487 300.685 127.086C300.489 126.675 300.209 126.358 299.845 126.134C299.49 125.91 299.084 125.798 298.627 125.798C297.917 125.798 297.343 126.045 296.905 126.54C296.475 127.025 296.261 127.655 296.261 128.43C296.261 129.205 296.475 129.839 296.905 130.334C297.343 130.819 297.917 131.062 298.627 131.062ZM307.817 125.91H306.529V124.86H307.817V122.858H308.965V124.86H310.771V125.91H308.965V130.124C308.965 130.423 309.021 130.637 309.133 130.768C309.254 130.889 309.459 130.95 309.749 130.95H310.995V132H309.679C309.007 132 308.526 131.851 308.237 131.552C307.957 131.253 307.817 130.782 307.817 130.138V125.91ZM315.437 124.86V125.98H314.863C314.182 125.98 313.692 126.209 313.393 126.666C313.104 127.123 312.959 127.688 312.959 128.36V132H311.811V124.86H312.805L312.959 125.938C313.165 125.611 313.431 125.35 313.757 125.154C314.084 124.958 314.537 124.86 315.115 124.86H315.437ZM322.823 130.95V132H322.193C321.736 132 321.409 131.907 321.213 131.72C321.017 131.533 320.915 131.258 320.905 130.894C320.355 131.687 319.557 132.084 318.511 132.084C317.718 132.084 317.079 131.897 316.593 131.524C316.117 131.151 315.879 130.642 315.879 129.998C315.879 129.279 316.122 128.729 316.607 128.346C317.102 127.963 317.816 127.772 318.749 127.772H320.849V127.282C320.849 126.815 320.691 126.451 320.373 126.19C320.065 125.929 319.631 125.798 319.071 125.798C318.577 125.798 318.166 125.91 317.839 126.134C317.522 126.349 317.326 126.638 317.251 127.002H316.103C316.187 126.302 316.495 125.756 317.027 125.364C317.569 124.972 318.269 124.776 319.127 124.776C320.042 124.776 320.747 125 321.241 125.448C321.745 125.887 321.997 126.521 321.997 127.352V130.432C321.997 130.777 322.156 130.95 322.473 130.95H322.823ZM320.849 128.738H318.637C317.573 128.738 317.041 129.135 317.041 129.928C317.041 130.283 317.181 130.567 317.461 130.782C317.741 130.997 318.119 131.104 318.595 131.104C319.295 131.104 319.846 130.922 320.247 130.558C320.649 130.185 320.849 129.695 320.849 129.088V128.738ZM330.076 129.536C329.927 130.329 329.577 130.955 329.026 131.412C328.475 131.86 327.775 132.084 326.926 132.084C326.235 132.084 325.629 131.93 325.106 131.622C324.583 131.314 324.177 130.885 323.888 130.334C323.599 129.774 323.454 129.135 323.454 128.416C323.454 127.697 323.599 127.063 323.888 126.512C324.187 125.961 324.602 125.537 325.134 125.238C325.666 124.93 326.277 124.776 326.968 124.776C327.808 124.776 328.499 125 329.04 125.448C329.591 125.896 329.936 126.512 330.076 127.296H328.914C328.802 126.839 328.569 126.475 328.214 126.204C327.859 125.933 327.43 125.798 326.926 125.798C326.245 125.798 325.689 126.041 325.26 126.526C324.84 127.011 324.63 127.641 324.63 128.416C324.63 129.2 324.84 129.839 325.26 130.334C325.689 130.819 326.245 131.062 326.926 131.062C327.449 131.062 327.887 130.927 328.242 130.656C328.597 130.385 328.825 130.012 328.928 129.536H330.076ZM331.403 122.2H332.551V128.696L336.177 124.86H337.549L334.805 127.786L337.745 132H336.359L333.979 128.612L332.551 130.11V132H331.403V122.2ZM342.776 125.91H341.488V124.86H342.776V122.858H343.924V124.86H345.73V125.91H343.924V130.124C343.924 130.423 343.98 130.637 344.092 130.768C344.213 130.889 344.418 130.95 344.708 130.95H345.954V132H344.638C343.966 132 343.485 131.851 343.196 131.552C342.916 131.253 342.776 130.782 342.776 130.138V125.91ZM350.27 124.776C351.138 124.776 351.838 125.037 352.37 125.56C352.902 126.083 353.168 126.904 353.168 128.024V132H352.02V128.094C352.02 127.357 351.852 126.797 351.516 126.414C351.18 126.022 350.7 125.826 350.074 125.826C349.412 125.826 348.884 126.059 348.492 126.526C348.11 126.993 347.918 127.627 347.918 128.43V132H346.77V122.2H347.918V126.036C348.152 125.663 348.46 125.359 348.842 125.126C349.234 124.893 349.71 124.776 350.27 124.776ZM354.38 128.43C354.38 127.702 354.52 127.063 354.8 126.512C355.089 125.961 355.49 125.537 356.004 125.238C356.517 124.93 357.105 124.776 357.768 124.776C358.421 124.776 359 124.911 359.504 125.182C360.008 125.453 360.404 125.845 360.694 126.358C360.983 126.871 361.137 127.473 361.156 128.164C361.156 128.267 361.146 128.43 361.128 128.654H355.584V128.752C355.602 129.452 355.817 130.012 356.228 130.432C356.638 130.852 357.175 131.062 357.838 131.062C358.351 131.062 358.785 130.936 359.14 130.684C359.504 130.423 359.746 130.063 359.868 129.606H361.03C360.89 130.334 360.54 130.931 359.98 131.398C359.42 131.855 358.734 132.084 357.922 132.084C357.212 132.084 356.592 131.935 356.06 131.636C355.528 131.328 355.112 130.899 354.814 130.348C354.524 129.788 354.38 129.149 354.38 128.43ZM359.966 127.702C359.91 127.095 359.681 126.624 359.28 126.288C358.888 125.952 358.388 125.784 357.782 125.784C357.24 125.784 356.764 125.961 356.354 126.316C355.943 126.671 355.71 127.133 355.654 127.702H359.966ZM25.68 146.648C25.6987 147.077 25.8853 147.427 26.24 147.698C26.604 147.969 27.0707 148.104 27.64 148.104C28.144 148.104 28.55 148.006 28.858 147.81C29.1753 147.605 29.334 147.339 29.334 147.012C29.334 146.732 29.2593 146.517 29.11 146.368C28.9607 146.219 28.7647 146.116 28.522 146.06C28.2887 146.004 27.9527 145.948 27.514 145.892C26.898 145.817 26.394 145.719 26.002 145.598C25.61 145.477 25.2927 145.285 25.05 145.024C24.8073 144.753 24.686 144.385 24.686 143.918C24.686 143.498 24.8027 143.125 25.036 142.798C25.2787 142.471 25.6053 142.219 26.016 142.042C26.4267 141.855 26.8887 141.762 27.402 141.762C28.242 141.762 28.9233 141.958 29.446 142.35C29.978 142.742 30.272 143.302 30.328 144.03H29.18C29.1333 143.657 28.9513 143.349 28.634 143.106C28.3167 142.863 27.92 142.742 27.444 142.742C26.9587 142.742 26.5667 142.845 26.268 143.05C25.9693 143.246 25.82 143.507 25.82 143.834C25.82 144.077 25.89 144.263 26.03 144.394C26.17 144.525 26.3473 144.613 26.562 144.66C26.786 144.707 27.122 144.758 27.57 144.814C28.1953 144.889 28.7087 144.991 29.11 145.122C29.5207 145.253 29.8473 145.463 30.09 145.752C30.342 146.041 30.468 146.433 30.468 146.928C30.468 147.357 30.342 147.735 30.09 148.062C29.838 148.389 29.4973 148.641 29.068 148.818C28.6387 148.995 28.1627 149.084 27.64 149.084C26.7067 149.084 25.9553 148.869 25.386 148.44C24.826 148.011 24.5413 147.413 24.532 146.648H25.68ZM32.2463 142.91H30.9583V141.86H32.2463V139.858H33.3943V141.86H35.2003V142.91H33.3943V147.124C33.3943 147.423 33.4503 147.637 33.5623 147.768C33.6837 147.889 33.889 147.95 34.1783 147.95H35.4243V149H34.1083C33.4363 149 32.9557 148.851 32.6663 148.552C32.3863 148.253 32.2463 147.782 32.2463 147.138V142.91ZM42.8097 147.95V149H42.1797C41.7223 149 41.3957 148.907 41.1997 148.72C41.0037 148.533 40.901 148.258 40.8917 147.894C40.341 148.687 39.543 149.084 38.4977 149.084C37.7043 149.084 37.065 148.897 36.5797 148.524C36.1037 148.151 35.8657 147.642 35.8657 146.998C35.8657 146.279 36.1083 145.729 36.5937 145.346C37.0883 144.963 37.8023 144.772 38.7357 144.772H40.8357V144.282C40.8357 143.815 40.677 143.451 40.3597 143.19C40.0517 142.929 39.6177 142.798 39.0577 142.798C38.563 142.798 38.1523 142.91 37.8257 143.134C37.5083 143.349 37.3123 143.638 37.2377 144.002H36.0897C36.1737 143.302 36.4817 142.756 37.0137 142.364C37.555 141.972 38.255 141.776 39.1137 141.776C40.0283 141.776 40.733 142 41.2277 142.448C41.7317 142.887 41.9837 143.521 41.9837 144.352V147.432C41.9837 147.777 42.1423 147.95 42.4597 147.95H42.8097ZM40.8357 145.738H38.6237C37.5597 145.738 37.0277 146.135 37.0277 146.928C37.0277 147.283 37.1677 147.567 37.4477 147.782C37.7277 147.997 38.1057 148.104 38.5817 148.104C39.2817 148.104 39.8323 147.922 40.2337 147.558C40.635 147.185 40.8357 146.695 40.8357 146.088V145.738ZM44.1682 142.91H42.8802V141.86H44.1682V139.858H45.3162V141.86H47.1222V142.91H45.3162V147.124C45.3162 147.423 45.3722 147.637 45.4842 147.768C45.6055 147.889 45.8109 147.95 46.1002 147.95H47.3462V149H46.0302C45.3582 149 44.8775 148.851 44.5882 148.552C44.3082 148.253 44.1682 147.782 44.1682 147.138V142.91ZM54.3089 141.86V149H53.3149L53.1609 148.048C52.6196 148.739 51.8589 149.084 50.8789 149.084C50.0296 149.084 49.3482 148.823 48.8349 148.3C48.3216 147.777 48.0649 146.956 48.0649 145.836V141.86H49.2129V145.766C49.2129 146.503 49.3716 147.068 49.6889 147.46C50.0156 147.843 50.4776 148.034 51.0749 148.034C51.7282 148.034 52.2369 147.801 52.6009 147.334C52.9742 146.867 53.1609 146.233 53.1609 145.43V141.86H54.3089ZM56.7698 146.648C56.7885 147.077 56.9752 147.427 57.3298 147.698C57.6938 147.969 58.1605 148.104 58.7298 148.104C59.2338 148.104 59.6398 148.006 59.9478 147.81C60.2652 147.605 60.4238 147.339 60.4238 147.012C60.4238 146.732 60.3492 146.517 60.1998 146.368C60.0505 146.219 59.8545 146.116 59.6118 146.06C59.3785 146.004 59.0425 145.948 58.6038 145.892C57.9878 145.817 57.4838 145.719 57.0918 145.598C56.6998 145.477 56.3825 145.285 56.1398 145.024C55.8972 144.753 55.7758 144.385 55.7758 143.918C55.7758 143.498 55.8925 143.125 56.1258 142.798C56.3685 142.471 56.6952 142.219 57.1058 142.042C57.5165 141.855 57.9785 141.762 58.4918 141.762C59.3318 141.762 60.0132 141.958 60.5358 142.35C61.0678 142.742 61.3618 143.302 61.4178 144.03H60.2698C60.2232 143.657 60.0412 143.349 59.7238 143.106C59.4065 142.863 59.0098 142.742 58.5338 142.742C58.0485 142.742 57.6565 142.845 57.3578 143.05C57.0592 143.246 56.9098 143.507 56.9098 143.834C56.9098 144.077 56.9798 144.263 57.1198 144.394C57.2598 144.525 57.4372 144.613 57.6518 144.66C57.8758 144.707 58.2118 144.758 58.6598 144.814C59.2852 144.889 59.7985 144.991 60.1998 145.122C60.6105 145.253 60.9372 145.463 61.1798 145.752C61.4318 146.041 61.5578 146.433 61.5578 146.928C61.5578 147.357 61.4318 147.735 61.1798 148.062C60.9278 148.389 60.5872 148.641 60.1578 148.818C59.7285 148.995 59.2525 149.084 58.7298 149.084C57.7965 149.084 57.0452 148.869 56.4758 148.44C55.9158 148.011 55.6312 147.413 55.6218 146.648H56.7698ZM69.8142 149.084C69.1236 149.084 68.5076 148.93 67.9662 148.622C67.4342 148.314 67.0189 147.885 66.7202 147.334C66.4216 146.783 66.2722 146.149 66.2722 145.43C66.2722 144.711 66.4216 144.077 66.7202 143.526C67.0189 142.975 67.4342 142.546 67.9662 142.238C68.5076 141.93 69.1236 141.776 69.8142 141.776C70.5049 141.776 71.1162 141.93 71.6482 142.238C72.1896 142.546 72.6096 142.975 72.9082 143.526C73.2069 144.077 73.3562 144.711 73.3562 145.43C73.3562 146.149 73.2069 146.783 72.9082 147.334C72.6096 147.885 72.1896 148.314 71.6482 148.622C71.1162 148.93 70.5049 149.084 69.8142 149.084ZM69.8142 148.062C70.2809 148.062 70.6916 147.95 71.0462 147.726C71.4102 147.502 71.6902 147.189 71.8862 146.788C72.0822 146.387 72.1802 145.934 72.1802 145.43C72.1802 144.926 72.0822 144.473 71.8862 144.072C71.6902 143.671 71.4102 143.358 71.0462 143.134C70.6916 142.91 70.2809 142.798 69.8142 142.798C69.3476 142.798 68.9322 142.91 68.5682 143.134C68.2136 143.358 67.9382 143.671 67.7422 144.072C67.5462 144.473 67.4482 144.926 67.4482 145.43C67.4482 145.934 67.5462 146.387 67.7422 146.788C67.9382 147.189 68.2136 147.502 68.5682 147.726C68.9322 147.95 69.3476 148.062 69.8142 148.062ZM75.0666 141.86V141.062C75.0666 140.427 75.2113 139.961 75.5006 139.662C75.7993 139.354 76.2753 139.2 76.9286 139.2H78.2446V140.25H76.9986C76.7186 140.25 76.518 140.311 76.3966 140.432C76.2753 140.553 76.2146 140.754 76.2146 141.034V141.86H78.2306V142.91H76.2146V149H75.0666V142.91H73.7786V141.86H75.0666ZM83.1747 141.86L85.3727 147.684L87.5007 141.86H88.7187L85.4287 150.204C85.2607 150.633 85.1114 150.955 84.9807 151.17C84.8501 151.385 84.6867 151.543 84.4907 151.646C84.2947 151.749 84.0334 151.8 83.7067 151.8H82.3347V150.75H83.3567C83.5807 150.75 83.7487 150.727 83.8607 150.68C83.9727 150.633 84.0614 150.554 84.1267 150.442C84.2014 150.339 84.2901 150.162 84.3927 149.91L84.7567 149.056L81.9567 141.86H83.1747ZM92.5916 149.084C91.9009 149.084 91.2849 148.93 90.7436 148.622C90.2116 148.314 89.7962 147.885 89.4976 147.334C89.1989 146.783 89.0496 146.149 89.0496 145.43C89.0496 144.711 89.1989 144.077 89.4976 143.526C89.7962 142.975 90.2116 142.546 90.7436 142.238C91.2849 141.93 91.9009 141.776 92.5916 141.776C93.2822 141.776 93.8936 141.93 94.4256 142.238C94.9669 142.546 95.3869 142.975 95.6856 143.526C95.9842 144.077 96.1336 144.711 96.1336 145.43C96.1336 146.149 95.9842 146.783 95.6856 147.334C95.3869 147.885 94.9669 148.314 94.4256 148.622C93.8936 148.93 93.2822 149.084 92.5916 149.084ZM92.5916 148.062C93.0582 148.062 93.4689 147.95 93.8236 147.726C94.1876 147.502 94.4676 147.189 94.6636 146.788C94.8596 146.387 94.9576 145.934 94.9576 145.43C94.9576 144.926 94.8596 144.473 94.6636 144.072C94.4676 143.671 94.1876 143.358 93.8236 143.134C93.4689 142.91 93.0582 142.798 92.5916 142.798C92.1249 142.798 91.7096 142.91 91.3456 143.134C90.9909 143.358 90.7156 143.671 90.5196 144.072C90.3236 144.473 90.2256 144.926 90.2256 145.43C90.2256 145.934 90.3236 146.387 90.5196 146.788C90.7156 147.189 90.9909 147.502 91.3456 147.726C91.7096 147.95 92.1249 148.062 92.5916 148.062ZM103.596 141.86V149H102.602L102.448 148.048C101.907 148.739 101.146 149.084 100.166 149.084C99.3167 149.084 98.6353 148.823 98.122 148.3C97.6087 147.777 97.352 146.956 97.352 145.836V141.86H98.5V145.766C98.5 146.503 98.6587 147.068 98.976 147.46C99.3027 147.843 99.7647 148.034 100.362 148.034C101.015 148.034 101.524 147.801 101.888 147.334C102.261 146.867 102.448 146.233 102.448 145.43V141.86H103.596ZM108.787 141.86V142.98H108.213C107.532 142.98 107.042 143.209 106.743 143.666C106.454 144.123 106.309 144.688 106.309 145.36V149H105.161V141.86H106.155L106.309 142.938C106.514 142.611 106.78 142.35 107.107 142.154C107.434 141.958 107.886 141.86 108.465 141.86H108.787ZM113.977 142.91H112.689V141.86H113.977V139.858H115.125V141.86H116.931V142.91H115.125V147.124C115.125 147.423 115.181 147.637 115.293 147.768C115.414 147.889 115.619 147.95 115.909 147.95H117.155V149H115.839C115.167 149 114.686 148.851 114.397 148.552C114.117 148.253 113.977 147.782 113.977 147.138V142.91ZM121.598 141.86V142.98H121.024C120.342 142.98 119.852 143.209 119.554 143.666C119.264 144.123 119.12 144.688 119.12 145.36V149H117.972V141.86H118.966L119.12 142.938C119.325 142.611 119.591 142.35 119.918 142.154C120.244 141.958 120.697 141.86 121.276 141.86H121.598ZM128.983 147.95V149H128.353C127.896 149 127.569 148.907 127.373 148.72C127.177 148.533 127.075 148.258 127.065 147.894C126.515 148.687 125.717 149.084 124.671 149.084C123.878 149.084 123.239 148.897 122.753 148.524C122.277 148.151 122.039 147.642 122.039 146.998C122.039 146.279 122.282 145.729 122.767 145.346C123.262 144.963 123.976 144.772 124.909 144.772H127.009V144.282C127.009 143.815 126.851 143.451 126.533 143.19C126.225 142.929 125.791 142.798 125.231 142.798C124.737 142.798 124.326 142.91 123.999 143.134C123.682 143.349 123.486 143.638 123.411 144.002H122.263C122.347 143.302 122.655 142.756 123.187 142.364C123.729 141.972 124.429 141.776 125.287 141.776C126.202 141.776 126.907 142 127.401 142.448C127.905 142.887 128.157 143.521 128.157 144.352V147.432C128.157 147.777 128.316 147.95 128.633 147.95H128.983ZM127.009 145.738H124.797C123.733 145.738 123.201 146.135 123.201 146.928C123.201 147.283 123.341 147.567 123.621 147.782C123.901 147.997 124.279 148.104 124.755 148.104C125.455 148.104 126.006 147.922 126.407 147.558C126.809 147.185 127.009 146.695 127.009 146.088V145.738ZM133.366 141.776C134.234 141.776 134.929 142.037 135.452 142.56C135.984 143.083 136.25 143.904 136.25 145.024V149H135.102V145.094C135.102 144.357 134.934 143.797 134.598 143.414C134.271 143.022 133.795 142.826 133.17 142.826C132.498 142.826 131.971 143.059 131.588 143.526C131.205 143.993 131.014 144.627 131.014 145.43V149H129.866V141.86H130.86L131.014 142.826C131.555 142.126 132.339 141.776 133.366 141.776ZM138.61 146.648C138.628 147.077 138.815 147.427 139.17 147.698C139.534 147.969 140 148.104 140.57 148.104C141.074 148.104 141.48 148.006 141.788 147.81C142.105 147.605 142.264 147.339 142.264 147.012C142.264 146.732 142.189 146.517 142.04 146.368C141.89 146.219 141.694 146.116 141.452 146.06C141.218 146.004 140.882 145.948 140.444 145.892C139.828 145.817 139.324 145.719 138.932 145.598C138.54 145.477 138.222 145.285 137.98 145.024C137.737 144.753 137.616 144.385 137.616 143.918C137.616 143.498 137.732 143.125 137.966 142.798C138.208 142.471 138.535 142.219 138.946 142.042C139.356 141.855 139.818 141.762 140.332 141.762C141.172 141.762 141.853 141.958 142.376 142.35C142.908 142.742 143.202 143.302 143.258 144.03H142.11C142.063 143.657 141.881 143.349 141.564 143.106C141.246 142.863 140.85 142.742 140.374 142.742C139.888 142.742 139.496 142.845 139.198 143.05C138.899 143.246 138.75 143.507 138.75 143.834C138.75 144.077 138.82 144.263 138.96 144.394C139.1 144.525 139.277 144.613 139.492 144.66C139.716 144.707 140.052 144.758 140.5 144.814C141.125 144.889 141.638 144.991 142.04 145.122C142.45 145.253 142.777 145.463 143.02 145.752C143.272 146.041 143.398 146.433 143.398 146.928C143.398 147.357 143.272 147.735 143.02 148.062C142.768 148.389 142.427 148.641 141.998 148.818C141.568 148.995 141.092 149.084 140.57 149.084C139.636 149.084 138.885 148.869 138.316 148.44C137.756 148.011 137.471 147.413 137.462 146.648H138.61ZM145.176 141.86V141.062C145.176 140.427 145.321 139.961 145.61 139.662C145.909 139.354 146.385 139.2 147.038 139.2H148.354V140.25H147.108C146.828 140.25 146.627 140.311 146.506 140.432C146.385 140.553 146.324 140.754 146.324 141.034V141.86H148.34V142.91H146.324V149H145.176V142.91H143.888V141.86H145.176ZM148.536 145.43C148.536 144.702 148.676 144.063 148.956 143.512C149.245 142.961 149.647 142.537 150.16 142.238C150.673 141.93 151.261 141.776 151.924 141.776C152.577 141.776 153.156 141.911 153.66 142.182C154.164 142.453 154.561 142.845 154.85 143.358C155.139 143.871 155.293 144.473 155.312 145.164C155.312 145.267 155.303 145.43 155.284 145.654H149.74V145.752C149.759 146.452 149.973 147.012 150.384 147.432C150.795 147.852 151.331 148.062 151.994 148.062C152.507 148.062 152.941 147.936 153.296 147.684C153.66 147.423 153.903 147.063 154.024 146.606H155.186C155.046 147.334 154.696 147.931 154.136 148.398C153.576 148.855 152.89 149.084 152.078 149.084C151.369 149.084 150.748 148.935 150.216 148.636C149.684 148.328 149.269 147.899 148.97 147.348C148.681 146.788 148.536 146.149 148.536 145.43ZM154.122 144.702C154.066 144.095 153.837 143.624 153.436 143.288C153.044 142.952 152.545 142.784 151.938 142.784C151.397 142.784 150.921 142.961 150.51 143.316C150.099 143.671 149.866 144.133 149.81 144.702H154.122ZM160.248 141.86V142.98H159.674C158.993 142.98 158.503 143.209 158.204 143.666C157.915 144.123 157.77 144.688 157.77 145.36V149H156.622V141.86H157.616L157.77 142.938C157.975 142.611 158.241 142.35 158.568 142.154C158.895 141.958 159.347 141.86 159.926 141.86H160.248ZM161.934 146.648C161.953 147.077 162.139 147.427 162.494 147.698C162.858 147.969 163.325 148.104 163.894 148.104C164.398 148.104 164.804 148.006 165.112 147.81C165.429 147.605 165.588 147.339 165.588 147.012C165.588 146.732 165.513 146.517 165.364 146.368C165.215 146.219 165.019 146.116 164.776 146.06C164.543 146.004 164.207 145.948 163.768 145.892C163.152 145.817 162.648 145.719 162.256 145.598C161.864 145.477 161.547 145.285 161.304 145.024C161.061 144.753 160.94 144.385 160.94 143.918C160.94 143.498 161.057 143.125 161.29 142.798C161.533 142.471 161.859 142.219 162.27 142.042C162.681 141.855 163.143 141.762 163.656 141.762C164.496 141.762 165.177 141.958 165.7 142.35C166.232 142.742 166.526 143.302 166.582 144.03H165.434C165.387 143.657 165.205 143.349 164.888 143.106C164.571 142.863 164.174 142.742 163.698 142.742C163.213 142.742 162.821 142.845 162.522 143.05C162.223 143.246 162.074 143.507 162.074 143.834C162.074 144.077 162.144 144.263 162.284 144.394C162.424 144.525 162.601 144.613 162.816 144.66C163.04 144.707 163.376 144.758 163.824 144.814C164.449 144.889 164.963 144.991 165.364 145.122C165.775 145.253 166.101 145.463 166.344 145.752C166.596 146.041 166.722 146.433 166.722 146.928C166.722 147.357 166.596 147.735 166.344 148.062C166.092 148.389 165.751 148.641 165.322 148.818C164.893 148.995 164.417 149.084 163.894 149.084C162.961 149.084 162.209 148.869 161.64 148.44C161.08 148.011 160.795 147.413 160.786 146.648H161.934ZM172.164 141.86V141.062C172.164 140.427 172.309 139.961 172.598 139.662C172.897 139.354 173.373 139.2 174.026 139.2H175.342V140.25H174.096C173.816 140.25 173.616 140.311 173.494 140.432C173.373 140.553 173.312 140.754 173.312 141.034V141.86H175.328V142.91H173.312V149H172.164V142.91H170.876V141.86H172.164ZM179.73 141.86V142.98H179.156C178.475 142.98 177.985 143.209 177.686 143.666C177.397 144.123 177.252 144.688 177.252 145.36V149H176.104V141.86H177.098L177.252 142.938C177.458 142.611 177.724 142.35 178.05 142.154C178.377 141.958 178.83 141.86 179.408 141.86H179.73ZM183.66 149.084C182.969 149.084 182.353 148.93 181.812 148.622C181.28 148.314 180.865 147.885 180.566 147.334C180.267 146.783 180.118 146.149 180.118 145.43C180.118 144.711 180.267 144.077 180.566 143.526C180.865 142.975 181.28 142.546 181.812 142.238C182.353 141.93 182.969 141.776 183.66 141.776C184.351 141.776 184.962 141.93 185.494 142.238C186.035 142.546 186.455 142.975 186.754 143.526C187.053 144.077 187.202 144.711 187.202 145.43C187.202 146.149 187.053 146.783 186.754 147.334C186.455 147.885 186.035 148.314 185.494 148.622C184.962 148.93 184.351 149.084 183.66 149.084ZM183.66 148.062C184.127 148.062 184.537 147.95 184.892 147.726C185.256 147.502 185.536 147.189 185.732 146.788C185.928 146.387 186.026 145.934 186.026 145.43C186.026 144.926 185.928 144.473 185.732 144.072C185.536 143.671 185.256 143.358 184.892 143.134C184.537 142.91 184.127 142.798 183.66 142.798C183.193 142.798 182.778 142.91 182.414 143.134C182.059 143.358 181.784 143.671 181.588 144.072C181.392 144.473 181.294 144.926 181.294 145.43C181.294 145.934 181.392 146.387 181.588 146.788C181.784 147.189 182.059 147.502 182.414 147.726C182.778 147.95 183.193 148.062 183.66 148.062ZM196.484 141.776C197.287 141.776 197.936 142.028 198.43 142.532C198.934 143.036 199.186 143.82 199.186 144.884V149H198.038V144.954C198.038 144.263 197.889 143.736 197.59 143.372C197.301 143.008 196.886 142.826 196.344 142.826C195.747 142.826 195.276 143.036 194.93 143.456C194.594 143.876 194.426 144.45 194.426 145.178V149H193.278V144.954C193.278 144.263 193.129 143.736 192.83 143.372C192.532 143.008 192.107 142.826 191.556 142.826C190.978 142.826 190.516 143.05 190.17 143.498C189.834 143.937 189.666 144.515 189.666 145.234V149H188.518V141.86H189.512L189.666 142.84C190.18 142.131 190.875 141.776 191.752 141.776C192.266 141.776 192.718 141.893 193.11 142.126C193.512 142.35 193.81 142.686 194.006 143.134C194.52 142.229 195.346 141.776 196.484 141.776ZM211.001 147.95V149H210.371C209.914 149 209.587 148.907 209.391 148.72C209.195 148.533 209.092 148.258 209.083 147.894C208.532 148.687 207.734 149.084 206.689 149.084C205.896 149.084 205.256 148.897 204.771 148.524C204.295 148.151 204.057 147.642 204.057 146.998C204.057 146.279 204.3 145.729 204.785 145.346C205.28 144.963 205.994 144.772 206.927 144.772H209.027V144.282C209.027 143.815 208.868 143.451 208.551 143.19C208.243 142.929 207.809 142.798 207.249 142.798C206.754 142.798 206.344 142.91 206.017 143.134C205.7 143.349 205.504 143.638 205.429 144.002H204.281C204.365 143.302 204.673 142.756 205.205 142.364C205.746 141.972 206.446 141.776 207.305 141.776C208.22 141.776 208.924 142 209.419 142.448C209.923 142.887 210.175 143.521 210.175 144.352V147.432C210.175 147.777 210.334 147.95 210.651 147.95H211.001ZM209.027 145.738H206.815C205.751 145.738 205.219 146.135 205.219 146.928C205.219 147.283 205.359 147.567 205.639 147.782C205.919 147.997 206.297 148.104 206.773 148.104C207.473 148.104 208.024 147.922 208.425 147.558C208.826 147.185 209.027 146.695 209.027 146.088V145.738ZM215.384 141.776C216.252 141.776 216.947 142.037 217.47 142.56C218.002 143.083 218.268 143.904 218.268 145.024V149H217.12V145.094C217.12 144.357 216.952 143.797 216.616 143.414C216.289 143.022 215.813 142.826 215.188 142.826C214.516 142.826 213.988 143.059 213.606 143.526C213.223 143.993 213.032 144.627 213.032 145.43V149H211.884V141.86H212.878L213.032 142.826C213.573 142.126 214.357 141.776 215.384 141.776ZM220.03 141.86L222.228 147.684L224.356 141.86H225.574L222.284 150.204C222.116 150.633 221.967 150.955 221.836 151.17C221.706 151.385 221.542 151.543 221.346 151.646C221.15 151.749 220.889 151.8 220.562 151.8H219.19V150.75H220.212C220.436 150.75 220.604 150.727 220.716 150.68C220.828 150.633 220.917 150.554 220.982 150.442C221.057 150.339 221.146 150.162 221.248 149.91L221.612 149.056L218.812 141.86H220.03ZM225.772 141.86H226.976L228.754 147.67L230.63 141.86H231.694L233.472 147.67L235.334 141.86H236.496L234.116 149H232.856L231.134 143.694L229.342 149L228.082 149.014L225.772 141.86ZM240.895 141.776C241.763 141.776 242.463 142.037 242.995 142.56C243.527 143.083 243.793 143.904 243.793 145.024V149H242.645V145.094C242.645 144.357 242.477 143.797 242.141 143.414C241.805 143.022 241.325 142.826 240.699 142.826C240.037 142.826 239.509 143.059 239.117 143.526C238.735 143.993 238.543 144.627 238.543 145.43V149H237.395V139.2H238.543V143.036C238.777 142.663 239.085 142.359 239.467 142.126C239.859 141.893 240.335 141.776 240.895 141.776ZM245.005 145.43C245.005 144.702 245.145 144.063 245.425 143.512C245.714 142.961 246.115 142.537 246.629 142.238C247.142 141.93 247.73 141.776 248.393 141.776C249.046 141.776 249.625 141.911 250.129 142.182C250.633 142.453 251.029 142.845 251.319 143.358C251.608 143.871 251.762 144.473 251.781 145.164C251.781 145.267 251.771 145.43 251.753 145.654H246.209V145.752C246.227 146.452 246.442 147.012 246.853 147.432C247.263 147.852 247.8 148.062 248.463 148.062C248.976 148.062 249.41 147.936 249.765 147.684C250.129 147.423 250.371 147.063 250.493 146.606H251.655C251.515 147.334 251.165 147.931 250.605 148.398C250.045 148.855 249.359 149.084 248.547 149.084C247.837 149.084 247.217 148.935 246.685 148.636C246.153 148.328 245.737 147.899 245.439 147.348C245.149 146.788 245.005 146.149 245.005 145.43ZM250.591 144.702C250.535 144.095 250.306 143.624 249.905 143.288C249.513 142.952 249.013 142.784 248.407 142.784C247.865 142.784 247.389 142.961 246.979 143.316C246.568 143.671 246.335 144.133 246.279 144.702H250.591ZM256.717 141.86V142.98H256.143C255.461 142.98 254.971 143.209 254.673 143.666C254.383 144.123 254.239 144.688 254.239 145.36V149H253.091V141.86H254.085L254.239 142.938C254.444 142.611 254.71 142.35 255.037 142.154C255.363 141.958 255.816 141.86 256.395 141.86H256.717ZM257.104 145.43C257.104 144.702 257.244 144.063 257.524 143.512C257.814 142.961 258.215 142.537 258.728 142.238C259.242 141.93 259.83 141.776 260.492 141.776C261.146 141.776 261.724 141.911 262.228 142.182C262.732 142.453 263.129 142.845 263.418 143.358C263.708 143.871 263.862 144.473 263.88 145.164C263.88 145.267 263.871 145.43 263.852 145.654H258.308V145.752C258.327 146.452 258.542 147.012 258.952 147.432C259.363 147.852 259.9 148.062 260.562 148.062C261.076 148.062 261.51 147.936 261.864 147.684C262.228 147.423 262.471 147.063 262.592 146.606H263.754C263.614 147.334 263.264 147.931 262.704 148.398C262.144 148.855 261.458 149.084 260.646 149.084C259.937 149.084 259.316 148.935 258.784 148.636C258.252 148.328 257.837 147.899 257.538 147.348C257.249 146.788 257.104 146.149 257.104 145.43ZM262.69 144.702C262.634 144.095 262.406 143.624 262.004 143.288C261.612 142.952 261.113 142.784 260.506 142.784C259.965 142.784 259.489 142.961 259.078 143.316C258.668 143.671 258.434 144.133 258.378 144.702H262.69ZM264.585 148.3C264.585 148.067 264.66 147.88 264.809 147.74C264.959 147.591 265.15 147.516 265.383 147.516C265.617 147.516 265.808 147.591 265.957 147.74C266.107 147.88 266.181 148.067 266.181 148.3C266.181 148.533 266.107 148.725 265.957 148.874C265.808 149.014 265.617 149.084 265.383 149.084C265.15 149.084 264.959 149.014 264.809 148.874C264.66 148.725 264.585 148.533 264.585 148.3Z" fill="#2F4858"/>
<path d="M400.885 200V200.25H401.75V201.099H402V203.297H401.75V205.495H402V207.692H401.75V209.891H402V212.089H401.75V214.286H402V216.484H401.75V218.683H402V220.88H401.75V223.078H402V225.276H401.75V227.474H402V229.672H401.75V231.87H402V234.067H401.75V236.266H402V238.464H401.75V240.661H402V242.859H401.75V245.058H402V247.255H401.75V249.453H402V251.651H401.75V253.849H402V256.047H401.75V258.245H402V260.442H401.75V262.641H402V264.839H401.75V267.036H402V269.234H401.75V271.433H402V273.63H401.75V275.828H402V278.026H401.75V280.224H402V282.422H401.75V284.62H402V286.817H401.75V289.016H402V291.214H401.75V293.411H402V295.609H401.75V297.808H402V300.005H401.75V302.203H402V304.401H401.75V306.599H402V308.797H401.75V310.995H402V313.192H401.75V315.391H402V317.589H401.75V319.786H402V321.984H401.75V324.183H402V326.38H401.75V328.578H402V330.776H401.75V332.974H402V335.172H401.75V337.37H402V339.567H401.75V341.766H402V343.964H401.75V346.161H402V348.359H401.75V350.558H402V352.755H401.75V354.953H402V357.151H401.75V359.349H402V361.547H401.75V363.745H402V365.942H401.75V368.141H402V370.339H401.75V372.536H402V374.734H401.75V376.933H402V379.13H401.75V381.328H402V383.526H401.75V385.724H402V387.922H401.75V390.12H402V392.317H401.75V394.516H402V396.714H401.75V398.911H402V401.109H401.75V403.308H402V405.505H401.75V407.703H402V409.901H401.75V410.75H400.885V411H398.655V410.75H396.425V411H394.195V410.75H391.965V411H389.734V410.75H387.505V411H385.274V410.75H383.044V411H380.814V410.75H378.584V411H376.354V410.75H374.124V411H371.894V410.75H369.664V411H367.434V410.75H365.203V411H362.974V410.75H360.743V411H358.514V410.75H356.283V411H354.053V410.75H351.823V411H349.593V410.75H347.362V411H345.133V410.75H342.902V411H340.673V410.75H338.442V411H336.212V410.75H333.982V411H331.752V410.75H329.521V411H327.292V410.75H325.062V411H322.832V410.75H320.602V411H318.371V410.75H316.142V411H313.911V410.75H311.681V411H309.451V410.75H307.221V411H304.991V410.75H302.761V411H300.53V410.75H298.301V411H296.07V410.75H293.84V411H291.61V410.75H289.38V411H287.15V410.75H284.92V411H282.689V410.75H280.46V411H278.229V410.75H275.999V411H273.77V410.75H271.539V411H269.31V410.75H267.079V411H264.849V410.75H262.619V411H260.389V410.75H258.158V411H255.929V410.75H253.698V411H251.469V410.75H249.238V411H247.008V410.75H244.778V411H242.548V410.75H240.318V411H238.088V410.75H235.857V411H233.628V410.75H231.397V411H229.167V410.75H226.938V411H224.707V410.75H222.478V411H220.247V410.75H218.017V411H215.787V410.75H213.557V411H211.327V410.75H209.097V411H206.866V410.75H204.637V411H202.406V410.75H200.176V411H197.946V410.75H195.716V411H193.486V410.75H191.256V411H189.025V410.75H186.796V411H184.565V410.75H182.335V411H180.105V410.75H177.875V411H175.646V410.75H173.415V411H171.185V410.75H168.955V411H166.725V410.75H164.494V411H162.265V410.75H160.034V411H157.805V410.75H155.574V411H153.344V410.75H151.114V411H148.884V410.75H146.654V411H144.424V410.75H143.309C142.963 410.75 142.622 410.736 142.283 410.71L142.264 410.959C141.559 410.904 140.87 410.794 140.2 410.634L140.259 410.392C139.588 410.231 138.936 410.019 138.31 409.759L138.214 409.989C137.567 409.721 136.945 409.403 136.354 409.04L136.485 408.827C135.901 408.468 135.347 408.065 134.828 407.621L134.665 407.811C134.135 407.358 133.641 406.864 133.188 406.334L133.379 406.172C132.935 405.653 132.532 405.099 132.173 404.515L131.959 404.645C131.596 404.054 131.278 403.432 131.01 402.785L131.241 402.69C130.981 402.064 130.769 401.412 130.608 400.741L130.365 400.799C130.205 400.129 130.095 399.44 130.04 398.735L130.29 398.717C130.277 398.548 130.266 398.378 130.26 398.207L130.25 397.691V396.594H130V394.398H130.25V392.204H130V390.009H130.25V387.813H130V385.619H130.25V383.424H130V381.229H130.25V379.033H130V376.839H130.25V374.644H130V372.448H130.25V370.254H130V368.059H130.25V365.863H130V363.668H130.25V361.474H130V359.278H130.25V357.083H130V354.889H130.25V352.693H130V350.498H130.25V348.303H130V346.108H130.25V343.913H130V341.718H130.25V339.523H130V337.328H130.25V335.133H130V332.938H130.25V330.743H130V328.548H130.25V326.353H130V324.158H130.25V321.963H130V319.768H130.25V317.572H130V315.378H130.25V313.183H130V310.987H130.25V308.793H130V306.598H130.25V304.402H130V302.207H130.25V300.013H130V297.817H130.25V295.622H130V293.428H130.25V291.232H130V289.037H130.25V286.842H130V284.647H130.25V282.452H130V280.257H130.25V278.062H130V275.867H130.25V273.672H130V271.477H130.25V269.282H130V267.087H130.25V264.892H130V262.697H130.25V260.502H130V258.307H130.25V256.111H130V253.917H130.25V251.722H130V249.526H130.25V247.332H130V245.137H130.25V242.941H130V240.746H130.25V238.552H130V236.356H130.25V234.161H130V231.967H130.25V229.771H130V227.576H130.25V225.382H130V223.187H130.25V220.991H130V218.796H130.25V216.602H130V214.406H130.25V213.309C130.25 212.963 130.264 212.622 130.29 212.283L130.04 212.264C130.095 211.559 130.205 210.87 130.365 210.2L130.608 210.259C130.769 209.588 130.981 208.936 131.241 208.31L131.01 208.214C131.278 207.567 131.596 206.945 131.959 206.354L132.173 206.485C132.532 205.901 132.935 205.347 133.379 204.828L133.188 204.665C133.641 204.135 134.135 203.641 134.665 203.188L134.828 203.379C135.347 202.935 135.901 202.532 136.485 202.173L136.354 201.959C136.945 201.596 137.567 201.278 138.214 201.01L138.31 201.241C138.936 200.981 139.588 200.769 140.259 200.608L140.2 200.365C140.87 200.205 141.559 200.095 142.264 200.04L142.283 200.29C142.622 200.264 142.963 200.25 143.309 200.25H144.424V200H146.653V200.25H148.884V200H151.114V200.25H153.344V200H155.574V200.25H157.804V200H160.034V200.25H162.265V200H164.494V200.25H166.725V200H168.955V200.25H171.185V200H173.415V200.25H175.645V200H177.875V200.25H180.105V200H182.335V200.25H184.565V200H186.796V200.25H189.025V200H191.256V200.25H193.485V200H195.716V200.25H197.946V200H200.176V200.25H202.406V200H204.637V200.25H206.866V200H209.097V200.25H211.326V200H213.557V200.25H215.787V200H218.017V200.25H220.247V200H222.478V200.25H224.707V200H226.938V200.25H229.167V200H231.397V200.25H233.628V200H235.857V200.25H238.088V200H240.318V200.25H242.548V200H244.778V200.25H247.008V200H249.238V200.25H251.469V200H253.698V200.25H255.929V200H258.159V200.25H260.389V200H262.619V200.25H264.849V200H267.079V200.25H269.31V200H271.539V200.25H273.77V200H276V200.25H278.229V200H280.46V200.25H282.689V200H284.92V200.25H287.15V200H289.38V200.25H291.61V200H293.84V200.25H296.07V200H298.301V200.25H300.53V200H302.761V200.25H304.991V200H307.221V200.25H309.451V200H311.681V200.25H313.911V200H316.142V200.25H318.371V200H320.602V200.25H322.831V200H325.062V200.25H327.292V200H329.521V200.25H331.752V200H333.982V200.25H336.212V200H338.442V200.25H340.672V200H342.902V200.25H345.133V200H347.362V200.25H349.593V200H351.823V200.25H354.053V200H356.283V200.25H358.513V200H360.743V200.25H362.974V200H365.203V200.25H367.434V200H369.664V200.25H371.894V200H374.124V200.25H376.354V200H378.584V200.25H380.814V200H383.044V200.25H385.274V200H387.504V200.25H389.734V200H391.965V200.25H394.194V200H396.425V200.25H398.655V200H400.885Z" fill="#FFFAF8" stroke="#FE5719" stroke-width="0.5" stroke-dasharray="2.22 2.22"/>
<line x1="130.033" y1="223.878" x2="407" y2="223.878" stroke="#FE5719" stroke-width="0.5" stroke-dasharray="1.11 1.11"/>
<line x1="276.25" y1="408.001" x2="276.25" y2="223.998" stroke="#FE5719" stroke-width="0.5" stroke-dasharray="1.11 1.11"/>
<circle cx="145.561" cy="214.058" r="2.21811" fill="#FE5719"/>
<circle cx="154.433" cy="214.058" r="2.21811" fill="#FE5719"/>
<circle cx="163.305" cy="214.058" r="2.21811" fill="#FE5719"/>
<rect x="66.751" y="251.47" width="81.65" height="153.125" rx="10.889" fill="#FFFAF8" stroke="#FE5719" stroke-width="0.5" stroke-dasharray="1.86 1.86"/>
<rect x="96.6689" y="258.646" width="22.278" height="1.8565" rx="0.928249" fill="#FE5719"/>
</g>
<rect x="0.25" y="0.25" width="399.5" height="399.5" rx="19.75" stroke="#DCDAE1" stroke-width="0.5"/>
<defs>
<clipPath id="clip0_8995_18027">
<rect width="400" height="400" rx="20" fill="white"/>
</clipPath>
</defs>
</svg>
