<svg width="168" height="51" viewBox="0 0 168 51" fill="none" xmlns="http://www.w3.org/2000/svg">
<rect x="0.5" y="0.5" width="167" height="50" rx="25" fill="white" stroke="black"/>
<path fill-rule="evenodd" clip-rule="evenodd" d="M82.7104 18.4998H81.7704V11.2598H82.7104V18.4998ZM55.4004 18.4998H57.8604C58.8137 18.4998 59.6171 18.1881 60.2704 17.5648C60.9237 16.9414 61.2504 16.0764 61.2504 14.9698C61.2504 13.8564 60.9271 12.9848 60.2804 12.3548C59.6337 11.7248 58.8337 11.4098 57.8804 11.4098H55.4004V18.4998ZM57.8304 17.6298H56.3804V12.2798H57.8504C58.5437 12.2798 59.1154 12.5131 59.5654 12.9798C60.0154 13.4464 60.2404 14.1098 60.2404 14.9698C60.2404 15.8231 60.0121 16.4798 59.5554 16.9398C59.0987 17.3998 58.5237 17.6298 57.8304 17.6298ZM63.4904 17.3598C63.7837 17.6598 64.1404 17.8098 64.5604 17.8098C64.9804 17.8098 65.3354 17.6581 65.6254 17.3548C65.9154 17.0514 66.0604 16.6298 66.0604 16.0898C66.0604 15.5564 65.9154 15.1381 65.6254 14.8348C65.3354 14.5314 64.9804 14.3798 64.5604 14.3798C64.1404 14.3798 63.7854 14.5314 63.4954 14.8348C63.2054 15.1381 63.0604 15.5564 63.0604 16.0898C63.0604 16.6298 63.2037 17.0531 63.4904 17.3598ZM64.5604 13.5398C63.8471 13.5398 63.2571 13.7831 62.7904 14.2698C62.3304 14.7498 62.1004 15.3564 62.1004 16.0898C62.1004 16.8298 62.3304 17.4414 62.7904 17.9248C63.2504 18.4081 63.8404 18.6498 64.5604 18.6498C65.2804 18.6498 65.8704 18.4081 66.3304 17.9248C66.7904 17.4414 67.0204 16.8298 67.0204 16.0898C67.0204 15.3564 66.7887 14.7481 66.3254 14.2648C65.8621 13.7814 65.2737 13.5398 64.5604 13.5398ZM70.9304 13.6898H71.9004L73.1504 17.3098L74.2104 13.6898H75.2004L73.6404 18.4998H72.6704L71.3904 14.8398L70.1404 18.4998H69.1504L67.5704 13.6898H68.6004L69.6804 17.3098L70.9304 13.6898ZM77.0904 18.4998V15.7198C77.0904 15.3398 77.1887 15.0248 77.3854 14.7748C77.5821 14.5248 77.8571 14.3998 78.2104 14.3998C78.9571 14.3998 79.3304 14.8031 79.3304 15.6098V18.4998H80.2704V15.4498C80.2704 14.8898 80.1221 14.4331 79.8254 14.0798C79.5287 13.7264 79.1037 13.5498 78.5504 13.5498C77.8837 13.5498 77.3904 13.8264 77.0704 14.3798V13.6898H76.1504V18.4998H77.0904ZM86.3704 17.8098C85.9504 17.8098 85.5937 17.6598 85.3004 17.3598C85.0137 17.0531 84.8704 16.6298 84.8704 16.0898C84.8704 15.5564 85.0154 15.1381 85.3054 14.8348C85.5954 14.5314 85.9504 14.3798 86.3704 14.3798C86.7904 14.3798 87.1454 14.5314 87.4354 14.8348C87.7254 15.1381 87.8704 15.5564 87.8704 16.0898C87.8704 16.6298 87.7254 17.0514 87.4354 17.3548C87.1454 17.6581 86.7904 17.8098 86.3704 17.8098ZM84.6004 14.2698C85.0671 13.7831 85.6571 13.5398 86.3704 13.5398C87.0837 13.5398 87.6721 13.7814 88.1354 14.2648C88.5987 14.7481 88.8304 15.3564 88.8304 16.0898C88.8304 16.8298 88.6004 17.4414 88.1404 17.9248C87.6804 18.4081 87.0904 18.6498 86.3704 18.6498C85.6504 18.6498 85.0604 18.4081 84.6004 17.9248C84.1404 17.4414 83.9104 16.8298 83.9104 16.0898C83.9104 15.3564 84.1404 14.7498 84.6004 14.2698ZM90.1304 16.2148C89.8637 16.4648 89.7304 16.7964 89.7304 17.2098C89.7304 17.6031 89.8804 17.9414 90.1804 18.2248C90.4804 18.5081 90.8671 18.6498 91.3404 18.6498C91.7271 18.6498 92.0487 18.5698 92.3054 18.4098C92.5621 18.2498 92.7571 18.0631 92.8904 17.8498C92.8904 18.0831 92.9071 18.2998 92.9404 18.4998H93.8604C93.8204 18.2598 93.8004 17.9964 93.8004 17.7098V15.2998C93.8004 14.7864 93.6371 14.3648 93.3104 14.0348C92.9837 13.7048 92.4804 13.5398 91.8004 13.5398C91.2804 13.5398 90.8337 13.6848 90.4604 13.9748C90.0871 14.2648 89.8771 14.6398 89.8304 15.0998L90.7304 15.3098C90.7637 15.0164 90.8737 14.7814 91.0604 14.6048C91.2471 14.4281 91.5004 14.3398 91.8204 14.3398C92.1671 14.3398 92.4271 14.4198 92.6004 14.5798C92.7737 14.7398 92.8604 14.9464 92.8604 15.1998C92.8604 15.4064 92.7371 15.5264 92.4904 15.5598L91.1904 15.7498C90.7504 15.8098 90.3971 15.9648 90.1304 16.2148ZM91.4704 17.8598C91.8904 17.8598 92.2271 17.7464 92.4804 17.5198C92.7337 17.2931 92.8604 16.9331 92.8604 16.4398V16.2198L91.3904 16.4398C91.1771 16.4731 91.0071 16.5498 90.8804 16.6698C90.7537 16.7898 90.6904 16.9531 90.6904 17.1598C90.6904 17.3464 90.7621 17.5098 90.9054 17.6498C91.0487 17.7898 91.2371 17.8598 91.4704 17.8598ZM96.1954 17.3198C95.9454 16.9998 95.8204 16.5864 95.8204 16.0798C95.8204 15.5798 95.9504 15.1731 96.2104 14.8598C96.4704 14.5464 96.8137 14.3898 97.2404 14.3898C97.6671 14.3898 98.0037 14.5431 98.2504 14.8498C98.4971 15.1564 98.6204 15.5598 98.6204 16.0598C98.6204 16.5664 98.4937 16.9831 98.2404 17.3098C97.9871 17.6364 97.6504 17.7998 97.2304 17.7998C96.7904 17.7998 96.4454 17.6398 96.1954 17.3198ZM98.6335 18.0291L98.6304 17.7698C98.5037 18.0164 98.3121 18.2214 98.0554 18.3848C97.7987 18.5481 97.4937 18.6298 97.1404 18.6298C96.4537 18.6298 95.9021 18.3881 95.4854 17.9048C95.0687 17.4214 94.8604 16.8131 94.8604 16.0798C94.8604 15.3798 95.0737 14.7848 95.5004 14.2948C95.9271 13.8048 96.4737 13.5598 97.1404 13.5598C97.5337 13.5598 97.8537 13.6381 98.1004 13.7948C98.3471 13.9514 98.5171 14.1431 98.6104 14.3698V11.2598H99.5404V17.6098C99.5404 17.9364 99.5571 18.2331 99.5904 18.4998H98.6804C98.6554 18.3598 98.6398 18.2029 98.6335 18.0291ZM105.7 17.8098C105.28 17.8098 104.924 17.6598 104.63 17.3598C104.344 17.0531 104.2 16.6298 104.2 16.0898C104.2 15.5564 104.345 15.1381 104.635 14.8348C104.925 14.5314 105.28 14.3798 105.7 14.3798C106.12 14.3798 106.475 14.5314 106.765 14.8348C107.055 15.1381 107.2 15.5564 107.2 16.0898C107.2 16.6298 107.055 17.0514 106.765 17.3548C106.475 17.6581 106.12 17.8098 105.7 17.8098ZM103.93 14.2698C104.397 13.7831 104.987 13.5398 105.7 13.5398C106.414 13.5398 107.002 13.7814 107.465 14.2648C107.929 14.7481 108.16 15.3564 108.16 16.0898C108.16 16.8298 107.93 17.4414 107.47 17.9248C107.01 18.4081 106.42 18.6498 105.7 18.6498C104.98 18.6498 104.39 18.4081 103.93 17.9248C103.47 17.4414 103.24 16.8298 103.24 16.0898C103.24 15.3564 103.47 14.7498 103.93 14.2698ZM110.3 18.4998V15.7198C110.3 15.3398 110.399 15.0248 110.595 14.7748C110.792 14.5248 111.067 14.3998 111.42 14.3998C112.167 14.3998 112.54 14.8031 112.54 15.6098V18.4998H113.48V15.4498C113.48 14.8898 113.332 14.4331 113.035 14.0798C112.739 13.7264 112.314 13.5498 111.76 13.5498C111.094 13.5498 110.6 13.8264 110.28 14.3798V13.6898H109.36V18.4998H110.3ZM118.74 12.1698V13.6898H119.78V14.5398H118.74V17.0398C118.74 17.2664 118.792 17.4331 118.895 17.5398C118.999 17.6464 119.17 17.6998 119.41 17.6998C119.55 17.6998 119.674 17.6864 119.78 17.6598V18.4598C119.62 18.5198 119.407 18.5498 119.14 18.5498C118.727 18.5498 118.4 18.4298 118.16 18.1898C117.92 17.9498 117.8 17.6131 117.8 17.1798V14.5398H116.88V13.6898H117.14C117.387 13.6898 117.572 13.6214 117.695 13.4848C117.819 13.3481 117.88 13.1698 117.88 12.9498V12.1698H118.74ZM121.97 18.4998V15.6698C121.984 15.2964 122.087 14.9914 122.28 14.7548C122.474 14.5181 122.744 14.3998 123.09 14.3998C123.837 14.3998 124.21 14.8031 124.21 15.6098V18.4998H125.15V15.4498C125.15 14.8898 125.002 14.4331 124.705 14.0798C124.409 13.7264 123.984 13.5498 123.43 13.5498C122.777 13.5498 122.29 13.7831 121.97 14.2498V11.2598H121.03V18.4998H121.97ZM127.26 15.5998H129.89C129.877 15.2398 129.757 14.9448 129.53 14.7148C129.304 14.4848 128.984 14.3698 128.57 14.3698C128.197 14.3698 127.89 14.4914 127.65 14.7348C127.41 14.9781 127.28 15.2664 127.26 15.5998ZM130.84 17.1298L130.03 16.8498C129.817 17.4964 129.367 17.8198 128.68 17.8198C128.274 17.8198 127.932 17.6831 127.655 17.4098C127.379 17.1364 127.237 16.7864 127.23 16.3598H130.85C130.864 16.2798 130.87 16.1798 130.87 16.0598C130.87 15.2931 130.667 14.6814 130.26 14.2248C129.854 13.7681 129.287 13.5398 128.56 13.5398C127.934 13.5398 127.394 13.7798 126.94 14.2598C126.487 14.7398 126.26 15.3464 126.26 16.0798C126.26 16.8664 126.495 17.4914 126.965 17.9548C127.435 18.4181 128.007 18.6498 128.68 18.6498C129.22 18.6498 129.68 18.5081 130.06 18.2248C130.44 17.9414 130.7 17.5764 130.84 17.1298Z" fill="black"/>
<path fill-rule="evenodd" clip-rule="evenodd" d="M63.6202 37.5H65.7162L61.3002 26.156H59.0762L54.6602 37.5H56.6922L57.7482 34.652H62.5482L63.6202 37.5ZM60.1482 28.236L61.8762 32.876H58.4202L60.1482 28.236ZM68.9162 40.54V36.62C69.3162 37.212 70.1642 37.692 71.2842 37.692C73.5242 37.692 74.9482 35.932 74.9482 33.596C74.9482 31.292 73.6522 29.532 71.3482 29.532C70.1482 29.532 69.2522 30.092 68.8682 30.764V29.708H67.0762V40.54H68.9162ZM73.0922 33.596C73.0922 35.084 72.2282 36.044 70.9962 36.044C69.7802 36.044 68.9002 35.084 68.9002 33.596C68.9002 32.14 69.7802 31.18 70.9962 31.18C72.2442 31.18 73.0922 32.14 73.0922 33.596ZM78.5802 40.54V36.62C78.9802 37.212 79.8282 37.692 80.9482 37.692C83.1882 37.692 84.6122 35.932 84.6122 33.596C84.6122 31.292 83.3162 29.532 81.0122 29.532C79.8122 29.532 78.9162 30.092 78.5322 30.764V29.708H76.7402V40.54H78.5802ZM82.7562 33.596C82.7562 35.084 81.8922 36.044 80.6602 36.044C79.4442 36.044 78.5642 35.084 78.5642 33.596C78.5642 32.14 79.4442 31.18 80.6602 31.18C81.9082 31.18 82.7562 32.14 82.7562 33.596ZM97.9882 28.812C97.7322 27.548 96.6922 25.916 94.0202 25.916C91.9082 25.916 90.1642 27.484 90.1642 29.388C90.1642 31.084 91.3162 32.22 93.0442 32.572L94.6442 32.908C95.6202 33.116 96.1642 33.708 96.1642 34.444C96.1642 35.324 95.4602 36.012 94.1002 36.012C92.4682 36.012 91.6202 34.924 91.5082 33.74L89.7162 34.252C89.8922 35.884 91.2202 37.74 94.1002 37.74C96.6922 37.74 98.1162 36.06 98.1162 34.3C98.1162 32.7 97.0442 31.436 95.0442 31.036L93.4122 30.7C92.5322 30.508 92.0842 29.964 92.0842 29.244C92.0842 28.38 92.8842 27.612 94.0362 27.612C95.5562 27.612 96.1482 28.652 96.2602 29.356L97.9882 28.812ZM102.308 27.324H100.628V28.492C100.628 29.18 100.26 29.708 99.4282 29.708H99.0282V31.356H100.468V35.276C100.468 36.732 101.364 37.596 102.804 37.596C103.476 37.596 103.828 37.468 103.94 37.42V35.884L103.735 35.9159C103.608 35.9323 103.446 35.948 103.3 35.948C102.612 35.948 102.308 35.66 102.308 34.972V31.356H103.924V29.708H102.308V27.324ZM109.22 36.076C108.084 36.076 107.044 35.212 107.044 33.596C107.044 31.98 108.084 31.148 109.22 31.148C110.372 31.148 111.396 31.98 111.396 33.596C111.396 35.228 110.372 36.076 109.22 36.076ZM109.22 29.468C106.9 29.468 105.188 31.212 105.188 33.596C105.188 35.996 106.9 37.74 109.22 37.74C111.556 37.74 113.268 35.996 113.268 33.596C113.268 31.212 111.556 29.468 109.22 29.468ZM119.62 29.66C119.54 29.644 119.348 29.612 119.124 29.612C118.1 29.612 117.236 30.108 116.868 30.956V29.708H115.06V37.5H116.916V33.788C116.916 32.332 117.572 31.5 119.012 31.5C119.204 31.5 119.412 31.516 119.62 31.548V29.66ZM122.436 32.748C122.5 31.916 123.172 31.02 124.34 31.02C125.62 31.02 126.228 31.836 126.26 32.748H122.436ZM126.468 34.78L128.036 35.276C127.62 36.636 126.388 37.74 124.516 37.74C122.404 37.74 120.532 36.204 120.532 33.564C120.532 31.1 122.356 29.468 124.324 29.468C126.724 29.468 128.132 31.052 128.132 33.516C128.132 33.82 128.1 34.076 128.084 34.108H122.388C122.436 35.292 123.364 36.14 124.516 36.14C125.636 36.14 126.212 35.548 126.468 34.78Z" fill="black"/>
<path fill-rule="evenodd" clip-rule="evenodd" d="M31.8938 15.0376C32.763 14.1005 33.3511 12.7986 33.1906 11.5C31.9371 11.5451 30.4185 12.2405 29.5204 13.1773C28.7133 14.0075 28.0079 15.3334 28.1963 16.6059C29.5955 16.7022 31.0228 15.9737 31.8938 15.0376ZM34.5616 24.002C34.5346 21.0912 36.8495 19.6944 36.9534 19.6258C35.6524 17.6502 33.625 17.3795 32.9037 17.3493C31.1791 17.1669 29.5385 18.402 28.6625 18.402C27.7897 18.402 26.4395 17.3737 25.0086 17.4009C23.128 17.4318 21.3947 18.535 20.4278 20.2834C18.474 23.8 19.9266 29.0109 21.8313 31.8629C22.7618 33.2597 23.8706 34.8261 25.3264 34.769C26.7303 34.7131 27.2604 33.8279 28.9561 33.8279C30.6509 33.8279 31.1278 34.769 32.6111 34.7407C34.1204 34.7131 35.0769 33.3174 36.0009 31.9171C37.0685 30.2983 37.508 28.73 37.5347 28.6505C37.5008 28.633 34.5923 27.479 34.5616 24.002Z" fill="black"/>
</svg>
