<svg width="71" height="71" viewBox="0 0 71 71" fill="none" xmlns="http://www.w3.org/2000/svg">
<g clip-path="url(#clip0_9689_8756)">
<path d="M70.7692 35.3846C70.7692 54.9269 54.9269 70.7692 35.3846 70.7692C15.8424 70.7692 0 54.9269 0 35.3846C0 35.3929 35.3846 0.00400841 35.3846 0C54.9269 0 70.7692 15.8424 70.7692 35.3846Z" fill="#0052B4"/>
<path d="M35.29 35.3847H35.3847C35.3847 35.3527 35.3847 35.322 35.3847 35.29C35.3532 35.3217 35.3217 35.3532 35.29 35.3847Z" fill="#F0F0F0"/>
<path d="M35.3846 18.4615C35.3846 12.2353 35.3846 8.15546 35.3846 0H35.3787C15.839 0.00317909 0 15.844 0 35.3845H18.4615V24.9886L28.8574 35.3845H35.2901C35.3217 35.353 35.3532 35.3214 35.3848 35.2898C35.3848 32.9059 35.3848 30.7788 35.3848 28.8575L24.9887 18.4615H35.3846Z" fill="#F0F0F0"/>
<path d="M17.9016 4.61523C12.3674 7.76654 7.76654 12.3674 4.61523 17.9016V35.3845H13.8461V13.8462V13.8461H35.3845C35.3845 10.9347 35.3845 8.16116 35.3845 4.61523H17.9016Z" fill="#D80027"/>
<path d="M35.3849 31.0335L22.8133 18.462H18.4619C18.4619 18.4618 18.4619 18.462 18.4619 18.462L35.3847 35.3848H35.3849C35.3849 35.3848 35.3849 32.3847 35.3849 31.0335Z" fill="#D80027"/>
<path d="M21.3403 41.5391L23.2823 45.5997L27.6676 44.5861L25.7038 48.6363L29.2304 51.4329L24.8395 52.4226L24.8518 56.9236L21.3403 54.1076L17.8289 56.9236L17.8412 52.4226L13.4502 51.4329L16.9769 48.6363L15.0128 44.5861L19.3984 45.5997L21.3403 41.5391Z" fill="#F0F0F0"/>
<path d="M52.9772 49.2314L53.9482 51.2618L56.1409 50.7549L55.1589 52.78L56.9223 54.1784L54.7268 54.6732L54.7329 56.9237L52.9772 55.5157L51.2215 56.9237L51.2276 54.6732L49.0322 54.1784L50.7955 52.78L49.8136 50.7549L52.0062 51.2618L52.9772 49.2314Z" fill="#F0F0F0"/>
<path d="M43.9451 27.6924L44.916 29.7228L47.1087 29.2159L46.1268 31.2409L47.8901 32.6393L45.6947 33.1341L45.7007 35.3847L43.9451 33.9766L42.1894 35.3847L42.1954 33.1341L40 32.6393L41.7633 31.2409L40.7814 29.2159L42.9741 29.7228L43.9451 27.6924Z" fill="#F0F0F0"/>
<path d="M52.9772 15.3848L53.9482 17.4152L56.1409 16.9084L55.159 18.9335L56.9222 20.3317L54.7268 20.8267L54.7329 23.0772L52.9772 21.6691L51.2215 23.0772L51.2276 20.8267L49.0322 20.3317L50.7954 18.9335L49.8136 16.9084L52.0062 17.4152L52.9772 15.3848Z" fill="#F0F0F0"/>
<path d="M60.868 24.6152L61.8388 26.6457L64.0316 26.1387L63.0496 28.1638L64.8129 29.5622L62.6174 30.0571L62.6235 32.3075L60.868 30.8996L59.1123 32.3075L59.1182 30.0571L56.9229 29.5622L58.6861 28.1638L57.7042 26.1387L59.8968 26.6457L60.868 24.6152Z" fill="#F0F0F0"/>
<path d="M55.2256 35.3848L55.9892 37.7354H58.4609L56.4613 39.1882L57.2252 41.5386L55.2256 40.0859L53.2261 41.5386L53.9897 39.1882L51.9902 37.7354H54.4618L55.2256 35.3848Z" fill="#F0F0F0"/>
</g>
<defs>
<clipPath id="clip0_9689_8756">
<rect width="70.7692" height="70.7692" fill="white"/>
</clipPath>
</defs>
</svg>
