<svg width="92" height="92" viewBox="0 0 92 92" fill="none" xmlns="http://www.w3.org/2000/svg">
<g clip-path="url(#clip0_9689_2706)">
<path d="M44.6039 90.2205C69.2379 90.7798 89.6612 71.2634 90.2205 46.6293C90.7798 21.9953 71.2634 1.57201 46.6293 1.01271C21.9953 0.453404 1.57201 19.9698 1.01271 44.6039C0.453404 69.2379 19.9698 89.6612 44.6039 90.2205Z" fill="#F0F0F0"/>
<path d="M90.2206 46.6293C90.6221 28.9456 80.6779 13.4323 65.9219 5.87891L64.0975 86.2347C79.1811 79.359 89.8191 64.313 90.2206 46.6293V46.6293Z" fill="#D80027"/>
<path d="M1.01261 44.6038C0.611109 62.2875 10.5553 77.8007 25.3113 85.3542L27.1358 4.99818C12.0521 11.8741 1.41411 26.9201 1.01261 44.6038Z" fill="#D80027"/>
<path d="M53.2414 51.6108L61.0866 47.9083L57.2521 45.881L57.3402 42.0023L49.4949 45.7048L53.5496 38.0357L49.671 37.9476L45.9245 32.0417L41.9138 37.7715L38.0352 37.6834L41.7377 45.5287L34.0685 41.474L33.9804 45.3526L30.0579 47.2038L37.7269 51.2585L35.6997 55.0931L43.4569 55.2692L43.3248 61.0871L47.2033 61.1751L47.3353 55.3573L55.0926 55.5334L53.2414 51.6108Z" fill="#D80027"/>
</g>
<defs>
<clipPath id="clip0_9689_2706">
<rect width="89.2308" height="89.2308" fill="white" transform="translate(2.02541) rotate(1.30065)"/>
</clipPath>
</defs>
</svg>
