<svg width="233" height="252" viewBox="0 0 233 252" fill="none" xmlns="http://www.w3.org/2000/svg">
<path d="M-22.4571 123.01C-22.5933 122.902 -22.8916 122.423 -23.1899 121.943C-23.352 121.571 -24.1109 120.24 -24.4934 120.182C-24.7657 119.967 -25.751 120.164 -25.8872 120.057C-26.0233 119.949 -27.5793 119.452 -27.9358 119.658L-27.6635 119.873C-27.5273 119.981 -27.1708 119.774 -26.9245 119.725L-26.542 119.783C-26.1595 119.842 -25.9391 119.528 -25.9651 119.263C-25.9911 118.999 -27.1386 118.824 -27.385 118.874C-27.6313 118.923 -27.4171 119.824 -27.3912 120.088C-27.4753 120.51 -27.5595 120.931 -28.2663 120.129C-28.9731 119.327 -29.4534 116.996 -29.4794 116.732C-29.5054 116.467 -29.8037 115.988 -30.0761 115.773L-29.6094 115.41L-29.1427 115.046C-28.6761 114.683 -28.3455 114.213 -28.6179 113.998L-28.8902 113.783L-29.571 113.245C-29.5128 112.559 -29.066 110.717 -28.5931 109.139L-28.2305 107.719L-28.1203 107.562C-28.1463 107.297 -27.7898 107.091 -27.2711 107.257C-26.7785 107.158 -25.657 107.068 -25.683 106.804C-25.709 106.54 -24.6977 106.607 -24.3152 106.665L-23.9327 106.723C-23.9327 106.723 -23.5762 106.517 -23.3559 106.203C-23.1355 105.889 -21.6576 105.593 -21.4112 105.544C-21.0547 105.338 -20.0954 104.876 -19.9852 104.719L-19.875 104.562L-19.6547 104.249C-19.2462 104.571 -18.5654 105.109 -17.7744 105.49L-17.4439 105.019L-17.3337 104.862C-17.5219 104.226 -17.5479 103.962 -17.3016 103.912C-16.9191 103.971 -16.2643 104.244 -16.1281 104.351C-15.9919 104.459 -15.6614 103.988 -15.4151 103.939L-15.2789 104.046L-15.0066 104.262C-14.5981 104.584 -14.3518 104.535 -14.2676 104.114C-14.1834 103.692 -14.0411 102.585 -14.0151 102.85C-13.853 103.222 -13.036 103.867 -12.6795 103.661L-12.323 103.455C-12.0766 103.405 -11.8563 103.091 -11.7202 103.199L-11.3377 103.257C-10.9552 103.315 -10.5727 103.374 -10.5987 103.109C-10.4885 102.952 -10.2682 102.639 -10.106 103.011C-9.80768 103.49 -9.7037 104.548 -10.0862 104.49L-10.3325 104.539L-10.4427 104.696C-10.8252 104.638 -11.7003 104.678 -12.4393 104.826L-12.6336 105.404C-12.7438 105.561 -12.7178 105.825 -12.5817 105.933L-12.4455 106.041C-12.1992 105.991 -11.5444 106.265 -11.0257 106.43L-10.585 105.803L-10.1703 104.911C-10.9613 104.53 -11.506 104.1 -11.506 104.1C-11.6421 103.992 -10.7992 104.902 -10.3907 105.225C-9.9822 105.547 -9.87821 106.605 -9.85221 106.869C-9.71605 106.977 -9.88438 107.819 -10.4612 108.339L-11.2782 107.694C-11.4985 108.008 -12.1014 108.263 -12.3477 108.313C-12.7302 108.255 -13.9297 107.551 -14.0658 107.444C-14.3382 107.228 -15.1031 107.112 -15.1031 107.112C-15.1031 107.112 -15.1291 106.848 -15.019 106.691C-14.9088 106.534 -14.9868 105.741 -15.5315 105.31L-15.7778 105.36C-16.3806 105.615 -15.836 106.045 -15.6738 106.417L-15.5376 106.525C-15.6478 106.682 -16.0043 106.888 -16.3868 106.83L-16.523 106.722L-17.1196 105.763C-17.6964 106.283 -18.1631 106.646 -18.0269 106.754C-17.8908 106.861 -17.4823 107.184 -17.236 107.135C-17.0998 107.242 -16.1726 107.731 -15.5178 108.004L-15.3878 109.326C-15.3098 110.119 -15.2579 110.648 -15.8607 110.904L-16.107 110.953C-16.3274 111.267 -15.9449 111.325 -15.1799 111.441L-14.8234 111.235C-14.577 111.186 -14.655 110.393 -14.4347 110.079L-14.3505 109.658C-14.2664 109.236 -14.02 109.187 -13.7477 109.402C-13.5855 109.774 -13.2612 110.518 -13.3714 110.675C-13.4816 110.832 -13.7019 111.145 -13.5657 111.253C-13.2934 111.468 -12.7166 110.948 -12.1398 110.428C-11.6731 110.065 -11.1742 108.752 -10.8759 109.231C-10.5776 109.711 -9.57243 110.993 -9.62442 110.464C-9.78658 110.092 -9.20978 109.572 -8.44479 109.688L-7.95211 109.59L-7.45944 109.491C-6.96677 109.392 -6.74645 109.078 -7.15494 108.756C-7.56343 108.433 -8.67872 107.308 -8.95105 107.093C-9.11321 106.721 -9.21719 105.664 -9.08103 105.771C-8.94487 105.879 -8.47822 105.516 -8.39404 105.094C-8.30987 104.673 -8.93254 103.45 -8.68621 103.4C-8.43987 103.351 -7.78504 103.624 -7.75905 103.889L-7.73307 104.153C-7.70707 104.418 -7.68105 104.682 -7.54489 104.789C-7.40872 104.897 -7.02622 104.955 -7.02622 104.955L-6.69573 104.485C-6.36523 104.014 -6.03471 103.543 -5.89855 103.651C-5.89855 103.651 -5.76241 103.758 -5.87257 103.915L-5.84658 104.18C-5.46408 104.238 -5.08158 104.296 -4.69909 104.354L-4.07028 104.363C-4.12227 103.834 -4.0381 103.413 -3.92794 103.256C-3.79177 103.364 -3.65561 103.471 -3.51944 103.579C-3.49344 103.843 -3.6036 104 -3.57761 104.265L-3.66179 104.686C-3.27929 104.744 -2.65047 104.753 -2.15781 104.654C-1.80131 104.448 -0.70582 104.094 -0.621647 103.673L-0.401298 103.359L0.117348 103.525L0.22135 104.582C0.688018 104.219 1.40099 103.807 1.75749 103.601C2.11399 103.394 2.96316 103.09 3.12532 103.462C3.39764 103.677 4.24062 104.586 4.46095 104.273C4.57112 104.116 5.2841 103.703 5.17394 103.86C5.19993 104.125 5.38808 104.761 5.6604 104.976L5.90675 104.927L6.86606 104.465C7.43671 105.16 7.76104 105.904 7.8972 106.011C7.78704 106.168 7.97518 106.804 8.35768 106.863C8.74017 106.921 9.99783 106.939 10.2442 106.889L10.2182 106.625C9.94584 106.41 9.67351 106.195 9.53735 106.087C9.29102 106.136 8.74636 105.706 8.9407 105.128L8.77853 104.756L8.61638 104.384C7.93556 103.846 7.66324 103.631 8.31806 103.905C8.97288 104.178 9.77003 103.344 9.9062 103.452C10.0424 103.559 10.3147 103.774 10.0684 103.824C10.0684 103.824 9.84803 104.138 9.87403 104.402C9.90003 104.666 10.2503 105.675 10.2763 105.939L10.769 105.84L11.0153 105.791C11.1255 105.634 11.3458 105.321 11.3198 105.056C11.43 104.899 12.0328 104.644 12.2792 104.594C12.5255 104.545 13.0503 103.496 13.1865 103.604C13.3227 103.711 13.8933 104.406 13.647 104.455C13.2905 104.661 12.8238 105.025 12.96 105.132C13.0961 105.24 13.3425 105.19 13.8351 105.092C14.1916 104.885 15.6956 104.854 16.1041 105.176L16.4024 105.656C16.5646 106.028 16.7267 106.4 17.2194 106.301L17.4397 105.988L17.4137 105.723C17.2516 105.351 17.0894 104.979 16.9533 104.872C16.8171 104.764 16.9013 104.343 17.2837 104.401L17.5301 104.352L17.6402 104.195C17.7244 103.774 17.9708 103.724 18.5154 104.154C19.0601 104.585 20.6742 104.396 20.9985 105.14L19.9872 105.073C19.7409 105.122 19.4685 104.907 19.3324 104.8L19.1702 104.428C18.7877 104.369 18.0487 104.517 17.6922 104.724L17.9064 105.624L18.1466 106.79C17.5697 107.31 16.8889 106.772 16.2923 105.813L15.1126 106.588L14.8403 106.373L14.0493 105.992C14.1273 106.786 14.4256 107.265 14.8081 107.323C15.1906 107.382 16.2019 107.449 16.3641 107.821C16.5262 108.193 16.5782 108.722 16.0596 108.556C15.5409 108.39 14.0307 109.636 13.6742 109.842L13.4539 110.156C13.3437 110.313 13.2596 110.734 13.2856 110.999L13.4217 111.106C13.8042 111.164 14.2969 111.066 14.7895 110.967L15.3082 111.133C15.5545 111.084 15.937 111.142 16.0472 110.985L16.4619 110.093C16.8766 109.201 17.5636 108.524 17.5636 108.524C17.6997 108.632 17.8619 109.004 17.8878 109.268C17.9138 109.533 17.8557 110.218 17.7455 110.375C17.6353 110.532 17.9337 111.012 18.3162 111.07L18.5625 111.02L19.2755 110.608C20.0986 110.039 20.9738 109.998 21.0258 110.527C21.0778 111.056 20.1705 112.047 20.0343 111.939C19.8981 111.831 17.9015 111.962 18.31 112.284L18.5823 112.499L18.9908 112.822C19.5094 112.988 19.6716 113.36 19.3151 113.566C18.9586 113.772 18.1095 114.077 18.2196 113.92C18.3298 113.763 18.0315 113.284 17.5128 113.118L17.1303 113.06C17.1303 113.06 17.0461 113.481 16.8258 113.795L16.7156 113.952C16.6315 114.373 16.249 114.315 16.0868 113.943C15.9247 113.571 14.8873 113.239 14.641 113.289C14.3947 113.338 13.0009 113.213 12.7025 112.733C12.294 112.411 10.8483 111.756 10.9324 111.335C10.9064 111.071 11.1849 110.071 11.4573 110.286L11.5934 110.394C11.7296 110.501 12.1121 110.56 12.3584 110.51C12.3324 110.246 12.2804 109.717 12.1183 109.345C11.9561 108.973 11.8781 108.18 11.9883 108.023C12.0985 107.866 12.429 107.395 12.0465 107.337C11.664 107.279 10.4843 108.055 10.2899 108.633L10.0696 108.946L9.95946 109.103C9.84929 109.26 9.49282 109.466 9.2205 109.251L9.19447 108.987C9.16847 108.722 9.25268 108.301 9.36284 108.144C9.47301 107.987 9.42099 107.459 9.17466 107.508C9.0385 107.4 8.68202 107.607 8.54585 107.499C8.40969 107.391 7.23619 106.952 7.12602 107.109L7.01585 107.266L6.9057 107.423C6.65938 107.472 6.41304 107.522 6.41304 107.522C6.41304 107.522 6.00453 107.199 5.78419 107.513C5.56386 107.827 4.63055 108.553 4.22206 108.23C3.81357 107.907 3.30109 106.527 3.13894 106.155L2.64626 106.254C2.62027 105.989 2.45812 105.617 2.56829 105.461C2.5423 105.196 1.93948 105.452 1.8813 106.137L2.31578 106.724C2.75026 107.311 3.15875 107.634 3.59323 108.221L3.72938 108.329C3.72938 108.329 3.3729 108.535 3.12657 108.584C2.88024 108.634 2.22542 108.36 1.68076 107.93L1.29828 107.872L1.05196 107.921C0.695457 108.127 -0.0435487 108.275 -0.42604 108.217L-0.724362 107.738L-0.860512 107.63C-0.996675 107.523 -1.24302 107.572 -1.46336 107.886C-1.68369 108.199 -1.85203 109.042 -1.33337 109.208C-0.95088 109.266 0.605107 109.763 0.631102 110.028C0.657098 110.292 0.981389 111.036 1.22772 110.987C1.47405 110.937 2.07689 110.682 2.0509 110.417C2.0249 110.153 2.08306 109.467 2.32939 109.418C2.57572 109.369 2.87406 109.848 3.28255 110.171L3.8012 110.337L4.59219 110.717C3.43852 111.757 2.06453 113.111 1.73403 113.582C1.29336 114.209 2.16854 114.169 2.77137 113.913C3.3742 113.658 5.09231 114.527 5.22848 114.634C5.33865 114.478 5.69513 114.271 5.55897 114.164C5.39681 113.792 5.01431 113.734 4.85215 113.362C4.68999 112.99 4.77417 112.568 4.74817 112.304L4.36567 112.246L4.14536 112.559C3.76286 112.501 3.24417 112.336 2.88768 112.542L2.77753 112.699C2.80353 112.963 2.96566 113.335 2.33684 113.326L1.70803 113.317C2.06453 113.111 2.75154 112.434 3.32837 111.914C3.9052 111.394 5.11083 110.883 5.60349 110.785L5.98601 110.843C6.12218 110.95 6.25832 111.058 6.39449 111.165C6.64081 111.116 6.88716 111.067 7.02333 111.174L7.89848 111.134C8.74764 110.829 9.6228 110.788 9.89512 111.004C10.1674 111.219 11.0364 112.393 11.2246 113.029L10.3494 113.07L10.1031 113.119C9.90874 113.697 9.68839 114.011 9.68839 114.011C9.68839 114.011 9.27992 113.688 8.84543 113.101L8.40477 113.729C8.07427 114.199 8.59291 114.365 8.86523 114.58L9.4099 115.01C10.5314 114.921 11.789 114.938 12.0354 114.889C12.2817 114.84 12.7162 115.427 12.606 115.584C12.2495 115.79 10.7393 117.036 10.519 117.35C10.2987 117.663 10.571 117.879 10.8174 117.829C11.0637 117.78 11.7507 117.103 11.945 116.525L11.2902 116.252C10.5252 116.135 9.76021 116.019 9.37772 115.96C8.99522 115.902 8.00989 116.1 8.03589 116.364C8.06188 116.628 8.02972 117.579 8.13989 117.422C8.25006 117.265 8.74274 117.166 8.76873 117.431C8.9049 117.538 9.06701 117.91 9.28735 117.596C9.39751 117.439 11.3682 117.045 11.8868 117.211C12.2953 117.533 14.0716 117.717 14.4281 117.511C14.9208 117.412 16.0101 118.272 16.1203 118.115C16.2304 117.959 16.7231 117.86 17.1056 117.918C17.4881 117.976 18.4734 117.779 18.4474 117.515C18.4214 117.25 18.0971 116.506 17.9869 116.663C17.8768 116.82 17.3841 116.919 17.1378 116.968C16.8914 117.017 16.4508 117.645 16.1785 117.43C16.0423 117.322 15.8281 116.421 15.666 116.049C15.64 115.785 15.562 114.992 15.9185 114.785C16.275 114.579 16.9818 115.381 17.5264 115.812L17.9931 115.449C18.3496 115.242 18.4078 114.557 19.0886 115.094L19.2248 115.202C19.3609 115.309 19.8796 115.475 19.9056 115.74C20.1779 115.955 20.392 116.856 19.8994 116.954L19.7632 116.847C19.3547 116.524 18.9983 116.73 19.0243 116.995C19.0502 117.259 19.4587 117.582 19.731 117.797L20.2497 117.963C20.6904 117.335 21.2412 116.551 21.3254 116.129L21.2994 115.865L21.2734 115.6C20.9751 115.121 21.0852 114.964 21.4937 115.287C21.9022 115.609 22.0582 117.196 22.2463 117.832L22.1622 118.254C22.052 118.41 22.4605 118.733 22.4605 118.733C23.0893 118.742 23.608 118.908 24.2368 118.917C24.2368 118.917 24.3469 118.76 24.4571 118.603C24.5673 118.446 24.4311 118.338 24.295 118.231L23.7763 118.065C23.1215 117.792 22.8491 117.577 23.0955 117.527C23.3418 117.478 24.0808 117.33 23.9966 117.751C24.0226 118.016 25.1441 117.926 25.5266 117.984C25.9091 118.043 27.3289 118.432 27.7374 118.755L28.1459 119.078L28.2821 119.185C28.4182 119.293 29.1832 119.409 29.9482 119.525L30.6872 119.377L31.1799 119.279C31.3742 118.701 31.8409 118.338 32.2234 118.396C32.4957 118.611 33.6952 119.314 34.2138 119.48C34.7325 119.646 35.6658 118.92 35.6398 118.655L34.6285 118.588C34.6867 117.902 34.7708 117.481 34.5245 117.531C34.4143 117.687 33.5652 117.992 33.429 117.885C33.1567 117.67 32.3657 117.289 32.3917 117.553C32.4177 117.818 31.4324 118.015 31.0239 117.692L30.9137 117.849C30.8036 118.006 30.7454 118.692 30.6092 118.584C29.9804 118.575 30.0646 118.154 29.9024 117.782L29.7662 117.675C29.4939 117.459 29.4939 117.459 29.8504 117.253C30.0967 117.204 30.5634 116.841 30.5374 116.576C30.5114 116.312 30.8159 115.577 31.2826 115.214L31.4967 116.115C31.5227 116.379 32.0414 116.545 32.0414 116.545C32.2877 116.495 32.6442 116.289 32.8906 116.24C33.0527 116.612 33.4352 116.67 33.6555 116.356L33.9019 116.307L34.8612 115.845C35.2115 116.854 35.5358 117.598 35.672 117.705C35.8081 117.813 36.411 117.557 37.124 117.145L36.9098 116.244L36.8838 115.98C37.1041 115.666 37.2403 115.773 37.5386 116.253L37.837 116.732L37.9731 116.84C38.2454 117.055 38.3816 117.163 38.2714 117.319C38.1613 117.476 38.4596 117.956 38.9523 117.857L39.1726 117.543L39.8596 116.867C40.3523 116.768 41.1172 116.884 41.2534 116.992C41.5257 117.207 42.1806 117.48 42.4009 117.166C42.6212 116.853 43.1981 116.333 43.3602 116.705C43.5224 117.077 44.5015 118.094 45.1304 118.103C45.7592 118.112 46.232 116.534 46.3422 116.377C46.5885 116.328 46.7247 116.435 46.4783 116.485C46.3682 116.642 47.6778 117.188 48.1705 117.09C48.7993 117.099 49.5841 118.694 49.9666 118.752L50.0768 118.595L50.4333 118.389C50.7056 118.604 51.3344 118.613 51.5807 118.564C51.8271 118.514 52.4299 118.259 52.0214 117.936C51.7491 117.721 51.3146 117.134 51.5869 117.349C51.9694 117.407 52.9547 117.21 52.8706 117.631C52.8966 117.896 53.2469 118.904 53.5192 119.119C53.7915 119.334 54.6927 119.558 54.6147 118.765C54.5367 117.972 55.6124 116.139 56.7079 115.784L57.6932 115.587L57.9655 115.802L58.1017 115.91C58.1277 116.174 57.7972 116.645 57.6029 117.223L57.2723 117.694L57.1622 117.85C56.9419 118.164 56.7797 117.792 56.8638 117.371L56.7277 117.263L56.4553 117.048C56.0729 116.99 55.5802 117.089 55.47 117.246C55.3599 117.402 55.1395 117.716 55.4119 117.931C55.4379 118.196 55.2955 119.303 55.73 119.89L56.469 119.742C56.469 119.742 56.7673 120.221 56.7933 120.486C56.8193 120.75 56.9814 121.122 57.1176 121.23L57.5261 121.552C58.0448 121.718 58.4273 121.776 58.1549 121.561C58.1289 121.297 57.5583 120.602 57.3961 120.23C57.234 119.858 56.7735 119.007 56.8837 118.85L56.9938 118.693L57.104 118.536C57.3243 118.222 57.5707 118.173 57.5967 118.437C57.6227 118.702 58.2775 118.975 58.4137 119.083C58.66 119.033 59.3148 119.307 59.5611 119.257C59.8074 119.208 60.2481 118.581 59.7294 118.415C59.2108 118.249 57.9012 117.702 57.765 117.595C57.8752 117.438 57.9853 117.281 58.2316 117.232C58.2316 117.232 58.504 117.447 58.6142 117.29L59.5413 117.778C59.7356 117.2 59.93 116.622 60.2865 116.416L60.3125 116.68L60.4746 117.052C60.8571 117.11 61.0193 117.482 60.9091 117.639C60.799 117.796 60.5204 118.796 60.4623 119.481C60.4041 120.167 59.8471 122.166 59.7629 122.587L59.9251 122.959C60.0872 123.331 60.4697 123.389 60.8522 123.448C60.8522 123.448 61.0985 123.398 61.0725 123.134C61.2669 122.556 60.6381 122.547 60.6121 122.282C60.6121 122.282 60.6962 121.861 61.0267 121.391C61.3572 120.92 62.8092 120.36 62.9194 120.203C63.0556 120.31 64.0928 120.642 64.9098 121.287L65.8692 120.825C66.2257 120.619 66.498 120.834 66.55 121.363L66.9003 122.371C67.6393 122.223 68.106 121.86 67.9698 121.753C67.8076 121.381 67.1268 120.843 67.0167 121C66.7703 121.049 67.0748 120.314 67.3212 120.265L67.4573 120.372L68.002 120.803C68.6308 120.811 69.1494 120.977 69.1494 120.977L69.2856 121.085L69.6359 122.093C70.1286 121.994 70.8676 121.846 71.0037 121.954C71.1399 122.062 71.9309 122.442 72.4235 122.344C72.9162 122.245 74.284 122.106 74.258 121.842C74.232 121.577 74.5106 120.578 74.5947 120.156C74.7049 120 75.1134 120.322 75.0032 120.479L75.1654 120.851C75.3275 121.223 75.3795 121.752 75.1592 122.066C75.049 122.222 74.7445 122.957 74.7705 123.222C74.9067 123.329 75.4253 123.495 76.0282 123.24C76.631 122.984 78.3293 122.374 78.4655 122.482C78.4915 122.746 78.5174 123.011 78.4073 123.168C78.4073 123.168 78.0508 123.374 78.0768 123.638L78.213 123.746C78.3491 123.853 78.7316 123.912 78.7316 123.912L78.9519 123.598C79.1723 123.284 79.0943 122.491 78.77 121.747C78.3355 121.16 76.4169 122.083 76.4169 122.083C76.4169 122.083 76.0344 122.025 75.9824 121.496C75.9564 121.232 75.3597 120.273 75.4699 120.116C75.5801 119.959 75.9106 119.488 75.8846 119.224C75.9947 119.067 76.1049 118.91 76.241 119.018C76.3772 119.125 76.5913 120.026 76.7795 120.663L77.3824 120.407L78.2315 120.102C79.2688 120.434 80.0598 120.815 79.6773 120.756C79.431 120.806 78.8541 121.326 79.2626 121.648L79.5349 121.863L79.9434 122.186C79.8593 122.607 80.0214 122.979 80.0474 123.244C80.1836 123.351 80.7283 123.781 80.9486 123.468C81.1689 123.154 81.9661 122.32 82.1022 122.428C82.2384 122.535 82.4006 122.907 82.1543 122.957L82.0441 123.113L81.9339 123.27C81.8238 123.427 81.3571 123.79 81.0006 123.996L81.1627 124.368L81.3249 124.74C81.8436 124.906 82.2001 124.7 82.1741 124.436L82.2582 124.014L82.5046 123.965L82.8029 124.444C83.1012 124.924 83.4837 124.982 83.73 124.933L83.8402 124.776L83.9504 124.619C84.1707 124.305 84.417 124.256 84.443 124.52C84.469 124.785 84.9035 125.372 85.1498 125.323C85.3962 125.273 85.7266 124.803 85.947 124.489C86.0571 124.332 86.9583 124.556 87.503 124.986C87.9115 125.309 89.2013 124.376 89.4476 124.327L89.5838 124.435C89.72 124.542 89.7459 124.807 89.6357 124.964C89.5256 125.12 89.4154 125.277 89.3053 125.434C89.1951 125.591 89.3573 125.963 89.6036 125.914L89.9861 125.972C90.3686 126.03 90.9974 126.039 91.1335 126.147C91.2697 126.254 91.7884 126.42 91.7624 126.155C91.6263 126.048 91.5742 125.519 91.5742 125.519C91.6844 125.362 92.4754 125.743 92.9941 125.909C93.5127 126.075 95.315 126.522 95.4772 126.894L95.7495 127.11L96.4303 127.647C96.6246 127.069 96.9552 126.598 97.3117 126.392C97.6681 126.186 98.2648 127.145 98.5111 127.096L98.7574 127.046C99.2501 126.948 99.801 126.163 100.067 127.593C100.067 127.593 100.612 128.023 100.722 127.866C101.545 127.297 102.038 127.198 102.414 128.471L102.55 128.579C102.933 128.637 104.19 128.655 105.202 128.722L106.077 128.681C106.213 128.789 106.816 128.533 106.816 128.533L106.926 128.376C107.036 128.22 107.282 128.17 107.639 127.964C107.995 127.758 108.923 128.246 108.702 128.56L108.592 128.717C108.482 128.874 108.372 129.031 108.398 129.295C108.45 129.824 108.806 129.618 109.053 129.568L109.986 128.842C111.159 129.281 112.962 129.729 114.109 129.904L115.062 130.657C115.199 130.764 115.309 130.607 115.555 130.558L116.268 130.146C116.32 130.675 116.618 131.154 116.975 130.948C117.331 130.742 119.296 131.562 120.333 131.893L120.826 131.794C121.072 131.745 121.565 131.646 121.811 131.597C122.083 131.812 122.109 132.077 121.863 132.126C121.753 132.283 121.422 132.753 122.051 132.762C122.57 132.928 124.1 133.161 124.482 133.219C124.865 133.277 126.259 133.403 126.803 133.833C127.212 134.155 128.606 134.281 128.82 135.182L127.698 135.271C127.75 135.8 128.133 135.858 128.599 135.495C129.066 135.132 130.382 134.464 130.544 134.836C130.706 135.208 130.784 136.002 131.251 135.638L131.822 136.333C131.958 136.441 132.34 136.499 132.587 136.449C132.587 136.449 132.807 136.136 132.671 136.028C132.619 135.499 132.126 135.598 131.744 135.54C131.607 135.432 131.581 135.168 131.938 134.962C132.294 134.755 132.897 134.5 133.033 134.607C133.059 134.872 133.578 135.038 133.935 134.831C134.291 134.625 135.601 135.172 136.203 134.916L136.884 135.454L137.02 135.562C136.962 136.247 137.014 136.776 137.15 136.884C137.293 135.777 138.466 136.216 139.179 135.803C139.179 135.803 139.698 135.969 140.217 136.135L140.515 136.614C140.839 137.358 141.306 136.995 141.909 136.74C142.265 136.533 142.616 137.542 143.439 136.973C144.016 136.453 144.969 137.205 145.403 137.792C145.701 138.272 145.838 138.38 145.617 138.693L145.397 139.007C145.066 139.478 145.229 139.85 145.721 139.751L145.831 139.594L146.408 139.074C146.33 138.281 147.043 137.868 147.918 137.828L148.683 137.944C148.93 137.895 149.176 137.846 149.312 137.953C150.59 139.45 152.236 138.311 153.818 139.073L153.954 139.181C154.174 138.867 154.421 138.818 154.447 139.082C154.337 139.239 154.797 140.09 155.452 140.364C156.107 140.637 157.695 140.184 157.695 140.184L157.585 140.341L157.475 140.498C157.364 140.655 157.637 140.87 158.129 140.771L158.376 140.722C158.622 140.673 158.868 140.623 159.251 140.682C159.277 140.946 159.549 141.161 159.77 140.847L160.016 140.798L160.262 140.749C160.535 140.964 160.697 141.336 160.723 141.6C160.859 141.708 162.006 141.882 162.771 141.999C163.536 142.115 165.585 142.514 166.104 142.68L166.622 142.845C166.869 142.796 167.115 142.747 167.251 142.854L167.549 143.334C167.958 143.656 168.723 143.773 169.19 143.41L169.734 143.84C169.87 143.947 170.305 144.534 170.331 144.799L170.467 144.906C170.603 145.014 170.875 145.229 170.849 144.965C170.849 144.965 170.934 144.543 171.154 144.23L171.699 144.66C171.971 144.875 172.217 144.826 172.49 145.041C172.872 145.099 173.255 145.157 173.501 145.108C173.637 145.215 173.527 145.372 173.417 145.529C173.307 145.686 172.84 146.049 172.976 146.157C173.112 146.264 173.248 146.372 173.495 146.322L173.741 146.273L175.193 145.713C175.9 146.515 176.853 147.268 177.236 147.326L177.262 147.59C177.288 147.855 177.067 148.168 177.203 148.276L177.366 148.648C177.774 148.971 178.157 149.029 178.377 148.715C178.487 148.558 178.902 147.666 178.629 147.451C178.357 147.236 177.786 146.541 178.033 146.492L178.415 146.55C178.798 146.609 179.206 146.931 179.505 147.411C179.667 147.783 180.73 148.379 180.866 148.486L181.002 148.594C181.573 149.288 181.625 149.817 180.912 150.23C180.802 150.386 180.529 150.171 180.419 150.328L180.309 150.485C180.199 150.642 180.361 151.014 180.633 151.229L180.88 151.18L181.755 151.139C182.462 151.941 182.786 152.685 182.786 152.685C182.786 152.685 183.195 153.008 183.823 153.017L184.232 153.339L184.777 153.77C185.347 154.464 185.672 155.208 185.451 155.522C185.231 155.836 186.048 156.481 186.074 156.745C185.964 156.902 185.523 157.53 185.192 158L185.873 158.538C185.653 158.852 184.966 159.529 184.499 159.892L184.467 160.842C184.383 161.263 184.623 162.428 183.476 162.254C183.476 162.254 183.391 162.675 183.281 162.832C183.171 162.989 183.087 163.41 182.977 163.567L182.011 165.243L181.843 166.086C181.675 166.929 181.15 167.977 180.929 168.291C180.709 168.605 180.865 170.191 180.891 170.456C180.917 170.72 180.476 171.348 180.204 171.133L180.068 171.025C179.685 170.967 179.167 170.801 178.784 170.743C178.538 170.792 179.135 171.751 178.207 171.263L177.935 171.048C177.442 171.146 176.95 171.245 176.703 171.294C176.457 171.344 175.718 171.492 175.498 171.805L175.362 171.698L174.843 171.532C174.298 171.102 173.423 171.142 172.93 171.241L172.438 171.34L171.809 171.331C171.044 171.214 170.143 170.99 169.514 170.982C168.885 170.973 166.344 170.673 165.196 170.498L164.185 170.431C164.185 170.431 163.777 170.108 163.368 169.786C162.96 169.463 161.482 169.759 160.989 169.858C160.606 169.799 158.966 169.723 158.065 169.499C157.3 169.383 155.031 169.298 154.785 169.348C154.649 169.24 154.13 169.074 153.858 168.859C153.585 168.644 152.6 168.841 152.354 168.891C152.107 168.94 151.316 168.559 150.876 169.187L149.923 168.434L149.65 168.219C149.378 168.004 149.242 167.896 149.242 167.896C149.352 167.739 149.462 167.582 149.436 167.318C149.3 167.21 149.028 166.995 148.645 166.937C148.263 166.879 147.628 168.085 146.668 168.546L145.741 168.058L144.95 167.677C144.185 167.561 143.31 167.601 142.902 167.278C142.519 167.22 141.508 167.153 141.015 167.252L140.633 167.194L140.004 167.185C139.239 167.068 138.474 166.952 138.338 166.844L138.202 166.737L138.065 166.629C137.929 166.522 137.411 166.356 136.782 166.347C136.289 166.446 134.429 166.683 134.046 166.625C133.527 166.459 131.997 166.227 131.997 166.227C131.997 166.227 132.16 166.599 132.568 166.921C132.977 167.244 134.422 167.898 134.805 167.956L135.187 168.014L136.717 168.247C136.88 168.619 137.178 169.099 137.56 169.157C137.697 169.264 138.053 169.058 138.299 169.009C138.682 169.067 139.064 169.125 139.583 169.291L140.264 169.829C141.055 170.21 142.04 170.012 142.371 169.542L142.695 170.286L143.181 171.402C143.758 170.882 144.361 170.626 144.633 170.841C144.906 171.056 145.723 171.702 145.859 171.809L146.41 171.025C146.954 171.455 147.771 172.1 148.154 172.158C148.426 172.374 149.437 172.441 149.71 172.656C149.982 172.871 150.935 173.624 151.318 173.682C151.726 174.005 153.204 173.708 153.561 173.502L153.885 174.246C154.378 174.148 155.007 174.156 154.896 174.313C154.786 174.47 155.195 174.793 155.797 174.537L156.18 174.596C156.563 174.654 156.861 175.133 157.379 175.299L157.924 175.729C158.553 175.738 159.182 175.747 159.318 175.855L159.454 175.962C159.59 176.07 159.616 176.334 159.752 176.442C160.025 176.657 160.686 175.715 160.926 176.881L160.952 177.145C161.471 177.311 162.372 177.535 163.001 177.544L163.493 177.445C164.122 177.454 163.733 178.61 164.472 178.462L164.965 178.364C165.263 178.843 165.834 179.538 166.268 180.125L166.955 179.448L167.066 179.291C167.202 179.399 167.831 179.408 168.375 179.838C168.894 180.004 170.476 180.765 170.366 180.922C170.392 181.186 170.444 181.715 170.554 181.558C170.664 181.402 171.539 181.361 171.974 181.948L172.356 182.006C172.765 182.329 172.927 182.701 172.927 182.701C172.927 182.701 173.115 183.337 173.387 183.552C173.549 183.924 173.187 185.345 173.077 185.502C172.966 185.659 174.464 186.842 174.899 187.429C175.443 187.859 176.883 189.728 177.071 190.364C177.259 191.001 176.975 193.215 176.89 193.636L176.21 193.098C176.073 192.991 175.717 193.197 175.743 193.461L175.769 193.726C175.523 193.775 175.166 193.981 174.92 194.031C174.673 194.08 174.862 194.716 174.888 194.981C174.914 195.245 174.09 195.815 173.598 195.913L174.168 196.608L174.603 197.195C174.136 197.558 173.313 198.127 172.957 198.333C172.6 198.54 171.609 199.952 170.98 199.943L172.069 200.803C171.959 200.96 171.765 201.538 171.544 201.852C171.324 202.166 170.579 203.528 170.469 203.685L169.619 203.99C169.697 204.783 169.912 205.684 169.964 206.213C170.016 206.742 167.773 206.921 166.871 206.697L166.106 206.581C165.341 206.464 164.382 206.926 163.669 207.339C163.066 207.594 163.391 208.338 164.019 208.347C164.784 208.463 164.37 209.355 164.999 209.364C165.491 209.265 166.094 209.01 166.665 209.705L167.073 210.027C167.592 210.193 168.273 210.731 168.571 211.21L168.843 211.425C169.116 211.64 169.582 211.277 169.965 211.335L170.347 211.394C170.756 211.716 171.19 212.303 171.489 212.783C171.787 213.262 173.207 213.652 173.343 213.76C173.479 213.867 173.94 214.719 174.374 215.306C174.809 215.893 176.637 216.605 176.799 216.977C176.961 217.349 177.72 218.68 177.966 218.631C178.213 218.582 178.867 218.855 178.893 219.119C178.919 219.384 178.997 220.177 178.997 220.177C178.997 220.177 178.18 219.532 177.5 218.994L176.819 218.456L176.41 218.134C175.782 218.125 175.97 218.761 176.54 219.456L177.195 219.729C177.85 220.002 177.708 221.109 178.829 221.02L179.212 221.078C179.646 221.665 179.944 222.144 180.081 222.252C180.217 222.359 180.133 222.781 180.159 223.045C180.185 223.31 180.839 223.583 181.222 223.641C181.604 223.699 182.285 224.237 182.421 224.345C182.557 224.452 182.363 225.03 182.363 225.03C182.253 225.187 181.734 225.021 181.326 224.699C180.917 224.376 179.984 225.102 179.712 224.887C179.329 224.829 178.642 225.506 178.778 225.613C178.914 225.721 178.856 226.407 178.61 226.456C178.254 226.662 179.096 227.572 179.259 227.944L179.531 228.159C179.667 228.266 179.803 228.374 179.939 228.482L180.212 228.697C180.484 228.912 180.867 228.97 181.003 229.077C181.139 229.185 181.301 229.557 181.081 229.871C180.86 230.185 180.42 230.812 180.284 230.705C180.147 230.597 179.467 230.059 179.168 229.58C178.76 229.257 178.099 230.198 178.455 229.992C178.812 229.786 179.298 230.902 178.942 231.108C178.585 231.314 177.736 231.619 177.762 231.883C177.898 231.991 178.385 233.107 178.599 234.008L179.17 234.702C179.059 234.859 178.457 235.115 178.1 235.321C177.607 235.42 177.245 236.84 176.998 236.89C176.752 236.939 176.396 237.145 176.584 237.782L176.746 238.154C176.882 238.261 177.154 238.476 177.401 238.427C177.647 238.378 177.919 238.593 177.835 239.014L177.725 239.171C177.751 239.435 177.232 239.27 176.604 239.261C175.839 239.144 174.781 237.334 174.781 237.334C174.645 237.226 173.77 237.267 173.005 237.15C172.24 237.034 169.757 236.048 169.621 235.94C169.485 235.833 168.72 235.717 168.091 235.708L167.572 235.542L167.054 235.376C166.509 234.946 165.446 234.35 164.901 233.92L164.544 234.126L163.559 234.323C162.988 233.629 162.418 232.934 162.145 232.719C161.763 232.661 160.81 231.908 160.538 231.693C160.265 231.478 158.819 230.824 157.918 230.6C157.017 230.376 153.827 228.588 152.628 227.884C151.428 227.181 148.102 225.285 147.72 225.227L147.583 225.12L145.347 224.085L143.849 222.902C141.91 222.346 139.836 221.683 139.317 221.517C138.798 221.352 136.4 219.945 135.09 219.398L134.001 218.538L133.047 217.785C131.874 217.346 130.837 217.014 130.7 216.907C130.7 216.907 130.182 216.741 129.91 216.526C129.637 216.311 128.684 215.558 128.302 215.5C127.919 215.441 126.175 214.308 124.729 213.654L123.419 213.107C122.901 212.941 122.551 211.933 122.304 211.982L121.429 212.023C121.241 211.386 120.943 210.907 120.696 210.956C120.45 211.005 119.879 210.311 119.497 210.253C119.114 210.194 118.602 208.814 118.167 208.227L118.005 207.855C117.681 207.111 117.272 206.788 116.728 206.358L116.592 206.251C116.566 205.986 116.267 205.507 115.943 204.763C115.619 204.019 114.153 201.886 113.692 201.034L113.614 200.241L113.536 199.448C114.139 199.192 114.768 199.201 114.878 199.044C114.878 199.044 115.073 198.466 115.267 197.888L115.76 197.789L116.006 197.74C116.116 197.583 116.31 197.005 116.258 196.476C116.343 196.055 117.088 194.692 117.198 194.535C117.418 194.222 116.932 193.106 117.042 192.949C117.152 192.792 117.897 191.429 118.422 190.381L118.947 189.332L119.057 189.175C118.649 188.852 117.968 188.314 117.585 188.256C117.203 188.198 115.511 187.593 114.746 187.477C113.981 187.36 111.66 186.747 110.947 187.159L110.104 186.249L109.669 185.662C108.768 185.438 107.485 185.156 106.72 185.04C105.955 184.923 103.99 184.103 103.471 183.938C102.953 183.772 101.014 183.216 100.36 182.943C99.7047 182.67 97.7081 182.8 97.3256 182.742C97.0793 182.791 96.7289 181.783 96.5927 181.675C96.4566 181.568 95.8018 181.294 95.0108 180.913C94.2198 180.533 91.6203 180.918 90.8553 180.802C90.0904 180.685 88.2361 179.709 88.0157 180.022C87.7954 180.336 86.9524 179.426 86.8163 179.319C86.6801 179.211 85.9411 179.359 85.9411 179.359C85.8049 179.252 84.8778 178.763 83.9766 178.539L83.0755 178.315L82.5569 178.15C81.928 178.141 81.4094 177.975 81.2732 177.867C81.137 177.76 80.1257 177.693 79.8534 177.478C79.6071 177.527 78.3234 177.245 77.6686 176.972L77.0138 176.698C76.0866 176.21 75.1595 175.721 74.2262 176.448C73.9539 176.233 73.273 175.695 72.7284 175.265C72.1837 174.834 70.7317 175.395 70.5956 175.287C70.4594 175.18 69.9407 175.014 69.6684 174.799C69.3961 174.584 67.8661 174.351 66.8288 174.019C65.9276 173.795 62.9518 172.908 62.4332 172.743C61.9145 172.577 60.3846 172.344 60.0021 172.286C59.7557 172.335 58.5563 171.632 58.31 171.681C57.9275 171.623 56.78 171.448 56.5077 171.233C56.2353 171.018 55.0618 170.579 54.8155 170.628C54.433 170.57 52.4945 170.014 50.9386 169.517L49.5448 169.392L49.2984 169.441C49.0261 169.226 48.3713 168.953 47.8266 168.523L47.2498 169.043C46.9775 168.827 46.1865 168.447 45.4215 168.33C44.6565 168.214 42.4717 167.708 41.8169 167.434C41.1621 167.161 38.3744 166.91 37.3371 166.579L36.3258 166.512L34.932 166.386C33.3761 165.889 31.6839 165.284 30.7828 165.06C30.0178 164.944 27.6968 164.33 27.3143 164.272C26.9318 164.214 25.3759 163.716 24.5849 163.336C23.7939 162.955 21.2526 162.655 20.7339 162.489C20.2153 162.323 18.1407 161.66 17.3497 161.279L16.4485 161.055L16.3124 160.948C16.1762 160.84 15.1129 160.244 13.6671 159.59L12.5196 159.415C11.7546 159.299 11.0998 159.026 10.9116 158.389C10.5873 157.645 10.289 157.166 9.55001 157.314L9.41386 157.206C9.14154 156.991 8.65504 155.875 8.0584 154.916C7.46175 153.957 5.34133 151.551 5.72382 151.609L5.83396 151.452L5.94413 151.295C5.91814 151.031 5.75599 150.659 5.50966 150.708L5.26332 150.758L5.01697 150.807C4.79664 151.121 4.77067 150.856 5.21135 150.229C5.65201 149.601 6.94182 148.669 6.6435 148.189L6.6175 147.925C6.59151 147.66 6.92201 147.19 7.16834 147.141L7.74517 146.621C7.31069 146.034 7.14854 145.662 7.28471 145.769C7.42087 145.877 7.91351 145.778 7.91351 145.778C7.5892 145.034 7.1547 144.447 6.96654 143.811C6.91455 143.282 7.38124 142.919 7.8479 142.556C7.95807 142.399 8.34055 142.457 8.45071 142.3L8.50891 141.614C8.81342 140.879 9.0919 139.88 9.01391 139.087L8.93595 138.293L8.90992 138.029C8.74777 137.657 8.85794 137.5 9.10428 137.451C9.35061 137.401 10.0116 136.46 10.1539 135.353L10.8149 134.412L11.1455 133.941C11.6381 133.843 12.7336 133.488 13.5828 133.183L13.6669 132.762C13.7771 132.605 13.5048 132.39 13.3686 132.283C12.9601 131.96 13.1223 132.332 12.9019 132.646C12.7918 132.803 12.189 133.058 12.0528 132.951L11.372 132.413C11.0415 132.884 10.5488 132.982 10.5228 132.718C10.4968 132.453 10.0883 132.131 9.62165 132.494C9.29115 132.964 7.54703 131.831 6.9702 132.351L6.17921 131.97C5.1419 131.638 4.1046 131.307 3.00912 131.661L2.51642 131.76C1.99777 131.594 1.07063 131.105 0.441809 131.097C-0.187016 131.088 -2.01532 130.375 -2.26165 130.425L-2.50794 130.474L-3.00063 130.573C-3.51929 130.407 -3.95375 129.82 -4.00575 129.291C-4.05774 128.762 -4.54422 127.646 -4.54422 127.646C-4.65439 127.803 -4.73856 128.224 -4.82274 128.646L-4.79674 128.91L-5.17923 128.852C-5.20523 128.587 -5.25723 128.059 -5.58773 128.529C-5.6979 128.686 -5.67188 128.951 -5.78205 129.107L-5.50972 129.323C-5.2374 129.538 -5.23741 129.538 -5.75607 129.372C-6.16456 129.049 -7.39621 129.296 -7.39621 129.296L-7.53236 129.188L-7.99287 128.337C-8.32337 128.807 -8.65384 129.278 -8.65384 129.278C-8.65384 129.278 -9.01035 129.484 -9.14651 129.377C-9.28267 129.269 -10.2098 128.781 -10.8907 128.243L-11.876 128.44C-12.615 128.588 -13.6003 128.786 -13.8664 127.356L-14.2749 127.033C-14.3851 127.19 -14.4953 127.347 -14.5794 127.768L-14.6896 127.925C-14.6636 128.19 -14.9359 127.975 -15.1241 127.338C-15.4224 126.859 -16.5959 126.42 -16.5699 126.684C-16.4337 126.792 -16.7642 127.262 -17.6394 127.303L-17.7694 125.981C-17.7953 125.716 -17.8214 125.452 -17.9575 125.344L-18.0937 125.237C-18.366 125.022 -18.7225 125.228 -19.053 125.698L-19.2733 126.012C-19.3835 126.169 -19.766 126.111 -19.9022 126.003L-20.3106 125.681C-20.0643 125.631 -19.5976 125.268 -19.3773 124.954L-19.5395 124.583C-19.6756 124.475 -19.7016 124.211 -19.7016 124.211L-20.0841 124.152C-20.4406 124.359 -20.7971 124.565 -20.7971 124.565C-20.9073 124.722 -21.1276 125.035 -21.2378 125.192C-21.348 125.349 -21.8926 124.919 -21.7825 124.762C-21.7503 123.812 -22.1848 123.225 -22.4571 123.01ZM47.8276 119.989C48.0479 119.676 48.2683 119.362 48.2683 119.362C48.2683 119.362 48.7288 120.213 49.4096 120.751L50.0384 120.76L50.6672 120.769C51.3802 120.356 51.4644 119.935 50.6994 119.819L50.0706 119.81L49.4418 119.801C49.1373 120.536 48.6446 120.635 48.0999 120.204L47.9378 119.833L47.7756 119.461C47.8338 118.775 47.6976 118.667 47.4773 118.981C47.257 119.295 47.4971 120.46 47.8276 119.989ZM-25.8488 117.892C-25.8228 118.156 -25.4403 118.215 -25.0838 118.008L-24.8375 117.959C-24.5911 117.91 -23.638 118.663 -23.7222 119.084C-23.6962 119.348 -23.6702 119.613 -23.6442 119.877C-23.6182 120.142 -23.3459 120.357 -23.2357 120.2C-23.0995 120.307 -22.743 120.101 -22.769 119.837C-22.847 119.043 -22.899 118.515 -21.8357 119.111L-21.5634 119.326C-21.0967 118.963 -21.0125 118.541 -21.3108 118.062C-21.6092 117.582 -22.8087 116.879 -23.029 117.192L-23.2493 117.506L-23.3595 117.663C-23.6058 117.712 -24.0143 117.39 -24.0663 116.861L-23.7098 116.655L-23.5996 116.498C-23.3533 116.449 -23.4895 116.341 -23.5155 116.077L-23.6516 115.969C-23.6257 116.233 -25.7646 117.471 -25.8488 117.892ZM-4.36115 107.792C-5.12614 107.675 -5.48263 107.882 -5.07414 108.204C-4.66565 108.527 -4.78198 109.898 -4.86615 110.32C-4.84016 110.584 -4.26954 111.279 -4.3797 111.436C-4.3797 111.436 -4.60001 111.749 -4.73617 111.642C-4.9825 111.691 -5.09269 111.848 -5.20286 112.005C-5.31303 112.162 -4.65822 112.435 -3.80906 112.13L-3.34237 111.767L-2.51921 111.198C-2.86953 110.189 -3.60232 109.123 -4.14697 108.693L-4.4453 108.213L-4.36115 107.792ZM143.244 137.551C143.082 137.179 142.81 136.964 142.674 136.856C142.674 136.856 142.045 136.847 141.688 137.053C141.332 137.26 141.844 138.64 142.609 138.756L143.374 138.873L143.621 138.823C144.003 138.882 143.653 137.873 143.244 137.551ZM173.735 147.488C173.761 147.752 173.923 148.124 174.306 148.182C174.688 148.24 175.563 148.2 175.563 148.2C175.673 148.043 175.784 147.886 175.647 147.779L175.511 147.671L175.239 147.456C174.967 147.241 175.077 147.084 175.323 147.035L175.433 146.878L175.543 146.721C175.517 146.457 175.245 146.241 174.999 146.291C174.752 146.34 173.819 147.066 173.735 147.488ZM152.833 139.271C152.67 138.899 152.398 138.683 152.042 138.89C151.685 139.096 150.155 138.863 150.019 138.755C149.909 138.912 149.689 139.226 149.825 139.334L149.961 139.441L150.48 139.607C150.888 139.93 151.543 140.203 151.815 140.418C152.198 140.476 152.995 139.643 152.833 139.271ZM111.97 131.141C111.996 131.406 112.463 131.042 112.657 130.464L113.034 131.737L113.222 132.373C113.714 132.275 114.071 132.069 114.291 131.755C114.401 131.598 114.732 131.127 114.46 130.912C114.323 130.805 113.422 130.581 112.793 130.572L112.275 130.406C112.385 130.249 112.054 130.72 111.97 131.141ZM62.9912 122.21C62.933 122.896 63.2053 123.111 63.8082 122.856C64.3008 122.757 65.6687 122.618 65.915 122.569C66.1613 122.519 65.9732 121.883 65.6748 121.403L65.4285 121.453C64.6895 121.601 63.9505 121.749 63.3477 122.004L62.9912 122.21ZM5.7273 113.321C5.88946 113.693 6.13582 113.644 6.46632 113.173C6.79682 112.703 6.69281 111.645 6.42048 111.43C6.28432 111.322 5.65551 111.313 5.79167 111.421C6.064 111.636 6.11598 112.165 5.84365 111.95C5.70749 111.842 5.24083 112.205 5.15666 112.627L5.31881 112.999L5.7273 113.321ZM167.005 142.904C166.979 142.639 166.732 142.688 166.376 142.895L166.13 142.944L165.637 143.043C165.008 143.034 164.626 142.976 164.379 143.025C164.269 143.182 164.049 143.495 164.321 143.711L164.457 143.818L164.73 144.033C165.112 144.091 165.605 143.993 165.851 143.943C166.097 143.894 167.031 143.168 167.005 142.904ZM122.324 132.977C122.35 133.242 122.706 133.036 122.926 132.722C123.147 132.408 124.288 133.797 124.696 134.12L125.215 134.286C125.325 134.129 125.273 133.6 125.001 133.385C124.839 133.013 123.775 132.417 123.529 132.466C123.147 132.408 122.434 132.82 122.324 132.977ZM-20.5744 107.668C-20.1597 106.776 -20.2117 106.248 -20.7044 106.346C-21.3072 106.602 -21.9682 107.543 -21.3134 107.816L-20.5744 107.668ZM161.235 142.98C161.644 143.303 162.026 143.361 162.383 143.155L162.629 143.106C163.122 143.007 163.504 143.065 163.316 142.429L163.18 142.321C162.797 142.263 161.676 142.353 161.047 142.344L160.502 141.914L160.366 141.806C159.848 141.641 160.827 142.658 161.235 142.98ZM95.367 127.051C94.4077 127.513 94.4597 128.042 95.1145 128.315L96.0218 127.325C96.0218 127.325 96.158 127.432 96.2682 127.275L96.3783 127.118C96.4885 126.962 96.4625 126.697 96.1901 126.482L95.367 127.051ZM-18.4193 119.37C-18.5554 119.263 -18.6656 119.419 -18.5034 119.791C-18.3413 120.163 -17.33 120.23 -17.0576 120.446L-16.7853 120.661C-16.513 120.876 -16.3768 120.983 -15.9943 121.041C-15.9943 121.041 -15.748 120.992 -15.774 120.728L-15.6638 120.571C-15.6898 120.306 -15.9881 119.827 -16.3966 119.504C-16.5588 119.132 -18.1469 119.585 -18.4193 119.37ZM-13.0582 118.971C-14.1858 120.275 -14.1858 120.275 -13.1027 122.35C-13.0965 121.135 -13.0643 120.185 -13.0582 118.971Z" fill="#FFD7C8"/>
</svg>
