<svg width="699" height="606" viewBox="0 0 699 606" fill="none" xmlns="http://www.w3.org/2000/svg">
<path d="M157.775 159.936C166.954 162.974 171.118 173.601 166.447 182.066C163.412 187.567 164.01 194.358 167.96 199.244C174.039 206.762 171.797 217.953 163.291 222.549C157.763 225.535 154.595 231.572 155.277 237.818C156.326 247.429 148.389 255.631 138.749 254.899C132.484 254.423 126.555 257.788 123.752 263.411C119.439 272.064 108.328 274.673 100.613 268.845C95.6006 265.058 88.7934 264.683 83.3955 267.898C75.0888 272.845 64.3304 269.033 60.9919 259.96C58.8225 254.063 53.2983 250.068 47.0192 249.854C37.3565 249.525 30.3669 240.502 32.464 231.064C33.8267 224.93 31.3394 218.583 26.1727 215.008C18.2218 209.507 17.2202 198.138 24.0871 191.332C28.5493 186.909 29.8886 180.224 27.4747 174.424C23.7599 165.497 29.0643 155.391 38.5207 153.378C44.6657 152.07 49.4064 147.17 50.5117 140.985C52.2125 131.468 62.1388 125.834 71.1824 129.253C77.0592 131.474 83.6961 129.916 87.9697 125.31C94.5461 118.223 105.943 118.85 111.702 126.615C115.445 131.662 121.871 133.939 127.956 132.375C137.32 129.968 146.569 136.657 147.216 146.304C147.636 152.572 151.811 157.962 157.775 159.936Z" fill="white"/>
<g clip-path="url(#clip0_8925_12996)">
<path d="M65.7919 228.165C82.4646 244.838 109.496 244.838 126.169 228.165C142.842 211.493 142.842 184.461 126.169 167.788C109.496 151.115 82.4646 151.115 65.7919 167.788C49.1193 184.461 49.1193 211.493 65.7919 228.165Z" fill="#F0F0F0"/>
<path d="M90.4115 155.65C84.9549 156.364 79.6108 158.132 74.7066 160.954L90.4115 176.658L90.4115 155.65Z" fill="#0052B4"/>
<path d="M133.005 219.251C135.827 214.347 137.595 209.003 138.309 203.546L117.3 203.546L133.005 219.251Z" fill="#0052B4"/>
<path d="M58.9551 176.705C56.1334 181.609 54.3655 186.953 53.6516 192.41L74.6596 192.41L58.9551 176.705Z" fill="#0052B4"/>
<path d="M138.306 192.407C137.593 186.95 135.825 181.606 133.003 176.702L117.298 192.407L138.306 192.407Z" fill="#0052B4"/>
<path d="M53.6523 203.546C54.3662 209.003 56.1341 214.347 58.9558 219.251L74.6604 203.546L53.6523 203.546Z" fill="#0052B4"/>
<path d="M117.254 160.953C112.35 158.132 107.006 156.364 101.549 155.65L101.549 176.658L117.254 160.953Z" fill="#0052B4"/>
<path d="M74.7075 235.001C79.6117 237.822 84.9558 239.59 90.4121 240.304L90.4121 219.296L74.7075 235.001Z" fill="#0052B4"/>
<path d="M101.549 219.296L101.549 240.304C107.005 239.59 112.349 237.822 117.253 235.001L101.549 219.296Z" fill="#0052B4"/>
<path d="M129.851 223.972L103.856 197.977L103.856 197.977L129.851 171.981C128.73 170.525 127.504 169.123 126.169 167.788C124.834 166.453 123.433 165.227 121.976 164.106L95.9807 190.101L95.9806 190.101L69.9852 164.106C68.5284 165.227 67.1265 166.454 65.7919 167.788C64.4571 169.123 63.231 170.525 62.1099 171.981L88.105 197.976L88.1052 197.977L62.1097 223.972C63.231 225.429 64.4571 226.83 65.7919 228.165C67.1265 229.5 68.5282 230.726 69.9851 231.847L95.9802 205.852L95.9804 205.852L121.976 231.847C123.433 230.726 124.834 229.5 126.169 228.165C127.504 226.831 128.73 225.429 129.851 223.972Z" fill="#D80027"/>
<path d="M95.9803 213.728L95.9804 240.67C97.2193 240.67 98.4578 240.614 99.693 240.506L99.693 217.44L95.9805 213.728L95.9803 213.728Z" fill="#D80027"/>
<path d="M80.2291 197.976L80.2289 197.976L53.2868 197.976C53.2865 199.215 53.343 200.453 53.4503 201.689L76.517 201.688L80.2291 197.976Z" fill="#D80027"/>
<path d="M95.9802 182.226L95.9805 182.226L95.9806 155.283C94.7417 155.283 93.5031 155.34 92.268 155.447L92.268 178.514L95.9803 182.226L95.9802 182.226Z" fill="#D80027"/>
<path d="M111.731 197.977L138.673 197.977C138.674 196.738 138.617 195.5 138.51 194.265L115.443 194.265L111.731 197.977Z" fill="#D80027"/>
</g>
<path d="M266.047 183.147C271.77 180.27 278.699 183.298 280.476 189.452C281.631 193.451 285.093 196.352 289.232 196.79C295.602 197.464 299.795 203.757 297.963 209.895C296.772 213.884 298.116 218.196 301.361 220.802C306.355 224.813 306.48 232.374 301.621 236.547C298.463 239.259 297.262 243.613 298.583 247.56C300.616 253.634 296.633 260.062 290.289 260.946C286.166 261.52 282.802 264.533 281.779 268.568C280.205 274.777 273.379 278.031 267.565 275.345C263.786 273.599 259.327 274.315 256.285 277.156C251.604 281.529 244.102 280.576 240.663 275.172C238.429 271.661 234.29 269.852 230.195 270.598C223.893 271.746 218.097 266.889 218.126 260.483C218.144 256.321 215.64 252.562 211.792 250.976C205.87 248.534 203.62 241.315 207.107 235.942C209.373 232.45 209.299 227.934 206.919 224.519C203.257 219.263 205.268 211.974 211.106 209.339C214.9 207.626 217.279 203.787 217.124 199.627C216.885 193.227 222.517 188.181 228.853 189.121C232.971 189.732 237.048 187.788 239.166 184.205C242.425 178.69 249.891 177.491 254.713 181.707C257.847 184.447 262.328 185.016 266.047 183.147Z" fill="white"/>
<g clip-path="url(#clip1_8925_12996)">
<path d="M254.918 258.201C270.539 258.201 283.202 245.538 283.202 229.917C283.202 214.295 270.539 201.632 254.918 201.632C239.296 201.632 226.633 214.295 226.633 229.917C226.633 245.538 239.296 258.201 254.918 258.201Z" fill="#F0F0F0"/>
<path d="M254.918 201.632C243.704 201.632 234.015 208.158 229.439 217.619H280.396C275.821 208.158 266.131 201.632 254.918 201.632Z" fill="black"/>
<path d="M254.918 258.201C243.704 258.201 234.015 251.675 229.439 242.214H280.396C275.821 251.675 266.131 258.201 254.918 258.201Z" fill="#496E2D"/>
<path d="M281.867 221.308H227.968C227.102 224.022 226.633 226.914 226.633 229.916C226.633 232.918 227.102 235.81 227.968 238.524H281.867C282.733 235.81 283.202 232.918 283.202 229.916C283.202 226.914 282.733 224.022 281.867 221.308Z" fill="#A2001D"/>
<path d="M263.725 214.703L260.376 213.157L254.918 225.515L249.46 213.157L246.11 214.703L252.886 229.917L246.11 245.131L249.46 246.677L254.918 234.319L260.376 246.677L263.725 245.131L256.949 229.917L263.725 214.703Z" fill="#F0F0F0"/>
<path d="M257.193 216.161C255.896 214.745 254.918 213.931 254.918 213.931C254.918 213.931 253.939 214.745 252.643 216.161V243.674C253.939 245.091 254.918 245.905 254.918 245.905C254.918 245.905 255.896 245.091 257.193 243.675V216.161Z" fill="#F0F0F0"/>
<path d="M248.769 221.436V238.397C250.139 240.825 251.816 242.815 253.073 244.134V215.698C251.816 217.018 250.139 219.008 248.769 221.436Z" fill="#A2001D"/>
<path d="M261.066 221.436C259.696 219.008 258.019 217.018 256.762 215.698V244.134C258.019 242.815 259.696 240.825 261.066 238.397V221.436Z" fill="#A2001D"/>
<path d="M261.067 221.436V238.397C262.455 235.938 263.527 233.032 263.527 229.916C263.527 226.801 262.455 223.894 261.067 221.436Z" fill="black"/>
<path d="M248.769 221.437V238.398C247.382 235.939 246.31 233.033 246.31 229.917C246.31 226.802 247.382 223.895 248.769 221.437Z" fill="black"/>
</g>
<path d="M73.8946 337.209C79.4978 334.392 86.282 337.357 88.0221 343.382C89.1528 347.297 92.542 350.137 96.5946 350.566C102.831 351.226 106.936 357.388 105.142 363.397C103.977 367.302 105.292 371.524 108.47 374.076C113.359 378.002 113.481 385.405 108.723 389.491C105.632 392.146 104.456 396.408 105.749 400.273C107.74 406.22 103.84 412.513 97.6287 413.378C93.5924 413.94 90.2986 416.891 89.2973 420.841C87.7565 426.92 81.0736 430.106 75.3807 427.475C71.6813 425.766 67.3152 426.467 64.3372 429.249C59.7544 433.53 52.41 432.597 49.043 427.307C46.855 423.869 42.8028 422.098 38.7936 422.828C32.6238 423.952 26.9496 419.197 26.9775 412.925C26.9955 408.85 24.5439 405.17 20.7763 403.617C14.9784 401.226 12.776 394.158 16.1899 388.898C18.4083 385.479 18.3355 381.058 16.0057 377.714C12.4206 372.569 14.3891 365.432 20.1052 362.852C23.8196 361.176 26.1488 357.417 25.9966 353.344C25.7623 347.077 31.2769 342.138 37.4803 343.058C41.5114 343.656 45.5031 341.753 47.5767 338.244C50.7677 332.846 58.0775 331.672 62.7987 335.799C65.8667 338.482 70.2535 339.039 73.8946 337.209Z" fill="white"/>
<g clip-path="url(#clip2_8925_12996)">
<path d="M62.9999 410.692C78.294 410.692 90.6922 398.294 90.6922 383C90.6922 367.706 78.294 355.308 62.9999 355.308C47.7059 355.308 35.3076 367.706 35.3076 383C35.3076 398.294 47.7059 410.692 62.9999 410.692Z" fill="#F0F0F0"/>
<path d="M63.0001 355.308C51.0934 355.308 40.943 362.823 37.0303 373.368H88.9701C85.0573 362.823 74.9069 355.308 63.0001 355.308Z" fill="#A2001D"/>
<path d="M63.0001 410.692C74.9069 410.692 85.0573 403.177 88.97 392.632H37.0303C40.943 403.177 51.0934 410.692 63.0001 410.692Z" fill="#0052B4"/>
</g>
<path d="M72.7438 22.8451C78.2692 20.0678 84.959 22.9908 86.675 28.9321C87.79 32.7929 91.1321 35.5939 95.1284 36.0169C101.278 36.6677 105.326 42.7435 103.557 48.6694C102.408 52.5202 103.705 56.6834 106.838 59.1998C111.66 63.0721 111.78 70.3717 107.089 74.4007C104.04 77.0188 102.88 81.2225 104.156 85.0333C106.119 90.8977 102.273 97.1036 96.1482 97.9565C92.168 98.5107 88.9199 101.42 87.9325 105.316C86.4131 111.31 79.823 114.452 74.2092 111.858C70.5612 110.172 66.2557 110.864 63.3191 113.607C58.7999 117.829 51.5575 116.909 48.2373 111.692C46.0796 108.301 42.0838 106.555 38.1302 107.275C32.0462 108.384 26.4508 103.694 26.4782 97.5101C26.4961 93.4915 24.0784 89.8624 20.3632 88.3307C14.6459 85.9736 12.474 79.0036 15.8405 73.816C18.0281 70.445 17.9563 66.085 15.6589 62.7878C12.1235 57.7139 14.0647 50.6761 19.7014 48.1321C23.3642 46.4789 25.661 42.7722 25.5109 38.7564C25.2799 32.5766 30.7179 27.7055 36.8351 28.6128C40.8103 29.2023 44.7465 27.3258 46.7914 23.8663C49.9381 18.5427 57.1463 17.3849 61.8019 21.4553C64.8273 24.1004 69.1532 24.6498 72.7438 22.8451Z" fill="white"/>
<g clip-path="url(#clip3_8925_12996)">
<path d="M62.0001 95.3078C77.0817 95.3078 89.3078 83.0817 89.3078 68.0001C89.3078 52.9185 77.0817 40.6924 62.0001 40.6924C46.9185 40.6924 34.6924 52.9185 34.6924 68.0001C34.6924 83.0817 46.9185 95.3078 62.0001 95.3078Z" fill="#F0F0F0"/>
<path d="M34.6924 68.0007C34.6924 79.7421 42.103 89.7515 52.5018 93.61V42.3916C42.103 46.2499 34.6924 56.2594 34.6924 68.0007Z" fill="#6DA544"/>
<path d="M89.3075 68.0007C89.3075 56.2594 81.8968 46.2499 71.498 42.3916V93.6101C81.8968 89.7515 89.3075 79.7421 89.3075 68.0007Z" fill="#6DA544"/>
</g>
<path d="M232.99 403.184C242.757 398.275 254.582 403.442 257.615 413.944C259.586 420.768 265.494 425.719 272.558 426.467C283.428 427.617 290.583 438.357 287.456 448.831C285.425 455.638 287.718 462.997 293.256 467.445C301.779 474.29 301.992 487.192 293.699 494.314C288.31 498.942 286.26 506.372 288.515 513.108C291.984 523.474 285.187 534.444 274.36 535.951C267.325 536.931 261.583 542.074 259.838 548.959C257.152 559.555 245.504 565.109 235.581 560.524C229.133 557.544 221.522 558.767 216.331 563.616C208.343 571.078 195.542 569.452 189.673 560.23C185.859 554.237 178.796 551.151 171.807 552.424C161.053 554.382 151.163 546.093 151.211 535.162C151.243 528.059 146.969 521.644 140.402 518.937C130.296 514.77 126.457 502.45 132.408 493.281C136.275 487.322 136.148 479.615 132.087 473.787C125.838 464.818 129.269 452.378 139.232 447.882C145.707 444.959 149.767 438.407 149.501 431.309C149.093 420.386 158.705 411.775 169.518 413.379C176.545 414.421 183.502 411.104 187.117 404.989C192.679 395.579 205.42 393.533 213.65 400.727C218.997 405.403 226.644 406.374 232.99 403.184Z" fill="white"/>
<g clip-path="url(#clip4_8925_12996)">
<path d="M214 531.269C240.658 531.269 262.269 509.658 262.269 483C262.269 456.341 240.658 434.73 214 434.73C187.341 434.73 165.73 456.341 165.73 483C165.73 509.658 187.341 531.269 214 531.269Z" fill="#F0F0F0"/>
<path d="M214 434.73C194.863 434.73 178.328 445.867 170.521 462.013H257.48C249.672 445.867 233.137 434.73 214 434.73Z" fill="#FF9811"/>
<path d="M214 531.269C233.137 531.269 249.672 520.132 257.48 503.986H170.521C178.328 520.132 194.863 531.269 214 531.269Z" fill="#6DA544"/>
<path d="M214 499.789C223.273 499.789 230.789 492.273 230.789 483C230.789 473.728 223.273 466.211 214 466.211C204.728 466.211 197.211 473.728 197.211 483C197.211 492.273 204.728 499.789 214 499.789Z" fill="#0052B4"/>
<path d="M214 493.493C219.795 493.493 224.493 488.795 224.493 483C224.493 477.205 219.795 472.507 214 472.507C208.205 472.507 203.507 477.205 203.507 483C203.507 488.795 208.205 493.493 214 493.493Z" fill="#F0F0F0"/>
<path d="M214 470.051L217.237 477.393L225.214 476.525L220.474 482.999L225.214 489.474L217.237 488.606L214 495.948L210.763 488.606L202.786 489.473L207.526 482.999L202.786 476.525L210.763 477.393L214 470.051Z" fill="#0052B4"/>
</g>
<path d="M535.921 266.489C543.08 262.89 551.749 266.678 553.972 274.376C555.417 279.379 559.748 283.009 564.926 283.557C572.895 284.4 578.14 292.273 575.848 299.951C574.359 304.941 576.04 310.336 580.1 313.596C586.348 318.614 586.503 328.073 580.424 333.293C576.474 336.686 574.971 342.133 576.624 347.071C579.167 354.67 574.184 362.711 566.248 363.816C561.09 364.535 556.881 368.305 555.602 373.352C553.633 381.12 545.094 385.191 537.82 381.83C533.093 379.645 527.514 380.541 523.708 384.096C517.853 389.566 508.468 388.374 504.166 381.614C501.37 377.221 496.192 374.959 491.069 375.892C483.186 377.327 475.935 371.251 475.971 363.238C475.994 358.031 472.861 353.328 468.047 351.344C460.639 348.289 457.825 339.258 462.187 332.536C465.022 328.168 464.929 322.518 461.952 318.246C457.371 311.671 459.886 302.552 467.19 299.255C471.936 297.113 474.912 292.31 474.718 287.106C474.418 279.099 481.465 272.787 489.391 273.963C494.542 274.726 499.643 272.295 502.292 267.812C506.37 260.914 515.71 259.414 521.743 264.688C525.663 268.116 531.268 268.827 535.921 266.489Z" fill="white"/>
<g clip-path="url(#clip5_8925_12996)">
<path d="M557.384 325C557.384 344.542 541.542 360.384 522 360.384C502.458 360.384 486.615 344.542 486.615 325C486.615 325.008 522 289.619 522 289.615C541.542 289.615 557.384 305.458 557.384 325Z" fill="#0052B4"/>
<path d="M521.905 325H522C522 324.968 522 324.937 522 324.905C521.968 324.937 521.937 324.968 521.905 325Z" fill="#F0F0F0"/>
<path d="M522 308.077C522 301.851 522 297.771 522 289.615H521.994C502.454 289.618 486.615 305.459 486.615 325H505.077V314.604L515.473 325H521.905C521.937 324.968 521.968 324.937 522 324.905C522 322.521 522 320.394 522 318.473L511.604 308.077H522Z" fill="#F0F0F0"/>
<path d="M504.517 294.23C498.983 297.382 494.382 301.983 491.23 307.517V325H500.461V303.461V303.461H522C522 300.55 522 297.776 522 294.23H504.517Z" fill="#D80027"/>
<path d="M522 320.649L509.428 308.077H505.077C505.077 308.077 505.077 308.077 505.077 308.077L522 325H522C522 325 522 322 522 320.649Z" fill="#D80027"/>
<path d="M507.956 331.154L509.898 335.215L514.283 334.201L512.319 338.252L515.846 341.048L511.455 342.038L511.467 346.539L507.956 343.723L504.444 346.539L504.456 342.038L500.065 341.048L503.592 338.252L501.628 334.201L506.014 335.215L507.956 331.154Z" fill="#F0F0F0"/>
<path d="M539.592 338.847L540.563 340.877L542.756 340.37L541.774 342.395L543.538 343.794L541.342 344.288L541.348 346.539L539.592 345.131L537.837 346.539L537.843 344.288L535.647 343.794L537.411 342.395L536.429 340.37L538.621 340.877L539.592 338.847Z" fill="#F0F0F0"/>
<path d="M530.56 317.308L531.531 319.338L533.724 318.831L532.742 320.856L534.505 322.255L532.31 322.749L532.316 325L530.56 323.592L528.805 325L528.811 322.749L526.615 322.255L528.379 320.856L527.397 318.831L529.589 319.338L530.56 317.308Z" fill="#F0F0F0"/>
<path d="M539.592 305L540.563 307.03L542.756 306.524L541.774 308.549L543.537 309.947L541.342 310.442L541.348 312.692L539.592 311.284L537.837 312.692L537.843 310.442L535.647 309.947L537.411 308.549L536.429 306.524L538.621 307.03L539.592 305Z" fill="#F0F0F0"/>
<path d="M547.483 314.23L548.454 316.261L550.647 315.754L549.665 317.779L551.428 319.177L549.233 319.672L549.239 321.923L547.483 320.515L545.728 321.923L545.733 319.672L543.538 319.177L545.301 317.779L544.319 315.754L546.512 316.261L547.483 314.23Z" fill="#F0F0F0"/>
<path d="M541.841 325L542.604 327.351H545.076L543.077 328.803L543.84 331.154L541.841 329.701L539.841 331.154L540.605 328.803L538.605 327.351H541.077L541.841 325Z" fill="#F0F0F0"/>
</g>
<path d="M397.223 300.643C406.351 296.311 417.17 301.334 419.752 311.102C421.43 317.45 426.785 322.149 433.297 322.988C443.318 324.279 449.704 334.353 446.595 343.967C444.575 350.214 446.54 357.062 451.564 361.288C459.296 367.792 459.222 379.72 451.409 386.127C446.333 390.29 444.283 397.113 446.225 403.385C449.213 413.037 442.702 423.03 432.666 424.196C426.144 424.954 420.731 429.586 418.973 435.912C416.269 445.647 405.389 450.534 396.315 446.089C390.419 443.201 383.361 444.171 378.463 448.543C370.925 455.27 359.129 453.499 353.9 444.854C350.501 439.237 344.039 436.237 337.555 437.266C327.576 438.851 318.61 430.984 318.885 420.884C319.063 414.32 315.249 408.303 309.237 405.663C299.986 401.601 296.697 390.136 302.388 381.788C306.086 376.363 306.13 369.238 302.5 363.768C296.914 355.349 300.346 343.925 309.647 339.979C315.691 337.415 319.58 331.445 319.484 324.881C319.335 314.778 328.398 307.023 338.357 308.732C344.828 309.842 351.327 306.923 354.795 301.349C360.132 292.77 371.949 291.146 379.402 297.967C384.246 302.4 391.291 303.458 397.223 300.643Z" fill="white"/>
<g clip-path="url(#clip6_8925_12996)">
<path d="M376.988 418.602C401.622 419.162 422.045 399.645 422.604 375.011C423.164 350.377 403.647 329.954 379.013 329.395C354.379 328.835 333.956 348.352 333.396 372.986C332.837 397.62 352.354 418.043 376.988 418.602Z" fill="#F0F0F0"/>
<path d="M422.604 375.013C423.006 357.329 413.062 341.816 398.306 334.263L396.481 414.619C411.565 407.743 422.203 392.697 422.604 375.013Z" fill="#D80027"/>
<path d="M333.396 372.988C332.995 390.671 342.939 406.185 357.695 413.738L359.52 333.382C344.436 340.258 333.798 355.304 333.396 372.988Z" fill="#D80027"/>
<path d="M385.626 379.995L393.471 376.292L389.637 374.265L389.725 370.386L381.88 374.089L385.934 366.419L382.056 366.331L378.309 360.425L374.299 366.155L370.42 366.067L374.122 373.913L366.453 369.858L366.365 373.736L362.443 375.588L370.112 379.642L368.084 383.477L375.842 383.653L375.71 389.471L379.588 389.559L379.72 383.741L387.477 383.917L385.626 379.995Z" fill="#D80027"/>
</g>
<path d="M249.431 17.6361C258.653 13.0007 269.819 17.8793 272.683 27.7954C274.544 34.2392 280.122 38.9141 286.792 39.62C297.056 40.7062 303.811 50.8469 300.86 60.7372C298.941 67.1642 301.106 74.1127 306.336 78.3125C314.383 84.7755 314.584 96.9587 306.754 103.683C301.665 108.053 299.73 115.069 301.859 121.429C305.134 131.217 298.716 141.575 288.494 142.998C281.851 143.923 276.43 148.779 274.782 155.281C272.246 165.286 261.247 170.529 251.877 166.2C245.789 163.387 238.603 164.541 233.701 169.119C226.159 176.165 214.071 174.63 208.53 165.922C204.929 160.264 198.259 157.35 191.661 158.552C181.507 160.401 172.168 152.574 172.214 142.253C172.243 135.546 168.208 129.489 162.007 126.933C152.465 122.999 148.84 111.365 154.459 102.707C158.11 97.0811 157.99 89.804 154.156 84.301C148.255 75.8326 151.495 64.0865 160.903 59.8405C167.016 57.0814 170.85 50.8948 170.599 44.1923C170.214 33.8781 179.29 25.7483 189.499 27.2625C196.134 28.2464 202.704 25.1145 206.116 19.3406C211.368 10.4553 223.399 8.5229 231.169 15.3165C236.219 19.7312 243.439 20.6483 249.431 17.6361Z" fill="white"/>
<g clip-path="url(#clip7_8925_12996)">
<path d="M231.499 138.576C256.67 138.576 277.076 118.17 277.076 92.9988C277.076 67.8274 256.67 47.4219 231.499 47.4219C206.327 47.4219 185.922 67.8274 185.922 92.9988C185.922 118.17 206.327 138.576 231.499 138.576Z" fill="#F0F0F0"/>
<path d="M229.518 92.9971H277.076C277.076 88.8835 276.528 84.8983 275.506 81.1074H229.518V92.9971Z" fill="#D80027"/>
<path d="M229.518 69.2188H270.387C267.597 64.6661 264.029 60.642 259.87 57.3291H229.518V69.2188Z" fill="#D80027"/>
<path d="M231.499 138.576C242.225 138.576 252.084 134.869 259.87 128.668H203.128C210.913 134.869 220.772 138.576 231.499 138.576Z" fill="#D80027"/>
<path d="M192.612 116.776H270.386C272.626 113.122 274.363 109.126 275.506 104.887H187.492C188.635 109.126 190.372 113.122 192.612 116.776Z" fill="#D80027"/>
<path d="M207.034 54.5394H211.187L207.324 57.3461L208.8 61.8876L204.937 59.0808L201.073 61.8876L202.348 57.9642C198.947 60.7976 195.965 64.1173 193.508 67.8161H194.839L192.38 69.6027C191.997 70.2418 191.629 70.8911 191.277 71.5501L192.451 75.1643L190.261 73.5725C189.716 74.7264 189.218 75.9062 188.77 77.1106L190.064 81.0929H194.839L190.976 83.8996L192.451 88.4411L188.588 85.6344L186.274 87.3158C186.043 89.1776 185.922 91.0741 185.922 92.9988H231.499C231.499 67.8275 231.499 64.86 231.499 47.4219C222.495 47.4219 214.102 50.0336 207.034 54.5394ZM208.8 88.4411L204.937 85.6344L201.073 88.4411L202.549 83.8996L198.686 81.0929H203.461L204.937 76.5514L206.412 81.0929H211.187L207.324 83.8996L208.8 88.4411ZM207.324 70.6228L208.8 75.1643L204.937 72.3576L201.073 75.1643L202.549 70.6228L198.686 67.8161H203.461L204.937 63.2746L206.412 67.8161H211.187L207.324 70.6228ZM225.148 88.4411L221.285 85.6344L217.422 88.4411L218.897 83.8996L215.034 81.0929H219.809L221.285 76.5514L222.76 81.0929H227.536L223.672 83.8996L225.148 88.4411ZM223.672 70.6228L225.148 75.1643L221.285 72.3576L217.422 75.1643L218.897 70.6228L215.034 67.8161H219.809L221.285 63.2746L222.76 67.8161H227.536L223.672 70.6228ZM223.672 57.3461L225.148 61.8876L221.285 59.0808L217.422 61.8876L218.897 57.3461L215.034 54.5394H219.809L221.285 49.9979L222.76 54.5394H227.536L223.672 57.3461Z" fill="#0052B4"/>
</g>
<path d="M365.544 508.221C368.004 505.26 372.549 505.26 375.008 508.221C376.607 510.146 379.211 510.91 381.597 510.156C385.267 508.994 389.09 511.451 389.558 515.272C389.863 517.756 391.64 519.807 394.055 520.462C397.771 521.469 399.659 525.603 397.987 529.071C396.9 531.324 397.286 534.011 398.964 535.867C401.545 538.724 400.898 543.222 397.617 545.235C395.485 546.544 394.357 549.013 394.765 551.481C395.392 555.28 392.416 558.715 388.567 558.634C386.065 558.582 383.782 560.049 382.79 562.346C381.265 565.881 376.904 567.161 373.709 565.013C371.633 563.617 368.919 563.617 366.843 565.013C363.648 567.161 359.288 565.881 357.762 562.346C356.77 560.049 354.487 558.582 351.985 558.634C348.136 558.715 345.16 555.28 345.788 551.481C346.195 549.013 345.068 546.544 342.935 545.235C339.654 543.222 339.007 538.724 341.588 535.867C343.266 534.011 343.652 531.324 342.565 529.071C340.893 525.603 342.781 521.469 346.497 520.462C348.912 519.807 350.689 517.756 350.994 515.272C351.462 511.451 355.285 508.994 358.956 510.156C361.341 510.91 363.945 510.146 365.544 508.221Z" fill="white"/>
<path d="M477.544 508.221C480.004 505.26 484.549 505.26 487.008 508.221C488.607 510.146 491.211 510.91 493.597 510.156C497.267 508.994 501.09 511.451 501.558 515.272C501.863 517.756 503.64 519.807 506.055 520.462C509.771 521.469 511.659 525.603 509.987 529.071C508.9 531.324 509.286 534.011 510.964 535.867C513.545 538.724 512.898 543.222 509.617 545.235C507.485 546.544 506.357 549.013 506.765 551.481C507.392 555.28 504.416 558.715 500.567 558.634C498.065 558.582 495.782 560.049 494.79 562.346C493.265 565.881 488.904 567.161 485.709 565.013C483.633 563.617 480.919 563.617 478.843 565.013C475.648 567.161 471.288 565.881 469.762 562.346C468.77 560.049 466.487 558.582 463.985 558.634C460.136 558.715 457.16 555.28 457.788 551.481C458.195 549.013 457.068 546.544 454.935 545.235C451.654 543.222 451.007 538.724 453.588 535.867C455.266 534.011 455.652 531.324 454.565 529.071C452.893 525.603 454.781 521.469 458.497 520.462C460.912 519.807 462.689 517.756 462.994 515.272C463.462 511.451 467.285 508.994 470.956 510.156C473.341 510.91 475.945 510.146 477.544 508.221Z" fill="white"/>
<path d="M493.544 508.221C496.004 505.26 500.549 505.26 503.008 508.221C504.607 510.146 507.211 510.91 509.597 510.156C513.267 508.994 517.09 511.451 517.558 515.272C517.863 517.756 519.64 519.807 522.055 520.462C525.771 521.469 527.659 525.603 525.987 529.071C524.9 531.324 525.286 534.011 526.964 535.867C529.545 538.724 528.898 543.222 525.617 545.235C523.485 546.544 522.357 549.013 522.765 551.481C523.392 555.28 520.416 558.715 516.567 558.634C514.065 558.582 511.782 560.049 510.79 562.346C509.265 565.881 504.904 567.161 501.709 565.013C499.633 563.617 496.919 563.617 494.843 565.013C491.648 567.161 487.288 565.881 485.762 562.346C484.77 560.049 482.487 558.582 479.985 558.634C476.136 558.715 473.16 555.28 473.788 551.481C474.195 549.013 473.068 546.544 470.935 545.235C467.654 543.222 467.007 538.724 469.588 535.867C471.266 534.011 471.652 531.324 470.565 529.071C468.893 525.603 470.781 521.469 474.497 520.462C476.912 519.807 478.689 517.756 478.994 515.272C479.462 511.451 483.285 508.994 486.956 510.156C489.341 510.91 491.945 510.146 493.544 508.221Z" fill="white"/>
<path d="M381.544 508.221C384.004 505.26 388.549 505.26 391.008 508.221C392.607 510.146 395.211 510.91 397.597 510.156C401.267 508.994 405.09 511.451 405.558 515.272C405.863 517.756 407.64 519.807 410.055 520.462C413.771 521.469 415.659 525.603 413.987 529.071C412.9 531.324 413.286 534.011 414.964 535.867C417.545 538.724 416.898 543.222 413.617 545.235C411.485 546.544 410.357 549.013 410.765 551.481C411.392 555.28 408.416 558.715 404.567 558.634C402.065 558.582 399.782 560.049 398.79 562.346C397.265 565.881 392.904 567.161 389.709 565.013C387.633 563.617 384.919 563.617 382.843 565.013C379.648 567.161 375.288 565.881 373.762 562.346C372.77 560.049 370.487 558.582 367.985 558.634C364.136 558.715 361.16 555.28 361.788 551.481C362.195 549.013 361.068 546.544 358.935 545.235C355.654 543.222 355.007 538.724 357.588 535.867C359.266 534.011 359.652 531.324 358.565 529.071C356.893 525.603 358.781 521.469 362.497 520.462C364.912 519.807 366.689 517.756 366.994 515.272C367.462 511.451 371.285 508.994 374.956 510.156C377.341 510.91 379.945 510.146 381.544 508.221Z" fill="white"/>
<path d="M397.544 508.221C400.004 505.26 404.549 505.26 407.008 508.221C408.607 510.146 411.211 510.91 413.597 510.156C417.267 508.994 421.09 511.451 421.558 515.272C421.863 517.756 423.64 519.807 426.055 520.462C429.771 521.469 431.659 525.603 429.987 529.071C428.9 531.324 429.286 534.011 430.964 535.867C433.545 538.724 432.898 543.222 429.617 545.235C427.485 546.544 426.357 549.013 426.765 551.481C427.392 555.28 424.416 558.715 420.567 558.634C418.065 558.582 415.782 560.049 414.79 562.346C413.265 565.881 408.904 567.161 405.709 565.013C403.633 563.617 400.919 563.617 398.843 565.013C395.648 567.161 391.288 565.881 389.762 562.346C388.77 560.049 386.487 558.582 383.985 558.634C380.136 558.715 377.16 555.28 377.788 551.481C378.195 549.013 377.068 546.544 374.935 545.235C371.654 543.222 371.007 538.724 373.588 535.867C375.266 534.011 375.652 531.324 374.565 529.071C372.893 525.603 374.781 521.469 378.497 520.462C380.912 519.807 382.689 517.756 382.994 515.272C383.462 511.451 387.285 508.994 390.956 510.156C393.341 510.91 395.945 510.146 397.544 508.221Z" fill="white"/>
<path d="M413.544 508.221C416.004 505.26 420.549 505.26 423.008 508.221C424.607 510.146 427.211 510.91 429.597 510.156C433.267 508.994 437.09 511.451 437.558 515.272C437.863 517.756 439.64 519.807 442.055 520.462C445.771 521.469 447.659 525.603 445.987 529.071C444.9 531.324 445.286 534.011 446.964 535.867C449.545 538.724 448.898 543.222 445.617 545.235C443.485 546.544 442.357 549.013 442.765 551.481C443.392 555.28 440.416 558.715 436.567 558.634C434.065 558.582 431.782 560.049 430.79 562.346C429.265 565.881 424.904 567.161 421.709 565.013C419.633 563.617 416.919 563.617 414.843 565.013C411.648 567.161 407.288 565.881 405.762 562.346C404.77 560.049 402.487 558.582 399.985 558.634C396.136 558.715 393.16 555.28 393.788 551.481C394.195 549.013 393.068 546.544 390.935 545.235C387.654 543.222 387.007 538.724 389.588 535.867C391.266 534.011 391.652 531.324 390.565 529.071C388.893 525.603 390.781 521.469 394.497 520.462C396.912 519.807 398.689 517.756 398.994 515.272C399.462 511.451 403.285 508.994 406.956 510.156C409.341 510.91 411.945 510.146 413.544 508.221Z" fill="white"/>
<path d="M429.544 508.221C432.004 505.26 436.549 505.26 439.008 508.221C440.607 510.146 443.211 510.91 445.597 510.156C449.267 508.994 453.09 511.451 453.558 515.272C453.863 517.756 455.64 519.807 458.055 520.462C461.771 521.469 463.659 525.603 461.987 529.071C460.9 531.324 461.286 534.011 462.964 535.867C465.545 538.724 464.898 543.222 461.617 545.235C459.485 546.544 458.357 549.013 458.765 551.481C459.392 555.28 456.416 558.715 452.567 558.634C450.065 558.582 447.782 560.049 446.79 562.346C445.265 565.881 440.904 567.161 437.709 565.013C435.633 563.617 432.919 563.617 430.843 565.013C427.648 567.161 423.288 565.881 421.762 562.346C420.77 560.049 418.487 558.582 415.985 558.634C412.136 558.715 409.16 555.28 409.788 551.481C410.195 549.013 409.068 546.544 406.935 545.235C403.654 543.222 403.007 538.724 405.588 535.867C407.266 534.011 407.652 531.324 406.565 529.071C404.893 525.603 406.781 521.469 410.497 520.462C412.912 519.807 414.689 517.756 414.994 515.272C415.462 511.451 419.285 508.994 422.956 510.156C425.341 510.91 427.945 510.146 429.544 508.221Z" fill="white"/>
<path d="M445.544 508.221C448.004 505.26 452.549 505.26 455.008 508.221C456.607 510.146 459.211 510.91 461.597 510.156C465.267 508.994 469.09 511.451 469.558 515.272C469.863 517.756 471.64 519.807 474.055 520.462C477.771 521.469 479.659 525.603 477.987 529.071C476.9 531.324 477.286 534.011 478.964 535.867C481.545 538.724 480.898 543.222 477.617 545.235C475.485 546.544 474.357 549.013 474.765 551.481C475.392 555.28 472.416 558.715 468.567 558.634C466.065 558.582 463.782 560.049 462.79 562.346C461.265 565.881 456.904 567.161 453.709 565.013C451.633 563.617 448.919 563.617 446.843 565.013C443.648 567.161 439.288 565.881 437.762 562.346C436.77 560.049 434.487 558.582 431.985 558.634C428.136 558.715 425.16 555.28 425.788 551.481C426.195 549.013 425.068 546.544 422.935 545.235C419.654 543.222 419.007 538.724 421.588 535.867C423.266 534.011 423.652 531.324 422.565 529.071C420.893 525.603 422.781 521.469 426.497 520.462C428.912 519.807 430.689 517.756 430.994 515.272C431.462 511.451 435.285 508.994 438.956 510.156C441.341 510.91 443.945 510.146 445.544 508.221Z" fill="white"/>
<path d="M461.544 508.221C464.004 505.26 468.549 505.26 471.008 508.221C472.607 510.146 475.211 510.91 477.597 510.156C481.267 508.994 485.09 511.451 485.558 515.272C485.863 517.756 487.64 519.807 490.055 520.462C493.771 521.469 495.659 525.603 493.987 529.071C492.9 531.324 493.286 534.011 494.964 535.867C497.545 538.724 496.898 543.222 493.617 545.235C491.485 546.544 490.357 549.013 490.765 551.481C491.392 555.28 488.416 558.715 484.567 558.634C482.065 558.582 479.782 560.049 478.79 562.346C477.265 565.881 472.904 567.161 469.709 565.013C467.633 563.617 464.919 563.617 462.843 565.013C459.648 567.161 455.288 565.881 453.762 562.346C452.77 560.049 450.487 558.582 447.985 558.634C444.136 558.715 441.16 555.28 441.788 551.481C442.195 549.013 441.068 546.544 438.935 545.235C435.654 543.222 435.007 538.724 437.588 535.867C439.266 534.011 439.652 531.324 438.565 529.071C436.893 525.603 438.781 521.469 442.497 520.462C444.912 519.807 446.689 517.756 446.994 515.272C447.462 511.451 451.285 508.994 454.956 510.156C457.341 510.91 459.945 510.146 461.544 508.221Z" fill="white"/>
<rect x="355" y="520" width="158" height="33" rx="16.5" fill="#F7F6F8"/>
<path d="M372.702 534.944H374.494V537.184H376.622V538.85H374.494V541.104H372.702V538.85H370.588V537.184H372.702V534.944ZM381.349 537.366C381.825 536.983 382.175 536.633 382.399 536.316C382.623 535.999 382.735 535.653 382.735 535.28C382.735 534.804 382.59 534.44 382.301 534.188C382.021 533.927 381.643 533.796 381.167 533.796C380.71 533.796 380.336 533.95 380.047 534.258C379.767 534.566 379.627 534.981 379.627 535.504V535.658H377.597V535.392C377.597 534.776 377.742 534.216 378.031 533.712C378.33 533.208 378.75 532.816 379.291 532.536C379.832 532.247 380.458 532.102 381.167 532.102C382.315 532.102 383.202 532.382 383.827 532.942C384.462 533.502 384.779 534.253 384.779 535.196C384.779 535.868 384.611 536.451 384.275 536.946C383.948 537.431 383.44 537.954 382.749 538.514L380.551 540.306H384.821V542H377.639V540.446L381.349 537.366ZM385.761 536.876C385.761 535.915 385.929 535.075 386.265 534.356C386.611 533.637 387.087 533.087 387.693 532.704C388.309 532.312 389.009 532.116 389.793 532.116C390.587 532.116 391.287 532.312 391.893 532.704C392.509 533.087 392.985 533.637 393.321 534.356C393.667 535.075 393.839 535.915 393.839 536.876V537.324C393.839 538.304 393.667 539.153 393.321 539.872C392.985 540.581 392.509 541.127 391.893 541.51C391.287 541.893 390.587 542.084 389.793 542.084C389 542.084 388.3 541.893 387.693 541.51C387.087 541.127 386.611 540.581 386.265 539.872C385.929 539.153 385.761 538.304 385.761 537.324V536.876ZM391.823 536.946C391.823 535.957 391.637 535.191 391.263 534.65C390.899 534.099 390.409 533.824 389.793 533.824C389.187 533.824 388.697 534.099 388.323 534.65C387.959 535.191 387.777 535.957 387.777 536.946V537.254C387.777 538.243 387.959 539.013 388.323 539.564C388.697 540.105 389.187 540.376 389.793 540.376C390.409 540.376 390.899 540.105 391.263 539.564C391.637 539.013 391.823 538.243 391.823 537.254V536.946ZM407.133 534.72C407.908 534.72 408.538 534.977 409.023 535.49C409.508 536.003 409.751 536.857 409.751 538.052V542.014H407.777V537.982C407.777 536.89 407.362 536.344 406.531 536.344C406.102 536.344 405.756 536.498 405.495 536.806C405.234 537.105 405.103 537.525 405.103 538.066V542.014H403.129V537.982C403.129 536.89 402.709 536.344 401.869 536.344C401.44 536.344 401.094 536.503 400.833 536.82C400.581 537.128 400.455 537.548 400.455 538.08V542.014H398.481V534.804H400.203L400.385 535.7C400.628 535.392 400.917 535.154 401.253 534.986C401.589 534.818 402.009 534.729 402.513 534.72C403.54 534.72 404.254 535.126 404.655 535.938C404.916 535.546 405.257 535.247 405.677 535.042C406.106 534.827 406.592 534.72 407.133 534.72ZM414.505 542.084C413.749 542.084 413.081 541.935 412.503 541.636C411.933 541.328 411.49 540.894 411.173 540.334C410.865 539.774 410.711 539.13 410.711 538.402C410.711 537.674 410.865 537.03 411.173 536.47C411.49 535.91 411.933 535.481 412.503 535.182C413.081 534.874 413.749 534.72 414.505 534.72C415.261 534.72 415.923 534.874 416.493 535.182C417.071 535.481 417.515 535.91 417.823 536.47C418.14 537.03 418.299 537.674 418.299 538.402C418.299 539.139 418.14 539.788 417.823 540.348C417.515 540.899 417.071 541.328 416.493 541.636C415.923 541.935 415.261 542.084 414.505 542.084ZM414.505 540.474C415.055 540.474 415.489 540.283 415.807 539.9C416.133 539.517 416.297 539.018 416.297 538.402C416.297 537.786 416.133 537.287 415.807 536.904C415.489 536.521 415.055 536.33 414.505 536.33C413.963 536.33 413.529 536.521 413.203 536.904C412.885 537.287 412.727 537.786 412.727 538.402C412.727 539.018 412.885 539.517 413.203 539.9C413.529 540.283 413.963 540.474 414.505 540.474ZM423.767 534.804V536.596H422.983C422.423 536.596 422.013 536.764 421.751 537.1C421.49 537.436 421.359 537.893 421.359 538.472V542H419.385V534.804H421.177L421.359 535.882C421.574 535.527 421.84 535.261 422.157 535.084C422.475 534.897 422.899 534.804 423.431 534.804H423.767ZM424.136 538.416C424.136 537.669 424.286 537.021 424.584 536.47C424.892 535.91 425.317 535.481 425.858 535.182C426.409 534.874 427.044 534.72 427.762 534.72C428.49 534.72 429.13 534.865 429.68 535.154C430.24 535.434 430.674 535.835 430.982 536.358C431.3 536.871 431.463 537.478 431.472 538.178C431.472 538.43 431.454 538.654 431.416 538.85H426.194V538.906C426.241 539.429 426.409 539.839 426.698 540.138C426.988 540.437 427.384 540.586 427.888 540.586C428.29 540.586 428.621 540.502 428.882 540.334C429.153 540.157 429.33 539.9 429.414 539.564H431.36C431.286 540.04 431.104 540.469 430.814 540.852C430.525 541.235 430.142 541.538 429.666 541.762C429.19 541.977 428.644 542.084 428.028 542.084C427.226 542.084 426.53 541.935 425.942 541.636C425.364 541.337 424.916 540.913 424.598 540.362C424.29 539.802 424.136 539.153 424.136 538.416ZM429.498 537.562C429.433 537.123 429.251 536.787 428.952 536.554C428.663 536.311 428.294 536.19 427.846 536.19C427.417 536.19 427.053 536.316 426.754 536.568C426.465 536.811 426.292 537.142 426.236 537.562H429.498ZM442.94 539.27C442.809 540.147 442.436 540.838 441.82 541.342C441.213 541.837 440.425 542.084 439.454 542.084C438.707 542.084 438.054 541.935 437.494 541.636C436.934 541.328 436.5 540.894 436.192 540.334C435.893 539.774 435.744 539.13 435.744 538.402C435.744 537.665 435.893 537.021 436.192 536.47C436.5 535.91 436.934 535.481 437.494 535.182C438.063 534.874 438.721 534.72 439.468 534.72C440.429 534.72 441.213 534.967 441.82 535.462C442.427 535.947 442.8 536.624 442.94 537.492H440.896C440.812 537.137 440.644 536.857 440.392 536.652C440.14 536.437 439.827 536.33 439.454 536.33C438.941 536.33 438.53 536.521 438.222 536.904C437.914 537.287 437.76 537.786 437.76 538.402C437.76 539.018 437.914 539.517 438.222 539.9C438.53 540.283 438.941 540.474 439.454 540.474C439.837 540.474 440.154 540.367 440.406 540.152C440.667 539.937 440.835 539.643 440.91 539.27H442.94ZM447.427 542.084C446.671 542.084 446.003 541.935 445.425 541.636C444.855 541.328 444.412 540.894 444.095 540.334C443.787 539.774 443.633 539.13 443.633 538.402C443.633 537.674 443.787 537.03 444.095 536.47C444.412 535.91 444.855 535.481 445.425 535.182C446.003 534.874 446.671 534.72 447.427 534.72C448.183 534.72 448.845 534.874 449.415 535.182C449.993 535.481 450.437 535.91 450.745 536.47C451.062 537.03 451.221 537.674 451.221 538.402C451.221 539.139 451.062 539.788 450.745 540.348C450.437 540.899 449.993 541.328 449.415 541.636C448.845 541.935 448.183 542.084 447.427 542.084ZM447.427 540.474C447.977 540.474 448.411 540.283 448.729 539.9C449.055 539.517 449.219 539.018 449.219 538.402C449.219 537.786 449.055 537.287 448.729 536.904C448.411 536.521 447.977 536.33 447.427 536.33C446.885 536.33 446.451 536.521 446.125 536.904C445.807 537.287 445.649 537.786 445.649 538.402C445.649 539.018 445.807 539.517 446.125 539.9C446.451 540.283 446.885 540.474 447.427 540.474ZM459.083 534.804V542H457.333L457.151 541.132C456.899 541.431 456.605 541.664 456.269 541.832C455.933 542 455.522 542.084 455.037 542.084C454.197 542.084 453.511 541.827 452.979 541.314C452.447 540.791 452.181 539.923 452.181 538.71V534.804H454.155V538.472C454.155 539.125 454.267 539.62 454.491 539.956C454.724 540.283 455.079 540.446 455.555 540.446C456.05 540.446 456.432 540.264 456.703 539.9C456.974 539.527 457.109 539.009 457.109 538.346V534.804H459.083ZM464.586 534.72C465.426 534.72 466.116 534.981 466.658 535.504C467.199 536.027 467.47 536.89 467.47 538.094V542H465.496V538.206C465.496 536.965 465.01 536.344 464.04 536.344C463.526 536.344 463.13 536.517 462.85 536.862C462.57 537.207 462.43 537.693 462.43 538.318V542H460.456V534.804H462.178L462.36 535.7C462.612 535.392 462.915 535.154 463.27 534.986C463.624 534.809 464.063 534.72 464.586 534.72ZM469.175 536.47H467.985V534.804H469.175V532.788H471.149V534.804H472.787V536.47H471.149V539.62C471.149 539.872 471.201 540.054 471.303 540.166C471.415 540.278 471.597 540.334 471.849 540.334H472.871V542H471.233C469.861 542 469.175 541.314 469.175 539.942V536.47ZM478.086 534.804V536.596H477.302C476.742 536.596 476.331 536.764 476.07 537.1C475.808 537.436 475.678 537.893 475.678 538.472V542H473.704V534.804H475.496L475.678 535.882C475.892 535.527 476.158 535.261 476.476 535.084C476.793 534.897 477.218 534.804 477.75 534.804H478.086ZM479.961 531.808C480.288 531.808 480.559 531.915 480.773 532.13C480.988 532.335 481.095 532.597 481.095 532.914C481.095 533.231 480.988 533.497 480.773 533.712C480.559 533.927 480.288 534.034 479.961 534.034C479.635 534.034 479.359 533.927 479.135 533.712C478.921 533.497 478.813 533.231 478.813 532.914C478.813 532.597 478.921 532.335 479.135 532.13C479.359 531.915 479.635 531.808 479.961 531.808ZM478.967 534.804H480.941V542H478.967V534.804ZM482.037 538.416C482.037 537.669 482.186 537.021 482.485 536.47C482.793 535.91 483.218 535.481 483.759 535.182C484.31 534.874 484.944 534.72 485.663 534.72C486.391 534.72 487.03 534.865 487.581 535.154C488.141 535.434 488.575 535.835 488.883 536.358C489.2 536.871 489.364 537.478 489.373 538.178C489.373 538.43 489.354 538.654 489.317 538.85H484.095V538.906C484.142 539.429 484.31 539.839 484.599 540.138C484.888 540.437 485.285 540.586 485.789 540.586C486.19 540.586 486.522 540.502 486.783 540.334C487.054 540.157 487.231 539.9 487.315 539.564H489.261C489.186 540.04 489.004 540.469 488.715 540.852C488.426 541.235 488.043 541.538 487.567 541.762C487.091 541.977 486.545 542.084 485.929 542.084C485.126 542.084 484.431 541.935 483.843 541.636C483.264 541.337 482.816 540.913 482.499 540.362C482.191 539.802 482.037 539.153 482.037 538.416ZM487.399 537.562C487.334 537.123 487.152 536.787 486.853 536.554C486.564 536.311 486.195 536.19 485.747 536.19C485.318 536.19 484.954 536.316 484.655 536.568C484.366 536.811 484.193 537.142 484.137 537.562H487.399ZM492.007 539.606C492.035 539.923 492.189 540.18 492.469 540.376C492.749 540.572 493.108 540.67 493.547 540.67C493.967 540.67 494.298 540.605 494.541 540.474C494.784 540.334 494.905 540.138 494.905 539.886C494.905 539.699 494.849 539.559 494.737 539.466C494.625 539.373 494.466 539.307 494.261 539.27C494.056 539.223 493.72 539.172 493.253 539.116C492.618 539.032 492.091 538.925 491.671 538.794C491.251 538.663 490.915 538.458 490.663 538.178C490.411 537.898 490.285 537.525 490.285 537.058C490.285 536.591 490.411 536.181 490.663 535.826C490.924 535.462 491.288 535.182 491.755 534.986C492.222 534.79 492.758 534.692 493.365 534.692C494.345 534.701 495.134 534.911 495.731 535.322C496.338 535.733 496.664 536.302 496.711 537.03H494.835C494.807 536.759 494.662 536.54 494.401 536.372C494.149 536.195 493.822 536.106 493.421 536.106C493.048 536.106 492.744 536.176 492.511 536.316C492.287 536.456 492.175 536.643 492.175 536.876C492.175 537.044 492.236 537.17 492.357 537.254C492.478 537.338 492.637 537.399 492.833 537.436C493.029 537.473 493.356 537.515 493.813 537.562C494.784 537.674 495.526 537.884 496.039 538.192C496.562 538.491 496.823 539.009 496.823 539.746C496.823 540.213 496.683 540.623 496.403 540.978C496.132 541.333 495.75 541.608 495.255 541.804C494.77 541.991 494.205 542.084 493.561 542.084C492.562 542.084 491.75 541.865 491.125 541.426C490.5 540.978 490.168 540.371 490.131 539.606H492.007Z" fill="#55433C"/>
<path d="M54.0987 461.134C62.8926 456.713 73.5399 461.366 76.2709 470.822C78.0456 476.966 83.3647 481.424 89.725 482.097C99.5127 483.133 105.955 492.803 103.14 502.234C101.311 508.363 103.375 514.989 108.362 518.994C116.036 525.157 116.227 536.775 108.76 543.187C103.908 547.354 102.063 554.044 104.093 560.109C107.216 569.443 101.096 579.32 91.348 580.677C85.0133 581.559 79.8438 586.19 78.2723 592.39C75.8541 601.93 65.3657 606.93 56.4311 602.802C50.6251 600.119 43.7727 601.22 39.0989 605.586C31.9065 612.305 20.3798 610.841 15.0954 602.537C11.6615 597.141 5.30184 594.363 -0.990472 595.509C-10.6735 597.272 -19.5788 589.809 -19.5352 579.967C-19.5068 573.571 -23.3546 567.795 -29.2676 565.357C-38.367 561.606 -41.8236 550.513 -36.4657 542.256C-32.984 536.891 -33.0983 529.952 -36.7547 524.704C-42.3814 516.629 -39.2918 505.428 -30.3209 501.379C-24.4913 498.748 -20.8358 492.849 -21.0747 486.457C-21.4423 476.622 -12.7875 468.869 -3.05162 470.313C3.275 471.252 9.53972 468.265 12.7942 462.759C17.8024 454.286 29.2746 452.443 36.6843 458.922C41.4993 463.132 48.3842 464.006 54.0987 461.134Z" fill="white"/>
<g clip-path="url(#clip8_8925_12996)">
<path d="M36.9996 576.461C61.0028 576.461 80.4612 557.003 80.4612 533C80.4612 508.996 61.0028 489.538 36.9996 489.538C12.9965 489.538 -6.46191 508.996 -6.46191 533C-6.46191 557.003 12.9965 576.461 36.9996 576.461Z" fill="#F0F0F0"/>
<path d="M80.4608 533C80.4608 514.314 68.6664 498.383 52.1162 492.242V573.759C68.6664 567.618 80.4608 551.687 80.4608 533Z" fill="#D80027"/>
<path d="M-6.46191 533C-6.46191 551.687 5.33263 567.618 21.8826 573.759V492.242C5.33263 498.383 -6.46191 514.314 -6.46191 533Z" fill="#0052B4"/>
</g>
<path d="M189.619 271.761C196.623 268.241 205.103 271.946 207.278 279.477C208.692 284.371 212.928 287.922 217.994 288.458C225.789 289.283 230.92 296.985 228.678 304.497C227.221 309.378 228.866 314.655 232.838 317.845C238.95 322.753 239.102 332.007 233.155 337.114C229.29 340.432 227.82 345.761 229.437 350.592C231.925 358.025 227.051 365.892 219.287 366.973C214.241 367.676 210.124 371.364 208.872 376.302C206.946 383.9 198.593 387.883 191.477 384.595C186.852 382.458 181.395 383.335 177.672 386.812C171.944 392.163 162.763 390.997 158.554 384.384C155.819 380.086 150.754 377.873 145.743 378.786C138.031 380.191 130.938 374.246 130.973 366.407C130.995 361.313 127.931 356.713 123.221 354.771C115.974 351.784 113.221 342.948 117.488 336.373C120.261 332.099 120.17 326.573 117.258 322.393C112.776 315.961 115.237 307.04 122.382 303.815C127.025 301.72 129.937 297.021 129.746 291.931C129.454 284.097 136.347 277.923 144.101 279.073C149.14 279.82 154.13 277.441 156.722 273.056C160.71 266.308 169.848 264.84 175.749 270C179.584 273.353 185.068 274.049 189.619 271.761Z" fill="white"/>
<g clip-path="url(#clip9_8925_12996)">
<path d="M176 363.616C195.118 363.616 210.616 348.118 210.616 329C210.616 309.883 195.118 294.385 176 294.385C156.883 294.385 141.385 309.883 141.385 329C141.385 348.118 156.883 363.616 176 363.616Z" fill="#F0F0F0"/>
<path d="M210.614 329C210.614 314.117 201.221 301.429 188.039 296.538V361.463C201.221 356.572 210.614 343.884 210.614 329Z" fill="#FF9811"/>
<path d="M141.385 329C141.385 343.884 150.779 356.572 163.96 361.463V296.538C150.779 301.429 141.385 314.117 141.385 329Z" fill="#6DA544"/>
</g>
<path d="M518.326 -66.7544C527.758 -75.1537 542.5 -72.9236 549.025 -62.1104C553.265 -55.0837 561.339 -51.3248 569.446 -52.6029C581.921 -54.5696 593.117 -44.7234 592.761 -32.0989C592.529 -23.8951 597.289 -16.3682 604.799 -13.0604C616.358 -7.97016 620.453 6.36602 613.328 16.7937C608.698 23.5698 608.632 32.4752 613.163 39.3186C620.134 49.8497 615.829 64.1242 604.197 69.0443C596.638 72.2414 591.769 79.6978 591.88 87.904C592.051 100.532 580.712 110.213 568.267 108.064C560.179 106.667 552.052 110.307 547.709 117.27C541.025 127.987 526.252 130 516.945 121.463C510.897 115.916 502.091 114.584 494.673 118.094C483.257 123.496 469.74 117.203 466.526 104.989C464.437 97.0527 457.749 91.1715 449.611 90.1138C437.086 88.4861 429.118 75.8845 433.017 63.8718C435.55 56.0656 433.104 47.5026 426.829 42.2128C417.173 34.0724 417.283 19.1631 427.057 11.1652C433.409 5.96804 435.98 -2.55815 433.562 -10.4007C429.84 -22.4693 437.992 -34.9526 450.539 -36.3963C458.692 -37.3345 465.465 -43.1168 467.67 -51.0221C471.064 -63.1872 484.671 -69.2812 496.007 -63.7124C503.373 -60.0937 512.197 -61.2964 518.326 -66.7544Z" fill="white"/>
<g clip-path="url(#clip10_8925_12996)">
<path d="M535.434 81.8692C565.185 73.8974 582.841 43.3171 574.869 13.5661C566.898 -16.1849 536.317 -33.8405 506.566 -25.8687C476.815 -17.897 459.16 12.6834 467.131 42.4344C475.103 72.1854 505.683 89.8409 535.434 81.8692Z" fill="#F0F0F0"/>
<path d="M472.755 55.9912C478.97 66.7208 488.526 74.9036 499.665 79.526L491.978 50.8403L472.755 55.9912Z" fill="#D80027"/>
<path d="M530.699 82.9197C532.278 82.639 533.859 82.2925 535.438 81.8695C560.327 75.2006 576.747 52.7084 576.782 28.1165L520.085 43.3086L530.699 82.9197Z" fill="#D80027"/>
<path d="M569.251 0.0107622C556.924 -21.2685 531.458 -32.5374 506.569 -25.8684C504.99 -25.4454 503.448 -24.9551 501.94 -24.4083L512.553 15.2028L569.251 0.0107622Z" fill="#D80027"/>
<path d="M476.761 -5.95071C469.425 3.62206 465.241 15.4859 465.223 27.8858L484.447 22.7349L476.761 -5.95071Z" fill="#D80027"/>
<path d="M572.531 6.66276L507.408 24.1125L507.408 24.1126L495.199 -21.4496C490.517 -19.0118 486.277 -15.9579 482.558 -12.4147L493.355 27.8776L493.355 27.8778L465.705 35.2865C466.022 37.667 466.494 40.0538 467.132 42.4352C467.77 44.8166 468.555 47.1197 469.471 49.3393L497.12 41.9307L497.12 41.9307L507.917 82.2232C512.908 83.4324 518.107 83.9574 523.381 83.7272L511.173 38.1658L511.173 38.1654L576.297 20.7156C575.98 18.3352 575.508 15.9483 574.87 13.5669C574.232 11.1855 573.447 8.88248 572.531 6.66276Z" fill="#0052B4"/>
</g>
<path d="M584.164 138.669C590.935 135.266 599.132 138.848 601.235 146.128C602.601 150.859 606.697 154.291 611.594 154.809C619.129 155.607 624.089 163.052 621.922 170.313C620.514 175.032 622.103 180.133 625.942 183.217C631.851 187.962 631.998 196.906 626.249 201.843C622.513 205.051 621.093 210.202 622.655 214.872C625.06 222.058 620.348 229.662 612.843 230.707C607.966 231.386 603.986 234.952 602.776 239.725C600.914 247.07 592.839 250.92 585.96 247.742C581.49 245.676 576.214 246.523 572.616 249.885C567.078 255.058 558.204 253.931 554.135 247.538C551.492 243.383 546.595 241.244 541.751 242.126C534.296 243.484 527.439 237.738 527.473 230.16C527.495 225.236 524.532 220.789 519.98 218.912C512.974 216.024 510.313 207.483 514.438 201.127C517.118 196.996 517.031 191.653 514.215 187.613C509.883 181.396 512.262 172.772 519.169 169.655C523.657 167.629 526.472 163.087 526.288 158.166C526.005 150.594 532.668 144.625 540.164 145.737C545.035 146.459 549.858 144.16 552.364 139.921C556.219 133.397 565.052 131.979 570.757 136.966C574.464 140.208 579.765 140.881 584.164 138.669Z" fill="white"/>
<g clip-path="url(#clip11_8925_12996)">
<path d="M595.938 216.309C601.237 210.388 604.461 202.572 604.461 194.001C604.461 185.43 601.237 177.613 595.938 171.693L571 169.269L546.061 171.693C540.762 177.613 537.538 185.43 537.538 194.001C537.538 202.572 540.762 210.388 546.061 216.309L571 218.733L595.938 216.309Z" fill="#FFDA44"/>
<path d="M546.062 171.692H595.939C589.812 164.847 580.91 160.538 571.001 160.538C561.091 160.538 552.189 164.847 546.062 171.692Z" fill="black"/>
<path d="M537.538 194L571 196.909L604.461 194C604.461 190.088 603.788 186.335 602.554 182.846H539.445C538.211 186.335 537.538 190.088 537.538 194V194Z" fill="#D80027"/>
<path d="M539.445 205.154H602.555C603.788 201.665 604.461 197.911 604.461 194H537.538C537.538 197.911 538.211 201.665 539.445 205.154Z" fill="black"/>
<path d="M595.939 216.308H546.062C552.189 223.153 561.091 227.462 571.001 227.462C580.91 227.462 589.812 223.153 595.939 216.308Z" fill="#D80027"/>
<path d="M582.166 194C582.166 200.167 577.167 205.166 571 205.166C564.833 205.166 559.834 200.167 559.834 194C559.834 187.833 564.833 182.834 571 182.834C577.167 182.834 582.166 187.833 582.166 194Z" fill="#F0F0F0"/>
<path d="M575.09 194.57L570.999 192.797C570.999 192.797 571.956 189.62 572.007 189.403C572.045 189.244 572.065 189.079 572.065 188.908C572.065 188.306 571.82 187.76 571.425 187.365L572.454 186.337C571.796 185.679 570.886 185.271 569.882 185.271C568.878 185.271 567.968 185.679 567.31 186.337L568.339 187.365C567.944 187.76 567.7 188.306 567.7 188.908C567.7 189.129 567.733 189.341 567.794 189.542L566.245 191.091H569.06C569.06 191.091 567.896 192.839 567.261 194.274C566.625 195.71 567.27 197.462 568.738 198.115L569.587 198.492L570.999 199.82V201.274L569.545 202.729H572.454V199.82L573.782 198.492H576.528C576.541 198.465 576.555 198.438 576.567 198.41C577.22 196.942 576.558 195.222 575.09 194.57Z" fill="black"/>
</g>
<path d="M592.803 392.393C598.873 389.342 606.222 392.553 608.107 399.08C609.332 403.322 613.004 406.399 617.394 406.863C624.15 407.578 628.597 414.253 626.654 420.763C625.392 424.994 626.817 429.568 630.259 432.332C635.556 436.586 635.688 444.605 630.534 449.032C627.185 451.908 625.911 456.526 627.312 460.713C629.468 467.155 625.244 473.973 618.515 474.91C614.142 475.519 610.574 478.715 609.489 482.994C607.82 489.58 600.58 493.032 594.413 490.182C590.405 488.33 585.675 489.09 582.449 492.103C577.484 496.741 569.528 495.731 565.88 489.999C563.51 486.274 559.12 484.356 554.777 485.147C548.093 486.365 541.946 481.213 541.976 474.419C541.995 470.005 539.339 466.018 535.258 464.335C528.977 461.746 526.591 454.088 530.289 448.389C532.693 444.686 532.614 439.896 530.09 436.274C526.206 430.7 528.338 422.968 534.531 420.173C538.555 418.357 541.078 414.285 540.913 409.873C540.659 403.084 546.634 397.733 553.354 398.729C557.721 399.377 562.045 397.316 564.292 393.515C567.749 387.666 575.668 386.394 580.782 390.866C584.106 393.772 588.858 394.376 592.803 392.393Z" fill="white"/>
<g clip-path="url(#clip12_8925_12996)">
<path d="M581 472C597.569 472 611 458.569 611 442C611 425.431 597.569 412 581 412C564.431 412 551 425.431 551 442C551 458.569 564.431 472 581 472Z" fill="#F0F0F0"/>
<path d="M551 442C551 453.371 557.327 463.264 566.652 468.352V415.647C557.327 420.736 551 430.628 551 442Z" fill="#F0F0F0"/>
<path d="M581 412C575.803 412 570.915 413.322 566.652 415.648V468.352C570.915 470.678 575.803 472 581 472C597.569 472 611 458.568 611 442C611 425.432 597.569 412 581 412Z" fill="#496E2D"/>
<path d="M593.826 446.961C590.031 449.703 584.731 448.85 581.989 445.055C579.246 441.259 580.1 435.959 583.895 433.217C585.079 432.362 586.408 431.857 587.761 431.681C585.159 431.292 582.408 431.878 580.107 433.541C575.435 436.916 574.385 443.439 577.76 448.11C581.135 452.781 587.658 453.832 592.329 450.457C594.631 448.794 596.051 446.367 596.498 443.774C595.907 445.002 595.01 446.106 593.826 446.961Z" fill="#F0F0F0"/>
<path d="M593.663 431.565L595.801 433.869L598.653 432.549L597.122 435.294L599.26 437.598L596.176 436.99L594.646 439.735L594.27 436.615L591.187 436.007L594.039 434.686L593.663 431.565Z" fill="#F0F0F0"/>
</g>
<path d="M434.73 109.87C445.392 104.511 458.301 110.151 461.612 121.615C463.763 129.065 470.212 134.47 477.923 135.286C489.79 136.541 497.6 148.265 494.187 159.7C491.97 167.13 494.473 175.163 500.519 180.019C509.822 187.491 510.054 201.576 501.001 209.35C495.119 214.402 492.881 222.513 495.342 229.867C499.13 241.183 491.71 253.157 479.891 254.803C472.211 255.872 465.943 261.486 464.038 269.003C461.106 280.57 448.39 286.632 437.558 281.627C430.519 278.374 422.211 279.709 416.545 285.002C407.825 293.148 393.85 291.373 387.443 281.306C383.28 274.764 375.569 271.395 367.941 272.785C356.201 274.923 345.404 265.874 345.457 253.942C345.492 246.187 340.827 239.185 333.658 236.229C322.626 231.681 318.435 218.232 324.931 208.222C329.152 201.717 329.014 193.304 324.581 186.942C317.759 177.152 321.505 163.572 332.381 158.663C339.449 155.473 343.881 148.321 343.591 140.572C343.145 128.647 353.638 119.248 365.442 120.999C373.112 122.136 380.707 118.516 384.653 111.84C390.725 101.568 404.634 99.3337 413.617 107.188C419.455 112.292 427.802 113.352 434.73 109.87Z" fill="white"/>
<g clip-path="url(#clip13_8925_12996)">
<path d="M414 249.692C443.101 249.692 466.692 226.101 466.692 197C466.692 167.899 443.101 144.308 414 144.308C384.899 144.308 361.308 167.899 361.308 197C361.308 226.101 384.899 249.692 414 249.692Z" fill="#338AF3"/>
<path d="M413.999 171.799L419.686 189.3H438.088L423.2 200.117L428.887 217.618L413.999 206.802L399.111 217.618L404.798 200.117L389.91 189.3H408.312L413.999 171.799Z" fill="#F0F0F0"/>
</g>
<defs>
<clipPath id="clip0_8925_12996">
<rect width="85.3861" height="85.3861" fill="white" transform="translate(95.9805 137.6) rotate(45)"/>
</clipPath>
<clipPath id="clip1_8925_12996">
<rect width="56.5696" height="56.5696" fill="white" transform="translate(226.633 201.632)"/>
</clipPath>
<clipPath id="clip2_8925_12996">
<rect width="55.3846" height="55.3846" fill="white" transform="translate(35.3076 355.308)"/>
</clipPath>
<clipPath id="clip3_8925_12996">
<rect width="54.6154" height="54.6154" fill="white" transform="translate(34.6924 40.6924)"/>
</clipPath>
<clipPath id="clip4_8925_12996">
<rect width="96.5385" height="96.5385" fill="white" transform="translate(165.73 434.73)"/>
</clipPath>
<clipPath id="clip5_8925_12996">
<rect width="70.7692" height="70.7692" fill="white" transform="translate(486.615 289.615)"/>
</clipPath>
<clipPath id="clip6_8925_12996">
<rect width="89.2308" height="89.2308" fill="white" transform="translate(334.409 328.382) rotate(1.30065)"/>
</clipPath>
<clipPath id="clip7_8925_12996">
<rect width="91.1539" height="91.1539" fill="white" transform="translate(185.922 47.4219)"/>
</clipPath>
<clipPath id="clip8_8925_12996">
<rect width="86.9231" height="86.9231" fill="white" transform="translate(-6.46191 489.538)"/>
</clipPath>
<clipPath id="clip9_8925_12996">
<rect width="69.2308" height="69.2308" fill="white" transform="translate(141.385 294.385)"/>
</clipPath>
<clipPath id="clip10_8925_12996">
<rect width="111.538" height="111.538" fill="white" transform="translate(452.697 -11.4346) rotate(-15)"/>
</clipPath>
<clipPath id="clip11_8925_12996">
<rect width="66.9231" height="66.9231" fill="white" transform="translate(537.538 160.538)"/>
</clipPath>
<clipPath id="clip12_8925_12996">
<rect width="60" height="60" fill="white" transform="translate(551 412)"/>
</clipPath>
<clipPath id="clip13_8925_12996">
<rect width="105.385" height="105.385" fill="white" transform="translate(361.308 144.308)"/>
</clipPath>
</defs>
</svg>
