<svg width="135" height="144" viewBox="0 0 135 144" fill="none" xmlns="http://www.w3.org/2000/svg">
<path d="M73.8946 26.2088C79.4978 23.3924 86.282 26.3566 88.0221 32.3816C89.1528 36.2968 92.542 39.1372 96.5946 39.5661C102.831 40.2261 106.936 46.3875 105.142 52.3968C103.977 56.3018 105.292 60.5237 108.47 63.0755C113.359 67.0024 113.481 74.4048 108.723 78.4905C105.632 81.1455 104.456 85.4084 105.749 89.2729C107.74 95.22 103.84 101.513 97.6287 102.378C93.5924 102.94 90.2986 105.891 89.2973 109.841C87.7565 115.92 81.0736 119.106 75.3807 116.475C71.6813 114.766 67.3152 115.467 64.3372 118.249C59.7544 122.53 52.41 121.597 49.043 116.307C46.855 112.869 42.8028 111.098 38.7936 111.828C32.6238 112.952 26.9496 108.197 26.9775 101.925C26.9955 97.8502 24.5439 94.17 20.7763 92.6167C14.9784 90.2265 12.776 83.1582 16.1899 77.8976C18.4083 74.4792 18.3355 70.0577 16.0057 66.7141C12.4206 61.5687 14.3891 54.4318 20.1052 51.852C23.8196 50.1755 26.1488 46.4166 25.9966 42.3442C25.7623 36.0774 31.2769 31.1377 37.4803 32.0577C41.5114 32.6556 45.5031 30.7526 47.5767 27.2444C50.7677 21.8458 58.0775 20.6717 62.7987 24.7994C65.8667 27.4818 70.2535 28.039 73.8946 26.2088Z" fill="white"/>
<g clip-path="url(#clip0_8889_21470)">
<path d="M62.9999 99.6922C78.294 99.6922 90.6922 87.294 90.6922 71.9999C90.6922 56.7059 78.294 44.3076 62.9999 44.3076C47.7059 44.3076 35.3076 56.7059 35.3076 71.9999C35.3076 87.294 47.7059 99.6922 62.9999 99.6922Z" fill="#F0F0F0"/>
<path d="M63.0001 44.3076C51.0934 44.3076 40.943 51.8226 37.0303 62.3679H88.9701C85.0573 51.8226 74.9069 44.3076 63.0001 44.3076Z" fill="#A2001D"/>
<path d="M63.0001 99.6921C74.9069 99.6921 85.0573 92.1771 88.97 81.6318H37.0303C40.943 92.1771 51.0934 99.6921 63.0001 99.6921Z" fill="#0052B4"/>
</g>
<defs>
<clipPath id="clip0_8889_21470">
<rect width="55.3846" height="55.3846" fill="white" transform="translate(35.3076 44.3076)"/>
</clipPath>
</defs>
</svg>
