<svg width="184" height="184" viewBox="0 0 184 184" fill="none" xmlns="http://www.w3.org/2000/svg">
<path d="M105.921 33.4889C113.08 29.8901 121.749 33.6777 123.972 41.3763C125.417 46.3791 129.748 50.0085 134.926 50.5566C142.895 51.3999 148.14 59.2728 145.848 66.9514C144.359 71.9411 146.04 77.3357 150.1 80.5964C156.348 85.6141 156.503 95.0727 150.424 100.293C146.474 103.686 144.971 109.133 146.624 114.071C149.167 121.67 144.184 129.711 136.248 130.816C131.09 131.535 126.881 135.305 125.602 140.352C123.633 148.12 115.094 152.191 107.82 148.83C103.093 146.645 97.5137 147.541 93.7085 151.096C87.8527 156.566 78.4682 155.374 74.1658 148.614C71.3701 144.221 66.1923 141.959 61.0694 142.892C53.1858 144.327 45.9355 138.251 45.971 130.238C45.9941 125.031 42.8615 120.328 38.0473 118.344C30.639 115.289 27.8247 106.258 32.1869 99.5358C35.0215 95.1677 34.9285 89.518 31.9516 85.2457C27.3706 78.671 29.886 69.5516 37.1898 66.2552C41.936 64.1131 44.9122 59.31 44.7177 54.1064C44.4183 46.0987 51.4647 39.787 59.3913 40.9625C64.5422 41.7265 69.6426 39.2949 72.2923 34.8122C76.3697 27.9139 85.71 26.4137 91.7426 31.6881C95.6628 35.1155 101.268 35.8275 105.921 33.4889Z" fill="white"/>
<g clip-path="url(#clip0_8889_21473)">
<path d="M127.384 91.9998C127.384 111.542 111.542 127.384 91.9998 127.384C72.4576 127.384 56.6152 111.542 56.6152 91.9998C56.6152 92.0081 91.9998 56.6192 91.9998 56.6152C111.542 56.6152 127.384 72.4576 127.384 91.9998Z" fill="#0052B4"/>
<path d="M91.9053 92H92C92 91.9679 92 91.9372 92 91.9053C91.9684 91.9369 91.9369 91.9684 91.9053 92Z" fill="#F0F0F0"/>
<path d="M91.9998 75.0767C91.9998 68.8506 91.9998 64.7707 91.9998 56.6152H91.9939C72.4543 56.6184 56.6152 72.4592 56.6152 91.9997H75.0767V81.6038L85.4726 91.9997H91.9053C91.937 91.9682 91.9685 91.9367 92 91.905C92 89.5211 92 87.394 92 85.4728L81.604 75.0767H91.9998Z" fill="#F0F0F0"/>
<path d="M74.5168 61.2305C68.9826 64.3818 64.3818 68.9826 61.2305 74.5168V91.9997H70.4613V70.4614V70.4613H91.9997C91.9997 67.5499 91.9997 64.7764 91.9997 61.2305H74.5168Z" fill="#D80027"/>
<path d="M92.0001 87.6487L79.4285 75.0772H75.0771C75.0771 75.0771 75.0771 75.0772 75.0771 75.0772L92 92H92.0001C92.0001 92 92.0001 88.9999 92.0001 87.6487Z" fill="#D80027"/>
<path d="M77.9555 98.1543L79.8975 102.215L84.2829 101.201L82.319 105.252L85.8456 108.048L81.4547 109.038L81.467 113.539L77.9555 110.723L74.4441 113.539L74.4564 109.038L70.0654 108.048L73.5921 105.252L71.628 101.201L76.0136 102.215L77.9555 98.1543Z" fill="#F0F0F0"/>
<path d="M109.592 105.847L110.563 107.877L112.756 107.37L111.774 109.395L113.538 110.794L111.342 111.288L111.348 113.539L109.592 112.131L107.837 113.539L107.843 111.288L105.647 110.794L107.411 109.395L106.429 107.37L108.621 107.877L109.592 105.847Z" fill="#F0F0F0"/>
<path d="M100.56 84.3076L101.531 86.3381L103.724 85.8311L102.742 87.8562L104.505 89.2546L102.31 89.7494L102.316 91.9999L100.56 90.5918L98.8047 91.9999L98.8106 89.7494L96.6152 89.2546L98.3785 87.8562L97.3966 85.8311L99.5893 86.3381L100.56 84.3076Z" fill="#F0F0F0"/>
<path d="M109.592 72L110.563 74.0305L112.756 73.5236L111.774 75.5487L113.537 76.9469L111.342 77.4419L111.348 79.6924L109.592 78.2844L107.837 79.6924L107.843 77.4419L105.647 76.9469L107.411 75.5487L106.429 73.5236L108.621 74.0305L109.592 72Z" fill="#F0F0F0"/>
<path d="M117.483 81.2305L118.454 83.2609L120.647 82.7539L119.665 84.779L121.428 86.1774L119.233 86.6724L119.239 88.9228L117.483 87.5148L115.728 88.9228L115.733 86.6724L113.538 86.1774L115.301 84.779L114.319 82.7539L116.512 83.2609L117.483 81.2305Z" fill="#F0F0F0"/>
<path d="M111.841 92L112.604 94.3506H115.076L113.077 95.8034L113.84 98.1539L111.841 96.7012L109.841 98.1539L110.605 95.8034L108.605 94.3506H111.077L111.841 92Z" fill="#F0F0F0"/>
</g>
<defs>
<clipPath id="clip0_8889_21473">
<rect width="70.7692" height="70.7692" fill="white" transform="translate(56.6152 56.6152)"/>
</clipPath>
</defs>
</svg>
