<svg width="180" height="180" viewBox="0 0 180 180" fill="none" xmlns="http://www.w3.org/2000/svg">
<path d="M103.619 32.7615C110.623 29.2409 119.103 32.9462 121.278 40.4774C122.692 45.3714 126.928 48.922 131.994 49.4581C139.789 50.2831 144.92 57.9849 142.678 65.4965C141.221 70.3778 142.866 75.6551 146.838 78.8449C152.95 83.7535 153.102 93.0065 147.155 98.1136C143.29 101.432 141.82 106.761 143.437 111.592C145.925 119.025 141.051 126.892 133.287 127.973C128.241 128.676 124.124 132.364 122.872 137.302C120.946 144.9 112.593 148.883 105.477 145.595C100.852 143.458 95.3947 144.335 91.6722 147.812C85.9438 153.163 76.7632 151.997 72.5544 145.384C69.8194 141.086 64.7542 138.873 59.7427 139.786C52.0305 141.191 44.9378 135.246 44.9726 127.407C44.9952 122.313 41.9306 117.713 37.2211 115.771C29.9738 112.784 27.2207 103.948 31.4881 97.3725C34.2611 93.0994 34.1701 87.5726 31.2579 83.3931C26.7764 76.9614 29.2372 68.0402 36.3822 64.8155C41.0252 62.7199 43.9367 58.0212 43.7464 52.9308C43.4536 45.0972 50.3468 38.9226 58.101 40.0727C63.14 40.82 68.1296 38.4413 70.7216 34.056C74.7104 27.3077 83.8476 25.8401 89.7491 30.9998C93.5841 34.3527 99.0676 35.0492 103.619 32.7615Z" fill="white"/>
<g clip-path="url(#clip0_8889_21482)">
<path d="M90.0001 124.616C109.118 124.616 124.616 109.118 124.616 90.0001C124.616 70.8826 109.118 55.3848 90.0001 55.3848C70.8826 55.3848 55.3848 70.8826 55.3848 90.0001C55.3848 109.118 70.8826 124.616 90.0001 124.616Z" fill="#F0F0F0"/>
<path d="M124.614 90.0003C124.614 75.117 115.221 62.4289 102.039 57.5381V122.463C115.221 117.572 124.614 104.884 124.614 90.0003Z" fill="#FF9811"/>
<path d="M55.3848 90.0003C55.3848 104.884 64.7785 117.572 77.9601 122.463V57.5381C64.7785 62.4289 55.3848 75.117 55.3848 90.0003Z" fill="#6DA544"/>
</g>
<defs>
<clipPath id="clip0_8889_21482">
<rect width="69.2308" height="69.2308" fill="white" transform="translate(55.3848 55.3848)"/>
</clipPath>
</defs>
</svg>
