<svg width="238" height="238" viewBox="0 0 238 238" fill="none" xmlns="http://www.w3.org/2000/svg">
<path d="M137.826 45.2464C146.954 40.9149 157.773 45.9375 160.355 55.7055C162.033 62.0531 167.388 66.7521 173.9 67.5911C183.921 68.8823 190.307 78.9565 187.198 88.5701C185.178 94.8173 187.143 101.666 192.167 105.892C199.899 112.396 199.825 124.323 192.012 130.73C186.936 134.893 184.886 141.717 186.828 147.989C189.816 157.64 183.305 167.634 173.269 168.8C166.747 169.558 161.334 174.19 159.576 180.516C156.872 190.251 145.992 195.138 136.918 190.693C131.022 187.804 123.964 188.774 119.066 193.146C111.528 199.874 99.7323 198.103 94.5025 189.458C91.1041 183.84 84.642 180.84 78.1576 181.87C68.179 183.454 59.2135 175.587 59.4876 165.487C59.6658 158.924 55.8515 152.907 49.8398 150.267C40.5887 146.205 37.2997 134.74 42.9908 126.391C46.689 120.966 46.7335 113.842 43.1032 108.371C37.5167 99.9524 40.9485 88.529 50.2496 84.5827C56.2937 82.0183 60.1828 76.049 60.0866 69.4841C59.9384 59.3815 69.0014 51.6269 78.9595 53.3356C85.4306 54.446 91.9295 51.5269 95.3978 45.9521C100.735 37.3732 112.552 35.7494 120.005 42.5706C124.849 47.0033 131.894 48.0612 137.826 45.2464Z" fill="white"/>
<g clip-path="url(#clip0_8889_21474)">
<path d="M117.591 163.206C142.225 163.765 162.648 144.249 163.207 119.615C163.767 94.9806 144.25 74.5574 119.616 73.9981C94.982 73.4388 74.5588 92.9552 73.9995 117.589C73.4402 142.223 92.9566 162.647 117.591 163.206Z" fill="#F0F0F0"/>
<path d="M163.207 119.617C163.609 101.933 153.665 86.4196 138.909 78.8662L137.084 159.222C152.168 152.346 162.806 137.3 163.207 119.617Z" fill="#D80027"/>
<path d="M73.9994 117.591C73.5979 135.275 83.5421 150.788 98.2981 158.341L100.123 77.9855C85.0389 84.8614 74.4009 99.9074 73.9994 117.591Z" fill="#D80027"/>
<path d="M126.229 124.598L134.074 120.896L130.24 118.868L130.328 114.99L122.483 118.692L126.537 111.023L122.659 110.935L118.912 105.029L114.902 110.759L111.023 110.671L114.725 118.516L107.056 114.461L106.968 118.34L103.046 120.191L110.715 124.246L108.687 128.08L116.445 128.257L116.313 134.074L120.191 134.162L120.323 128.345L128.08 128.521L126.229 124.598Z" fill="#D80027"/>
</g>
<defs>
<clipPath id="clip0_8889_21474">
<rect width="89.2308" height="89.2308" fill="white" transform="translate(75.0122 72.9854) rotate(1.30065)"/>
</clipPath>
</defs>
</svg>
