<svg width="251" height="249" viewBox="0 0 251 249" fill="none" xmlns="http://www.w3.org/2000/svg">
<path d="M144.99 46.184C154.757 41.2748 166.582 46.4416 169.615 56.9435C171.586 63.7679 177.494 68.719 184.558 69.4665C195.428 70.617 202.583 81.3567 199.456 91.8312C197.425 98.6379 199.718 105.997 205.256 110.445C213.779 117.29 213.992 130.192 205.699 137.314C200.31 141.942 198.26 149.372 200.515 156.108C203.984 166.474 197.187 177.444 186.36 178.951C179.325 179.931 173.583 185.074 171.838 191.959C169.152 202.555 157.504 208.109 147.581 203.524C141.133 200.544 133.522 201.767 128.331 206.616C120.343 214.078 107.542 212.452 101.673 203.23C97.8588 197.237 90.7956 194.151 83.8073 195.424C73.0531 197.382 63.1627 189.093 63.2112 178.162C63.2427 171.059 58.9693 164.644 52.4022 161.937C42.2962 157.77 38.4572 145.45 44.4078 136.281C48.2746 130.322 48.1477 122.615 44.0869 116.787C37.8377 107.818 41.269 95.3783 51.2324 90.8815C57.7068 87.9594 61.7667 81.4073 61.5014 74.309C61.0931 63.3855 70.7053 54.7754 81.5181 56.3791C88.5446 57.4212 95.5023 54.1042 99.1168 47.9892C104.679 38.579 117.42 36.5325 125.65 43.7274C130.997 48.4029 138.644 49.3741 144.99 46.184Z" fill="white"/>
<g clip-path="url(#clip0_8889_21472)">
<path d="M126 174.269C152.658 174.269 174.269 152.658 174.269 126C174.269 99.3413 152.658 77.7305 126 77.7305C99.3413 77.7305 77.7305 99.3413 77.7305 126C77.7305 152.658 99.3413 174.269 126 174.269Z" fill="#F0F0F0"/>
<path d="M126 77.7305C106.863 77.7305 90.3281 88.8673 82.5205 105.013H169.48C161.672 88.8673 145.137 77.7305 126 77.7305Z" fill="#FF9811"/>
<path d="M126 174.269C145.137 174.269 161.672 163.132 169.48 146.986H82.5205C90.3281 163.132 106.863 174.269 126 174.269Z" fill="#6DA544"/>
<path d="M126 142.789C135.273 142.789 142.789 135.273 142.789 126C142.789 116.728 135.273 109.211 126 109.211C116.728 109.211 109.211 116.728 109.211 126C109.211 135.273 116.728 142.789 126 142.789Z" fill="#0052B4"/>
<path d="M126 136.493C131.795 136.493 136.493 131.795 136.493 126C136.493 120.205 131.795 115.507 126 115.507C120.205 115.507 115.507 120.205 115.507 126C115.507 131.795 120.205 136.493 126 136.493Z" fill="#F0F0F0"/>
<path d="M126 113.051L129.237 120.393L137.214 119.525L132.474 125.999L137.214 132.474L129.237 131.606L126 138.948L122.763 131.606L114.786 132.473L119.526 125.999L114.786 119.525L122.763 120.393L126 113.051Z" fill="#0052B4"/>
</g>
<defs>
<clipPath id="clip0_8889_21472">
<rect width="96.5385" height="96.5385" fill="white" transform="translate(77.7305 77.7305)"/>
</clipPath>
</defs>
</svg>
