<svg width="133" height="139" viewBox="0 0 133 139" fill="none" xmlns="http://www.w3.org/2000/svg">
<path d="M72.7438 22.8451C78.2692 20.0678 84.959 22.9908 86.675 28.9321C87.79 32.7929 91.1321 35.5939 95.1284 36.0169C101.278 36.6677 105.326 42.7435 103.557 48.6694C102.408 52.5202 103.705 56.6834 106.838 59.1998C111.66 63.0721 111.78 70.3717 107.089 74.4007C104.04 77.0188 102.88 81.2225 104.156 85.0333C106.119 90.8977 102.273 97.1036 96.1482 97.9565C92.168 98.5107 88.9199 101.42 87.9325 105.316C86.4131 111.31 79.823 114.452 74.2092 111.858C70.5612 110.172 66.2557 110.864 63.3191 113.607C58.7999 117.829 51.5575 116.909 48.2373 111.692C46.0796 108.301 42.0838 106.555 38.1302 107.275C32.0462 108.384 26.4508 103.694 26.4782 97.5101C26.4961 93.4915 24.0784 89.8624 20.3632 88.3307C14.6459 85.9736 12.474 79.0036 15.8405 73.816C18.0281 70.445 17.9563 66.085 15.6589 62.7878C12.1235 57.7139 14.0647 50.6761 19.7014 48.1321C23.3642 46.4789 25.661 42.7722 25.5109 38.7564C25.2799 32.5766 30.7179 27.7055 36.8351 28.6128C40.8103 29.2023 44.7465 27.3258 46.7914 23.8663C49.9381 18.5427 57.1463 17.3849 61.8019 21.4553C64.8273 24.1004 69.1532 24.6498 72.7438 22.8451Z" fill="white"/>
<g clip-path="url(#clip0_8889_21471)">
<path d="M62.0001 95.3078C77.0817 95.3078 89.3078 83.0817 89.3078 68.0001C89.3078 52.9185 77.0817 40.6924 62.0001 40.6924C46.9185 40.6924 34.6924 52.9185 34.6924 68.0001C34.6924 83.0817 46.9185 95.3078 62.0001 95.3078Z" fill="#F0F0F0"/>
<path d="M34.6924 68.0007C34.6924 79.7421 42.103 89.7515 52.5018 93.61V42.3916C42.103 46.2499 34.6924 56.2594 34.6924 68.0007Z" fill="#6DA544"/>
<path d="M89.3075 68.0007C89.3075 56.2594 81.8968 46.2499 71.498 42.3916V93.6101C81.8968 89.7515 89.3075 79.7421 89.3075 68.0007Z" fill="#6DA544"/>
</g>
<defs>
<clipPath id="clip0_8889_21471">
<rect width="54.6154" height="54.6154" fill="white" transform="translate(34.6924 40.6924)"/>
</clipPath>
</defs>
</svg>
