<svg width="274" height="274" viewBox="0 0 274 274" fill="none" xmlns="http://www.w3.org/2000/svg">
<path d="M157.73 49.8696C168.392 44.5106 181.301 50.1509 184.612 61.6151C186.763 69.0648 193.212 74.4695 200.923 75.2856C212.79 76.5415 220.6 88.2653 217.187 99.6997C214.97 107.13 217.473 115.163 223.519 120.019C232.822 127.491 233.054 141.576 224.001 149.35C218.119 154.402 215.881 162.513 218.342 169.867C222.13 181.183 214.71 193.157 202.891 194.803C195.211 195.872 188.943 201.486 187.038 209.003C184.106 220.57 171.39 226.632 160.558 221.627C153.519 218.374 145.211 219.709 139.545 225.002C130.825 233.148 116.85 231.373 110.443 221.306C106.28 214.764 98.5694 211.395 90.9407 212.785C79.2011 214.923 68.4044 205.874 68.4573 193.942C68.4917 186.187 63.8267 179.185 56.6578 176.229C45.6259 171.681 41.4351 158.232 47.9309 148.222C52.1521 141.717 52.0136 133.304 47.5806 126.942C40.7588 117.152 44.5045 103.572 55.3808 98.6629C62.4486 95.473 66.8805 88.3206 66.5909 80.5718C66.1451 68.6474 76.6381 59.2483 88.4418 60.9989C96.1121 62.1365 103.707 58.5156 107.653 51.8402C113.725 41.5678 127.634 39.3337 136.617 47.188C142.455 52.2919 150.802 53.3521 157.73 49.8696Z" fill="white"/>
<g clip-path="url(#clip0_8889_21486)">
<path d="M137 189.692C166.101 189.692 189.692 166.101 189.692 137C189.692 107.899 166.101 84.3076 137 84.3076C107.899 84.3076 84.3076 107.899 84.3076 137C84.3076 166.101 107.899 189.692 137 189.692Z" fill="#338AF3"/>
<path d="M136.999 111.799L142.686 129.3H161.088L146.2 140.117L151.887 157.618L136.999 146.802L122.111 157.618L127.798 140.117L112.91 129.3H131.312L136.999 111.799Z" fill="#F0F0F0"/>
</g>
<defs>
<clipPath id="clip0_8889_21486">
<rect width="105.385" height="105.385" fill="white" transform="translate(84.3076 84.3076)"/>
</clipPath>
</defs>
</svg>
