<svg width="237" height="211" viewBox="0 0 237 211" fill="none" xmlns="http://www.w3.org/2000/svg">
<path d="M136.931 17.6361C146.153 13.0007 157.319 17.8793 160.183 27.7954C162.044 34.2392 167.622 38.9141 174.292 39.62C184.556 40.7062 191.311 50.8469 188.36 60.7372C186.441 67.1642 188.606 74.1127 193.836 78.3125C201.883 84.7755 202.084 96.9587 194.254 103.683C189.165 108.053 187.23 115.069 189.359 121.429C192.634 131.217 186.216 141.575 175.994 142.998C169.351 143.923 163.93 148.779 162.282 155.281C159.746 165.286 148.747 170.529 139.377 166.2C133.289 163.387 126.103 164.541 121.201 169.119C113.659 176.165 101.571 174.63 96.0297 165.922C92.4286 160.264 85.7595 157.35 79.1609 158.552C69.0065 160.401 59.6678 152.574 59.7136 142.253C59.7433 135.546 55.7083 129.489 49.5075 126.933C39.9652 122.999 36.3403 111.365 41.959 102.707C45.6101 97.0811 45.4903 89.804 41.656 84.301C35.7553 75.8326 38.9953 64.0865 48.4029 59.8405C54.5162 57.0814 58.3497 50.8948 58.0992 44.1923C57.7136 33.8781 66.7897 25.7483 76.9994 27.2625C83.634 28.2464 90.2036 25.1145 93.6165 19.3406C98.8684 10.4553 110.899 8.5229 118.669 15.3165C123.719 19.7312 130.939 20.6483 136.931 17.6361Z" fill="white"/>
<g clip-path="url(#clip0_8889_21475)">
<path d="M118.999 138.576C144.17 138.576 164.576 118.17 164.576 92.9988C164.576 67.8274 144.17 47.4219 118.999 47.4219C93.8274 47.4219 73.4219 67.8274 73.4219 92.9988C73.4219 118.17 93.8274 138.576 118.999 138.576Z" fill="#F0F0F0"/>
<path d="M117.018 92.9971H164.576C164.576 88.8835 164.028 84.8983 163.006 81.1074H117.018V92.9971Z" fill="#D80027"/>
<path d="M117.018 69.2188H157.887C155.097 64.6661 151.529 60.642 147.37 57.3291H117.018V69.2188Z" fill="#D80027"/>
<path d="M118.999 138.576C129.725 138.576 139.584 134.869 147.37 128.668H90.6279C98.4134 134.869 108.272 138.576 118.999 138.576Z" fill="#D80027"/>
<path d="M80.1116 116.776H157.886C160.126 113.122 161.863 109.126 163.006 104.887H74.9922C76.1346 109.126 77.8717 113.122 80.1116 116.776Z" fill="#D80027"/>
<path d="M94.534 54.5394H98.6873L94.824 57.3461L96.2997 61.8876L92.4365 59.0808L88.5734 61.8876L89.8481 57.9642C86.4466 60.7976 83.4652 64.1173 81.0083 67.8161H82.3391L79.8799 69.6027C79.4968 70.2418 79.1293 70.8911 78.7772 71.5501L79.9515 75.1643L77.7606 73.5725C77.216 74.7264 76.7178 75.9062 76.2701 77.1106L77.5639 81.0929H82.3391L78.4758 83.8996L79.9515 88.4411L76.0883 85.6344L73.7742 87.3158C73.5426 89.1776 73.4219 91.0741 73.4219 92.9988H118.999C118.999 67.8275 118.999 64.86 118.999 47.4219C109.995 47.4219 101.602 50.0336 94.534 54.5394ZM96.2997 88.4411L92.4365 85.6344L88.5734 88.4411L90.0491 83.8996L86.1857 81.0929H90.961L92.4365 76.5514L93.9121 81.0929H98.6873L94.824 83.8996L96.2997 88.4411ZM94.824 70.6228L96.2997 75.1643L92.4365 72.3576L88.5734 75.1643L90.0491 70.6228L86.1857 67.8161H90.961L92.4365 63.2746L93.9121 67.8161H98.6873L94.824 70.6228ZM112.648 88.4411L108.785 85.6344L104.922 88.4411L106.397 83.8996L102.534 81.0929H107.309L108.785 76.5514L110.26 81.0929H115.036L111.172 83.8996L112.648 88.4411ZM111.172 70.6228L112.648 75.1643L108.785 72.3576L104.922 75.1643L106.397 70.6228L102.534 67.8161H107.309L108.785 63.2746L110.26 67.8161H115.036L111.172 70.6228ZM111.172 57.3461L112.648 61.8876L108.785 59.0808L104.922 61.8876L106.397 57.3461L102.534 54.5394H107.309L108.785 49.9979L110.26 54.5394H115.036L111.172 57.3461Z" fill="#0052B4"/>
</g>
<defs>
<clipPath id="clip0_8889_21475">
<rect width="91.1539" height="91.1539" fill="white" transform="translate(73.4219 47.4219)"/>
</clipPath>
</defs>
</svg>
