<svg width="253" height="314" viewBox="0 0 253 314" fill="none" xmlns="http://www.w3.org/2000/svg">
<path d="M157.775 118.936C166.954 121.974 171.118 132.601 166.447 141.066C163.412 146.567 164.01 153.358 167.96 158.244C174.039 165.762 171.797 176.953 163.291 181.549C157.763 184.535 154.595 190.572 155.277 196.818C156.326 206.429 148.389 214.631 138.749 213.899C132.484 213.423 126.555 216.788 123.752 222.411C119.439 231.064 108.328 233.673 100.613 227.845C95.6006 224.058 88.7934 223.683 83.3955 226.898C75.0888 231.845 64.3304 228.033 60.9919 218.96C58.8225 213.063 53.2983 209.068 47.0192 208.854C37.3565 208.525 30.3669 199.502 32.464 190.064C33.8267 183.93 31.3394 177.583 26.1727 174.008C18.2218 168.507 17.2202 157.138 24.0871 150.332C28.5493 145.909 29.8886 139.224 27.4747 133.424C23.7599 124.497 29.0643 114.391 38.5207 112.378C44.6657 111.07 49.4064 106.17 50.5117 99.9855C52.2125 90.4679 62.1388 84.8337 71.1824 88.2526C77.0592 90.4743 83.6961 88.9157 87.9697 84.3103C94.5461 77.2232 105.943 77.8499 111.702 85.6154C115.445 90.6617 121.871 92.9387 127.956 91.3748C137.32 88.9682 146.569 95.6569 147.216 105.304C147.636 111.572 151.811 116.962 157.775 118.936Z" fill="white"/>
<g clip-path="url(#clip0_8889_21468)">
<path d="M65.7919 187.165C82.4646 203.838 109.496 203.838 126.169 187.165C142.842 170.493 142.842 143.461 126.169 126.788C109.496 110.115 82.4646 110.115 65.7919 126.788C49.1193 143.461 49.1193 170.493 65.7919 187.165Z" fill="#F0F0F0"/>
<path d="M90.4115 114.65C84.9549 115.364 79.6108 117.132 74.7066 119.954L90.4115 135.658L90.4115 114.65Z" fill="#0052B4"/>
<path d="M133.005 178.251C135.827 173.347 137.595 168.003 138.309 162.546L117.3 162.546L133.005 178.251Z" fill="#0052B4"/>
<path d="M58.9551 135.705C56.1334 140.609 54.3655 145.953 53.6516 151.41L74.6596 151.41L58.9551 135.705Z" fill="#0052B4"/>
<path d="M138.306 151.407C137.593 145.95 135.825 140.606 133.003 135.702L117.298 151.407L138.306 151.407Z" fill="#0052B4"/>
<path d="M53.6523 162.546C54.3662 168.003 56.1341 173.347 58.9558 178.251L74.6604 162.546L53.6523 162.546Z" fill="#0052B4"/>
<path d="M117.254 119.953C112.35 117.132 107.006 115.364 101.549 114.65L101.549 135.658L117.254 119.953Z" fill="#0052B4"/>
<path d="M74.7075 194.001C79.6117 196.822 84.9558 198.59 90.4121 199.304L90.4121 178.296L74.7075 194.001Z" fill="#0052B4"/>
<path d="M101.549 178.296L101.549 199.304C107.005 198.59 112.349 196.822 117.253 194.001L101.549 178.296Z" fill="#0052B4"/>
<path d="M129.851 182.972L103.856 156.977L103.856 156.977L129.851 130.981C128.73 129.525 127.504 128.123 126.169 126.788C124.834 125.453 123.433 124.227 121.976 123.106L95.9807 149.101L95.9806 149.101L69.9852 123.106C68.5284 124.227 67.1265 125.454 65.7919 126.788C64.4571 128.123 63.231 129.525 62.1099 130.981L88.105 156.976L88.1052 156.977L62.1097 182.972C63.231 184.429 64.4571 185.83 65.7919 187.165C67.1265 188.5 68.5282 189.726 69.9851 190.847L95.9802 164.852L95.9804 164.852L121.976 190.847C123.433 189.726 124.834 188.5 126.169 187.165C127.504 185.831 128.73 184.429 129.851 182.972Z" fill="#D80027"/>
<path d="M95.9803 172.728L95.9804 199.67C97.2193 199.67 98.4578 199.614 99.693 199.506L99.693 176.44L95.9805 172.728L95.9803 172.728Z" fill="#D80027"/>
<path d="M80.2291 156.976L80.2289 156.976L53.2868 156.976C53.2865 158.215 53.343 159.453 53.4503 160.689L76.517 160.688L80.2291 156.976Z" fill="#D80027"/>
<path d="M95.9802 141.226L95.9805 141.226L95.9806 114.283C94.7417 114.283 93.5031 114.34 92.268 114.447L92.268 137.514L95.9803 141.226L95.9802 141.226Z" fill="#D80027"/>
<path d="M111.731 156.977L138.673 156.977C138.674 155.738 138.617 154.5 138.51 153.265L115.443 153.265L111.731 156.977Z" fill="#D80027"/>
</g>
<defs>
<clipPath id="clip0_8889_21468">
<rect width="85.3861" height="85.3861" fill="white" transform="translate(95.9805 96.5996) rotate(45)"/>
</clipPath>
</defs>
</svg>
