<svg width="174" height="174" viewBox="0 0 174 174" fill="none" xmlns="http://www.w3.org/2000/svg">
<path d="M100.164 31.6694C106.935 28.2662 115.132 31.8479 117.235 39.1281C118.601 43.859 122.697 47.2912 127.594 47.8094C135.129 48.6069 140.089 56.052 137.922 63.3132C136.514 68.0318 138.103 73.1332 141.942 76.2166C147.851 80.9616 147.998 89.9062 142.249 94.8431C138.513 98.0513 137.093 103.202 138.655 107.872C141.06 115.058 136.348 122.662 128.843 123.707C123.966 124.386 119.986 127.952 118.776 132.725C116.914 140.07 108.839 143.92 101.96 140.742C97.4901 138.676 92.2143 139.523 88.6159 142.885C83.0784 148.058 74.2039 146.931 70.1354 140.538C67.4915 136.383 62.5952 134.244 57.7507 135.126C50.2956 136.484 43.4393 130.738 43.4729 123.16C43.4947 118.236 40.5323 113.789 35.9798 111.912C28.9741 109.024 26.3128 100.483 30.4379 94.1267C33.1185 89.9961 33.0305 84.6534 30.2154 80.6133C25.8833 74.3959 28.262 65.7722 35.1688 62.6549C39.6571 60.6292 42.4716 56.0871 42.2876 51.1663C42.0046 43.5939 48.668 37.6251 56.1638 38.7368C61.0347 39.4592 65.858 37.1598 68.3636 32.9208C72.2195 26.3974 81.0521 24.9787 86.7569 29.9664C90.464 33.2076 95.7648 33.8808 100.164 31.6694Z" fill="white"/>
<g clip-path="url(#clip0_8889_21484)">
<path d="M111.938 109.309C117.237 103.388 120.461 95.5718 120.461 87.0009C120.461 78.4301 117.237 70.6133 111.938 64.6932L86.9996 62.2686L62.0614 64.6932C56.762 70.6133 53.5381 78.4301 53.5381 87.0009C53.5381 95.5718 56.7619 103.388 62.0612 109.309L86.9996 111.733L111.938 109.309Z" fill="#FFDA44"/>
<path d="M62.0625 64.6919H111.939C105.812 57.847 96.9102 53.5381 87.0008 53.5381C77.0913 53.5381 68.1894 57.847 62.0625 64.6919Z" fill="black"/>
<path d="M53.5381 86.9996L86.9996 89.9093L120.461 86.9996C120.461 83.0883 119.788 79.3346 118.554 75.8457H55.4449C54.2114 79.3346 53.5381 83.0883 53.5381 86.9996H53.5381Z" fill="#D80027"/>
<path d="M55.4449 98.1538H118.555C119.788 94.6649 120.461 90.9113 120.461 87H53.5381C53.5381 90.9113 54.2114 94.6649 55.4449 98.1538Z" fill="black"/>
<path d="M111.939 109.308H62.0625C68.1894 116.153 77.0913 120.462 87.0009 120.462C96.9105 120.462 105.812 116.153 111.939 109.308Z" fill="#D80027"/>
<path d="M98.1659 86.9999C98.1659 93.1672 93.1672 98.1659 86.9999 98.1659C80.8327 98.1659 75.834 93.1672 75.834 86.9999C75.834 80.8327 80.8327 75.834 86.9999 75.834C93.1672 75.834 98.1659 80.8327 98.1659 86.9999Z" fill="#F0F0F0"/>
<path d="M91.0899 87.5696L86.9994 85.7971C86.9994 85.7971 87.9565 82.6204 88.0074 82.4031C88.0447 82.2443 88.0645 82.0786 88.0645 81.9085C88.0645 81.3058 87.8203 80.7602 87.4253 80.3654L88.4539 79.3368C87.7958 78.6786 86.8865 78.2715 85.8821 78.2715C84.8777 78.2715 83.9684 78.6785 83.3103 79.3368L84.3389 80.3654C83.9439 80.7603 83.6998 81.3059 83.6998 81.9085C83.6998 82.1288 83.7331 82.3412 83.7939 82.5419L82.2451 84.0905H85.0601C85.0601 84.0905 83.8962 85.8386 83.2609 87.2742C82.6255 88.7097 83.2696 90.4621 84.738 91.1148L85.5871 91.4922L86.9994 92.8197V94.2745L85.5446 95.7293H88.4543V92.8195L89.7819 91.4919H92.5279C92.5411 91.4646 92.5549 91.4379 92.5675 91.41C93.2199 89.9417 92.5585 88.2221 91.0899 87.5696Z" fill="black"/>
</g>
<defs>
<clipPath id="clip0_8889_21484">
<rect width="66.9231" height="66.9231" fill="white" transform="translate(53.5381 53.5381)"/>
</clipPath>
</defs>
</svg>
