<svg width="150" height="186" viewBox="0 0 150 186" fill="none" xmlns="http://www.w3.org/2000/svg">
<path d="M54.0987 41.1337C62.8926 36.7135 73.5399 41.3657 76.2709 50.8215C78.0456 56.9662 83.3647 61.4241 89.725 62.0972C99.5127 63.1331 105.955 72.8031 103.14 82.2344C101.311 88.3631 103.375 94.9891 108.362 98.994C116.036 105.157 116.227 116.775 108.76 123.187C103.908 127.354 102.063 134.044 104.093 140.109C107.216 149.443 101.096 159.32 91.348 160.677C85.0133 161.559 79.8438 166.19 78.2723 172.39C75.8541 181.93 65.3657 186.93 56.4311 182.802C50.6251 180.119 43.7727 181.22 39.0989 185.586C31.9065 192.305 20.3798 190.841 15.0954 182.537C11.6615 177.141 5.30184 174.363 -0.990472 175.509C-10.6735 177.272 -19.5788 169.809 -19.5352 159.967C-19.5068 153.571 -23.3546 147.795 -29.2676 145.357C-38.367 141.606 -41.8236 130.513 -36.4657 122.256C-32.984 116.891 -33.0983 109.952 -36.7547 104.704C-42.3814 96.6291 -39.2918 85.4281 -30.3209 81.3793C-24.4913 78.7482 -20.8358 72.8487 -21.0747 66.4574C-21.4423 56.6219 -12.7875 48.8694 -3.05162 50.3133C3.275 51.2516 9.53972 48.265 12.7942 42.7591C17.8024 34.2862 29.2746 32.4435 36.6843 38.9218C41.4993 43.1316 48.3842 44.0061 54.0987 41.1337Z" fill="white"/>
<g clip-path="url(#clip0_8889_21481)">
<path d="M36.9996 156.461C61.0028 156.461 80.4612 137.003 80.4612 113C80.4612 88.9965 61.0028 69.5381 36.9996 69.5381C12.9965 69.5381 -6.46191 88.9965 -6.46191 113C-6.46191 137.003 12.9965 156.461 36.9996 156.461Z" fill="#F0F0F0"/>
<path d="M80.4608 113C80.4608 94.3135 68.6664 78.383 52.1162 72.2422V153.759C68.6664 147.618 80.4608 131.687 80.4608 113Z" fill="#D80027"/>
<path d="M-6.46191 113C-6.46191 131.687 5.33263 147.618 21.8826 153.759V72.2422C5.33263 78.383 -6.46191 94.3135 -6.46191 113Z" fill="#0052B4"/>
</g>
<defs>
<clipPath id="clip0_8889_21481">
<rect width="86.9231" height="86.9231" fill="white" transform="translate(-6.46191 69.5381)"/>
</clipPath>
</defs>
</svg>
