<svg width="148" height="148" viewBox="0 0 148 148" fill="none" xmlns="http://www.w3.org/2000/svg">
<path d="M85.1287 27.2298C90.8518 24.3531 97.7811 27.3808 99.5584 33.5347C100.713 37.5336 104.175 40.4348 108.314 40.8729C114.684 41.547 118.877 47.8403 117.045 53.9781C115.854 57.9667 117.198 62.2789 120.443 64.8853C125.438 68.8962 125.562 76.457 120.703 80.6301C117.545 83.3419 116.344 87.696 117.665 91.6432C119.698 97.7175 115.715 104.145 109.371 105.029C105.248 105.603 101.884 108.616 100.861 112.651C99.2872 118.86 92.4613 122.114 86.6466 119.428C82.8681 117.682 78.4085 118.398 75.3668 121.239C70.686 125.612 63.1844 124.659 59.7454 119.255C57.5106 115.744 53.3717 113.935 49.2767 114.681C42.9749 115.829 37.1793 110.972 37.2078 104.566C37.2262 100.404 34.7221 96.6451 30.8739 95.0586C24.952 92.6172 22.7025 85.3977 26.1894 80.0245C28.4553 76.5329 28.3809 72.0168 26.0013 68.6017C22.3394 63.3463 24.3501 56.0567 30.1884 53.4216C33.9823 51.7093 36.3614 47.87 36.2059 43.7105C35.9666 37.3095 41.5992 32.2642 47.9353 33.2039C52.0526 33.8145 56.1297 31.8709 58.2477 28.2876C61.5071 22.7735 68.9732 21.5742 73.7954 25.7903C76.929 28.53 81.4097 29.0992 85.1287 27.2298Z" fill="white"/>
<g clip-path="url(#clip0_8889_21469)">
<path d="M73.9996 102.284C89.6209 102.284 102.284 89.6209 102.284 73.9996C102.284 58.3784 89.6209 45.7148 73.9996 45.7148C58.3784 45.7148 45.7148 58.3784 45.7148 73.9996C45.7148 89.6209 58.3784 102.284 73.9996 102.284Z" fill="#F0F0F0"/>
<path d="M73.9997 45.7148C62.7859 45.7148 53.0965 52.2408 48.5215 61.7019H99.4777C94.9028 52.2408 85.2134 45.7148 73.9997 45.7148Z" fill="black"/>
<path d="M73.9997 102.284C62.7859 102.284 53.0965 95.758 48.5215 86.2969H99.4777C94.9028 95.758 85.2134 102.284 73.9997 102.284Z" fill="#496E2D"/>
<path d="M100.949 65.3906H47.0505C46.1841 68.1052 45.7148 70.9972 45.7148 73.999C45.7148 77.0009 46.1841 79.8929 47.0505 82.6074H100.949C101.815 79.8929 102.284 77.0009 102.284 73.999C102.284 70.9972 101.815 68.1052 100.949 65.3906Z" fill="#A2001D"/>
<path d="M82.8074 58.7863L79.4577 57.2402L73.9999 69.5984L68.542 57.2402L65.1924 58.7863L71.9684 74.0003L65.1924 89.2143L68.542 90.7604L73.9999 78.4022L79.4577 90.7604L82.8074 89.2143L76.0314 74.0003L82.8074 58.7863Z" fill="#F0F0F0"/>
<path d="M76.2747 60.2439C74.978 58.8277 73.9997 58.0137 73.9997 58.0137C73.9997 58.0137 73.0213 58.8276 71.7246 60.2439V87.7574C73.0213 89.1738 73.9997 89.9879 73.9997 89.9879C73.9997 89.9879 74.978 89.1739 76.2747 87.7576V60.2439Z" fill="#F0F0F0"/>
<path d="M67.8506 65.5186V82.4798C69.2209 84.9078 70.8979 86.8979 72.1548 88.2173V59.7812C70.8979 61.1006 69.2207 63.0908 67.8506 65.5186Z" fill="#A2001D"/>
<path d="M80.148 65.5186C78.7776 63.0907 77.1007 61.1006 75.8438 59.7812V88.2173C77.1005 86.8979 78.7776 84.9078 80.148 82.4798V65.5186Z" fill="#A2001D"/>
<path d="M80.1494 65.5186V82.4797C81.5366 80.0215 82.609 77.1147 82.609 73.9992C82.609 70.8838 81.5366 67.9769 80.1494 65.5186Z" fill="black"/>
<path d="M67.8512 65.5195V82.4807C66.464 80.0224 65.3916 77.1156 65.3916 74.0002C65.3916 70.8848 66.464 67.9779 67.8512 65.5195Z" fill="black"/>
</g>
<defs>
<clipPath id="clip0_8889_21469">
<rect width="56.5696" height="56.5696" fill="white" transform="translate(45.7148 45.7148)"/>
</clipPath>
</defs>
</svg>
