<svg width="156" height="156" viewBox="0 0 156 156" fill="none" xmlns="http://www.w3.org/2000/svg">
<path d="M89.8028 28.393C95.8729 25.3419 103.222 28.5531 105.107 35.0802C106.332 39.3217 110.004 42.3988 114.394 42.8634C121.15 43.5784 125.597 50.2533 123.654 56.7634C122.392 60.9938 123.817 65.5675 127.259 68.332C132.556 72.5861 132.688 80.6054 127.534 85.0316C124.185 87.9078 122.911 92.5259 124.312 96.7125C126.468 103.155 122.244 109.973 115.515 110.91C111.142 111.519 107.574 114.715 106.489 118.994C104.82 125.58 97.58 129.032 91.4127 126.182C87.405 124.33 82.6751 125.09 79.4489 128.103C74.4842 132.741 66.5277 131.731 62.8801 125.999C60.5098 122.274 56.12 120.356 51.7766 121.147C45.0927 122.365 38.9457 117.213 38.9758 110.419C38.9954 106.005 36.3394 102.018 32.2579 100.335C25.9769 97.7455 23.5909 90.0883 27.2893 84.3893C29.6926 80.6859 29.6137 75.896 27.0898 72.2737C23.2059 66.6996 25.3385 58.9679 31.5308 56.1731C35.5548 54.357 38.0781 50.2848 37.9132 45.8731C37.6594 39.084 43.6335 33.7327 50.3539 34.7294C54.7209 35.3771 59.0452 33.3155 61.2917 29.515C64.7486 23.6664 72.6675 22.3945 77.7822 26.8662C81.1058 29.7721 85.8582 30.3757 89.8028 28.393Z" fill="white"/>
<g clip-path="url(#clip0_8889_21485)">
<path d="M78 108C94.5685 108 108 94.5685 108 78C108 61.4315 94.5685 48 78 48C61.4315 48 48 61.4315 48 78C48 94.5685 61.4315 108 78 108Z" fill="#F0F0F0"/>
<path d="M48 77.9998C48 89.3711 54.3268 99.2639 63.6521 104.352V51.6475C54.3268 56.7356 48 66.6285 48 77.9998Z" fill="#F0F0F0"/>
<path d="M78.0002 48C72.8029 48 67.9146 49.3222 63.6523 51.6477V104.352C67.9146 106.678 72.8029 108 78.0002 108C94.5686 108 108 94.5684 108 78C108 61.4316 94.5686 48 78.0002 48Z" fill="#496E2D"/>
<path d="M90.8263 82.9612C87.0309 85.7035 81.731 84.8499 78.9888 81.0546C76.2464 77.2592 77.1001 71.9594 80.8954 69.2172C82.0788 68.3622 83.4084 67.8567 84.7611 67.6811C82.1587 67.2919 79.4077 67.8783 77.1065 69.5411C72.4354 72.9163 71.3846 79.4391 74.7597 84.1104C78.1348 88.7814 84.6577 89.8323 89.3291 86.4569C91.6305 84.7941 93.0509 82.3668 93.4984 79.7735C92.907 81.0024 92.0097 82.106 90.8263 82.9612Z" fill="#F0F0F0"/>
<path d="M90.6633 67.5654L92.8012 69.8695L95.6531 68.5485L94.1223 71.2935L96.2602 73.5978L93.1762 72.9902L91.6455 75.7354L91.2704 72.6147L88.1865 72.0071L91.0385 70.6861L90.6633 67.5654Z" fill="#F0F0F0"/>
</g>
<defs>
<clipPath id="clip0_8889_21485">
<rect width="60" height="60" fill="white" transform="translate(48 48)"/>
</clipPath>
</defs>
</svg>
