<svg width="356" height="206" viewBox="0 0 356 206" fill="none" xmlns="http://www.w3.org/2000/svg">
<path d="M174.914 -66.7544C184.346 -75.1537 199.088 -72.9236 205.613 -62.1104C209.853 -55.0837 217.927 -51.3248 226.034 -52.6029C238.509 -54.5696 249.705 -44.7234 249.349 -32.0989C249.117 -23.8951 253.876 -16.3682 261.387 -13.0604C272.946 -7.97016 277.041 6.36602 269.916 16.7937C265.286 23.5698 265.22 32.4752 269.751 39.3186C276.722 49.8497 272.417 64.1242 260.785 69.0443C253.226 72.2414 248.357 79.6978 248.468 87.904C248.639 100.532 237.3 110.213 224.855 108.064C216.767 106.667 208.64 110.307 204.297 117.27C197.613 127.987 182.84 130 173.533 121.463C167.484 115.916 158.679 114.584 151.261 118.094C139.845 123.496 126.328 117.203 123.113 104.989C121.024 97.0527 114.337 91.1715 106.198 90.1138C93.6742 88.4861 85.7057 75.8845 89.6046 63.8718C92.1382 56.0656 89.692 47.5026 83.4172 42.2128C73.7611 34.0724 73.8705 19.1631 83.645 11.1652C89.9967 5.96804 92.5684 -2.55815 90.1496 -10.4007C86.4274 -22.4693 94.58 -34.9526 107.127 -36.3963C115.28 -37.3345 122.053 -43.1168 124.258 -51.0221C127.652 -63.1872 141.259 -69.2812 152.595 -63.7124C159.961 -60.0937 168.785 -61.2964 174.914 -66.7544Z" fill="white"/>
<g clip-path="url(#clip0_8889_21483)">
<path d="M192.022 81.8692C221.773 73.8974 239.429 43.3171 231.457 13.5661C223.485 -16.1849 192.905 -33.8405 163.154 -25.8687C133.403 -17.897 115.748 12.6834 123.719 42.4344C131.691 72.1854 162.271 89.8409 192.022 81.8692Z" fill="#F0F0F0"/>
<path d="M129.343 55.9912C135.558 66.7208 145.113 74.9036 156.252 79.526L148.566 50.8403L129.343 55.9912Z" fill="#D80027"/>
<path d="M187.287 82.9197C188.866 82.639 190.447 82.2925 192.026 81.8695C216.915 75.2006 233.334 52.7084 233.37 28.1165L176.673 43.3086L187.287 82.9197Z" fill="#D80027"/>
<path d="M225.839 0.0107622C213.512 -21.2685 188.046 -32.5374 163.157 -25.8684C161.578 -25.4454 160.036 -24.9551 158.528 -24.4083L169.141 15.2028L225.839 0.0107622Z" fill="#D80027"/>
<path d="M133.348 -5.95071C126.013 3.62206 121.829 15.4859 121.811 27.8858L141.035 22.7349L133.348 -5.95071Z" fill="#D80027"/>
<path d="M229.119 6.66276L163.996 24.1125L163.996 24.1126L151.787 -21.4496C147.105 -19.0118 142.865 -15.9579 139.146 -12.4147L149.943 27.8776L149.943 27.8778L122.293 35.2865C122.61 37.667 123.082 40.0538 123.72 42.4352C124.358 44.8166 125.143 47.1197 126.059 49.3393L153.708 41.9307L153.708 41.9307L164.504 82.2232C169.496 83.4324 174.695 83.9574 179.969 83.7272L167.761 38.1658L167.761 38.1654L232.885 20.7156C232.568 18.3352 232.096 15.9483 231.458 13.5669C230.82 11.1855 230.035 8.88248 229.119 6.66276Z" fill="#0052B4"/>
</g>
<defs>
<clipPath id="clip0_8889_21483">
<rect width="111.538" height="111.538" fill="white" transform="translate(109.285 -11.4346) rotate(-15)"/>
</clipPath>
</defs>
</svg>
