<svg width="200" height="56" viewBox="0 0 200 56" fill="none" xmlns="http://www.w3.org/2000/svg">
<rect width="200" height="56" rx="28" fill="#FFD7C8"/>
<path d="M28.84 23.2H32.242C33.222 23.2 34.0853 23.41 34.832 23.83C35.588 24.2407 36.1667 24.8193 36.568 25.566C36.9787 26.3033 37.184 27.148 37.184 28.1C37.184 29.052 36.9787 29.9013 36.568 30.648C36.1667 31.3853 35.588 31.964 34.832 32.384C34.0853 32.7947 33.222 33 32.242 33H28.84V23.2ZM32.242 31.25C33.1287 31.25 33.8147 30.9653 34.3 30.396C34.7947 29.8173 35.042 29.052 35.042 28.1C35.042 27.148 34.7947 26.3873 34.3 25.818C33.8147 25.2393 33.1287 24.95 32.242 24.95H30.94V31.25H32.242ZM41.8387 33.084C41.0827 33.084 40.4153 32.9347 39.8367 32.636C39.2673 32.328 38.824 31.894 38.5067 31.334C38.1987 30.774 38.0447 30.13 38.0447 29.402C38.0447 28.674 38.1987 28.03 38.5067 27.47C38.824 26.91 39.2673 26.4807 39.8367 26.182C40.4153 25.874 41.0827 25.72 41.8387 25.72C42.5947 25.72 43.2573 25.874 43.8267 26.182C44.4053 26.4807 44.8487 26.91 45.1567 27.47C45.474 28.03 45.6327 28.674 45.6327 29.402C45.6327 30.1393 45.474 30.788 45.1567 31.348C44.8487 31.8987 44.4053 32.328 43.8267 32.636C43.2573 32.9347 42.5947 33.084 41.8387 33.084ZM41.8387 31.474C42.3893 31.474 42.8233 31.2827 43.1407 30.9C43.4673 30.5173 43.6307 30.018 43.6307 29.402C43.6307 28.786 43.4673 28.2867 43.1407 27.904C42.8233 27.5213 42.3893 27.33 41.8387 27.33C41.2973 27.33 40.8633 27.5213 40.5367 27.904C40.2193 28.2867 40.0607 28.786 40.0607 29.402C40.0607 30.018 40.2193 30.5173 40.5367 30.9C40.8633 31.2827 41.2973 31.474 41.8387 31.474ZM45.8281 25.804H47.9141L49.3561 30.872L50.7141 25.804H52.4921L53.8081 30.886L55.2781 25.804H57.2941L54.9281 33H52.8281L51.5681 28.66L50.2801 33H48.1801L45.8281 25.804ZM62.1148 25.72C62.9548 25.72 63.6455 25.9813 64.1868 26.504C64.7282 27.0267 64.9988 27.89 64.9988 29.094V33H63.0248V29.206C63.0248 27.9647 62.5395 27.344 61.5688 27.344C61.0555 27.344 60.6588 27.5167 60.3788 27.862C60.0988 28.2073 59.9588 28.6927 59.9588 29.318V33H57.9848V25.804H59.7068L59.8888 26.7C60.1408 26.392 60.4442 26.154 60.7988 25.986C61.1535 25.8087 61.5922 25.72 62.1148 25.72ZM66.2426 23.2H68.2166V33H66.2426V23.2ZM73.1063 33.084C72.3503 33.084 71.6829 32.9347 71.1043 32.636C70.5349 32.328 70.0916 31.894 69.7743 31.334C69.4663 30.774 69.3123 30.13 69.3123 29.402C69.3123 28.674 69.4663 28.03 69.7743 27.47C70.0916 26.91 70.5349 26.4807 71.1043 26.182C71.6829 25.874 72.3503 25.72 73.1063 25.72C73.8623 25.72 74.5249 25.874 75.0943 26.182C75.6729 26.4807 76.1163 26.91 76.4243 27.47C76.7416 28.03 76.9003 28.674 76.9003 29.402C76.9003 30.1393 76.7416 30.788 76.4243 31.348C76.1163 31.8987 75.6729 32.328 75.0943 32.636C74.5249 32.9347 73.8623 33.084 73.1063 33.084ZM73.1063 31.474C73.6569 31.474 74.0909 31.2827 74.4083 30.9C74.7349 30.5173 74.8983 30.018 74.8983 29.402C74.8983 28.786 74.7349 28.2867 74.4083 27.904C74.0909 27.5213 73.6569 27.33 73.1063 27.33C72.5649 27.33 72.1309 27.5213 71.8043 27.904C71.4869 28.2867 71.3283 28.786 71.3283 29.402C71.3283 30.018 71.4869 30.5173 71.8043 30.9C72.1309 31.2827 72.5649 31.474 73.1063 31.474ZM85.0708 31.334V33H84.0628C83.1574 33 82.7141 32.608 82.7328 31.824C82.4714 32.2347 82.1494 32.5473 81.7668 32.762C81.3841 32.9767 80.9221 33.084 80.3808 33.084C79.5781 33.084 78.9294 32.902 78.4348 32.538C77.9494 32.1647 77.7068 31.642 77.7068 30.97C77.7068 30.2047 77.9868 29.6167 78.5468 29.206C79.1161 28.786 79.9374 28.576 81.0108 28.576H82.4388V28.226C82.4388 27.8993 82.3174 27.6427 82.0748 27.456C81.8321 27.26 81.5054 27.162 81.0948 27.162C80.7308 27.162 80.4321 27.2413 80.1988 27.4C79.9654 27.5587 79.8254 27.7733 79.7788 28.044H77.8748C77.9401 27.3067 78.2668 26.7373 78.8548 26.336C79.4428 25.9253 80.2221 25.72 81.1928 25.72C82.2101 25.72 82.9941 25.944 83.5448 26.392C84.1048 26.84 84.3848 27.4887 84.3848 28.338V30.872C84.3848 31.0493 84.4221 31.1707 84.4968 31.236C84.5714 31.3013 84.6881 31.334 84.8468 31.334H85.0708ZM82.4388 29.892H80.9968C80.5861 29.892 80.2641 29.976 80.0308 30.144C79.8068 30.3027 79.6948 30.5313 79.6948 30.83C79.6948 31.082 79.7881 31.2827 79.9748 31.432C80.1708 31.5813 80.4321 31.656 80.7588 31.656C81.2721 31.656 81.6781 31.5113 81.9768 31.222C82.2754 30.9233 82.4294 30.5267 82.4388 30.032V29.892ZM93.0304 23.2V33H91.3084L91.1124 32.006C90.5618 32.7247 89.8151 33.084 88.8724 33.084C88.2378 33.084 87.6684 32.9347 87.1644 32.636C86.6604 32.328 86.2638 31.894 85.9744 31.334C85.6944 30.774 85.5544 30.1253 85.5544 29.388C85.5544 28.66 85.6944 28.0207 85.9744 27.47C86.2638 26.91 86.6604 26.4807 87.1644 26.182C87.6778 25.874 88.2518 25.72 88.8864 25.72C89.8198 25.72 90.5431 26.0467 91.0564 26.7V23.2H93.0304ZM89.3344 31.474C89.8664 31.474 90.2911 31.2873 90.6084 30.914C90.9258 30.5313 91.0844 30.032 91.0844 29.416C91.0844 28.7907 90.9258 28.2867 90.6084 27.904C90.2911 27.5213 89.8664 27.33 89.3344 27.33C88.8024 27.33 88.3731 27.5213 88.0464 27.904C87.7291 28.2867 87.5704 28.786 87.5704 29.402C87.5704 30.018 87.7291 30.5173 88.0464 30.9C88.3731 31.2827 88.8024 31.474 89.3344 31.474ZM104.963 31.334V33H103.955C103.05 33 102.607 32.608 102.625 31.824C102.364 32.2347 102.042 32.5473 101.659 32.762C101.277 32.9767 100.815 33.084 100.273 33.084C99.4707 33.084 98.822 32.902 98.3274 32.538C97.842 32.1647 97.5994 31.642 97.5994 30.97C97.5994 30.2047 97.8794 29.6167 98.4394 29.206C99.0087 28.786 99.83 28.576 100.903 28.576H102.331V28.226C102.331 27.8993 102.21 27.6427 101.967 27.456C101.725 27.26 101.398 27.162 100.987 27.162C100.623 27.162 100.325 27.2413 100.091 27.4C99.858 27.5587 99.718 27.7733 99.6714 28.044H97.7674C97.8327 27.3067 98.1594 26.7373 98.7474 26.336C99.3354 25.9253 100.115 25.72 101.085 25.72C102.103 25.72 102.887 25.944 103.437 26.392C103.997 26.84 104.277 27.4887 104.277 28.338V30.872C104.277 31.0493 104.315 31.1707 104.389 31.236C104.464 31.3013 104.581 31.334 104.739 31.334H104.963ZM102.331 29.892H100.889C100.479 29.892 100.157 29.976 99.9234 30.144C99.6994 30.3027 99.5874 30.5313 99.5874 30.83C99.5874 31.082 99.6807 31.2827 99.8674 31.432C100.063 31.5813 100.325 31.656 100.651 31.656C101.165 31.656 101.571 31.5113 101.869 31.222C102.168 30.9233 102.322 30.5267 102.331 30.032V29.892ZM109.885 25.72C110.529 25.72 111.098 25.874 111.593 26.182C112.097 26.4807 112.489 26.91 112.769 27.47C113.058 28.03 113.203 28.6787 113.203 29.416C113.203 30.1533 113.058 30.7973 112.769 31.348C112.489 31.8987 112.097 32.328 111.593 32.636C111.089 32.9347 110.515 33.084 109.871 33.084C108.947 33.084 108.224 32.7527 107.701 32.09V35.8H105.727V25.804H107.449L107.645 26.798C107.888 26.4713 108.196 26.21 108.569 26.014C108.952 25.818 109.39 25.72 109.885 25.72ZM109.423 31.474C109.955 31.474 110.384 31.2827 110.711 30.9C111.038 30.508 111.201 30.004 111.201 29.388C111.201 28.772 111.038 28.2773 110.711 27.904C110.384 27.5213 109.955 27.33 109.423 27.33C108.891 27.33 108.466 27.5213 108.149 27.904C107.832 28.2773 107.673 28.772 107.673 29.388C107.673 30.0133 107.832 30.5173 108.149 30.9C108.466 31.2827 108.891 31.474 109.423 31.474ZM118.457 25.72C119.101 25.72 119.671 25.874 120.165 26.182C120.669 26.4807 121.061 26.91 121.341 27.47C121.631 28.03 121.775 28.6787 121.775 29.416C121.775 30.1533 121.631 30.7973 121.341 31.348C121.061 31.8987 120.669 32.328 120.165 32.636C119.661 32.9347 119.087 33.084 118.443 33.084C117.519 33.084 116.796 32.7527 116.273 32.09V35.8H114.299V25.804H116.021L116.217 26.798C116.46 26.4713 116.768 26.21 117.141 26.014C117.524 25.818 117.963 25.72 118.457 25.72ZM117.995 31.474C118.527 31.474 118.957 31.2827 119.283 30.9C119.61 30.508 119.773 30.004 119.773 29.388C119.773 28.772 119.61 28.2773 119.283 27.904C118.957 27.5213 118.527 27.33 117.995 27.33C117.463 27.33 117.039 27.5213 116.721 27.904C116.404 28.2773 116.245 28.772 116.245 29.388C116.245 30.0133 116.404 30.5173 116.721 30.9C117.039 31.2827 117.463 31.474 117.995 31.474Z" fill="#FE5719"/>
<path fill-rule="evenodd" clip-rule="evenodd" d="M145.308 21.7365C146.031 21.0116 146.52 20.0045 146.387 19C145.344 19.0349 144.081 19.5728 143.334 20.2974C142.663 20.9397 142.076 21.9653 142.233 22.9496C143.396 23.0241 144.584 22.4605 145.308 21.7365ZM147.527 28.6702C147.505 26.4186 149.43 25.3381 149.517 25.285C148.434 23.7568 146.748 23.5474 146.148 23.5241C144.714 23.383 143.349 24.3384 142.621 24.3384C141.895 24.3384 140.772 23.5429 139.582 23.564C138.018 23.5879 136.576 24.4412 135.772 25.7937C134.147 28.5139 135.355 32.5447 136.939 34.7508C137.713 35.8313 138.635 37.0429 139.846 36.9988C141.014 36.9555 141.455 36.2709 142.865 36.2709C144.275 36.2709 144.671 36.9988 145.905 36.9769C147.16 36.9555 147.956 35.876 148.724 34.7927C149.612 33.5406 149.978 32.3275 150 32.2659C149.972 32.2524 147.553 31.3597 147.527 28.6702Z" fill="#FE5719"/>
<path d="M160.079 19.8506C160.033 20.0017 160 20.1638 160 20.3497V35.6515C160 35.8349 160.032 35.9962 160.077 36.1453L169.459 28.0088L160.079 19.8506Z" fill="#FE5719"/>
<path d="M162.168 19.2563C161.732 19.0126 161.301 18.9516 160.938 19.0357L170.359 27.2301L173.122 24.834L162.168 19.2563Z" fill="#FE5719"/>
<path d="M177.161 26.8903L174.237 25.4014L171.242 27.9984L174.293 30.6524L177.138 29.2223C178.526 28.4983 178.019 27.3318 177.161 26.8903Z" fill="#FE5719"/>
<path d="M170.339 28.7773L160.906 36.957C161.275 37.0517 161.716 36.9955 162.164 36.7455L173.152 31.2235L170.339 28.7773Z" fill="#FE5719"/>
</svg>
