<svg width="81" height="87" viewBox="0 0 81 87" fill="none" xmlns="http://www.w3.org/2000/svg">
<g clip-path="url(#clip0_9689_4250)">
<path d="M36.9996 86.9231C61.0028 86.9231 80.4612 67.4647 80.4612 43.4615C80.4612 19.4584 61.0028 0 36.9996 0C12.9965 0 -6.46191 19.4584 -6.46191 43.4615C-6.46191 67.4647 12.9965 86.9231 36.9996 86.9231Z" fill="#F0F0F0"/>
<path d="M80.4608 43.4614C80.4608 24.7745 68.6664 8.84393 52.1162 2.70312V84.2198C68.6664 78.0788 80.4608 62.1483 80.4608 43.4614V43.4614Z" fill="#D80027"/>
<path d="M-6.46191 43.4614C-6.46191 62.1483 5.33263 78.0788 21.8826 84.2196V2.70312C5.33263 8.84393 -6.46191 24.7745 -6.46191 43.4614Z" fill="#0052B4"/>
</g>
<defs>
<clipPath id="clip0_9689_4250">
<rect width="86.9231" height="86.9231" fill="white" transform="translate(-6.46191)"/>
</clipPath>
</defs>
</svg>
