<svg width="189" height="61" viewBox="0 0 189 61" fill="none" xmlns="http://www.w3.org/2000/svg">
<path d="M25.5439 2.22117C28.0036 -0.740392 32.5485 -0.740391 35.0083 2.22118C36.6067 4.14568 39.2114 4.91049 41.5965 4.15566C45.267 2.99408 49.0904 5.45123 49.5585 9.2725C49.8627 11.7557 51.6404 13.8073 54.055 14.4618C57.7708 15.469 59.6588 19.6031 57.9867 23.0709C56.9001 25.3243 57.2864 28.0114 58.9639 29.8674C61.5452 32.7236 60.8984 37.2222 57.6169 39.2355C55.4845 40.5437 54.3568 43.0131 54.7645 45.4813C55.3919 49.2797 52.4157 52.7145 48.5667 52.6341C46.0655 52.5818 43.7818 54.0494 42.7903 56.3463C41.2646 59.8809 36.9038 61.1613 33.7093 59.0127C31.6334 57.6165 28.9188 57.6165 26.8429 59.0127C23.6484 61.1613 19.2876 59.8809 17.7619 56.3463C16.7704 54.0494 14.4867 52.5818 11.9855 52.6341C8.13649 52.7145 5.16023 49.2797 5.78763 45.4813C6.19534 43.0131 5.06763 40.5437 2.93523 39.2355C-0.346252 37.2222 -0.993056 32.7236 1.58831 29.8674C3.26575 28.0114 3.65208 25.3243 2.5655 23.0709C0.89338 19.6031 2.78139 15.469 6.49715 14.4618C8.91175 13.8073 10.6895 11.7557 10.9937 9.2725C11.4618 5.45123 15.2852 2.99408 18.9556 4.15566C21.3408 4.91049 23.9455 4.14568 25.5439 2.22117Z" fill="white"/>
<path d="M137.544 2.22117C140.004 -0.740392 144.549 -0.740391 147.008 2.22118C148.607 4.14568 151.211 4.91049 153.597 4.15566C157.267 2.99408 161.09 5.45123 161.558 9.2725C161.863 11.7557 163.64 13.8073 166.055 14.4618C169.771 15.469 171.659 19.6031 169.987 23.0709C168.9 25.3243 169.286 28.0114 170.964 29.8674C173.545 32.7236 172.898 37.2222 169.617 39.2355C167.485 40.5437 166.357 43.0131 166.765 45.4813C167.392 49.2797 164.416 52.7145 160.567 52.6341C158.065 52.5818 155.782 54.0494 154.79 56.3463C153.265 59.8809 148.904 61.1613 145.709 59.0127C143.633 57.6165 140.919 57.6165 138.843 59.0127C135.648 61.1613 131.288 59.8809 129.762 56.3463C128.77 54.0494 126.487 52.5818 123.985 52.6341C120.136 52.7145 117.16 49.2797 117.788 45.4813C118.195 43.0131 117.068 40.5437 114.935 39.2355C111.654 37.2222 111.007 32.7236 113.588 29.8674C115.266 28.0114 115.652 25.3243 114.565 23.0709C112.893 19.6031 114.781 15.469 118.497 14.4618C120.912 13.8073 122.689 11.7557 122.994 9.2725C123.462 5.45123 127.285 2.99408 130.956 4.15566C133.341 4.91049 135.945 4.14568 137.544 2.22117Z" fill="white"/>
<path d="M153.544 2.22117C156.004 -0.740392 160.549 -0.740391 163.008 2.22118C164.607 4.14568 167.211 4.91049 169.597 4.15566C173.267 2.99408 177.09 5.45123 177.558 9.2725C177.863 11.7557 179.64 13.8073 182.055 14.4618C185.771 15.469 187.659 19.6031 185.987 23.0709C184.9 25.3243 185.286 28.0114 186.964 29.8674C189.545 32.7236 188.898 37.2222 185.617 39.2355C183.485 40.5437 182.357 43.0131 182.765 45.4813C183.392 49.2797 180.416 52.7145 176.567 52.6341C174.065 52.5818 171.782 54.0494 170.79 56.3463C169.265 59.8809 164.904 61.1613 161.709 59.0127C159.633 57.6165 156.919 57.6165 154.843 59.0127C151.648 61.1613 147.288 59.8809 145.762 56.3463C144.77 54.0494 142.487 52.5818 139.985 52.6341C136.136 52.7145 133.16 49.2797 133.788 45.4813C134.195 43.0131 133.068 40.5437 130.935 39.2355C127.654 37.2222 127.007 32.7236 129.588 29.8674C131.266 28.0114 131.652 25.3243 130.565 23.0709C128.893 19.6031 130.781 15.469 134.497 14.4618C136.912 13.8073 138.689 11.7557 138.994 9.2725C139.462 5.45123 143.285 2.99408 146.956 4.15566C149.341 4.91049 151.945 4.14568 153.544 2.22117Z" fill="white"/>
<path d="M41.5439 2.22117C44.0036 -0.740392 48.5485 -0.740391 51.0083 2.22118C52.6067 4.14568 55.2114 4.91049 57.5965 4.15566C61.267 2.99408 65.0904 5.45123 65.5585 9.2725C65.8627 11.7557 67.6404 13.8073 70.055 14.4618C73.7708 15.469 75.6588 19.6031 73.9867 23.0709C72.9001 25.3243 73.2864 28.0114 74.9639 29.8674C77.5452 32.7236 76.8984 37.2222 73.6169 39.2355C71.4846 40.5437 70.3568 43.0131 70.7645 45.4813C71.3919 49.2797 68.4157 52.7145 64.5667 52.6341C62.0655 52.5818 59.7818 54.0494 58.7903 56.3463C57.2646 59.8809 52.9038 61.1613 49.7093 59.0127C47.6334 57.6165 44.9188 57.6165 42.8429 59.0127C39.6484 61.1613 35.2876 59.8809 33.7619 56.3463C32.7704 54.0494 30.4867 52.5818 27.9855 52.6341C24.1365 52.7145 21.1602 49.2797 21.7876 45.4813C22.1953 43.0131 21.0676 40.5437 18.9352 39.2355C15.6537 37.2222 15.0069 32.7236 17.5883 29.8674C19.2657 28.0114 19.6521 25.3243 18.5655 23.0709C16.8934 19.6031 18.7814 15.469 22.4971 14.4618C24.9117 13.8073 26.6895 11.7557 26.9937 9.2725C27.4618 5.45123 31.2852 2.99408 34.9556 4.15566C37.3408 4.91049 39.9455 4.14568 41.5439 2.22117Z" fill="white"/>
<path d="M57.5439 2.22117C60.0036 -0.740392 64.5485 -0.740391 67.0083 2.22118C68.6067 4.14568 71.2114 4.91049 73.5965 4.15566C77.267 2.99408 81.0904 5.45123 81.5585 9.2725C81.8627 11.7557 83.6404 13.8073 86.055 14.4618C89.7708 15.469 91.6588 19.6031 89.9867 23.0709C88.9001 25.3243 89.2864 28.0114 90.9639 29.8674C93.5452 32.7236 92.8984 37.2222 89.6169 39.2355C87.4846 40.5437 86.3568 43.0131 86.7645 45.4813C87.3919 49.2797 84.4157 52.7145 80.5667 52.6341C78.0655 52.5818 75.7818 54.0494 74.7903 56.3463C73.2646 59.8809 68.9038 61.1613 65.7093 59.0127C63.6334 57.6165 60.9188 57.6165 58.8429 59.0127C55.6484 61.1613 51.2876 59.8809 49.7619 56.3463C48.7704 54.0494 46.4867 52.5818 43.9855 52.6341C40.1365 52.7145 37.1602 49.2797 37.7876 45.4813C38.1953 43.0131 37.0676 40.5437 34.9352 39.2355C31.6537 37.2222 31.0069 32.7236 33.5883 29.8674C35.2657 28.0114 35.6521 25.3243 34.5655 23.0709C32.8934 19.6031 34.7814 15.469 38.4971 14.4618C40.9117 13.8073 42.6895 11.7557 42.9937 9.2725C43.4618 5.45123 47.2852 2.99408 50.9556 4.15566C53.3408 4.91049 55.9455 4.14568 57.5439 2.22117Z" fill="white"/>
<path d="M73.5439 2.22117C76.0036 -0.740392 80.5485 -0.740391 83.0083 2.22118C84.6067 4.14568 87.2114 4.91049 89.5965 4.15566C93.267 2.99408 97.0904 5.45123 97.5585 9.2725C97.8627 11.7557 99.6404 13.8073 102.055 14.4618C105.771 15.469 107.659 19.6031 105.987 23.0709C104.9 25.3243 105.286 28.0114 106.964 29.8674C109.545 32.7236 108.898 37.2222 105.617 39.2355C103.485 40.5437 102.357 43.0131 102.765 45.4813C103.392 49.2797 100.416 52.7145 96.5667 52.6341C94.0655 52.5818 91.7818 54.0494 90.7903 56.3463C89.2646 59.8809 84.9038 61.1613 81.7093 59.0127C79.6334 57.6165 76.9188 57.6165 74.8429 59.0127C71.6484 61.1613 67.2876 59.8809 65.7619 56.3463C64.7704 54.0494 62.4867 52.5818 59.9855 52.6341C56.1365 52.7145 53.1602 49.2797 53.7876 45.4813C54.1953 43.0131 53.0676 40.5437 50.9352 39.2355C47.6537 37.2222 47.0069 32.7236 49.5883 29.8674C51.2657 28.0114 51.6521 25.3243 50.5655 23.0709C48.8934 19.6031 50.7814 15.469 54.4971 14.4618C56.9117 13.8073 58.6895 11.7557 58.9937 9.2725C59.4618 5.45123 63.2852 2.99408 66.9556 4.15566C69.3408 4.91049 71.9455 4.14568 73.5439 2.22117Z" fill="white"/>
<path d="M89.5439 2.22117C92.0036 -0.740392 96.5485 -0.740391 99.0083 2.22118C100.607 4.14568 103.211 4.91049 105.597 4.15566C109.267 2.99408 113.09 5.45123 113.558 9.2725C113.863 11.7557 115.64 13.8073 118.055 14.4618C121.771 15.469 123.659 19.6031 121.987 23.0709C120.9 25.3243 121.286 28.0114 122.964 29.8674C125.545 32.7236 124.898 37.2222 121.617 39.2355C119.485 40.5437 118.357 43.0131 118.765 45.4813C119.392 49.2797 116.416 52.7145 112.567 52.6341C110.065 52.5818 107.782 54.0494 106.79 56.3463C105.265 59.8809 100.904 61.1613 97.7093 59.0127C95.6334 57.6165 92.9188 57.6165 90.8429 59.0127C87.6484 61.1613 83.2876 59.8809 81.7619 56.3463C80.7704 54.0494 78.4867 52.5818 75.9855 52.6341C72.1365 52.7145 69.1602 49.2797 69.7876 45.4813C70.1953 43.0131 69.0676 40.5437 66.9352 39.2355C63.6537 37.2222 63.0069 32.7236 65.5883 29.8674C67.2657 28.0114 67.6521 25.3243 66.5655 23.0709C64.8934 19.6031 66.7814 15.469 70.4971 14.4618C72.9117 13.8073 74.6895 11.7557 74.9937 9.2725C75.4618 5.45123 79.2852 2.99408 82.9556 4.15566C85.3408 4.91049 87.9455 4.14568 89.5439 2.22117Z" fill="white"/>
<path d="M105.544 2.22117C108.004 -0.740392 112.549 -0.740391 115.008 2.22118C116.607 4.14568 119.211 4.91049 121.597 4.15566C125.267 2.99408 129.09 5.45123 129.558 9.2725C129.863 11.7557 131.64 13.8073 134.055 14.4618C137.771 15.469 139.659 19.6031 137.987 23.0709C136.9 25.3243 137.286 28.0114 138.964 29.8674C141.545 32.7236 140.898 37.2222 137.617 39.2355C135.485 40.5437 134.357 43.0131 134.765 45.4813C135.392 49.2797 132.416 52.7145 128.567 52.6341C126.065 52.5818 123.782 54.0494 122.79 56.3463C121.265 59.8809 116.904 61.1613 113.709 59.0127C111.633 57.6165 108.919 57.6165 106.843 59.0127C103.648 61.1613 99.2876 59.8809 97.7619 56.3463C96.7704 54.0494 94.4867 52.5818 91.9855 52.6341C88.1365 52.7145 85.1602 49.2797 85.7876 45.4813C86.1953 43.0131 85.0676 40.5437 82.9352 39.2355C79.6537 37.2222 79.007 32.7236 81.5883 29.8674C83.2657 28.0114 83.6521 25.3243 82.5655 23.0709C80.8934 19.6031 82.7814 15.469 86.4971 14.4618C88.9117 13.8073 90.6895 11.7557 90.9937 9.2725C91.4618 5.45123 95.2852 2.99408 98.9556 4.15566C101.341 4.91049 103.945 4.14568 105.544 2.22117Z" fill="white"/>
<path d="M121.544 2.22117C124.004 -0.740392 128.549 -0.740391 131.008 2.22118C132.607 4.14568 135.211 4.91049 137.597 4.15566C141.267 2.99408 145.09 5.45123 145.558 9.2725C145.863 11.7557 147.64 13.8073 150.055 14.4618C153.771 15.469 155.659 19.6031 153.987 23.0709C152.9 25.3243 153.286 28.0114 154.964 29.8674C157.545 32.7236 156.898 37.2222 153.617 39.2355C151.485 40.5437 150.357 43.0131 150.765 45.4813C151.392 49.2797 148.416 52.7145 144.567 52.6341C142.065 52.5818 139.782 54.0494 138.79 56.3463C137.265 59.8809 132.904 61.1613 129.709 59.0127C127.633 57.6165 124.919 57.6165 122.843 59.0127C119.648 61.1613 115.288 59.8809 113.762 56.3463C112.77 54.0494 110.487 52.5818 107.985 52.6341C104.136 52.7145 101.16 49.2797 101.788 45.4813C102.195 43.0131 101.068 40.5437 98.9352 39.2355C95.6537 37.2222 95.007 32.7236 97.5883 29.8674C99.2657 28.0114 99.6521 25.3243 98.5655 23.0709C96.8934 19.6031 98.7814 15.469 102.497 14.4618C104.912 13.8073 106.689 11.7557 106.994 9.2725C107.462 5.45123 111.285 2.99408 114.956 4.15566C117.341 4.91049 119.945 4.14568 121.544 2.22117Z" fill="white"/>
<rect x="15" y="14" width="158" height="33" rx="16.5" fill="#F7F6F8"/>
<path d="M32.702 28.944H34.494V31.184H36.622V32.85H34.494V35.104H32.702V32.85H30.588V31.184H32.702V28.944ZM41.3491 31.366C41.8251 30.9833 42.1751 30.6333 42.3991 30.316C42.6231 29.9987 42.7351 29.6533 42.7351 29.28C42.7351 28.804 42.5904 28.44 42.3011 28.188C42.0211 27.9267 41.6431 27.796 41.1671 27.796C40.7097 27.796 40.3364 27.95 40.0471 28.258C39.7671 28.566 39.6271 28.9813 39.6271 29.504V29.658H37.5971V29.392C37.5971 28.776 37.7417 28.216 38.0311 27.712C38.3297 27.208 38.7497 26.816 39.2911 26.536C39.8324 26.2467 40.4577 26.102 41.1671 26.102C42.3151 26.102 43.2017 26.382 43.8271 26.942C44.4617 27.502 44.7791 28.2533 44.7791 29.196C44.7791 29.868 44.6111 30.4513 44.2751 30.946C43.9484 31.4313 43.4397 31.954 42.7491 32.514L40.5511 34.306H44.8211V36H37.6391V34.446L41.3491 31.366ZM45.7615 30.876C45.7615 29.9147 45.9295 29.0747 46.2655 28.356C46.6108 27.6373 47.0868 27.0867 47.6935 26.704C48.3095 26.312 49.0095 26.116 49.7935 26.116C50.5868 26.116 51.2868 26.312 51.8935 26.704C52.5095 27.0867 52.9855 27.6373 53.3215 28.356C53.6668 29.0747 53.8395 29.9147 53.8395 30.876V31.324C53.8395 32.304 53.6668 33.1533 53.3215 33.872C52.9855 34.5813 52.5095 35.1273 51.8935 35.51C51.2868 35.8927 50.5868 36.084 49.7935 36.084C49.0002 36.084 48.3002 35.8927 47.6935 35.51C47.0868 35.1273 46.6108 34.5813 46.2655 33.872C45.9295 33.1533 45.7615 32.304 45.7615 31.324V30.876ZM51.8235 30.946C51.8235 29.9567 51.6368 29.1913 51.2635 28.65C50.8995 28.0993 50.4095 27.824 49.7935 27.824C49.1868 27.824 48.6968 28.0993 48.3235 28.65C47.9595 29.1913 47.7775 29.9567 47.7775 30.946V31.254C47.7775 32.2433 47.9595 33.0133 48.3235 33.564C48.6968 34.1053 49.1868 34.376 49.7935 34.376C50.4095 34.376 50.8995 34.1053 51.2635 33.564C51.6368 33.0133 51.8235 32.2433 51.8235 31.254V30.946ZM67.1329 28.72C67.9076 28.72 68.5376 28.9767 69.0229 29.49C69.5083 30.0033 69.7509 30.8573 69.7509 32.052V36.014H67.7769V31.982C67.7769 30.89 67.3616 30.344 66.5309 30.344C66.1016 30.344 65.7563 30.498 65.4949 30.806C65.2336 31.1047 65.1029 31.5247 65.1029 32.066V36.014H63.1289V31.982C63.1289 30.89 62.7089 30.344 61.8689 30.344C61.4396 30.344 61.0943 30.5027 60.8329 30.82C60.5809 31.128 60.4549 31.548 60.4549 32.08V36.014H58.4809V28.804H60.2029L60.3849 29.7C60.6276 29.392 60.9169 29.154 61.2529 28.986C61.5889 28.818 62.0089 28.7293 62.5129 28.72C63.5396 28.72 64.2536 29.126 64.6549 29.938C64.9163 29.546 65.2569 29.2473 65.6769 29.042C66.1063 28.8273 66.5916 28.72 67.1329 28.72ZM74.5047 36.084C73.7487 36.084 73.0814 35.9347 72.5027 35.636C71.9334 35.328 71.49 34.894 71.1727 34.334C70.8647 33.774 70.7107 33.13 70.7107 32.402C70.7107 31.674 70.8647 31.03 71.1727 30.47C71.49 29.91 71.9334 29.4807 72.5027 29.182C73.0814 28.874 73.7487 28.72 74.5047 28.72C75.2607 28.72 75.9234 28.874 76.4927 29.182C77.0714 29.4807 77.5147 29.91 77.8227 30.47C78.14 31.03 78.2987 31.674 78.2987 32.402C78.2987 33.1393 78.14 33.788 77.8227 34.348C77.5147 34.8987 77.0714 35.328 76.4927 35.636C75.9234 35.9347 75.2607 36.084 74.5047 36.084ZM74.5047 34.474C75.0554 34.474 75.4894 34.2827 75.8067 33.9C76.1334 33.5173 76.2967 33.018 76.2967 32.402C76.2967 31.786 76.1334 31.2867 75.8067 30.904C75.4894 30.5213 75.0554 30.33 74.5047 30.33C73.9634 30.33 73.5294 30.5213 73.2027 30.904C72.8854 31.2867 72.7267 31.786 72.7267 32.402C72.7267 33.018 72.8854 33.5173 73.2027 33.9C73.5294 34.2827 73.9634 34.474 74.5047 34.474ZM83.7672 28.804V30.596H82.9832C82.4232 30.596 82.0126 30.764 81.7512 31.1C81.4899 31.436 81.3592 31.8933 81.3592 32.472V36H79.3852V28.804H81.1772L81.3592 29.882C81.5739 29.5273 81.8399 29.2613 82.1572 29.084C82.4746 28.8973 82.8992 28.804 83.4312 28.804H83.7672ZM84.1365 32.416C84.1365 31.6693 84.2858 31.0207 84.5845 30.47C84.8925 29.91 85.3171 29.4807 85.8585 29.182C86.4091 28.874 87.0438 28.72 87.7625 28.72C88.4905 28.72 89.1298 28.8647 89.6805 29.154C90.2405 29.434 90.6745 29.8353 90.9825 30.358C91.2998 30.8713 91.4631 31.478 91.4725 32.178C91.4725 32.43 91.4538 32.654 91.4165 32.85H86.1945V32.906C86.2411 33.4287 86.4091 33.8393 86.6985 34.138C86.9878 34.4367 87.3845 34.586 87.8885 34.586C88.2898 34.586 88.6211 34.502 88.8825 34.334C89.1531 34.1567 89.3305 33.9 89.4145 33.564H91.3605C91.2858 34.04 91.1038 34.4693 90.8145 34.852C90.5251 35.2347 90.1425 35.538 89.6665 35.762C89.1905 35.9767 88.6445 36.084 88.0285 36.084C87.2258 36.084 86.5305 35.9347 85.9425 35.636C85.3638 35.3373 84.9158 34.9127 84.5985 34.362C84.2905 33.802 84.1365 33.1533 84.1365 32.416ZM89.4985 31.562C89.4331 31.1233 89.2511 30.7873 88.9525 30.554C88.6631 30.3113 88.2945 30.19 87.8465 30.19C87.4171 30.19 87.0531 30.316 86.7545 30.568C86.4651 30.8107 86.2925 31.142 86.2365 31.562H89.4985ZM102.94 33.27C102.809 34.1473 102.436 34.838 101.82 35.342C101.213 35.8367 100.425 36.084 99.4539 36.084C98.7072 36.084 98.0539 35.9347 97.4939 35.636C96.9339 35.328 96.4999 34.894 96.1919 34.334C95.8932 33.774 95.7439 33.13 95.7439 32.402C95.7439 31.6647 95.8932 31.0207 96.1919 30.47C96.4999 29.91 96.9339 29.4807 97.4939 29.182C98.0632 28.874 98.7212 28.72 99.4679 28.72C100.429 28.72 101.213 28.9673 101.82 29.462C102.427 29.9473 102.8 30.624 102.94 31.492H100.896C100.812 31.1373 100.644 30.8573 100.392 30.652C100.14 30.4373 99.8272 30.33 99.4539 30.33C98.9406 30.33 98.5299 30.5213 98.2219 30.904C97.9139 31.2867 97.7599 31.786 97.7599 32.402C97.7599 33.018 97.9139 33.5173 98.2219 33.9C98.5299 34.2827 98.9406 34.474 99.4539 34.474C99.8366 34.474 100.154 34.3667 100.406 34.152C100.667 33.9373 100.835 33.6433 100.91 33.27H102.94ZM107.427 36.084C106.671 36.084 106.003 35.9347 105.425 35.636C104.855 35.328 104.412 34.894 104.095 34.334C103.787 33.774 103.633 33.13 103.633 32.402C103.633 31.674 103.787 31.03 104.095 30.47C104.412 29.91 104.855 29.4807 105.425 29.182C106.003 28.874 106.671 28.72 107.427 28.72C108.183 28.72 108.845 28.874 109.415 29.182C109.993 29.4807 110.437 29.91 110.745 30.47C111.062 31.03 111.221 31.674 111.221 32.402C111.221 33.1393 111.062 33.788 110.745 34.348C110.437 34.8987 109.993 35.328 109.415 35.636C108.845 35.9347 108.183 36.084 107.427 36.084ZM107.427 34.474C107.977 34.474 108.411 34.2827 108.729 33.9C109.055 33.5173 109.219 33.018 109.219 32.402C109.219 31.786 109.055 31.2867 108.729 30.904C108.411 30.5213 107.977 30.33 107.427 30.33C106.885 30.33 106.451 30.5213 106.125 30.904C105.807 31.2867 105.649 31.786 105.649 32.402C105.649 33.018 105.807 33.5173 106.125 33.9C106.451 34.2827 106.885 34.474 107.427 34.474ZM119.083 28.804V36H117.333L117.151 35.132C116.899 35.4307 116.605 35.664 116.269 35.832C115.933 36 115.522 36.084 115.037 36.084C114.197 36.084 113.511 35.8273 112.979 35.314C112.447 34.7913 112.181 33.9233 112.181 32.71V28.804H114.155V32.472C114.155 33.1253 114.267 33.62 114.491 33.956C114.724 34.2827 115.079 34.446 115.555 34.446C116.05 34.446 116.432 34.264 116.703 33.9C116.974 33.5267 117.109 33.0087 117.109 32.346V28.804H119.083ZM124.586 28.72C125.426 28.72 126.116 28.9813 126.658 29.504C127.199 30.0267 127.47 30.89 127.47 32.094V36H125.496V32.206C125.496 30.9647 125.01 30.344 124.04 30.344C123.526 30.344 123.13 30.5167 122.85 30.862C122.57 31.2073 122.43 31.6927 122.43 32.318V36H120.456V28.804H122.178L122.36 29.7C122.612 29.392 122.915 29.154 123.27 28.986C123.624 28.8087 124.063 28.72 124.586 28.72ZM129.175 30.47H127.985V28.804H129.175V26.788H131.149V28.804H132.787V30.47H131.149V33.62C131.149 33.872 131.201 34.054 131.303 34.166C131.415 34.278 131.597 34.334 131.849 34.334H132.871V36H131.233C129.861 36 129.175 35.314 129.175 33.942V30.47ZM138.086 28.804V30.596H137.302C136.742 30.596 136.331 30.764 136.07 31.1C135.808 31.436 135.678 31.8933 135.678 32.472V36H133.704V28.804H135.496L135.678 29.882C135.892 29.5273 136.158 29.2613 136.476 29.084C136.793 28.8973 137.218 28.804 137.75 28.804H138.086ZM139.961 25.808C140.288 25.808 140.559 25.9153 140.773 26.13C140.988 26.3353 141.095 26.5967 141.095 26.914C141.095 27.2313 140.988 27.4973 140.773 27.712C140.559 27.9267 140.288 28.034 139.961 28.034C139.635 28.034 139.359 27.9267 139.135 27.712C138.921 27.4973 138.813 27.2313 138.813 26.914C138.813 26.5967 138.921 26.3353 139.135 26.13C139.359 25.9153 139.635 25.808 139.961 25.808ZM138.967 28.804H140.941V36H138.967V28.804ZM142.037 32.416C142.037 31.6693 142.186 31.0207 142.485 30.47C142.793 29.91 143.218 29.4807 143.759 29.182C144.31 28.874 144.944 28.72 145.663 28.72C146.391 28.72 147.03 28.8647 147.581 29.154C148.141 29.434 148.575 29.8353 148.883 30.358C149.2 30.8713 149.364 31.478 149.373 32.178C149.373 32.43 149.354 32.654 149.317 32.85H144.095V32.906C144.142 33.4287 144.31 33.8393 144.599 34.138C144.888 34.4367 145.285 34.586 145.789 34.586C146.19 34.586 146.522 34.502 146.783 34.334C147.054 34.1567 147.231 33.9 147.315 33.564H149.261C149.186 34.04 149.004 34.4693 148.715 34.852C148.426 35.2347 148.043 35.538 147.567 35.762C147.091 35.9767 146.545 36.084 145.929 36.084C145.126 36.084 144.431 35.9347 143.843 35.636C143.264 35.3373 142.816 34.9127 142.499 34.362C142.191 33.802 142.037 33.1533 142.037 32.416ZM147.399 31.562C147.334 31.1233 147.152 30.7873 146.853 30.554C146.564 30.3113 146.195 30.19 145.747 30.19C145.318 30.19 144.954 30.316 144.655 30.568C144.366 30.8107 144.193 31.142 144.137 31.562H147.399ZM152.007 33.606C152.035 33.9233 152.189 34.18 152.469 34.376C152.749 34.572 153.108 34.67 153.547 34.67C153.967 34.67 154.298 34.6047 154.541 34.474C154.784 34.334 154.905 34.138 154.905 33.886C154.905 33.6993 154.849 33.5593 154.737 33.466C154.625 33.3727 154.466 33.3073 154.261 33.27C154.056 33.2233 153.72 33.172 153.253 33.116C152.618 33.032 152.091 32.9247 151.671 32.794C151.251 32.6633 150.915 32.458 150.663 32.178C150.411 31.898 150.285 31.5247 150.285 31.058C150.285 30.5913 150.411 30.1807 150.663 29.826C150.924 29.462 151.288 29.182 151.755 28.986C152.222 28.79 152.758 28.692 153.365 28.692C154.345 28.7013 155.134 28.9113 155.731 29.322C156.338 29.7327 156.664 30.302 156.711 31.03H154.835C154.807 30.7593 154.662 30.54 154.401 30.372C154.149 30.1947 153.822 30.106 153.421 30.106C153.048 30.106 152.744 30.176 152.511 30.316C152.287 30.456 152.175 30.6427 152.175 30.876C152.175 31.044 152.236 31.17 152.357 31.254C152.478 31.338 152.637 31.3987 152.833 31.436C153.029 31.4733 153.356 31.5153 153.813 31.562C154.784 31.674 155.526 31.884 156.039 32.192C156.562 32.4907 156.823 33.0087 156.823 33.746C156.823 34.2127 156.683 34.6233 156.403 34.978C156.132 35.3327 155.75 35.608 155.255 35.804C154.77 35.9907 154.205 36.084 153.561 36.084C152.562 36.084 151.75 35.8647 151.125 35.426C150.5 34.978 150.168 34.3713 150.131 33.606H152.007Z" fill="#55433C"/>
</svg>
