<svg width="19" height="17" viewBox="0 0 19 17" fill="none" xmlns="http://www.w3.org/2000/svg">
<path d="M0.418911 8.18836C0.291455 8.26259 0.185697 8.36895 0.11219 8.49682C0.0386837 8.6247 0 8.76961 0 8.91711C0 9.06461 0.0386837 9.20952 0.11219 9.3374C0.185697 9.46527 0.291455 9.57163 0.418911 9.64586L3.65474 11.4792V15.2192C3.65422 15.3675 3.6928 15.5133 3.76661 15.6419C3.84041 15.7705 3.94682 15.8774 4.07511 15.9518C4.20341 16.0262 4.34904 16.0654 4.49733 16.0655C4.64562 16.0656 4.79132 16.0267 4.91974 15.9525L8.16474 14.1192V8.96753L3.66391 6.31836L0.418911 8.18836Z" fill="#FE5719"/>
<path d="M17.9089 8.1888L14.6731 6.35547L10.1631 8.96797V14.1655L13.4081 15.9988C13.5365 16.0729 13.6822 16.1119 13.8305 16.1118C13.9788 16.1117 14.1244 16.0724 14.2527 15.9981C14.381 15.9237 14.4874 15.8168 14.5612 15.6882C14.635 15.5596 14.6736 15.4138 14.6731 15.2655V11.5163L17.9089 9.68297C18.0453 9.61156 18.1595 9.50419 18.2392 9.3725C18.3189 9.2408 18.361 9.08981 18.361 8.93589C18.361 8.78196 18.3189 8.63097 18.2392 8.49928C18.1595 8.36758 18.0453 8.26021 17.9089 8.1888Z" fill="#FE5719"/>
<path d="M12.3998 0.112988L9.16392 1.98299L5.92809 0.149655C5.79967 0.0755093 5.65397 0.0365364 5.50568 0.036667C5.35739 0.0367975 5.21175 0.0760268 5.08346 0.150399C4.95517 0.22477 4.84876 0.331655 4.77495 0.460274C4.70115 0.588894 4.66257 0.734699 4.66309 0.882988V4.58632L9.16392 7.18049L13.6648 4.58632V0.846322C13.6653 0.698033 13.6267 0.552227 13.5529 0.423608C13.4791 0.294989 13.3727 0.188104 13.2444 0.113732C13.1161 0.0393601 12.9705 0.000130885 12.8222 3.26949e-07C12.6739 -0.000130231 12.5282 0.0388424 12.3998 0.112988V0.112988Z" fill="#FE5719"/>
</svg>
