<svg width="97" height="97" viewBox="0 0 97 97" fill="none" xmlns="http://www.w3.org/2000/svg">
<g clip-path="url(#clip0_9689_5361)">
<path d="M48.2692 96.5385C74.9276 96.5385 96.5385 74.9276 96.5385 48.2692C96.5385 21.6109 74.9276 0 48.2692 0C21.6109 0 0 21.6109 0 48.2692C0 74.9276 21.6109 96.5385 48.2692 96.5385Z" fill="#F0F0F0"/>
<path d="M48.2697 0C29.1328 0 12.5976 11.1368 4.79004 27.2827H91.7491C83.9418 11.1368 67.4064 0 48.2697 0Z" fill="#FF9811"/>
<path d="M48.2697 96.5385C67.4064 96.5385 83.9418 85.4017 91.7493 69.2559H4.79004C12.5976 85.4017 29.1328 96.5385 48.2697 96.5385Z" fill="#6DA544"/>
<path d="M48.2697 65.0589C57.5421 65.0589 65.0589 57.5421 65.0589 48.2697C65.0589 38.9973 57.5421 31.4805 48.2697 31.4805C38.9973 31.4805 31.4805 38.9973 31.4805 48.2697C31.4805 57.5421 38.9973 65.0589 48.2697 65.0589Z" fill="#0052B4"/>
<path d="M48.2696 58.7629C54.0649 58.7629 58.7629 54.0649 58.7629 48.2696C58.7629 42.4744 54.0649 37.7764 48.2696 37.7764C42.4744 37.7764 37.7764 42.4744 37.7764 48.2696C37.7764 54.0649 42.4744 58.7629 48.2696 58.7629Z" fill="#F0F0F0"/>
<path d="M48.2694 35.3203L51.5066 42.6621L59.4831 41.7946L54.7437 48.2689L59.4831 54.7432L51.5066 53.8757L48.2694 61.2175L45.0322 53.8757L37.0557 54.743L41.7951 48.2689L37.0557 41.7946L45.0322 42.6621L48.2694 35.3203Z" fill="#0052B4"/>
</g>
<defs>
<clipPath id="clip0_9689_5361">
<rect width="96.5385" height="96.5385" fill="white"/>
</clipPath>
</defs>
</svg>
