<svg width="70" height="70" viewBox="0 0 70 70" fill="none" xmlns="http://www.w3.org/2000/svg">
<g clip-path="url(#clip0_9689_6097)">
<path d="M34.6154 69.2308C53.7329 69.2308 69.2308 53.7329 69.2308 34.6154C69.2308 15.4978 53.7329 0 34.6154 0C15.4978 0 0 15.4978 0 34.6154C0 53.7329 15.4978 69.2308 34.6154 69.2308Z" fill="#F0F0F0"/>
<path d="M69.2306 34.6155C69.2306 19.7323 59.8368 7.0441 46.6553 2.15332V67.0781C59.8368 62.1869 69.2306 49.4991 69.2306 34.6155V34.6155Z" fill="#FF9811"/>
<path d="M0 34.6155C0 49.4991 9.39375 62.1869 22.5753 67.078V2.15332C9.39375 7.0441 0 19.7323 0 34.6155V34.6155Z" fill="#6DA544"/>
</g>
<defs>
<clipPath id="clip0_9689_6097">
<rect width="69.2308" height="69.2308" fill="white"/>
</clipPath>
</defs>
</svg>
