<svg width="57" height="57" viewBox="0 0 57 57" fill="none" xmlns="http://www.w3.org/2000/svg">
<g clip-path="url(#clip0_9689_968)">
<path d="M28.2848 56.5696C43.906 56.5696 56.5696 43.906 56.5696 28.2848C56.5696 12.6635 43.906 0 28.2848 0C12.6635 0 0 12.6635 0 28.2848C0 43.906 12.6635 56.5696 28.2848 56.5696Z" fill="#F0F0F0"/>
<path d="M28.2848 0C17.071 0 7.3817 6.52594 2.80664 15.9871L53.7629 15.9871C49.1879 6.52594 39.4985 0 28.2848 0V0Z" fill="black"/>
<path d="M28.2848 56.5691C17.071 56.5691 7.3817 50.0432 2.80664 40.582H53.7629C49.1879 50.0432 39.4985 56.5691 28.2848 56.5691V56.5691Z" fill="#496E2D"/>
<path d="M55.2339 19.6768L1.33568 19.6768C0.46924 22.3913 0 25.2833 0 28.2852C0 31.287 0.46924 34.179 1.33568 36.8936H55.2338C56.1003 34.179 56.5696 31.287 56.5696 28.2852C56.5696 25.2833 56.1003 22.3913 55.2339 19.6768Z" fill="#A2001D"/>
<path d="M37.0926 13.0705L33.7429 11.5244L28.285 23.8825L22.8272 11.5244L19.4775 13.0705L26.2535 28.2845L19.4775 43.4985L22.8272 45.0445L28.285 32.6864L33.7429 45.0445L37.0926 43.4985L30.3166 28.2845L37.0926 13.0705Z" fill="#F0F0F0"/>
<path d="M30.5599 14.528C29.2632 13.1119 28.2848 12.2979 28.2848 12.2979C28.2848 12.2979 27.3064 13.1118 26.0098 14.528V42.0416C27.3064 43.458 28.2848 44.272 28.2848 44.272C28.2848 44.272 29.2632 43.4581 30.5599 42.0417V14.528Z" fill="#F0F0F0"/>
<path d="M22.1357 19.8038V36.7649C23.506 39.1929 25.1831 41.183 26.44 42.5024V14.0664C25.1831 15.3857 23.5059 17.3759 22.1357 19.8038V19.8038Z" fill="#A2001D"/>
<path d="M34.4332 19.8038C33.0628 17.3758 31.3858 15.3857 30.1289 14.0664V42.5024C31.3857 41.183 33.0628 39.1929 34.4332 36.7649V19.8038Z" fill="#A2001D"/>
<path d="M34.4336 19.8037V36.7649C35.8208 34.3066 36.8932 31.3998 36.8932 28.2844C36.8932 25.169 35.8208 22.2621 34.4336 19.8037Z" fill="black"/>
<path d="M22.1363 19.8037V36.7649C20.7491 34.3066 19.6768 31.3998 19.6768 28.2844C19.6768 25.169 20.7491 22.2621 22.1363 19.8037Z" fill="black"/>
</g>
<defs>
<clipPath id="clip0_9689_968">
<rect width="56.5696" height="56.5696" fill="white"/>
</clipPath>
</defs>
</svg>
