<svg width="20" height="20" viewBox="0 0 20 20" fill="none" xmlns="http://www.w3.org/2000/svg">
<path d="M3.33301 7.2219H6.11079V16.6663H3.33301V7.2219ZM4.71356 6.11079H4.69801C3.86912 6.11079 3.33301 5.49301 3.33301 4.72134C3.33301 3.93301 3.88579 3.33301 4.72967 3.33301C5.57467 3.33301 6.09523 3.93301 6.11079 4.72134C6.11079 5.49245 5.57467 6.11079 4.71356 6.11079ZM16.6663 16.6663H13.8886V11.6113C13.8886 10.3902 13.208 9.5569 12.1152 9.5569C11.2813 9.5569 10.8302 10.1191 10.6113 10.6625C10.5313 10.8569 10.5552 11.3947 10.5552 11.6663V16.6663H7.77745V7.2219H10.5552V8.67523C10.9558 8.05523 11.583 7.2219 13.1875 7.2219C15.1752 7.2219 16.6658 8.4719 16.6658 11.263L16.6663 16.6663Z" fill="#001140"/>
</svg>
