<svg width="55" height="55" viewBox="0 0 55 55" fill="none" xmlns="http://www.w3.org/2000/svg">
<g clip-path="url(#clip0_9689_2641)">
<path d="M27.3077 54.6154C42.3893 54.6154 54.6154 42.3893 54.6154 27.3077C54.6154 12.2261 42.3893 0 27.3077 0C12.2261 0 0 12.2261 0 27.3077C0 42.3893 12.2261 54.6154 27.3077 54.6154Z" fill="#F0F0F0"/>
<path d="M0 27.3073C0 39.0488 7.41063 49.0581 17.8094 52.9166V1.69824C7.41063 5.55652 0 15.5661 0 27.3073V27.3073Z" fill="#6DA544"/>
<path d="M54.6151 27.3073C54.6151 15.5661 47.2045 5.55652 36.8057 1.69824V52.9167C47.2045 49.0581 54.6151 39.0488 54.6151 27.3073V27.3073Z" fill="#6DA544"/>
</g>
<defs>
<clipPath id="clip0_9689_2641">
<rect width="54.6154" height="54.6154" fill="white"/>
</clipPath>
</defs>
</svg>
