<svg width="137" height="97" viewBox="0 0 137 97" fill="none" xmlns="http://www.w3.org/2000/svg">
<g clip-path="url(#clip0_9689_859)">
<path d="M82.7372 81.8692C112.488 73.8974 130.144 43.3171 122.172 13.5661C114.2 -16.1849 83.6199 -33.8405 53.8689 -25.8687C24.1179 -17.897 6.46238 12.6834 14.4341 42.4344C22.4059 72.1854 52.9862 89.8409 82.7372 81.8692Z" fill="#F0F0F0"/>
<path d="M20.0557 55.9902C26.2713 66.7199 35.8264 74.9026 46.9654 79.525L39.2791 50.8393L20.0557 55.9902Z" fill="#D80027"/>
<path d="M77.9985 82.9197C79.5783 82.639 81.1591 82.2925 82.7377 81.8695C107.627 75.2006 124.046 52.7084 124.082 28.1165L67.3848 43.3086L77.9985 82.9197Z" fill="#D80027"/>
<path d="M116.551 0.0107672C104.224 -21.2685 78.7578 -32.5374 53.8689 -25.8684C52.2902 -25.4454 50.748 -24.9551 49.2395 -24.4083L59.8533 15.2028L116.551 0.0107672Z" fill="#D80027"/>
<path d="M24.0613 -5.95266C16.7259 3.62011 12.5422 15.4839 12.5242 27.8839L31.7476 22.733L24.0613 -5.95266Z" fill="#D80027"/>
<path d="M119.833 6.66179L54.7097 24.1115L54.7095 24.1116L42.5011 -21.4506C37.8187 -19.0128 33.5784 -15.9589 29.8602 -12.4157L40.6565 27.8766L40.6566 27.8768L13.0071 35.2855C13.3235 37.666 13.7957 40.0528 14.4338 42.4342C15.0719 44.8156 15.8564 47.1187 16.7725 49.3383L44.4218 41.9297L44.422 41.9297L55.2183 82.2222C60.21 83.4314 65.4092 83.9564 70.6832 83.7262L58.475 38.1649L58.4749 38.1644L123.598 20.7146C123.282 18.3342 122.81 15.9473 122.172 13.5659C121.534 11.1845 120.749 8.8815 119.833 6.66179V6.66179Z" fill="#0052B4"/>
</g>
<defs>
<clipPath id="clip0_9689_859">
<rect width="111.538" height="111.538" fill="white" transform="translate(0 -11.4346) rotate(-15)"/>
</clipPath>
</defs>
</svg>
