<svg width="60" height="60" viewBox="0 0 60 60" fill="none" xmlns="http://www.w3.org/2000/svg">
<g clip-path="url(#clip0_9689_3270)">
<path d="M30 60C46.5685 60 60 46.5685 60 30C60 13.4315 46.5685 0 30 0C13.4315 0 0 13.4315 0 30C0 46.5685 13.4315 60 30 60Z" fill="#F0F0F0"/>
<path d="M0 29.9998C0 41.3711 6.32684 51.2639 15.6521 56.3521V3.64746C6.32684 8.73562 0 18.6285 0 29.9998Z" fill="#F0F0F0"/>
<path d="M30.0002 0C24.8029 0 19.9146 1.32223 15.6523 3.6477V56.3522C19.9146 58.6778 24.8029 60 30.0002 60C46.5686 60 60.0002 46.5684 60.0002 30C60.0002 13.4316 46.5686 0 30.0002 0Z" fill="#496E2D"/>
<path d="M42.8262 34.9612C39.0309 37.7035 33.731 36.8499 30.9888 33.0546C28.2464 29.2592 29.1001 23.9594 32.8954 21.2172C34.0788 20.3622 35.4084 19.8567 36.7611 19.6811C34.1587 19.2919 31.4077 19.8783 29.1065 21.5411C24.4354 24.9163 23.3846 31.4391 26.7597 36.1104C30.1348 40.7814 36.6577 41.8323 41.3291 38.4569C43.6305 36.7941 45.0509 34.3668 45.4984 31.7735C44.907 33.0024 44.0097 34.106 42.8262 34.9612V34.9612Z" fill="#F0F0F0"/>
<path d="M42.6633 19.5654L44.8012 21.8695L47.6531 20.5485L46.1223 23.2935L48.2602 25.5978L45.1763 24.9902L43.6455 27.7354L43.2704 24.6147L40.1865 24.0071L43.0385 22.6861L42.6633 19.5654Z" fill="#F0F0F0"/>
</g>
<defs>
<clipPath id="clip0_9689_3270">
<rect width="60" height="60" fill="white"/>
</clipPath>
</defs>
</svg>
