<svg width="67" height="67" viewBox="0 0 67 67" fill="none" xmlns="http://www.w3.org/2000/svg">
<g clip-path="url(#clip0_9689_6188)">
<path d="M58.3999 55.7695C63.6993 49.8494 66.9231 42.0327 66.9231 33.4619C66.9231 24.891 63.6991 17.0742 58.3998 11.1541L33.4615 8.72949L8.52328 11.1541C3.22394 17.0742 0 24.891 0 33.4619C0 42.0327 3.22381 49.8494 8.52315 55.7695L33.4615 58.1943L58.3999 55.7695Z" fill="#FFDA44"/>
<path d="M8.52344 11.1538H58.4001C52.2731 4.30896 43.3711 0 33.4617 0C23.5522 0 14.6503 4.30896 8.52344 11.1538Z" fill="black"/>
<path d="M0 33.4616L33.4615 36.3713L66.9231 33.4616C66.9231 29.5502 66.2498 25.7965 65.0163 22.3076H1.90678C0.673283 25.7965 0 29.5502 0 33.4616H0Z" fill="#D80027"/>
<path d="M1.90678 44.6157H65.0166C66.2498 41.1268 66.9231 37.3733 66.9231 33.4619H0C0 37.3733 0.673283 41.1268 1.90678 44.6157V44.6157Z" fill="black"/>
<path d="M58.4002 55.7695H8.52344C14.6503 62.6145 23.5522 66.9235 33.4618 66.9235C43.3714 66.9235 52.2734 62.6145 58.4002 55.7695Z" fill="#D80027"/>
<path d="M44.6278 33.4619C44.6278 39.6291 39.6291 44.6278 33.4619 44.6278C27.2946 44.6278 22.2959 39.6291 22.2959 33.4619C22.2959 27.2946 27.2946 22.2959 33.4619 22.2959C39.6291 22.2959 44.6278 27.2946 44.6278 33.4619Z" fill="#F0F0F0"/>
<path d="M37.5519 34.0305L33.4613 32.258C33.4613 32.258 34.4184 29.0814 34.4693 28.864C34.5066 28.7052 34.5265 28.5396 34.5265 28.3694C34.5265 27.7667 34.2822 27.2211 33.8872 26.8264L34.9158 25.7977C34.2577 25.1396 33.3484 24.7324 32.344 24.7324C31.3396 24.7324 30.4303 25.1394 29.7722 25.7977L30.8009 26.8264C30.4059 27.2213 30.1617 27.7668 30.1617 28.3694C30.1617 28.5898 30.195 28.8022 30.2558 29.0028L28.707 30.5515H31.522C31.522 30.5515 30.3581 32.2996 29.7228 33.7351C29.0874 35.1706 29.7315 36.923 31.1999 37.5758L32.049 37.9531L33.4613 39.2806V40.7354L32.0065 42.1902H34.9162V39.2805L36.2439 37.9529H38.9898C39.003 37.9256 39.0168 37.8989 39.0294 37.8709C39.6818 36.4027 39.0204 34.683 37.5519 34.0305Z" fill="black"/>
</g>
<defs>
<clipPath id="clip0_9689_6188">
<rect width="66.9231" height="66.9231" fill="white"/>
</clipPath>
</defs>
</svg>
