<svg width="92" height="92" viewBox="0 0 92 92" fill="none" xmlns="http://www.w3.org/2000/svg">
<g clip-path="url(#clip0_9689_8775)">
<path d="M45.5769 91.1539C70.7484 91.1539 91.1539 70.7484 91.1539 45.5769C91.1539 20.4055 70.7484 0 45.5769 0C20.4055 0 0 20.4055 0 45.5769C0 70.7484 20.4055 91.1539 45.5769 91.1539Z" fill="#F0F0F0"/>
<path d="M43.5957 45.5772H91.1542C91.1542 41.4635 90.6058 37.4784 89.5841 33.6875H43.5957V45.5772Z" fill="#D80027"/>
<path d="M43.5957 21.7979H84.4647C81.6747 17.2452 78.1074 13.2211 73.9482 9.9082H43.5957V21.7979Z" fill="#D80027"/>
<path d="M45.577 91.1541C56.3034 91.1541 66.1624 87.4467 73.9479 81.2461H17.2061C24.9915 87.4467 34.8506 91.1541 45.577 91.1541Z" fill="#D80027"/>
<path d="M6.68971 69.3565H84.4646C86.7045 65.7016 88.4415 61.7065 89.584 57.4668H1.57031C2.71276 61.7065 4.44985 65.7016 6.68971 69.3565V69.3565Z" fill="#D80027"/>
<path d="M21.1121 7.11748H25.2655L21.4021 9.9242L22.8778 14.4657L19.0147 11.659L15.1515 14.4657L16.4262 10.5423C13.0247 13.3758 10.0433 16.6954 7.58642 20.3943H8.91723L6.45804 22.1808C6.07491 22.82 5.70744 23.4693 5.35529 24.1282L6.52961 27.7425L4.33871 26.1507C3.7941 27.3045 3.29596 28.4843 2.8482 29.6887L4.14198 33.671H8.91723L5.05388 36.4777L6.52961 41.0192L2.66643 38.2125L0.352331 39.8939C0.120708 41.7558 0 43.6522 0 45.5769H45.5769C45.5769 20.4056 45.5769 17.4382 45.5769 0C36.5733 0 28.1802 2.61177 21.1121 7.11748V7.11748ZM22.8778 41.0192L19.0147 38.2125L15.1515 41.0192L16.6272 36.4777L12.7639 33.671H17.5391L19.0147 29.1295L20.4902 33.671H25.2655L21.4021 36.4777L22.8778 41.0192ZM21.4021 23.201L22.8778 27.7425L19.0147 24.9357L15.1515 27.7425L16.6272 23.201L12.7639 20.3943H17.5391L19.0147 15.8528L20.4902 20.3943H25.2655L21.4021 23.201ZM39.2261 41.0192L35.3629 38.2125L31.4997 41.0192L32.9754 36.4777L29.1121 33.671H33.8873L35.3629 29.1295L36.8384 33.671H41.6137L37.7503 36.4777L39.2261 41.0192ZM37.7503 23.201L39.2261 27.7425L35.3629 24.9357L31.4997 27.7425L32.9754 23.201L29.1121 20.3943H33.8873L35.3629 15.8528L36.8384 20.3943H41.6137L37.7503 23.201ZM37.7503 9.9242L39.2261 14.4657L35.3629 11.659L31.4997 14.4657L32.9754 9.9242L29.1121 7.11748H33.8873L35.3629 2.57599L36.8384 7.11748H41.6137L37.7503 9.9242Z" fill="#0052B4"/>
</g>
<defs>
<clipPath id="clip0_9689_8775">
<rect width="91.1539" height="91.1539" fill="white"/>
</clipPath>
</defs>
</svg>
