<svg width="121" height="121" viewBox="0 0 121 121" fill="none" xmlns="http://www.w3.org/2000/svg">
<g clip-path="url(#clip0_9689_888)">
<path d="M30.1885 90.5656C46.8612 107.238 73.893 107.238 90.5656 90.5656C107.238 73.893 107.238 46.8612 90.5656 30.1885C73.893 13.5159 46.8612 13.5159 30.1885 30.1885C13.5159 46.8612 13.5159 73.893 30.1885 90.5656Z" fill="#F0F0F0"/>
<path d="M54.8081 18.0502C49.3515 18.7641 44.0075 20.532 39.1032 23.3539L54.8081 39.0588L54.8081 18.0502Z" fill="#0052B4"/>
<path d="M97.4008 81.6512C100.223 76.7471 101.99 71.4029 102.704 65.9465L81.6961 65.9466L97.4008 81.6512Z" fill="#0052B4"/>
<path d="M23.3527 39.1055C20.531 44.0097 18.7631 49.3538 18.0492 54.8101L39.0572 54.81L23.3527 39.1055Z" fill="#0052B4"/>
<path d="M102.704 54.8084C101.99 49.3518 100.222 44.0079 97.4005 39.1035L81.6958 54.8083L102.704 54.8084Z" fill="#0052B4"/>
<path d="M18.0499 65.9463C18.7638 71.4029 20.5317 76.747 23.3534 81.6512L39.058 65.9466L18.0499 65.9463Z" fill="#0052B4"/>
<path d="M81.6507 23.3537C76.7465 20.532 71.4024 18.7641 65.9461 18.0502L65.9461 39.0583L81.6507 23.3537Z" fill="#0052B4"/>
<path d="M39.1041 97.4019C44.0083 100.224 49.3524 101.992 54.8087 102.705L54.8087 81.6973L39.1041 97.4019Z" fill="#0052B4"/>
<path d="M65.9454 81.6973L65.9453 102.706C71.4017 101.992 76.746 100.224 81.6501 97.4019L65.9454 81.6973Z" fill="#0052B4"/>
<path d="M94.2477 86.3725L68.2525 60.3773L68.2524 60.3772L94.2478 34.3818C93.1266 32.925 91.9002 31.5231 90.5656 30.1885C89.2308 28.8538 87.8292 27.6276 86.3725 26.5065L60.3773 52.5016L60.3772 52.5018L34.3818 26.5064C32.925 27.6276 31.5231 28.854 30.1885 30.1885C28.8538 31.5233 27.6276 32.925 26.5065 34.3817L52.5016 60.3768L52.5018 60.377L26.5064 86.3724C27.6276 87.8292 28.8538 89.2308 30.1885 90.5656C31.5231 91.9002 32.9248 93.1267 34.3817 94.2477L60.3768 68.2525L60.377 68.2524L86.3724 94.2478C87.8292 93.1266 89.2308 91.9004 90.5656 90.5656C91.9002 89.2311 93.1266 87.8292 94.2477 86.3725Z" fill="#D80027"/>
<path d="M60.377 76.1271L60.377 103.069C61.6159 103.07 62.8544 103.013 64.0896 102.906L64.0896 79.8394L60.3771 76.127L60.377 76.1271Z" fill="#D80027"/>
<path d="M44.6267 60.3766L44.6265 60.3763L17.6844 60.3763C17.6841 61.6152 17.7406 62.8538 17.8479 64.0889L40.9146 64.0887L44.6267 60.3766Z" fill="#D80027"/>
<path d="M60.3778 44.6274L60.3781 44.6271L60.3782 17.6847C59.1393 17.6844 57.9007 17.7409 56.6656 17.8482L56.6656 40.9149L60.3779 44.6272L60.3778 44.6274Z" fill="#D80027"/>
<path d="M76.1264 60.3776L103.069 60.3775C103.069 59.1386 103.013 57.9001 102.905 56.665L79.8389 56.6652L76.1264 60.3776Z" fill="#D80027"/>
</g>
<defs>
<clipPath id="clip0_9689_888">
<rect width="85.3861" height="85.3861" fill="white" transform="translate(60.3771) rotate(45)"/>
</clipPath>
</defs>
</svg>
